M48
;Layer_Color=9474304
;FILE_FORMAT=4:4
METRIC,LZ
;TYPE=PLATED
T1F00S00C0.7620
T2F00S00C1.0200
T3F00S00C1.2700
T4F00S00C1.2954
T5F00S00C1.8000
T6F00S00C2.3000
T7F00S00C3.0000
T8F00S00C3.7850
%
T01
X013Y0044402
Y0074374
Y0101806
Y0132032
T02
X0183134Y0026726
Y0030226
X0187706
Y0026726
X018942Y0119506
Y0123006
Y0126506
Y0130006
X0184848
Y0126491
X018482Y0123006
Y0119506
T03
X01613918Y00472154
X01648462Y00548354
X01611538Y00771646
X01121082Y00722846
X01086538Y00646646
Y00946646
X01121082Y01022846
X01611538Y01046646
X01646082Y01122846
Y00847846
X01611538Y01346646
X01646082Y01422846
X01121082Y01322846
X01086538Y01246646
T04
X01395066Y00450056
X01375Y0051
X01395066Y00569944
X01516986
X01395066Y00750056
X00991986Y00744944
X00870066
X0085Y00685
X00870066Y00625056
Y00925056
X0085Y00985
X00870066Y01044944
X00991986
X01395066Y01025056
X01375Y01085
X01395066Y01144944
X01516986
Y00869944
X01395066
X01375Y0081
X01395066Y01325056
X01375Y01385
X01395066Y01444944
X01516986
X00991986Y01344944
X00870066
X0085Y01285
X00870066Y01225056
T05
X0182039Y00525
X01875
Y0071
X0182039
Y00905
X01875
Y0096215
X0182039
Y010193
X01875
Y014707
X0182039
Y0152785
X01875
Y01585
X0182039
T06
X0186309Y0024226
Y0032726
X0188Y0117006
Y01325
T07
X0066888Y0020044
X0167538
X0187825Y004633
X0187881Y005867
X0187825Y006483
X0187881Y007717
X0187825Y008436
Y01081
Y014093
X0066888Y0160044
X0167538
X0187825Y016467
T08
X0163119Y00510254
X0110381Y00684746
Y00984746
X0162881Y01084746
Y00809746
Y01384746
X0110381Y01284746
M30
