G04 Layer_Color=65535*
%FSLAX44Y44*%
%MOMM*%
G71*
G01*
G75*
%ADD55C,0.2540*%
%ADD56C,0.0051*%
%ADD57C,0.2032*%
D55*
X1593090Y497554D02*
Y596614D01*
X1669290Y423132D02*
Y524224D01*
X1631444Y423132D02*
X1669290D01*
X1593090Y596614D02*
X1626364D01*
X1666910Y723386D02*
Y822446D01*
X1590710Y795776D02*
Y896868D01*
X1628556D01*
X1633636Y723386D02*
X1666910D01*
Y1298386D02*
Y1397446D01*
X1590710Y1370776D02*
Y1471868D01*
X1628556D01*
X1633636Y1298386D02*
X1666910D01*
X1141910Y1198386D02*
Y1297446D01*
X1065710Y1270776D02*
Y1371868D01*
X1103556D01*
X1108636Y1198386D02*
X1141910D01*
X1666910Y998386D02*
Y1097446D01*
X1590710Y1070776D02*
Y1171868D01*
X1628556D01*
X1633636Y998386D02*
X1666910D01*
X1141910Y598386D02*
Y697446D01*
X1065710Y670776D02*
Y771868D01*
X1103556D01*
X1108636Y598386D02*
X1141910D01*
Y898386D02*
Y997446D01*
X1065710Y970776D02*
Y1071868D01*
X1103556D01*
X1108636Y898386D02*
X1141910D01*
X1352140Y429990D02*
X1572104D01*
Y590010D01*
X1351886D02*
X1572104D01*
X1351886Y429990D02*
Y590010D01*
X1352140Y729990D02*
X1572104D01*
Y890010D01*
X1351886D02*
X1572104D01*
X1351886Y729990D02*
Y890010D01*
X1352140Y1304990D02*
X1572104D01*
Y1465010D01*
X1351886D02*
X1572104D01*
X1351886Y1304990D02*
Y1465010D01*
X827140Y1204990D02*
X1047104D01*
Y1365010D01*
X826886D02*
X1047104D01*
X826886Y1204990D02*
Y1365010D01*
X1352140Y1004990D02*
X1572104D01*
Y1165010D01*
X1351886D02*
X1572104D01*
X1351886Y1004990D02*
Y1165010D01*
X827140Y604990D02*
X1047104D01*
Y765010D01*
X826886D02*
X1047104D01*
X826886Y604990D02*
Y765010D01*
X827140Y904990D02*
X1047104D01*
Y1065010D01*
X826886D02*
X1047104D01*
X826886Y904990D02*
Y1065010D01*
X1316650Y476030D02*
Y505240D01*
X1311570Y470950D02*
X1316650Y476030D01*
X1289980Y470950D02*
X1311570D01*
X1284900Y476030D02*
X1289980Y470950D01*
X1284900Y476030D02*
Y505240D01*
Y521750D02*
Y553500D01*
X1316650D01*
Y521750D02*
Y553500D01*
Y821750D02*
Y853500D01*
X1284900D02*
X1316650D01*
X1284900Y821750D02*
Y853500D01*
Y776030D02*
Y805240D01*
Y776030D02*
X1289980Y770950D01*
X1311570D01*
X1316650Y776030D01*
Y805240D01*
Y1351030D02*
Y1380240D01*
X1311570Y1345950D02*
X1316650Y1351030D01*
X1289980Y1345950D02*
X1311570D01*
X1284900Y1351030D02*
X1289980Y1345950D01*
X1284900Y1351030D02*
Y1380240D01*
Y1396750D02*
Y1428500D01*
X1316650D01*
Y1396750D02*
Y1428500D01*
X791650Y1296750D02*
Y1328500D01*
X759900D02*
X791650D01*
X759900Y1296750D02*
Y1328500D01*
Y1251030D02*
Y1280240D01*
Y1251030D02*
X764980Y1245950D01*
X786570D01*
X791650Y1251030D01*
Y1280240D01*
X1316650Y1051030D02*
Y1080240D01*
X1311570Y1045950D02*
X1316650Y1051030D01*
X1289980Y1045950D02*
X1311570D01*
X1284900Y1051030D02*
X1289980Y1045950D01*
X1284900Y1051030D02*
Y1080240D01*
Y1096750D02*
Y1128500D01*
X1316650D01*
Y1096750D02*
Y1128500D01*
X791650Y696750D02*
Y728500D01*
X759900D02*
X791650D01*
X759900Y696750D02*
Y728500D01*
Y651030D02*
Y680240D01*
Y651030D02*
X764980Y645950D01*
X786570D01*
X791650Y651030D01*
Y680240D01*
Y951030D02*
Y980240D01*
X786570Y945950D02*
X791650Y951030D01*
X764980Y945950D02*
X786570D01*
X759900Y951030D02*
X764980Y945950D01*
X759900Y951030D02*
Y980240D01*
Y996750D02*
Y1028500D01*
X791650D01*
Y996750D02*
Y1028500D01*
X1077137Y1095993D02*
X1066980D01*
Y1088375D01*
X1072058D01*
X1066980D01*
Y1080758D01*
X1082215Y1095993D02*
X1092372D01*
Y1093454D01*
X1082215Y1083297D01*
Y1080758D01*
X1810000Y1640000D02*
Y1655235D01*
X1817617D01*
X1820157Y1652696D01*
Y1647617D01*
X1817617Y1645078D01*
X1810000D01*
X1835392Y1655235D02*
X1830313Y1652696D01*
X1825235Y1647617D01*
Y1642539D01*
X1827774Y1640000D01*
X1832853D01*
X1835392Y1642539D01*
Y1645078D01*
X1832853Y1647617D01*
X1825235D01*
X1800000Y1315060D02*
Y1330295D01*
X1807617D01*
X1810157Y1327756D01*
Y1322677D01*
X1807617Y1320138D01*
X1800000D01*
X1825392Y1330295D02*
X1815235D01*
Y1322677D01*
X1820313Y1325217D01*
X1822853D01*
X1825392Y1322677D01*
Y1317599D01*
X1822853Y1315060D01*
X1817774D01*
X1815235Y1317599D01*
X1805000Y1075000D02*
Y1090235D01*
X1812617D01*
X1815157Y1087696D01*
Y1082617D01*
X1812617Y1080078D01*
X1805000D01*
X1827853Y1075000D02*
Y1090235D01*
X1820235Y1082617D01*
X1830392D01*
X1821180Y358140D02*
Y373375D01*
X1828797D01*
X1831337Y370836D01*
Y365757D01*
X1828797Y363218D01*
X1821180D01*
X1836415Y370836D02*
X1838954Y373375D01*
X1844033D01*
X1846572Y370836D01*
Y368297D01*
X1844033Y365757D01*
X1841493D01*
X1844033D01*
X1846572Y363218D01*
Y360679D01*
X1844033Y358140D01*
X1838954D01*
X1836415Y360679D01*
X1810000Y580000D02*
Y595235D01*
X1817617D01*
X1820157Y592696D01*
Y587617D01*
X1817617Y585078D01*
X1810000D01*
X1835392Y580000D02*
X1825235D01*
X1835392Y590157D01*
Y592696D01*
X1832853Y595235D01*
X1827774D01*
X1825235Y592696D01*
X1810000Y765000D02*
Y780235D01*
X1817617D01*
X1820157Y777696D01*
Y772617D01*
X1817617Y770078D01*
X1810000D01*
X1825235Y765000D02*
X1830313D01*
X1827774D01*
Y780235D01*
X1825235Y777696D01*
X828156Y1089135D02*
Y1073900D01*
Y1078978D01*
X838313Y1089135D01*
X830695Y1081517D01*
X838313Y1073900D01*
X843391Y1089135D02*
X853548D01*
Y1086596D01*
X843391Y1076439D01*
Y1073900D01*
X828156Y789135D02*
Y773900D01*
Y778978D01*
X838313Y789135D01*
X830695Y781517D01*
X838313Y773900D01*
X853548Y789135D02*
X848469Y786596D01*
X843391Y781517D01*
Y776439D01*
X845930Y773900D01*
X851009D01*
X853548Y776439D01*
Y778978D01*
X851009Y781517D01*
X843391D01*
X1353156Y1189135D02*
Y1173900D01*
Y1178978D01*
X1363313Y1189135D01*
X1355695Y1181518D01*
X1363313Y1173900D01*
X1378548Y1189135D02*
X1368391D01*
Y1181518D01*
X1373469Y1184057D01*
X1376009D01*
X1378548Y1181518D01*
Y1176439D01*
X1376009Y1173900D01*
X1370930D01*
X1368391Y1176439D01*
X828156Y1389135D02*
Y1373900D01*
Y1378978D01*
X838313Y1389135D01*
X830695Y1381517D01*
X838313Y1373900D01*
X851009D02*
Y1389135D01*
X843391Y1381517D01*
X853548D01*
X1353156Y1489135D02*
Y1473900D01*
Y1478978D01*
X1363313Y1489135D01*
X1355695Y1481517D01*
X1363313Y1473900D01*
X1368391Y1486596D02*
X1370930Y1489135D01*
X1376009D01*
X1378548Y1486596D01*
Y1484057D01*
X1376009Y1481517D01*
X1373469D01*
X1376009D01*
X1378548Y1478978D01*
Y1476439D01*
X1376009Y1473900D01*
X1370930D01*
X1368391Y1476439D01*
X1353156Y914135D02*
Y898900D01*
Y903978D01*
X1363313Y914135D01*
X1355695Y906517D01*
X1363313Y898900D01*
X1378548D02*
X1368391D01*
X1378548Y909057D01*
Y911596D01*
X1376009Y914135D01*
X1370930D01*
X1368391Y911596D01*
X1353156Y614135D02*
Y598900D01*
Y603978D01*
X1363313Y614135D01*
X1355695Y606517D01*
X1363313Y598900D01*
X1368391D02*
X1373469D01*
X1370930D01*
Y614135D01*
X1368391Y611596D01*
X1077137Y795993D02*
X1066980D01*
Y788375D01*
X1072058D01*
X1066980D01*
Y780758D01*
X1092372Y795993D02*
X1087293Y793454D01*
X1082215Y788375D01*
Y783297D01*
X1084754Y780758D01*
X1089833D01*
X1092372Y783297D01*
Y785836D01*
X1089833Y788375D01*
X1082215D01*
X1602137Y1195993D02*
X1591980D01*
Y1188376D01*
X1597058D01*
X1591980D01*
Y1180758D01*
X1617372Y1195993D02*
X1607215D01*
Y1188376D01*
X1612293Y1190915D01*
X1614833D01*
X1617372Y1188376D01*
Y1183297D01*
X1614833Y1180758D01*
X1609754D01*
X1607215Y1183297D01*
X1077137Y1395993D02*
X1066980D01*
Y1388376D01*
X1072058D01*
X1066980D01*
Y1380758D01*
X1089833D02*
Y1395993D01*
X1082215Y1388376D01*
X1092372D01*
X1602137Y1495993D02*
X1591980D01*
Y1488376D01*
X1597058D01*
X1591980D01*
Y1480758D01*
X1607215Y1493454D02*
X1609754Y1495993D01*
X1614833D01*
X1617372Y1493454D01*
Y1490915D01*
X1614833Y1488376D01*
X1612293D01*
X1614833D01*
X1617372Y1485836D01*
Y1483297D01*
X1614833Y1480758D01*
X1609754D01*
X1607215Y1483297D01*
X1602137Y920993D02*
X1591980D01*
Y913375D01*
X1597058D01*
X1591980D01*
Y905758D01*
X1617372D02*
X1607215D01*
X1617372Y915915D01*
Y918454D01*
X1614833Y920993D01*
X1609754D01*
X1607215Y918454D01*
X1604425Y620719D02*
X1594268D01*
Y613102D01*
X1599346D01*
X1594268D01*
Y605484D01*
X1609503D02*
X1614581D01*
X1612042D01*
Y620719D01*
X1609503Y618180D01*
X761284Y1052593D02*
Y1037358D01*
X768902D01*
X771441Y1039897D01*
Y1050054D01*
X768902Y1052593D01*
X761284D01*
X776519D02*
X786676D01*
Y1050054D01*
X776519Y1039897D01*
Y1037358D01*
X761284Y752593D02*
Y737358D01*
X768902D01*
X771441Y739897D01*
Y750054D01*
X768902Y752593D01*
X761284D01*
X786676D02*
X781597Y750054D01*
X776519Y744975D01*
Y739897D01*
X779058Y737358D01*
X784137D01*
X786676Y739897D01*
Y742436D01*
X784137Y744975D01*
X776519D01*
X1286284Y1152593D02*
Y1137358D01*
X1293902D01*
X1296441Y1139897D01*
Y1150054D01*
X1293902Y1152593D01*
X1286284D01*
X1311676D02*
X1301519D01*
Y1144975D01*
X1306597Y1147515D01*
X1309137D01*
X1311676Y1144975D01*
Y1139897D01*
X1309137Y1137358D01*
X1304058D01*
X1301519Y1139897D01*
X761284Y1352593D02*
Y1337358D01*
X768902D01*
X771441Y1339897D01*
Y1350054D01*
X768902Y1352593D01*
X761284D01*
X784137Y1337358D02*
Y1352593D01*
X776519Y1344975D01*
X786676D01*
X1286284Y1452667D02*
Y1437432D01*
X1293902D01*
X1296441Y1439971D01*
Y1450128D01*
X1293902Y1452667D01*
X1286284D01*
X1301519Y1450128D02*
X1304058Y1452667D01*
X1309137D01*
X1311676Y1450128D01*
Y1447589D01*
X1309137Y1445049D01*
X1306597D01*
X1309137D01*
X1311676Y1442510D01*
Y1439971D01*
X1309137Y1437432D01*
X1304058D01*
X1301519Y1439971D01*
X1286284Y877593D02*
Y862358D01*
X1293902D01*
X1296441Y864897D01*
Y875054D01*
X1293902Y877593D01*
X1286284D01*
X1311676Y862358D02*
X1301519D01*
X1311676Y872515D01*
Y875054D01*
X1309137Y877593D01*
X1304058D01*
X1301519Y875054D01*
X1286284Y577593D02*
Y562358D01*
X1293902D01*
X1296441Y564897D01*
Y575054D01*
X1293902Y577593D01*
X1286284D01*
X1301519Y562358D02*
X1306597D01*
X1304058D01*
Y577593D01*
X1301519Y575054D01*
X779780Y187957D02*
X784858Y177800D01*
X789937Y187957D01*
X795015Y177800D02*
X800093D01*
X797554D01*
Y193035D01*
X795015Y190496D01*
X807711Y177800D02*
Y180339D01*
X810250D01*
Y177800D01*
X807711D01*
X820407Y190496D02*
X822946Y193035D01*
X828024D01*
X830564Y190496D01*
Y180339D01*
X828024Y177800D01*
X822946D01*
X820407Y180339D01*
Y190496D01*
X779780Y205740D02*
Y220975D01*
X787398D01*
X789937Y218436D01*
Y213358D01*
X787398Y210818D01*
X779780D01*
X797554Y205740D02*
X802633D01*
X805172Y208279D01*
Y213358D01*
X802633Y215897D01*
X797554D01*
X795015Y213358D01*
Y208279D01*
X797554Y205740D01*
X810250Y215897D02*
Y208279D01*
X812789Y205740D01*
X815329Y208279D01*
X817868Y205740D01*
X820407Y208279D01*
Y215897D01*
X833103Y205740D02*
X828024D01*
X825485Y208279D01*
Y213358D01*
X828024Y215897D01*
X833103D01*
X835642Y213358D01*
Y210818D01*
X825485D01*
X840720Y215897D02*
Y205740D01*
Y210818D01*
X843260Y213358D01*
X845799Y215897D01*
X848338D01*
X871190Y220975D02*
Y205740D01*
X878808D01*
X881347Y208279D01*
Y218436D01*
X878808Y220975D01*
X871190D01*
X886425Y205740D02*
X891504D01*
X888965D01*
Y215897D01*
X886425D01*
X899121Y205740D02*
X906739D01*
X909278Y208279D01*
X906739Y210818D01*
X901661D01*
X899121Y213358D01*
X901661Y215897D01*
X909278D01*
X916896Y218436D02*
Y215897D01*
X914357D01*
X919435D01*
X916896D01*
Y208279D01*
X919435Y205740D01*
X927052Y215897D02*
Y205740D01*
Y210818D01*
X929592Y213358D01*
X932131Y215897D01*
X934670D01*
X942287Y205740D02*
X947366D01*
X944827D01*
Y215897D01*
X942287D01*
X954983Y220975D02*
Y205740D01*
X962601D01*
X965140Y208279D01*
Y210818D01*
Y213358D01*
X962601Y215897D01*
X954983D01*
X970218D02*
Y208279D01*
X972758Y205740D01*
X980375D01*
Y215897D01*
X987993Y218436D02*
Y215897D01*
X985453D01*
X990532D01*
X987993D01*
Y208279D01*
X990532Y205740D01*
X998149D02*
X1003228D01*
X1000688D01*
Y215897D01*
X998149D01*
X1013384Y205740D02*
X1018463D01*
X1021002Y208279D01*
Y213358D01*
X1018463Y215897D01*
X1013384D01*
X1010845Y213358D01*
Y208279D01*
X1013384Y205740D01*
X1026080D02*
Y215897D01*
X1033698D01*
X1036237Y213358D01*
Y205740D01*
X1056550D02*
Y220975D01*
X1064168D01*
X1066707Y218436D01*
Y213358D01*
X1064168Y210818D01*
X1056550D01*
X1081942Y218436D02*
X1079403Y220975D01*
X1074325D01*
X1071786Y218436D01*
Y208279D01*
X1074325Y205740D01*
X1079403D01*
X1081942Y208279D01*
X1087021Y220975D02*
Y205740D01*
X1094638D01*
X1097177Y208279D01*
Y210818D01*
X1094638Y213358D01*
X1087021D01*
X1094638D01*
X1097177Y215897D01*
Y218436D01*
X1094638Y220975D01*
X1087021D01*
X1945157Y1595235D02*
X1935000D01*
Y1587617D01*
X1940078D01*
X1935000D01*
Y1580000D01*
X1952774Y1590157D02*
X1957853D01*
X1960392Y1587617D01*
Y1580000D01*
X1952774D01*
X1950235Y1582539D01*
X1952774Y1585078D01*
X1960392D01*
X1965470Y1580000D02*
Y1590157D01*
X1973088D01*
X1975627Y1587617D01*
Y1580000D01*
X1980705D02*
X1988323D01*
X1990862Y1582539D01*
X1988323Y1585078D01*
X1983244D01*
X1980705Y1587617D01*
X1983244Y1590157D01*
X1990862D01*
X1995940Y1587617D02*
X2006097D01*
X2001019Y1592696D02*
Y1582539D01*
X1965000Y1550235D02*
X1970078D01*
X1967539D01*
Y1535000D01*
X1965000D01*
X1970078D01*
X1987853Y1547696D02*
X1985313Y1550235D01*
X1980235D01*
X1977696Y1547696D01*
Y1537539D01*
X1980235Y1535000D01*
X1985313D01*
X1987853Y1537539D01*
Y1542617D01*
X1982774D01*
X1992931Y1535000D02*
Y1550235D01*
X2003088Y1535000D01*
Y1550235D01*
X1925000Y1480000D02*
Y1495235D01*
X1930078Y1490157D01*
X1935157Y1495235D01*
Y1480000D01*
X1942774Y1490157D02*
X1947853D01*
X1950392Y1487617D01*
Y1480000D01*
X1942774D01*
X1940235Y1482539D01*
X1942774Y1485078D01*
X1950392D01*
X1955470Y1480000D02*
X1963088D01*
X1965627Y1482539D01*
X1963088Y1485078D01*
X1958009D01*
X1955470Y1487617D01*
X1958009Y1490157D01*
X1965627D01*
X1973244Y1492696D02*
Y1490157D01*
X1970705D01*
X1975784D01*
X1973244D01*
Y1482539D01*
X1975784Y1480000D01*
X1991019D02*
X1985940D01*
X1983401Y1482539D01*
Y1487617D01*
X1985940Y1490157D01*
X1991019D01*
X1993558Y1487617D01*
Y1485078D01*
X1983401D01*
X1998636Y1490157D02*
Y1480000D01*
Y1485078D01*
X2001175Y1487617D01*
X2003714Y1490157D01*
X2006254D01*
X1970157Y1045235D02*
X1960000D01*
Y1030000D01*
X1970157D01*
X1960000Y1037617D02*
X1965078D01*
X1985392Y1042696D02*
X1982853Y1045235D01*
X1977774D01*
X1975235Y1042696D01*
Y1032539D01*
X1977774Y1030000D01*
X1982853D01*
X1985392Y1032539D01*
X1990470Y1045235D02*
Y1032539D01*
X1993009Y1030000D01*
X1998088D01*
X2000627Y1032539D01*
Y1045235D01*
X1982617Y985235D02*
X1977539D01*
X1975000Y982696D01*
Y972539D01*
X1977539Y970000D01*
X1982617D01*
X1985157Y972539D01*
Y982696D01*
X1982617Y985235D01*
X2000392Y970000D02*
X1990235D01*
X2000392Y980157D01*
Y982696D01*
X1997853Y985235D01*
X1992774D01*
X1990235Y982696D01*
X1925157Y922696D02*
X1922617Y925235D01*
X1917539D01*
X1915000Y922696D01*
Y920157D01*
X1917539Y917617D01*
X1922617D01*
X1925157Y915078D01*
Y912539D01*
X1922617Y910000D01*
X1917539D01*
X1915000Y912539D01*
X1940392Y925235D02*
X1930235D01*
Y910000D01*
X1940392D01*
X1930235Y917617D02*
X1935313D01*
X1945470Y910000D02*
Y925235D01*
X1955627Y910000D01*
Y925235D01*
X1970862Y922696D02*
X1968323Y925235D01*
X1963244D01*
X1960705Y922696D01*
Y920157D01*
X1963244Y917617D01*
X1968323D01*
X1970862Y915078D01*
Y912539D01*
X1968323Y910000D01*
X1963244D01*
X1960705Y912539D01*
X1983558Y925235D02*
X1978479D01*
X1975940Y922696D01*
Y912539D01*
X1978479Y910000D01*
X1983558D01*
X1986097Y912539D01*
Y922696D01*
X1983558Y925235D01*
X1991175Y910000D02*
Y925235D01*
X1998793D01*
X2001332Y922696D01*
Y917617D01*
X1998793Y915078D01*
X1991175D01*
X1996254D02*
X2001332Y910000D01*
X1915157Y262696D02*
X1912617Y265235D01*
X1907539D01*
X1905000Y262696D01*
Y252539D01*
X1907539Y250000D01*
X1912617D01*
X1915157Y252539D01*
X1920235Y265235D02*
Y250000D01*
Y257617D01*
X1922774Y260157D01*
X1927853D01*
X1930392Y257617D01*
Y250000D01*
X1938009Y260157D02*
X1943088D01*
X1945627Y257617D01*
Y250000D01*
X1938009D01*
X1935470Y252539D01*
X1938009Y255078D01*
X1945627D01*
X1950705Y250000D02*
X1958323D01*
X1960862Y252539D01*
X1958323Y255078D01*
X1953244D01*
X1950705Y257617D01*
X1953244Y260157D01*
X1960862D01*
X1965940Y250000D02*
X1973558D01*
X1976097Y252539D01*
X1973558Y255078D01*
X1968479D01*
X1965940Y257617D01*
X1968479Y260157D01*
X1976097D01*
X1981175Y250000D02*
X1986254D01*
X1983714D01*
Y260157D01*
X1981175D01*
X1993871Y250000D02*
X2001489D01*
X2004028Y252539D01*
X2001489Y255078D01*
X1996410D01*
X1993871Y257617D01*
X1996410Y260157D01*
X2004028D01*
X1960000Y530235D02*
Y515000D01*
Y520078D01*
X1970157Y530235D01*
X1962539Y522617D01*
X1970157Y515000D01*
X1975235D02*
X1980313D01*
X1977774D01*
Y525157D01*
X1975235D01*
X1987931Y515000D02*
X1993009D01*
X1990470D01*
Y530235D01*
X1987931D01*
X2000627Y515000D02*
X2005705D01*
X2003166D01*
Y530235D01*
X2000627D01*
X1960000Y720235D02*
Y705000D01*
Y710078D01*
X1970157Y720235D01*
X1962539Y712617D01*
X1970157Y705000D01*
X1975235D02*
X1980313D01*
X1977774D01*
Y715157D01*
X1975235D01*
X1987931Y705000D02*
X1993009D01*
X1990470D01*
Y720235D01*
X1987931D01*
X2000627Y705000D02*
X2005705D01*
X2003166D01*
Y720235D01*
X2000627D01*
X1960000Y1470235D02*
Y1455000D01*
Y1460078D01*
X1970157Y1470235D01*
X1962539Y1462617D01*
X1970157Y1455000D01*
X1975235D02*
X1980313D01*
X1977774D01*
Y1465157D01*
X1975235D01*
X1987931Y1455000D02*
X1993009D01*
X1990470D01*
Y1470235D01*
X1987931D01*
X2000627Y1455000D02*
X2005705D01*
X2003166D01*
Y1470235D01*
X2000627D01*
X1935000Y1510000D02*
Y1525235D01*
X1942617D01*
X1945157Y1522696D01*
Y1517617D01*
X1942617Y1515078D01*
X1935000D01*
X1940078D02*
X1945157Y1510000D01*
X1957853D02*
X1952774D01*
X1950235Y1512539D01*
Y1517617D01*
X1952774Y1520157D01*
X1957853D01*
X1960392Y1517617D01*
Y1515078D01*
X1950235D01*
X1965470Y1510000D02*
X1970549D01*
X1968009D01*
Y1525235D01*
X1965470D01*
X1980705Y1520157D02*
X1985784D01*
X1988323Y1517617D01*
Y1510000D01*
X1980705D01*
X1978166Y1512539D01*
X1980705Y1515078D01*
X1988323D01*
X1993401Y1520157D02*
Y1512539D01*
X1995940Y1510000D01*
X2003558D01*
Y1507461D01*
X2001019Y1504922D01*
X1998479D01*
X2003558Y1510000D02*
Y1520157D01*
X1695000Y1030000D02*
Y1045235D01*
X1700078Y1040157D01*
X1705157Y1045235D01*
Y1030000D01*
X1717853Y1045235D02*
X1712774D01*
X1710235Y1042696D01*
Y1032539D01*
X1712774Y1030000D01*
X1717853D01*
X1720392Y1032539D01*
Y1042696D01*
X1717853Y1045235D01*
X1735627Y1042696D02*
X1733088Y1045235D01*
X1728009D01*
X1725470Y1042696D01*
Y1040157D01*
X1728009Y1037617D01*
X1733088D01*
X1735627Y1035078D01*
Y1032539D01*
X1733088Y1030000D01*
X1728009D01*
X1725470Y1032539D01*
X1750862Y1045235D02*
X1740705D01*
Y1037617D01*
X1745784D01*
X1740705D01*
Y1030000D01*
X1766097Y1045235D02*
X1755940D01*
Y1030000D01*
X1766097D01*
X1755940Y1037617D02*
X1761019D01*
X1771175Y1045235D02*
X1781332D01*
X1776254D01*
Y1030000D01*
X1740000Y1005000D02*
Y1020235D01*
X1747617D01*
X1750157Y1017696D01*
Y1012617D01*
X1747617Y1010078D01*
X1740000D01*
X1755235Y1020235D02*
Y1005000D01*
X1760313Y1010078D01*
X1765392Y1005000D01*
Y1020235D01*
X1770470Y1005000D02*
Y1020235D01*
X1778088D01*
X1780627Y1017696D01*
Y1012617D01*
X1778088Y1010078D01*
X1770470D01*
X1775549D02*
X1780627Y1005000D01*
X1750157Y982696D02*
X1747617Y985235D01*
X1742539D01*
X1740000Y982696D01*
Y972539D01*
X1742539Y970000D01*
X1747617D01*
X1750157Y972539D01*
X1755235Y970000D02*
Y980157D01*
X1760313Y985235D01*
X1765392Y980157D01*
Y970000D01*
Y977617D01*
X1755235D01*
X1770470Y970000D02*
Y985235D01*
X1780627Y970000D01*
Y985235D01*
X1740000Y945000D02*
Y960235D01*
X1747617D01*
X1750157Y957696D01*
Y952617D01*
X1747617Y950078D01*
X1740000D01*
X1755235Y960235D02*
Y945000D01*
X1760313Y950078D01*
X1765392Y945000D01*
Y960235D01*
X1770470Y945000D02*
Y960235D01*
X1778088D01*
X1780627Y957696D01*
Y952617D01*
X1778088Y950078D01*
X1770470D01*
X1775549D02*
X1780627Y945000D01*
X1960000Y1005000D02*
Y1020235D01*
X1967617D01*
X1970157Y1017696D01*
Y1012617D01*
X1967617Y1010078D01*
X1960000D01*
X1975235Y1020235D02*
Y1005000D01*
X1980313Y1010078D01*
X1985392Y1005000D01*
Y1020235D01*
X1990470Y1005000D02*
Y1020235D01*
X1998088D01*
X2000627Y1017696D01*
Y1012617D01*
X1998088Y1010078D01*
X1990470D01*
X1995549D02*
X2000627Y1005000D01*
X1960000Y945000D02*
Y960235D01*
X1967617D01*
X1970157Y957696D01*
Y952617D01*
X1967617Y950078D01*
X1960000D01*
X1975235Y960235D02*
Y945000D01*
X1980313Y950078D01*
X1985392Y945000D01*
Y960235D01*
X1990470Y945000D02*
Y960235D01*
X1998088D01*
X2000627Y957696D01*
Y952617D01*
X1998088Y950078D01*
X1990470D01*
X1995549D02*
X2000627Y945000D01*
X1960000Y885000D02*
Y900235D01*
X1967617D01*
X1970157Y897696D01*
Y892617D01*
X1967617Y890078D01*
X1960000D01*
X1975235Y900235D02*
Y885000D01*
X1980313Y890078D01*
X1985392Y885000D01*
Y900235D01*
X1990470Y885000D02*
Y900235D01*
X1998088D01*
X2000627Y897696D01*
Y892617D01*
X1998088Y890078D01*
X1990470D01*
X1995549D02*
X2000627Y885000D01*
X1932617Y1445235D02*
X1927539D01*
X1925000Y1442696D01*
Y1432539D01*
X1927539Y1430000D01*
X1932617D01*
X1935157Y1432539D01*
Y1442696D01*
X1932617Y1445235D01*
X1940235Y1440157D02*
Y1432539D01*
X1942774Y1430000D01*
X1950392D01*
Y1440157D01*
X1958009Y1442696D02*
Y1440157D01*
X1955470D01*
X1960549D01*
X1958009D01*
Y1432539D01*
X1960549Y1430000D01*
X1968166Y1424922D02*
Y1440157D01*
X1975784D01*
X1978323Y1437617D01*
Y1432539D01*
X1975784Y1430000D01*
X1968166D01*
X1983401Y1440157D02*
Y1432539D01*
X1985940Y1430000D01*
X1993558D01*
Y1440157D01*
X2001175Y1442696D02*
Y1440157D01*
X1998636D01*
X2003714D01*
X2001175D01*
Y1432539D01*
X2003714Y1430000D01*
X1940000Y505235D02*
X1945078D01*
X1942539D01*
Y490000D01*
X1940000D01*
X1945078D01*
X1952696D02*
Y500157D01*
X1960313D01*
X1962853Y497617D01*
Y490000D01*
X1967931Y484922D02*
Y500157D01*
X1975549D01*
X1978088Y497617D01*
Y492539D01*
X1975549Y490000D01*
X1967931D01*
X1983166Y500157D02*
Y492539D01*
X1985705Y490000D01*
X1993323D01*
Y500157D01*
X2000940Y502696D02*
Y500157D01*
X1998401D01*
X2003479D01*
X2000940D01*
Y492539D01*
X2003479Y490000D01*
X1950000Y555235D02*
Y540000D01*
X1957617D01*
X1960157Y542539D01*
Y552696D01*
X1957617Y555235D01*
X1950000D01*
X1967774Y550157D02*
X1972853D01*
X1975392Y547617D01*
Y540000D01*
X1967774D01*
X1965235Y542539D01*
X1967774Y545078D01*
X1975392D01*
X1980470Y540000D02*
X1988088D01*
X1990627Y542539D01*
X1988088Y545078D01*
X1983009D01*
X1980470Y547617D01*
X1983009Y550157D01*
X1990627D01*
X1995705Y555235D02*
Y540000D01*
Y547617D01*
X1998244Y550157D01*
X2003323D01*
X2005862Y547617D01*
Y540000D01*
X1925000Y730000D02*
Y745235D01*
X1930078Y740157D01*
X1935157Y745235D01*
Y730000D01*
X1942774Y740157D02*
X1947853D01*
X1950392Y737617D01*
Y730000D01*
X1942774D01*
X1940235Y732539D01*
X1942774Y735078D01*
X1950392D01*
X1955470Y730000D02*
X1963088D01*
X1965627Y732539D01*
X1963088Y735078D01*
X1958009D01*
X1955470Y737617D01*
X1958009Y740157D01*
X1965627D01*
X1973244Y742696D02*
Y740157D01*
X1970705D01*
X1975784D01*
X1973244D01*
Y732539D01*
X1975784Y730000D01*
X1991019D02*
X1985940D01*
X1983401Y732539D01*
Y737617D01*
X1985940Y740157D01*
X1991019D01*
X1993558Y737617D01*
Y735078D01*
X1983401D01*
X1998636Y740157D02*
Y730000D01*
Y735078D01*
X2001175Y737617D01*
X2003714Y740157D01*
X2006254D01*
X1940000Y695235D02*
X1945078D01*
X1942539D01*
Y680000D01*
X1940000D01*
X1945078D01*
X1952696D02*
Y690157D01*
X1960313D01*
X1962853Y687617D01*
Y680000D01*
X1967931Y674922D02*
Y690157D01*
X1975549D01*
X1978088Y687617D01*
Y682539D01*
X1975549Y680000D01*
X1967931D01*
X1983166Y690157D02*
Y682539D01*
X1985705Y680000D01*
X1993323D01*
Y690157D01*
X2000940Y692696D02*
Y690157D01*
X1998401D01*
X2003479D01*
X2000940D01*
Y682539D01*
X2003479Y680000D01*
X1975157Y237696D02*
X1972617Y240235D01*
X1967539D01*
X1965000Y237696D01*
Y227539D01*
X1967539Y225000D01*
X1972617D01*
X1975157Y227539D01*
Y232617D01*
X1970078D01*
X1980235Y225000D02*
Y240235D01*
X1990392Y225000D01*
Y240235D01*
X1995470D02*
Y225000D01*
X2003088D01*
X2005627Y227539D01*
Y237696D01*
X2003088Y240235D01*
X1995470D01*
X1940000Y350235D02*
Y335000D01*
X1945078Y340078D01*
X1950157Y335000D01*
Y350235D01*
X1957774Y345157D02*
X1962853D01*
X1965392Y342617D01*
Y335000D01*
X1957774D01*
X1955235Y337539D01*
X1957774Y340078D01*
X1965392D01*
X1973009Y347696D02*
Y345157D01*
X1970470D01*
X1975549D01*
X1973009D01*
Y337539D01*
X1975549Y335000D01*
X1990784D02*
X1985705D01*
X1983166Y337539D01*
Y342617D01*
X1985705Y345157D01*
X1990784D01*
X1993323Y342617D01*
Y340078D01*
X1983166D01*
X1998401Y345157D02*
Y335000D01*
Y340078D01*
X2000940Y342617D01*
X2003479Y345157D01*
X2006019D01*
X1950000Y310000D02*
Y325235D01*
X1957617D01*
X1960157Y322696D01*
Y317617D01*
X1957617Y315078D01*
X1950000D01*
X1965235Y320157D02*
Y312539D01*
X1967774Y310000D01*
X1975392D01*
Y320157D01*
X1980470Y310000D02*
Y320157D01*
X1983009D01*
X1985549Y317617D01*
Y310000D01*
Y317617D01*
X1988088Y320157D01*
X1990627Y317617D01*
Y310000D01*
X1995705Y304922D02*
Y320157D01*
X2003323D01*
X2005862Y317617D01*
Y312539D01*
X2003323Y310000D01*
X1995705D01*
X1973577Y294636D02*
X1971037Y297175D01*
X1965959D01*
X1963420Y294636D01*
Y284479D01*
X1965959Y281940D01*
X1971037D01*
X1973577Y284479D01*
Y289557D01*
X1968498D01*
X1978655Y281940D02*
Y297175D01*
X1988812Y281940D01*
Y297175D01*
X1993890D02*
Y281940D01*
X2001508D01*
X2004047Y284479D01*
Y294636D01*
X2001508Y297175D01*
X1993890D01*
X1735157Y370235D02*
X1725000D01*
Y362618D01*
X1730078D01*
X1725000D01*
Y355000D01*
X1740235Y365157D02*
Y357539D01*
X1742774Y355000D01*
X1750392D01*
Y365157D01*
X1763088Y355000D02*
X1758009D01*
X1755470Y357539D01*
Y362618D01*
X1758009Y365157D01*
X1763088D01*
X1765627Y362618D01*
Y360078D01*
X1755470D01*
X1770705Y355000D02*
X1775784D01*
X1773244D01*
Y370235D01*
X1770705D01*
X1720000Y330000D02*
Y345235D01*
X1727617D01*
X1730157Y342696D01*
Y337618D01*
X1727617Y335078D01*
X1720000D01*
X1735235Y340157D02*
Y332539D01*
X1737774Y330000D01*
X1745392D01*
Y340157D01*
X1750470Y330000D02*
Y340157D01*
X1753009D01*
X1755549Y337618D01*
Y330000D01*
Y337618D01*
X1758088Y340157D01*
X1760627Y337618D01*
Y330000D01*
X1765705Y324922D02*
Y340157D01*
X1773323D01*
X1775862Y337618D01*
Y332539D01*
X1773323Y330000D01*
X1765705D01*
X1745157Y312696D02*
X1742617Y315235D01*
X1737539D01*
X1735000Y312696D01*
Y302539D01*
X1737539Y300000D01*
X1742617D01*
X1745157Y302539D01*
Y307617D01*
X1740078D01*
X1750235Y300000D02*
Y315235D01*
X1760392Y300000D01*
Y315235D01*
X1765470D02*
Y300000D01*
X1773088D01*
X1775627Y302539D01*
Y312696D01*
X1773088Y315235D01*
X1765470D01*
X1730157Y280235D02*
X1720000D01*
Y272617D01*
X1725078D01*
X1720000D01*
Y265000D01*
X1737774Y275157D02*
X1742853D01*
X1745392Y272617D01*
Y265000D01*
X1737774D01*
X1735235Y267539D01*
X1737774Y270078D01*
X1745392D01*
X1750470Y265000D02*
Y275157D01*
X1758088D01*
X1760627Y272617D01*
Y265000D01*
X1765705D02*
X1773323D01*
X1775862Y267539D01*
X1773323Y270078D01*
X1768244D01*
X1765705Y272617D01*
X1768244Y275157D01*
X1775862D01*
X1710000Y240000D02*
Y255235D01*
X1717617D01*
X1720157Y252696D01*
Y247617D01*
X1717617Y245078D01*
X1710000D01*
X1715078D02*
X1720157Y240000D01*
X1732853D02*
X1727774D01*
X1725235Y242539D01*
Y247617D01*
X1727774Y250157D01*
X1732853D01*
X1735392Y247617D01*
Y245078D01*
X1725235D01*
X1740470Y240000D02*
X1745549D01*
X1743009D01*
Y255235D01*
X1740470D01*
X1755705Y250157D02*
X1760784D01*
X1763323Y247617D01*
Y240000D01*
X1755705D01*
X1753166Y242539D01*
X1755705Y245078D01*
X1763323D01*
X1768401Y250157D02*
Y242539D01*
X1770940Y240000D01*
X1778558D01*
Y237461D01*
X1776019Y234922D01*
X1773479D01*
X1778558Y240000D02*
Y250157D01*
X1750157Y222696D02*
X1747617Y225235D01*
X1742539D01*
X1740000Y222696D01*
Y212539D01*
X1742539Y210000D01*
X1747617D01*
X1750157Y212539D01*
Y217617D01*
X1745078D01*
X1755235Y210000D02*
Y225235D01*
X1765392Y210000D01*
Y225235D01*
X1770470D02*
Y210000D01*
X1778088D01*
X1780627Y212539D01*
Y222696D01*
X1778088Y225235D01*
X1770470D01*
D56*
X736549Y227025D02*
X736651D01*
X736498Y226974D02*
X737311D01*
X736498Y226924D02*
X737921D01*
X736448Y226873D02*
X738530D01*
X736448Y226822D02*
X739242D01*
X736397Y226771D02*
X739800D01*
X736397Y226720D02*
X740461D01*
X736346Y226670D02*
X741121D01*
X736346Y226619D02*
X741731D01*
X736295Y226568D02*
X742340D01*
X736295Y226517D02*
X743001D01*
X736244Y226466D02*
X743610D01*
X736244Y226416D02*
X744169D01*
X736194Y226365D02*
X744169D01*
X736194Y226314D02*
X744118D01*
X736143Y226263D02*
X744118D01*
X736143Y226212D02*
X744068D01*
X736092Y226162D02*
X736905D01*
X737413D02*
X744068D01*
X745185D02*
X745236D01*
X736092Y226111D02*
X736956D01*
X737972D02*
X744017D01*
X745134D02*
X745236D01*
X736041Y226060D02*
X737006D01*
X738530D02*
X744017D01*
X745134D02*
X745236D01*
X736041Y226009D02*
X737057D01*
X739089D02*
X743966D01*
X745084D02*
X745236D01*
X735990Y225958D02*
X737108D01*
X739648D02*
X743966D01*
X745084D02*
X745236D01*
X736041Y225908D02*
X737159D01*
X740258D02*
X743915D01*
X745033D02*
X745236D01*
X736092Y225857D02*
X737210D01*
X740766D02*
X743915D01*
X745033D02*
X745236D01*
X736143Y225806D02*
X737260D01*
X741375D02*
X743864D01*
X744982D02*
X745236D01*
X736143Y225755D02*
X737260D01*
X741477D02*
X743864D01*
X744982D02*
X745287D01*
X736194Y225704D02*
X737311D01*
X741477D02*
X742137D01*
X742645D02*
X743814D01*
X744931D02*
X745236D01*
X736244Y225654D02*
X737362D01*
X741426D02*
X742137D01*
X743255D02*
X743814D01*
X744931D02*
X745236D01*
X736295Y225603D02*
X737413D01*
X741426D02*
X742086D01*
X744880D02*
X745287D01*
X736346Y225552D02*
X737464D01*
X741375D02*
X742086D01*
X744880D02*
X745287D01*
X736397Y225501D02*
X737514D01*
X741375D02*
X742036D01*
X744830D02*
X745287D01*
X736448Y225450D02*
X737565D01*
X741324D02*
X742036D01*
X744830D02*
X745287D01*
X736498Y225400D02*
X737616D01*
X741324D02*
X741985D01*
X744779D02*
X745287D01*
X736549Y225349D02*
X737667D01*
X741274D02*
X741985D01*
X744779D02*
X745287D01*
X736600Y225298D02*
X737718D01*
X741274D02*
X741934D01*
X744728D02*
X745287D01*
X736600Y225247D02*
X737768D01*
X741223D02*
X741934D01*
X744728D02*
X745287D01*
X736651Y225196D02*
X737768D01*
X741223D02*
X741883D01*
X744677D02*
X745287D01*
X736702Y225146D02*
X737819D01*
X741172D02*
X741883D01*
X744677D02*
X745287D01*
X736752Y225095D02*
X737870D01*
X741172D02*
X741832D01*
X744626D02*
X745287D01*
X736803Y225044D02*
X737921D01*
X741121D02*
X741832D01*
X744626D02*
X745287D01*
X736854Y224993D02*
X737972D01*
X741121D02*
X741782D01*
X744576D02*
X745287D01*
X736905Y224942D02*
X738022D01*
X741070D02*
X741782D01*
X744576D02*
X745287D01*
X736956Y224892D02*
X738073D01*
X741070D02*
X741731D01*
X744525D02*
X745287D01*
X737006Y224841D02*
X738124D01*
X741020D02*
X741731D01*
X744525D02*
X745287D01*
X737006Y224790D02*
X738175D01*
X741020D02*
X741680D01*
X744474D02*
X745287D01*
X737057Y224739D02*
X738226D01*
X740969D02*
X741680D01*
X744474D02*
X745338D01*
X737108Y224688D02*
X738276D01*
X740969D02*
X741629D01*
X744423D02*
X745338D01*
X737159Y224638D02*
X738276D01*
X740918D02*
X741629D01*
X744423D02*
X745338D01*
X737210Y224587D02*
X738327D01*
X740918D02*
X741578D01*
X744372D02*
X745338D01*
X737260Y224536D02*
X738378D01*
X740867D02*
X741578D01*
X744372D02*
X745338D01*
X737311Y224485D02*
X738429D01*
X740867D02*
X741528D01*
X744322D02*
X745338D01*
X737362Y224434D02*
X738480D01*
X740816D02*
X741528D01*
X744322D02*
X745338D01*
X737413Y224384D02*
X738530D01*
X740816D02*
X741477D01*
X744271D02*
X745338D01*
X737464Y224333D02*
X738581D01*
X740766D02*
X741477D01*
X744271D02*
X745338D01*
X737464Y224282D02*
X738632D01*
X740766D02*
X741426D01*
X744220D02*
X745338D01*
X737514Y224231D02*
X738683D01*
X740715D02*
X741426D01*
X744220D02*
X745338D01*
X737565Y224180D02*
X738734D01*
X740715D02*
X741375D01*
X744169D02*
X745338D01*
X737616Y224130D02*
X738784D01*
X740664D02*
X741375D01*
X744169D02*
X745338D01*
X737667Y224079D02*
X738784D01*
X740664D02*
X741324D01*
X744118D02*
X745338D01*
X737718Y224028D02*
X738835D01*
X740613D02*
X741324D01*
X744118D02*
X745338D01*
X737768Y223977D02*
X738886D01*
X740613D02*
X741274D01*
X744068D02*
X745338D01*
X737819Y223926D02*
X738937D01*
X740562D02*
X741274D01*
X744068D02*
X745338D01*
X737870Y223876D02*
X738988D01*
X740562D02*
X741223D01*
X744017D02*
X745338D01*
X737921Y223825D02*
X739038D01*
X740512D02*
X741223D01*
X744017D02*
X745338D01*
X737921Y223774D02*
X739089D01*
X740512D02*
X741172D01*
X743966D02*
X745338D01*
X737972Y223723D02*
X739140D01*
X740461D02*
X741172D01*
X743966D02*
X745388D01*
X738022Y223672D02*
X739191D01*
X740461D02*
X741121D01*
X743915D02*
X745388D01*
X738073Y223622D02*
X739242D01*
X740410D02*
X741121D01*
X743915D02*
X745388D01*
X738124Y223571D02*
X739292D01*
X740410D02*
X741070D01*
X743864D02*
X745388D01*
X738175Y223520D02*
X739292D01*
X740359D02*
X741070D01*
X743864D02*
X745388D01*
X738226Y223469D02*
X739343D01*
X740359D02*
X741020D01*
X743814D02*
X745388D01*
X738276Y223418D02*
X739394D01*
X740308D02*
X741020D01*
X743814D02*
X745388D01*
X738327Y223368D02*
X739445D01*
X740308D02*
X740969D01*
X743763D02*
X745388D01*
X738378Y223317D02*
X739496D01*
X740258D02*
X740969D01*
X743763D02*
X745388D01*
X738378Y223266D02*
X739546D01*
X740258D02*
X740918D01*
X743712D02*
X745388D01*
X738429Y223215D02*
X739597D01*
X740207D02*
X740918D01*
X743712D02*
X745388D01*
X738480Y223164D02*
X739648D01*
X740207D02*
X740867D01*
X743661D02*
X745388D01*
X738530Y223114D02*
X739699D01*
X740156D02*
X740867D01*
X743661D02*
X745388D01*
X738581Y223063D02*
X739750D01*
X740156D02*
X740816D01*
X743610D02*
X745388D01*
X738632Y223012D02*
X739800D01*
X740105D02*
X740816D01*
X743610D02*
X745388D01*
X738683Y222961D02*
X739800D01*
X740105D02*
X740766D01*
X743560D02*
X745388D01*
X738734Y222910D02*
X739851D01*
X740054D02*
X740766D01*
X743560D02*
X745388D01*
X738784Y222860D02*
X739902D01*
X740054D02*
X740715D01*
X743509D02*
X745388D01*
X738784Y222809D02*
X739953D01*
X740004D02*
X740715D01*
X743509D02*
X745388D01*
X738835Y222758D02*
X740664D01*
X743458D02*
X745388D01*
X738886Y222707D02*
X740664D01*
X743458D02*
X745439D01*
X738937Y222656D02*
X740613D01*
X743407D02*
X745439D01*
X738988Y222606D02*
X740613D01*
X743407D02*
X745439D01*
X739038Y222555D02*
X740562D01*
X743356D02*
X745439D01*
X739089Y222504D02*
X740562D01*
X743356D02*
X745439D01*
X739140Y222453D02*
X740512D01*
X743306D02*
X745439D01*
X739191Y222402D02*
X740512D01*
X743306D02*
X745439D01*
X739242Y222352D02*
X740461D01*
X743255D02*
X745439D01*
X739242Y222301D02*
X740461D01*
X743255D02*
X745439D01*
X739292Y222250D02*
X740461D01*
X743204D02*
X745439D01*
X739343Y222199D02*
X740512D01*
X743204D02*
X745439D01*
X739394Y222148D02*
X740562D01*
X743153D02*
X745439D01*
X739445Y222098D02*
X740613D01*
X743153D02*
X745439D01*
X739496Y222047D02*
X740613D01*
X743102D02*
X745439D01*
X739546Y221996D02*
X740664D01*
X743102D02*
X745490D01*
X739597Y221945D02*
X740715D01*
X743052D02*
X745490D01*
X739648Y221894D02*
X740766D01*
X743052D02*
X745490D01*
X739699Y221844D02*
X740816D01*
X743001D02*
X745490D01*
X739699Y221793D02*
X740867D01*
X743001D02*
X745490D01*
X739750Y221742D02*
X740918D01*
X742950D02*
X745490D01*
X739800Y221691D02*
X740969D01*
X742950D02*
X745490D01*
X739851Y221640D02*
X741020D01*
X742899D02*
X745490D01*
X739902Y221590D02*
X741070D01*
X742899D02*
X745490D01*
X739953Y221539D02*
X741121D01*
X742848D02*
X745490D01*
X740004Y221488D02*
X741121D01*
X742848D02*
X745490D01*
X740054Y221437D02*
X741172D01*
X742798D02*
X745490D01*
X740105Y221386D02*
X741223D01*
X742798D02*
X745490D01*
X740156Y221336D02*
X741274D01*
X742747D02*
X745490D01*
X740156Y221285D02*
X741324D01*
X742747D02*
X745490D01*
X740207Y221234D02*
X741375D01*
X742696D02*
X745490D01*
X740258Y221183D02*
X741426D01*
X742696D02*
X745490D01*
X740308Y221132D02*
X741477D01*
X742645D02*
X745490D01*
X740359Y221082D02*
X741528D01*
X742645D02*
X745541D01*
X740410Y221031D02*
X741477D01*
X742594D02*
X745541D01*
X740461Y220980D02*
X741477D01*
X742594D02*
X745541D01*
X740512Y220929D02*
X741426D01*
X742544D02*
X745541D01*
X740562Y220878D02*
X741426D01*
X742544D02*
X745541D01*
X740562Y220828D02*
X741375D01*
X742493D02*
X745541D01*
X740613Y220777D02*
X741375D01*
X742493D02*
X745541D01*
X740664Y220726D02*
X741324D01*
X742442D02*
X745541D01*
X740715Y220675D02*
X741324D01*
X742442D02*
X745541D01*
X740766Y220624D02*
X741274D01*
X742391D02*
X745541D01*
X740816Y220574D02*
X741274D01*
X742391D02*
X745541D01*
X740867Y220523D02*
X741223D01*
X742340D02*
X745541D01*
X740359Y220472D02*
X740461D01*
X740918D02*
X741223D01*
X742340D02*
X745541D01*
X740359Y220421D02*
X740562D01*
X740969D02*
X741172D01*
X742290D02*
X745541D01*
X740308Y220370D02*
X740664D01*
X741020D02*
X741172D01*
X742290D02*
X745541D01*
X740308Y220320D02*
X740766D01*
X741020D02*
X741121D01*
X742239D02*
X745541D01*
X740258Y220269D02*
X740867D01*
X741070D02*
X741121D01*
X742239D02*
X745541D01*
X740258Y220218D02*
X740969D01*
X742188D02*
X745541D01*
X740207Y220167D02*
X741070D01*
X742188D02*
X745592D01*
X740207Y220116D02*
X741020D01*
X742137D02*
X745592D01*
X740156Y220066D02*
X741020D01*
X742137D02*
X745592D01*
X740156Y220015D02*
X740969D01*
X742086D02*
X745592D01*
X740105Y219964D02*
X740969D01*
X742086D02*
X745592D01*
X740105Y219913D02*
X740918D01*
X742036D02*
X745592D01*
X740054Y219862D02*
X740918D01*
X742036D02*
X745592D01*
X740054Y219812D02*
X740867D01*
X741985D02*
X745592D01*
X732892Y219761D02*
X733044D01*
X740004D02*
X740867D01*
X741985D02*
X745592D01*
X732892Y219710D02*
X733146D01*
X740004D02*
X740816D01*
X741934D02*
X745592D01*
X732841Y219659D02*
X733247D01*
X739953D02*
X740816D01*
X741934D02*
X745592D01*
X732841Y219608D02*
X733349D01*
X739953D02*
X740766D01*
X741883D02*
X745592D01*
X732790Y219558D02*
X733450D01*
X739902D02*
X740766D01*
X741883D02*
X745592D01*
X732790Y219507D02*
X733552D01*
X739902D02*
X740715D01*
X741832D02*
X745592D01*
X732739Y219456D02*
X733654D01*
X739851D02*
X740715D01*
X741832D02*
X745592D01*
X732739Y219405D02*
X733755D01*
X739851D02*
X740664D01*
X741782D02*
X745592D01*
X732688Y219354D02*
X733857D01*
X739800D02*
X740664D01*
X741782D02*
X745592D01*
X750316D02*
X750418D01*
X732688Y219304D02*
X733958D01*
X739800D02*
X740613D01*
X741731D02*
X745592D01*
X750265D02*
X750418D01*
X732638Y219253D02*
X734060D01*
X739750D02*
X740613D01*
X741731D02*
X745642D01*
X750214D02*
X750367D01*
X732638Y219202D02*
X734162D01*
X739750D02*
X740562D01*
X741680D02*
X745642D01*
X750113D02*
X750367D01*
X732587Y219151D02*
X734263D01*
X739699D02*
X740562D01*
X741680D02*
X745642D01*
X750062D02*
X750367D01*
X732587Y219100D02*
X734365D01*
X739699D02*
X740512D01*
X741629D02*
X745642D01*
X749960D02*
X750316D01*
X732536Y219050D02*
X734466D01*
X739648D02*
X740512D01*
X741629D02*
X745642D01*
X749910D02*
X750316D01*
X732638Y218999D02*
X734568D01*
X739648D02*
X740461D01*
X741578D02*
X744982D01*
X745084D02*
X745642D01*
X749808D02*
X750265D01*
X732739Y218948D02*
X734670D01*
X739597D02*
X740461D01*
X741578D02*
X744931D01*
X745185D02*
X745642D01*
X749757D02*
X750265D01*
X732841Y218897D02*
X734771D01*
X739597D02*
X740410D01*
X741528D02*
X744880D01*
X745185D02*
X745642D01*
X749706D02*
X750214D01*
X732942Y218846D02*
X734873D01*
X739546D02*
X740410D01*
X741528D02*
X744880D01*
X745134D02*
X745642D01*
X749605D02*
X750214D01*
X733044Y218796D02*
X734974D01*
X739546D02*
X740359D01*
X741477D02*
X744830D01*
X745134D02*
X745642D01*
X749554D02*
X750164D01*
X733146Y218745D02*
X735076D01*
X739496D02*
X740359D01*
X741477D02*
X744830D01*
X745084D02*
X745642D01*
X749503D02*
X750164D01*
X733247Y218694D02*
X735178D01*
X739496D02*
X740308D01*
X741426D02*
X744779D01*
X745084D02*
X745642D01*
X749402D02*
X750164D01*
X733349Y218643D02*
X735279D01*
X739445D02*
X740308D01*
X741426D02*
X744728D01*
X745084D02*
X745642D01*
X749351D02*
X750113D01*
X733450Y218592D02*
X735381D01*
X739445D02*
X740258D01*
X741375D02*
X744728D01*
X745084D02*
X745642D01*
X749249D02*
X750113D01*
X733552Y218542D02*
X735482D01*
X739394D02*
X740258D01*
X741375D02*
X744677D01*
X745084D02*
X745642D01*
X749198D02*
X750062D01*
X733654Y218491D02*
X735584D01*
X739394D02*
X740207D01*
X741324D02*
X744626D01*
X745084D02*
X745642D01*
X749097D02*
X750062D01*
X733755Y218440D02*
X735686D01*
X739343D02*
X740207D01*
X741324D02*
X744626D01*
X745084D02*
X745642D01*
X749046D02*
X750011D01*
X733857Y218389D02*
X735787D01*
X739343D02*
X740156D01*
X741274D02*
X744576D01*
X745084D02*
X745693D01*
X748944D02*
X750011D01*
X733958Y218338D02*
X735889D01*
X739292D02*
X740156D01*
X741274D02*
X744576D01*
X745084D02*
X745693D01*
X748894D02*
X749960D01*
X734060Y218288D02*
X735990D01*
X739292D02*
X740105D01*
X741223D02*
X744525D01*
X745084D02*
X745693D01*
X748792D02*
X749960D01*
X734162Y218237D02*
X736092D01*
X739242D02*
X740105D01*
X741223D02*
X744474D01*
X745084D02*
X745693D01*
X748792D02*
X749960D01*
X734263Y218186D02*
X736194D01*
X739242D02*
X740054D01*
X741172D02*
X744474D01*
X745084D02*
X745693D01*
X748640D02*
X749910D01*
X734365Y218135D02*
X736295D01*
X739191D02*
X740054D01*
X741172D02*
X744423D01*
X745084D02*
X745693D01*
X748640D02*
X749910D01*
X734466Y218084D02*
X736397D01*
X739191D02*
X740004D01*
X741121D02*
X744423D01*
X745084D02*
X745693D01*
X748538D02*
X749859D01*
X734568Y218034D02*
X736498D01*
X739140D02*
X740004D01*
X741121D02*
X744372D01*
X745134D02*
X745693D01*
X748487D02*
X749859D01*
X734670Y217983D02*
X736600D01*
X739140D02*
X739953D01*
X741070D02*
X744322D01*
X745134D02*
X745693D01*
X748386D02*
X749808D01*
X734771Y217932D02*
X736702D01*
X739089D02*
X739953D01*
X741070D02*
X744322D01*
X745134D02*
X745693D01*
X748335D02*
X749808D01*
X734873Y217881D02*
X736803D01*
X739089D02*
X739902D01*
X741020D02*
X744271D01*
X745134D02*
X745693D01*
X748233D02*
X749808D01*
X734974Y217830D02*
X736905D01*
X739038D02*
X739902D01*
X741020D02*
X744220D01*
X745134D02*
X745693D01*
X748182D02*
X749757D01*
X735076Y217780D02*
X737006D01*
X739038D02*
X739851D01*
X740969D02*
X744220D01*
X745134D02*
X745693D01*
X748081D02*
X749757D01*
X731876Y217729D02*
X731926D01*
X735178D02*
X737108D01*
X738988D02*
X739851D01*
X740969D02*
X744169D01*
X745134D02*
X745693D01*
X748030D02*
X749706D01*
X731876Y217678D02*
X732028D01*
X735279D02*
X737210D01*
X738988D02*
X739800D01*
X740918D02*
X744169D01*
X745134D02*
X745693D01*
X747928D02*
X749706D01*
X731825Y217627D02*
X732130D01*
X735381D02*
X737311D01*
X738937D02*
X739800D01*
X740918D02*
X744118D01*
X745134D02*
X745693D01*
X747878D02*
X749656D01*
X731825Y217576D02*
X732231D01*
X735482D02*
X737413D01*
X738937D02*
X739750D01*
X740867D02*
X744068D01*
X745134D02*
X745693D01*
X747776D02*
X749656D01*
X731774Y217526D02*
X732333D01*
X735584D02*
X737514D01*
X738886D02*
X739750D01*
X740867D02*
X744068D01*
X745134D02*
X745693D01*
X747725D02*
X749656D01*
X731774Y217475D02*
X732434D01*
X735686D02*
X737616D01*
X738886D02*
X739699D01*
X740816D02*
X744017D01*
X745134D02*
X745693D01*
X747624D02*
X749605D01*
X731723Y217424D02*
X732536D01*
X735787D02*
X737718D01*
X738835D02*
X739699D01*
X740816D02*
X744017D01*
X745134D02*
X745744D01*
X747573D02*
X749554D01*
X731723Y217373D02*
X732638D01*
X735889D02*
X737819D01*
X738835D02*
X739648D01*
X740766D02*
X743966D01*
X745134D02*
X745744D01*
X747471D02*
X749554D01*
X731672Y217322D02*
X732739D01*
X735990D02*
X737921D01*
X738784D02*
X739648D01*
X740766D02*
X743915D01*
X745134D02*
X745744D01*
X747420D02*
X749503D01*
X731672Y217272D02*
X732841D01*
X736092D02*
X738022D01*
X738784D02*
X739597D01*
X740715D02*
X743915D01*
X745185D02*
X745744D01*
X747319D02*
X749503D01*
X731622Y217221D02*
X732942D01*
X736194D02*
X738124D01*
X738734D02*
X739597D01*
X740715D02*
X743864D01*
X745185D02*
X745744D01*
X747268D02*
X749503D01*
X731622Y217170D02*
X733044D01*
X736295D02*
X738226D01*
X738734D02*
X739546D01*
X740715D02*
X743814D01*
X745185D02*
X745744D01*
X747166D02*
X749452D01*
X731571Y217119D02*
X733146D01*
X736397D02*
X738327D01*
X738683D02*
X739546D01*
X740664D02*
X743814D01*
X745185D02*
X745744D01*
X747116D02*
X749452D01*
X731571Y217068D02*
X733247D01*
X736498D02*
X738429D01*
X738683D02*
X739496D01*
X740613D02*
X743763D01*
X745185D02*
X745744D01*
X747065D02*
X749452D01*
X731520Y217018D02*
X733349D01*
X736600D02*
X738530D01*
X738632D02*
X739496D01*
X740613D02*
X743763D01*
X745185D02*
X745744D01*
X746963D02*
X749402D01*
X731520Y216967D02*
X733450D01*
X736702D02*
X739445D01*
X740562D02*
X743712D01*
X745185D02*
X745795D01*
X746862D02*
X749402D01*
X731622Y216916D02*
X733552D01*
X736803D02*
X739445D01*
X740562D02*
X743661D01*
X745185D02*
X745795D01*
X746811D02*
X749351D01*
X731723Y216865D02*
X733654D01*
X736905D02*
X739394D01*
X740512D02*
X743661D01*
X745185D02*
X745795D01*
X746709D02*
X749351D01*
X731825Y216814D02*
X733755D01*
X737006D02*
X739394D01*
X740512D02*
X743610D01*
X745185D02*
X745795D01*
X746608D02*
X749300D01*
X731926Y216764D02*
X733857D01*
X737108D02*
X739343D01*
X740461D02*
X743610D01*
X745185D02*
X745846D01*
X746506D02*
X749300D01*
X732028Y216713D02*
X733958D01*
X737210D02*
X739343D01*
X740461D02*
X743560D01*
X745185D02*
X745846D01*
X746404D02*
X749249D01*
X732130Y216662D02*
X734060D01*
X737311D02*
X739292D01*
X740410D02*
X743509D01*
X745185D02*
X745896D01*
X746303D02*
X749249D01*
X732231Y216611D02*
X734162D01*
X737413D02*
X739292D01*
X740410D02*
X743509D01*
X745185D02*
X749249D01*
X732333Y216560D02*
X734263D01*
X737514D02*
X739242D01*
X740359D02*
X743458D01*
X745236D02*
X749198D01*
X732434Y216510D02*
X734365D01*
X737616D02*
X739242D01*
X740359D02*
X743458D01*
X745236D02*
X749198D01*
X732536Y216459D02*
X734466D01*
X737718D02*
X739191D01*
X740308D02*
X743407D01*
X745236D02*
X749148D01*
X732638Y216408D02*
X734568D01*
X737819D02*
X739191D01*
X740308D02*
X743356D01*
X745236D02*
X749148D01*
X732739Y216357D02*
X734670D01*
X737921D02*
X739140D01*
X740258D02*
X743356D01*
X745236D02*
X749097D01*
X732841Y216306D02*
X734771D01*
X738022D02*
X739140D01*
X740258D02*
X743306D01*
X745236D02*
X749097D01*
X732942Y216256D02*
X734873D01*
X738124D02*
X739089D01*
X740207D02*
X743255D01*
X745236D02*
X749046D01*
X733044Y216205D02*
X734974D01*
X738226D02*
X739089D01*
X740207D02*
X743255D01*
X745236D02*
X749046D01*
X733146Y216154D02*
X735076D01*
X738327D02*
X739038D01*
X740156D02*
X743204D01*
X745236D02*
X749046D01*
X733247Y216103D02*
X735178D01*
X738429D02*
X739038D01*
X740156D02*
X743204D01*
X745236D02*
X748995D01*
X733349Y216052D02*
X735279D01*
X738530D02*
X738988D01*
X740105D02*
X743153D01*
X745236D02*
X748995D01*
X733450Y216002D02*
X735381D01*
X738632D02*
X738988D01*
X740105D02*
X743102D01*
X745236D02*
X748944D01*
X733552Y215951D02*
X735482D01*
X738734D02*
X738937D01*
X740054D02*
X743102D01*
X745236D02*
X748944D01*
X733654Y215900D02*
X735584D01*
X738835D02*
X738937D01*
X740054D02*
X743052D01*
X745236D02*
X748944D01*
X733755Y215849D02*
X735686D01*
X740004D02*
X743052D01*
X745236D02*
X748894D01*
X733857Y215798D02*
X735787D01*
X740004D02*
X743001D01*
X745287D02*
X748894D01*
X733958Y215748D02*
X735889D01*
X739953D02*
X742950D01*
X745287D02*
X748843D01*
X734060Y215697D02*
X735990D01*
X739953D02*
X742950D01*
X745287D02*
X748843D01*
X734162Y215646D02*
X736092D01*
X739902D02*
X742899D01*
X745287D02*
X748792D01*
X734263Y215595D02*
X736194D01*
X739902D02*
X742848D01*
X745287D02*
X748792D01*
X734365Y215544D02*
X736295D01*
X739851D02*
X742848D01*
X745287D02*
X748792D01*
X734466Y215494D02*
X736397D01*
X739851D02*
X742798D01*
X745287D02*
X748741D01*
X734568Y215443D02*
X736498D01*
X739851D02*
X742798D01*
X745287D02*
X748741D01*
X734670Y215392D02*
X736600D01*
X739800D02*
X742747D01*
X745287D02*
X748690D01*
X734771Y215341D02*
X736651D01*
X739750D02*
X742696D01*
X745287D02*
X748690D01*
X734873Y215290D02*
X736752D01*
X739750D02*
X742696D01*
X745287D02*
X748640D01*
X734974Y215240D02*
X736854D01*
X739699D02*
X742645D01*
X745287D02*
X748640D01*
X735076Y215189D02*
X736905D01*
X739699D02*
X742645D01*
X745287D02*
X748589D01*
X735178Y215138D02*
X737006D01*
X739648D02*
X742594D01*
X745287D02*
X748589D01*
X735279Y215087D02*
X737057D01*
X739648D02*
X742544D01*
X745338D02*
X748538D01*
X735381Y215036D02*
X737108D01*
X739597D02*
X742544D01*
X745338D02*
X748538D01*
X735482Y214986D02*
X737159D01*
X739597D02*
X742493D01*
X745338D02*
X748538D01*
X735584Y214935D02*
X737210D01*
X739546D02*
X742442D01*
X745338D02*
X748487D01*
X735686Y214884D02*
X737311D01*
X739546D02*
X742442D01*
X745338D02*
X748487D01*
X735787Y214833D02*
X737362D01*
X739496D02*
X742391D01*
X745338D02*
X748436D01*
X735889Y214782D02*
X737362D01*
X739496D02*
X742391D01*
X745338D02*
X748436D01*
X735990Y214732D02*
X737413D01*
X739445D02*
X742340D01*
X745338D02*
X748386D01*
X736092Y214681D02*
X737464D01*
X739445D02*
X742290D01*
X745338D02*
X748386D01*
X736143Y214630D02*
X737514D01*
X739394D02*
X742290D01*
X745338D02*
X748386D01*
X736244Y214579D02*
X737514D01*
X739394D02*
X742239D01*
X745338D02*
X748335D01*
X736346Y214528D02*
X737565D01*
X739343D02*
X742239D01*
X745338D02*
X748335D01*
X736397Y214478D02*
X737565D01*
X739343D02*
X742188D01*
X745338D02*
X748284D01*
X736498Y214427D02*
X737616D01*
X739292D02*
X742137D01*
X745338D02*
X748284D01*
X736549Y214376D02*
X737616D01*
X739292D02*
X742137D01*
X745388D02*
X748233D01*
X736600Y214325D02*
X737667D01*
X739242D02*
X742086D01*
X745388D02*
X748233D01*
X736651Y214274D02*
X737667D01*
X739242D02*
X742086D01*
X745388D02*
X748233D01*
X736702Y214224D02*
X737667D01*
X739191D02*
X742036D01*
X745388D02*
X748182D01*
X736752Y214173D02*
X737667D01*
X739191D02*
X741985D01*
X745388D02*
X748182D01*
X736803Y214122D02*
X737667D01*
X739140D02*
X741985D01*
X745388D02*
X748132D01*
X736854Y214071D02*
X737718D01*
X739140D02*
X741934D01*
X745388D02*
X748132D01*
X736854Y214020D02*
X737718D01*
X739089D02*
X741883D01*
X745388D02*
X748081D01*
X736905Y213970D02*
X737718D01*
X739089D02*
X741883D01*
X745388D02*
X748081D01*
X736905Y213919D02*
X737718D01*
X739038D02*
X741832D01*
X745388D02*
X748030D01*
X736956Y213868D02*
X737667D01*
X739038D02*
X741832D01*
X745388D02*
X748030D01*
X736956Y213817D02*
X737667D01*
X738988D02*
X741782D01*
X745388D02*
X748030D01*
X736956Y213766D02*
X737667D01*
X738988D02*
X741731D01*
X745388D02*
X747979D01*
X736956Y213716D02*
X737667D01*
X738937D02*
X741731D01*
X745439D02*
X747979D01*
X736956Y213665D02*
X737667D01*
X738937D02*
X741680D01*
X745439D02*
X747928D01*
X736905Y213614D02*
X737667D01*
X738886D02*
X741680D01*
X745439D02*
X747928D01*
X736905Y213563D02*
X737667D01*
X738886D02*
X741629D01*
X745439D02*
X747928D01*
X736905Y213512D02*
X737616D01*
X738835D02*
X741578D01*
X745439D02*
X747878D01*
X736905Y213462D02*
X737616D01*
X738835D02*
X741578D01*
X745439D02*
X747878D01*
X736905Y213411D02*
X737616D01*
X738784D02*
X741528D01*
X745439D02*
X747827D01*
X736854Y213360D02*
X737616D01*
X738784D02*
X741477D01*
X745439D02*
X747827D01*
X736854Y213309D02*
X737565D01*
X738734D02*
X741477D01*
X745439D02*
X747776D01*
X736854Y213258D02*
X737565D01*
X738734D02*
X741426D01*
X745439D02*
X747776D01*
X736803Y213208D02*
X737565D01*
X738683D02*
X741426D01*
X745439D02*
X747725D01*
X736803Y213157D02*
X737514D01*
X738683D02*
X741375D01*
X745439D02*
X747725D01*
X736803Y213106D02*
X737514D01*
X738632D02*
X741324D01*
X745439D02*
X747725D01*
X729539Y213055D02*
X729590D01*
X736752D02*
X737514D01*
X738632D02*
X741324D01*
X745439D02*
X747674D01*
X729539Y213004D02*
X729691D01*
X736752D02*
X737464D01*
X738581D02*
X741274D01*
X745439D02*
X747674D01*
X729488Y212954D02*
X729793D01*
X736752D02*
X737464D01*
X738581D02*
X741274D01*
X745490D02*
X747624D01*
X729488Y212903D02*
X729894D01*
X736702D02*
X737464D01*
X738530D02*
X741223D01*
X745490D02*
X747624D01*
X729437Y212852D02*
X729996D01*
X736702D02*
X737413D01*
X738530D02*
X741172D01*
X745490D02*
X747573D01*
X729437Y212801D02*
X730098D01*
X736651D02*
X737413D01*
X738480D02*
X741172D01*
X745490D02*
X747573D01*
X729386Y212750D02*
X730199D01*
X736651D02*
X737413D01*
X738480D02*
X741121D01*
X745490D02*
X747522D01*
X729386Y212700D02*
X730301D01*
X736651D02*
X737362D01*
X738429D02*
X741070D01*
X745490D02*
X747522D01*
X729336Y212649D02*
X730402D01*
X736600D02*
X737362D01*
X738429D02*
X741070D01*
X745490D02*
X747522D01*
X729336Y212598D02*
X730504D01*
X736600D02*
X737311D01*
X738378D02*
X741020D01*
X745490D02*
X747471D01*
X729285Y212547D02*
X730606D01*
X736549D02*
X737311D01*
X738378D02*
X741020D01*
X745490D02*
X747471D01*
X729285Y212496D02*
X730707D01*
X736549D02*
X737260D01*
X738327D02*
X740969D01*
X745490D02*
X747420D01*
X729234Y212446D02*
X730809D01*
X736498D02*
X737260D01*
X738327D02*
X740918D01*
X745490D02*
X747420D01*
X729234Y212395D02*
X730910D01*
X736498D02*
X737260D01*
X738276D02*
X740918D01*
X745490D02*
X747420D01*
X729183Y212344D02*
X731012D01*
X736448D02*
X737210D01*
X738276D02*
X740867D01*
X745490D02*
X747370D01*
X729183Y212293D02*
X731114D01*
X736448D02*
X737210D01*
X738226D02*
X740867D01*
X745490D02*
X747319D01*
X729285Y212242D02*
X731215D01*
X736397D02*
X737159D01*
X738226D02*
X740816D01*
X745490D02*
X747319D01*
X729386Y212192D02*
X731317D01*
X736397D02*
X737159D01*
X738175D02*
X740766D01*
X745541D02*
X747268D01*
X729488Y212141D02*
X731418D01*
X736346D02*
X737108D01*
X738175D02*
X740766D01*
X745541D02*
X747268D01*
X729590Y212090D02*
X731520D01*
X736346D02*
X737108D01*
X738124D02*
X740715D01*
X745541D02*
X747268D01*
X729691Y212039D02*
X731622D01*
X736295D02*
X737057D01*
X738124D02*
X740715D01*
X745541D02*
X747217D01*
X729793Y211988D02*
X731723D01*
X736295D02*
X737057D01*
X738073D02*
X740664D01*
X745541D02*
X747217D01*
X729894Y211938D02*
X731825D01*
X736244D02*
X737006D01*
X738073D02*
X740613D01*
X745541D02*
X747166D01*
X729996Y211887D02*
X731926D01*
X736244D02*
X737006D01*
X738022D02*
X740613D01*
X745541D02*
X747014D01*
X730098Y211836D02*
X732028D01*
X736194D02*
X736956D01*
X738022D02*
X740562D01*
X745541D02*
X746963D01*
X730199Y211785D02*
X732130D01*
X736194D02*
X736956D01*
X737972D02*
X740512D01*
X745541D02*
X746862D01*
X730301Y211734D02*
X732231D01*
X736143D02*
X736905D01*
X737972D02*
X740512D01*
X745541D02*
X746760D01*
X730402Y211684D02*
X732333D01*
X736143D02*
X736905D01*
X737921D02*
X740461D01*
X745592D02*
X746658D01*
X730504Y211633D02*
X732434D01*
X736092D02*
X736854D01*
X737921D02*
X740461D01*
X745592D02*
X746557D01*
X730606Y211582D02*
X732536D01*
X736092D02*
X736854D01*
X737870D02*
X740410D01*
X745592D02*
X746455D01*
X730707Y211531D02*
X732638D01*
X736041D02*
X736803D01*
X737870D02*
X740359D01*
X745642D02*
X746354D01*
X730809Y211480D02*
X732739D01*
X736041D02*
X736803D01*
X737870D02*
X740359D01*
X745642D02*
X746201D01*
X730910Y211430D02*
X732841D01*
X735990D02*
X736752D01*
X737819D02*
X740308D01*
X745693D02*
X746100D01*
X731012Y211379D02*
X732942D01*
X735940D02*
X736752D01*
X737768D02*
X740308D01*
X731114Y211328D02*
X733044D01*
X735940D02*
X736702D01*
X737768D02*
X740258D01*
X731215Y211277D02*
X733146D01*
X735889D02*
X736702D01*
X737718D02*
X740207D01*
X731317Y211226D02*
X733247D01*
X735889D02*
X736651D01*
X737718D02*
X740207D01*
X731418Y211176D02*
X733349D01*
X735838D02*
X736651D01*
X737667D02*
X740156D01*
X731520Y211125D02*
X733450D01*
X735787D02*
X736600D01*
X737667D02*
X740105D01*
X731622Y211074D02*
X733603D01*
X735787D02*
X736549D01*
X737616D02*
X740105D01*
X731723Y211023D02*
X733654D01*
X735736D02*
X736549D01*
X737616D02*
X740054D01*
X728523Y210972D02*
X728574D01*
X731825D02*
X733755D01*
X735686D02*
X736498D01*
X737565D02*
X740054D01*
X728472Y210922D02*
X728675D01*
X731926D02*
X733857D01*
X735635D02*
X736498D01*
X737565D02*
X740004D01*
X728472Y210871D02*
X728777D01*
X732028D02*
X733958D01*
X735635D02*
X736448D01*
X737514D02*
X739953D01*
X728421Y210820D02*
X728878D01*
X732130D02*
X734060D01*
X735584D02*
X736397D01*
X737514D02*
X739953D01*
X728421Y210769D02*
X728980D01*
X732231D02*
X734212D01*
X735533D02*
X736397D01*
X737464D02*
X739902D01*
X728370Y210718D02*
X729082D01*
X732333D02*
X734314D01*
X735482D02*
X736346D01*
X737464D02*
X739902D01*
X751281D02*
X751332D01*
X728370Y210668D02*
X729183D01*
X732434D02*
X734416D01*
X735432D02*
X736295D01*
X737413D02*
X739851D01*
X751230D02*
X751332D01*
X728320Y210617D02*
X729285D01*
X732536D02*
X734568D01*
X735330D02*
X736295D01*
X737413D02*
X739800D01*
X751180D02*
X751332D01*
X728320Y210566D02*
X729386D01*
X732638D02*
X734771D01*
X735228D02*
X736244D01*
X737362D02*
X739800D01*
X751180D02*
X751332D01*
X728269Y210515D02*
X729488D01*
X732739D02*
X736194D01*
X737362D02*
X739750D01*
X751129D02*
X751332D01*
X728269Y210464D02*
X729590D01*
X732841D02*
X736143D01*
X737311D02*
X739699D01*
X751078D02*
X751332D01*
X728218Y210414D02*
X729691D01*
X732942D02*
X736143D01*
X737311D02*
X739699D01*
X751027D02*
X751332D01*
X728218Y210363D02*
X729793D01*
X733044D02*
X736092D01*
X737260D02*
X739648D01*
X750976D02*
X751332D01*
X728167Y210312D02*
X729894D01*
X733146D02*
X736041D01*
X737260D02*
X739648D01*
X750926D02*
X751332D01*
X728167Y210261D02*
X729996D01*
X733247D02*
X735990D01*
X737210D02*
X739597D01*
X750875D02*
X751332D01*
X728116Y210210D02*
X730098D01*
X733349D02*
X735940D01*
X737210D02*
X739546D01*
X750824D02*
X751332D01*
X728116Y210160D02*
X730199D01*
X733450D02*
X735889D01*
X737210D02*
X739546D01*
X750773D02*
X751332D01*
X728066Y210109D02*
X730301D01*
X733552D02*
X735838D01*
X737159D02*
X739496D01*
X750722D02*
X751332D01*
X728066Y210058D02*
X730402D01*
X733654D02*
X735787D01*
X737108D02*
X739496D01*
X750672D02*
X751332D01*
X728015Y210007D02*
X730504D01*
X733755D02*
X735736D01*
X737108D02*
X739445D01*
X750621D02*
X751332D01*
X728015Y209956D02*
X730606D01*
X733857D02*
X735686D01*
X737057D02*
X739394D01*
X750570D02*
X751332D01*
X727964Y209906D02*
X728675D01*
X728777D02*
X730707D01*
X733958D02*
X735635D01*
X737057D02*
X739394D01*
X750570D02*
X751332D01*
X727964Y209855D02*
X728726D01*
X728878D02*
X730809D01*
X734111D02*
X735533D01*
X737057D02*
X739343D01*
X750519D02*
X751332D01*
X727913Y209804D02*
X728777D01*
X728980D02*
X730910D01*
X734212D02*
X735482D01*
X737006D02*
X739343D01*
X750468D02*
X751332D01*
X727913Y209753D02*
X728828D01*
X729082D02*
X731012D01*
X734365D02*
X735330D01*
X736956D02*
X739292D01*
X750418D02*
X751332D01*
X727862Y209702D02*
X728878D01*
X729183D02*
X731114D01*
X734619D02*
X735178D01*
X736956D02*
X739242D01*
X750367D02*
X751332D01*
X727862Y209652D02*
X728878D01*
X729285D02*
X731215D01*
X736905D02*
X739242D01*
X750316D02*
X751332D01*
X727862Y209601D02*
X728929D01*
X729386D02*
X731317D01*
X736905D02*
X739191D01*
X750265D02*
X751332D01*
X727913Y209550D02*
X728980D01*
X729488D02*
X731418D01*
X736854D02*
X739140D01*
X750214D02*
X751332D01*
X727964Y209499D02*
X729031D01*
X729590D02*
X731520D01*
X736854D02*
X739140D01*
X750164D02*
X751332D01*
X727964Y209448D02*
X729082D01*
X729691D02*
X731622D01*
X736854D02*
X739089D01*
X750113D02*
X751332D01*
X728015Y209398D02*
X729132D01*
X729793D02*
X731723D01*
X736803D02*
X739089D01*
X750113D02*
X751332D01*
X728066Y209347D02*
X729132D01*
X729894D02*
X731825D01*
X736752D02*
X739038D01*
X750062D02*
X751332D01*
X728116Y209296D02*
X729183D01*
X729996D02*
X731926D01*
X736752D02*
X738988D01*
X750011D02*
X751332D01*
X728167Y209245D02*
X729234D01*
X730098D02*
X732028D01*
X736702D02*
X738988D01*
X749960D02*
X751332D01*
X728218Y209194D02*
X729285D01*
X730199D02*
X732130D01*
X736702D02*
X738937D01*
X749910D02*
X751332D01*
X728218Y209144D02*
X729336D01*
X730301D02*
X732231D01*
X736702D02*
X738937D01*
X749859D02*
X751332D01*
X728269Y209093D02*
X729386D01*
X730402D02*
X732333D01*
X736651D02*
X738886D01*
X749808D02*
X751332D01*
X728320Y209042D02*
X729386D01*
X730504D02*
X732434D01*
X736600D02*
X738835D01*
X749757D02*
X751332D01*
X728370Y208991D02*
X729437D01*
X730606D02*
X732536D01*
X736600D02*
X738835D01*
X749706D02*
X751332D01*
X728421Y208940D02*
X729488D01*
X730707D02*
X732638D01*
X736549D02*
X738784D01*
X749656D02*
X751332D01*
X728472Y208890D02*
X729539D01*
X730809D02*
X732739D01*
X736549D02*
X738784D01*
X749656D02*
X751332D01*
X728472Y208839D02*
X729590D01*
X730910D02*
X732841D01*
X736498D02*
X738734D01*
X749605D02*
X751332D01*
X728523Y208788D02*
X729640D01*
X731012D02*
X732942D01*
X736498D02*
X738683D01*
X749554D02*
X751332D01*
X728574Y208737D02*
X729640D01*
X731114D02*
X733044D01*
X736498D02*
X738683D01*
X749503D02*
X751332D01*
X728624Y208686D02*
X729691D01*
X731215D02*
X733146D01*
X736448D02*
X738632D01*
X749452D02*
X751332D01*
X728675Y208636D02*
X729742D01*
X731317D02*
X733247D01*
X736397D02*
X738581D01*
X749402D02*
X751332D01*
X728675Y208585D02*
X729793D01*
X731418D02*
X733349D01*
X736397D02*
X738581D01*
X749351D02*
X751332D01*
X728726Y208534D02*
X729844D01*
X731520D02*
X733450D01*
X736346D02*
X738530D01*
X749300D02*
X751332D01*
X728777Y208483D02*
X729844D01*
X731622D02*
X733552D01*
X736346D02*
X738530D01*
X749249D02*
X751332D01*
X728828Y208432D02*
X729894D01*
X731723D02*
X733654D01*
X736346D02*
X738480D01*
X749198D02*
X751332D01*
X728878Y208382D02*
X729945D01*
X731825D02*
X733755D01*
X736295D02*
X738429D01*
X749148D02*
X751332D01*
X757225D02*
X757377D01*
X728929Y208331D02*
X729996D01*
X731926D02*
X733857D01*
X736244D02*
X738429D01*
X749097D02*
X751332D01*
X757072D02*
X757326D01*
X728980Y208280D02*
X730047D01*
X732028D02*
X733958D01*
X736244D02*
X738378D01*
X749097D02*
X751332D01*
X757022D02*
X757326D01*
X728980Y208229D02*
X730098D01*
X732130D02*
X734060D01*
X736194D02*
X738327D01*
X749046D02*
X751332D01*
X756869D02*
X757276D01*
X729031Y208178D02*
X730098D01*
X732231D02*
X734162D01*
X736194D02*
X738327D01*
X748995D02*
X751332D01*
X756768D02*
X757276D01*
X729082Y208128D02*
X730148D01*
X732333D02*
X734263D01*
X736194D02*
X738276D01*
X748944D02*
X751332D01*
X756564D02*
X757225D01*
X729132Y208077D02*
X730199D01*
X732434D02*
X734365D01*
X736143D02*
X738276D01*
X748894D02*
X751332D01*
X756463D02*
X757174D01*
X729183Y208026D02*
X730250D01*
X732536D02*
X734466D01*
X736143D02*
X738226D01*
X748843D02*
X751332D01*
X756310D02*
X757174D01*
X729183Y207975D02*
X730301D01*
X732638D02*
X734568D01*
X736092D02*
X738175D01*
X748792D02*
X751332D01*
X756260D02*
X757174D01*
X729234Y207924D02*
X730352D01*
X732739D02*
X734670D01*
X736041D02*
X738175D01*
X748741D02*
X751383D01*
X756056D02*
X757123D01*
X729285Y207874D02*
X730352D01*
X732841D02*
X734771D01*
X736041D02*
X738124D01*
X748690D02*
X751383D01*
X755955D02*
X757123D01*
X729336Y207823D02*
X730402D01*
X732942D02*
X734873D01*
X735990D02*
X738124D01*
X748690D02*
X751383D01*
X755802D02*
X757072D01*
X729386Y207772D02*
X730453D01*
X733044D02*
X734873D01*
X735990D02*
X738073D01*
X748640D02*
X751383D01*
X755701D02*
X757072D01*
X729437Y207721D02*
X730504D01*
X733146D02*
X734822D01*
X735990D02*
X738022D01*
X748538D02*
X751383D01*
X755498D02*
X757022D01*
X729437Y207670D02*
X730555D01*
X733247D02*
X734822D01*
X735940D02*
X738022D01*
X748538D02*
X751383D01*
X755396D02*
X757022D01*
X729488Y207620D02*
X730606D01*
X733349D02*
X734771D01*
X735889D02*
X737972D01*
X748487D02*
X751434D01*
X755193D02*
X756971D01*
X729539Y207569D02*
X730606D01*
X733450D02*
X734771D01*
X735889D02*
X737972D01*
X748436D02*
X751434D01*
X755142D02*
X756971D01*
X729590Y207518D02*
X730656D01*
X733552D02*
X734720D01*
X735838D02*
X737921D01*
X748386D02*
X751434D01*
X754990D02*
X756971D01*
X729640Y207467D02*
X730707D01*
X733654D02*
X734720D01*
X735838D02*
X737870D01*
X748335D02*
X751484D01*
X754888D02*
X756920D01*
X729691Y207416D02*
X730758D01*
X733755D02*
X734670D01*
X735838D02*
X737870D01*
X748284D02*
X751484D01*
X754685D02*
X756869D01*
X729691Y207366D02*
X730809D01*
X733857D02*
X734670D01*
X735787D02*
X737819D01*
X748233D02*
X751484D01*
X754583D02*
X756869D01*
X729742Y207315D02*
X730809D01*
X733958D02*
X734619D01*
X735787D02*
X737768D01*
X748182D02*
X751535D01*
X754380D02*
X756818D01*
X729793Y207264D02*
X730860D01*
X734060D02*
X734619D01*
X735736D02*
X737768D01*
X748132D02*
X751586D01*
X754278D02*
X756818D01*
X729844Y207213D02*
X730910D01*
X734162D02*
X734568D01*
X735736D02*
X737718D01*
X748081D02*
X751586D01*
X754024D02*
X756818D01*
X729894Y207162D02*
X730961D01*
X734263D02*
X734568D01*
X735686D02*
X737718D01*
X748081D02*
X751637D01*
X753923D02*
X756768D01*
X729945Y207112D02*
X731012D01*
X734365D02*
X734517D01*
X735635D02*
X737667D01*
X747979D02*
X751688D01*
X753720D02*
X756768D01*
X729945Y207061D02*
X731063D01*
X734466D02*
X734517D01*
X735635D02*
X737616D01*
X747979D02*
X751738D01*
X753618D02*
X756717D01*
X729996Y207010D02*
X731063D01*
X735584D02*
X737616D01*
X747928D02*
X751789D01*
X753313D02*
X756666D01*
X730047Y206959D02*
X731114D01*
X735584D02*
X737565D01*
X747878D02*
X751891D01*
X753161D02*
X756666D01*
X730098Y206908D02*
X731164D01*
X735584D02*
X737565D01*
X747827D02*
X751992D01*
X752907D02*
X756615D01*
X730148Y206858D02*
X731215D01*
X735533D02*
X737514D01*
X747776D02*
X750773D01*
X750824D02*
X752297D01*
X752551D02*
X756615D01*
X730199Y206807D02*
X731266D01*
X735482D02*
X737464D01*
X747725D02*
X750722D01*
X750824D02*
X756615D01*
X730199Y206756D02*
X731266D01*
X735482D02*
X737464D01*
X747674D02*
X750672D01*
X750824D02*
X756564D01*
X730250Y206705D02*
X731317D01*
X735482D02*
X737413D01*
X747624D02*
X750621D01*
X750824D02*
X756564D01*
X730301Y206654D02*
X731368D01*
X735432D02*
X737362D01*
X747624D02*
X750570D01*
X750824D02*
X756514D01*
X730352Y206604D02*
X731418D01*
X735432D02*
X737362D01*
X747573D02*
X750519D01*
X750824D02*
X756514D01*
X730402Y206553D02*
X731469D01*
X735381D02*
X737311D01*
X747522D02*
X750468D01*
X750824D02*
X756463D01*
X730402Y206502D02*
X731520D01*
X735330D02*
X737311D01*
X747471D02*
X750418D01*
X750824D02*
X756463D01*
X730453Y206451D02*
X731520D01*
X735330D02*
X737260D01*
X747420D02*
X750316D01*
X750824D02*
X756412D01*
X730504Y206400D02*
X731571D01*
X735279D02*
X737210D01*
X747370D02*
X750265D01*
X750824D02*
X756412D01*
X730555Y206350D02*
X731622D01*
X735279D02*
X737210D01*
X747319D02*
X750214D01*
X750824D02*
X756361D01*
X730606Y206299D02*
X731672D01*
X735279D02*
X737159D01*
X747268D02*
X750164D01*
X750824D02*
X756361D01*
X730656Y206248D02*
X731723D01*
X735228D02*
X737159D01*
X747217D02*
X750113D01*
X750824D02*
X756310D01*
X730656Y206197D02*
X731774D01*
X735228D02*
X737108D01*
X747217D02*
X750062D01*
X750824D02*
X756310D01*
X730707Y206146D02*
X731774D01*
X735178D02*
X737057D01*
X747166D02*
X750011D01*
X750824D02*
X756260D01*
X730758Y206096D02*
X731825D01*
X735127D02*
X737057D01*
X747116D02*
X749960D01*
X750824D02*
X756260D01*
X730809Y206045D02*
X731876D01*
X735127D02*
X737006D01*
X747065D02*
X749859D01*
X750824D02*
X756209D01*
X730860Y205994D02*
X731926D01*
X735076D02*
X736956D01*
X747014D02*
X749808D01*
X750824D02*
X756209D01*
X730910Y205943D02*
X731977D01*
X735076D02*
X736956D01*
X746963D02*
X749757D01*
X750824D02*
X756158D01*
X730910Y205892D02*
X731977D01*
X735076D02*
X736905D01*
X746912D02*
X749706D01*
X750824D02*
X756158D01*
X730961Y205842D02*
X732028D01*
X735025D02*
X736905D01*
X746862D02*
X749656D01*
X750824D02*
X756107D01*
X731012Y205791D02*
X732079D01*
X734974D02*
X736854D01*
X746811D02*
X749605D01*
X750824D02*
X756107D01*
X731063Y205740D02*
X732130D01*
X734974D02*
X736803D01*
X746760D02*
X749554D01*
X750824D02*
X756056D01*
X731114Y205689D02*
X732180D01*
X734924D02*
X736803D01*
X746709D02*
X749503D01*
X750824D02*
X756056D01*
X731164Y205638D02*
X732231D01*
X734924D02*
X736752D01*
X746658D02*
X749452D01*
X750824D02*
X756006D01*
X731164Y205588D02*
X732231D01*
X734873D02*
X736752D01*
X746608D02*
X749351D01*
X750824D02*
X756006D01*
X731215Y205537D02*
X732282D01*
X734873D02*
X736702D01*
X746557D02*
X749300D01*
X750824D02*
X756006D01*
X731266Y205486D02*
X732333D01*
X734822D02*
X736651D01*
X746557D02*
X749249D01*
X750824D02*
X755955D01*
X731317Y205435D02*
X732384D01*
X734822D02*
X736651D01*
X746506D02*
X749198D01*
X750824D02*
X755904D01*
X731368Y205384D02*
X732434D01*
X734771D02*
X736600D01*
X746455D02*
X749148D01*
X750824D02*
X755904D01*
X731368Y205334D02*
X732485D01*
X734771D02*
X736600D01*
X746404D02*
X749097D01*
X750824D02*
X755853D01*
X731418Y205283D02*
X732485D01*
X734771D02*
X736549D01*
X746354D02*
X749046D01*
X750824D02*
X755853D01*
X731469Y205232D02*
X732536D01*
X734720D02*
X736498D01*
X746303D02*
X748995D01*
X750824D02*
X755853D01*
X731520Y205181D02*
X732587D01*
X734720D02*
X736498D01*
X746252D02*
X748944D01*
X750824D02*
X755802D01*
X731571Y205130D02*
X732638D01*
X734670D02*
X736448D01*
X746201D02*
X748843D01*
X750824D02*
X755752D01*
X731622Y205080D02*
X732688D01*
X734619D02*
X736397D01*
X746150D02*
X748792D01*
X750824D02*
X755752D01*
X731672Y205029D02*
X732739D01*
X734619D02*
X736397D01*
X746150D02*
X748741D01*
X750824D02*
X755752D01*
X731672Y204978D02*
X732739D01*
X734619D02*
X736346D01*
X746100D02*
X748690D01*
X750824D02*
X755701D01*
X731723Y204927D02*
X732790D01*
X734568D02*
X736346D01*
X746049D02*
X748640D01*
X750824D02*
X755701D01*
X731774Y204876D02*
X732841D01*
X734517D02*
X736295D01*
X745998D02*
X748589D01*
X750824D02*
X755650D01*
X731825Y204826D02*
X732892D01*
X734517D02*
X736244D01*
X745947D02*
X748538D01*
X750875D02*
X755650D01*
X725424Y204775D02*
X726084D01*
X731876D02*
X732942D01*
X734517D02*
X736244D01*
X745896D02*
X748487D01*
X750875D02*
X755548D01*
X725373Y204724D02*
X727202D01*
X731926D02*
X732942D01*
X734466D02*
X736194D01*
X745846D02*
X748386D01*
X750875D02*
X755396D01*
X725373Y204673D02*
X728370D01*
X731926D02*
X732993D01*
X734416D02*
X736194D01*
X745795D02*
X748335D01*
X750875D02*
X755244D01*
X725322Y204622D02*
X729437D01*
X731977D02*
X733044D01*
X734416D02*
X736143D01*
X745744D02*
X748284D01*
X750875D02*
X755040D01*
X725322Y204572D02*
X730656D01*
X732028D02*
X733095D01*
X734416D02*
X736092D01*
X745693D02*
X748233D01*
X750875D02*
X754939D01*
X725272Y204521D02*
X731571D01*
X732079D02*
X733146D01*
X734365D02*
X736092D01*
X745642D02*
X748182D01*
X750926D02*
X754736D01*
X725272Y204470D02*
X733196D01*
X734365D02*
X736041D01*
X745592D02*
X748132D01*
X750926D02*
X754532D01*
X725221Y204419D02*
X733196D01*
X734314D02*
X735990D01*
X745541D02*
X748081D01*
X750926D02*
X754431D01*
X725221Y204368D02*
X733146D01*
X734263D02*
X735990D01*
X745490D02*
X748030D01*
X750976D02*
X754228D01*
X725170Y204318D02*
X733146D01*
X734263D02*
X735940D01*
X745490D02*
X747928D01*
X750976D02*
X753974D01*
X725170Y204267D02*
X733095D01*
X734263D02*
X735940D01*
X745439D02*
X747878D01*
X751027D02*
X753923D01*
X725119Y204216D02*
X733095D01*
X734212D02*
X735889D01*
X745388D02*
X747827D01*
X751027D02*
X753669D01*
X725119Y204165D02*
X733044D01*
X734212D02*
X735838D01*
X745338D02*
X747776D01*
X751078D02*
X753466D01*
X725068Y204114D02*
X733044D01*
X734162D02*
X735838D01*
X745287D02*
X747725D01*
X751129D02*
X753262D01*
X725068Y204064D02*
X732993D01*
X734162D02*
X735787D01*
X745236D02*
X747674D01*
X751180D02*
X753059D01*
X725018Y204013D02*
X732993D01*
X734111D02*
X735787D01*
X745185D02*
X747624D01*
X751230D02*
X752856D01*
X725018Y203962D02*
X732942D01*
X734060D02*
X735736D01*
X745134D02*
X747573D01*
X751383D02*
X752551D01*
X724967Y203911D02*
X725780D01*
X726745D02*
X732942D01*
X734060D02*
X735686D01*
X745084D02*
X747522D01*
X751535D02*
X752196D01*
X724967Y203860D02*
X725881D01*
X728015D02*
X732892D01*
X734060D02*
X735686D01*
X745084D02*
X747420D01*
X724916Y203810D02*
X725983D01*
X729386D02*
X732892D01*
X734009D02*
X735635D01*
X745033D02*
X747370D01*
X724916Y203759D02*
X726084D01*
X730504D02*
X732841D01*
X734009D02*
X735635D01*
X744931D02*
X747319D01*
X724865Y203708D02*
X726186D01*
X731774D02*
X732841D01*
X733958D02*
X735584D01*
X744880D02*
X747268D01*
X724865Y203657D02*
X726288D01*
X733908D02*
X735533D01*
X744779D02*
X747217D01*
X724814Y203606D02*
X726389D01*
X733908D02*
X735533D01*
X744728D02*
X747166D01*
X724814Y203556D02*
X726491D01*
X733908D02*
X735482D01*
X744677D02*
X747116D01*
X724764Y203505D02*
X726592D01*
X733857D02*
X735432D01*
X744626D02*
X747014D01*
X724764Y203454D02*
X726694D01*
X733857D02*
X735432D01*
X744626D02*
X746963D01*
X724865Y203403D02*
X726796D01*
X733806D02*
X735381D01*
X744576D02*
X746912D01*
X724967Y203352D02*
X726897D01*
X733806D02*
X735381D01*
X744576D02*
X746862D01*
X725068Y203302D02*
X726999D01*
X733755D02*
X735330D01*
X744525D02*
X746811D01*
X725170Y203251D02*
X727100D01*
X733704D02*
X735279D01*
X744474D02*
X746760D01*
X725272Y203200D02*
X727202D01*
X733704D02*
X735279D01*
X744474D02*
X746709D01*
X725373Y203149D02*
X727304D01*
X733654D02*
X735228D01*
X744423D02*
X746658D01*
X725475Y203098D02*
X727405D01*
X733654D02*
X735178D01*
X744423D02*
X746608D01*
X725576Y203048D02*
X727507D01*
X733654D02*
X735178D01*
X744372D02*
X746506D01*
X725678Y202997D02*
X727608D01*
X733603D02*
X735127D01*
X744372D02*
X746506D01*
X725780Y202946D02*
X727710D01*
X733603D02*
X735127D01*
X744322D02*
X746404D01*
X725881Y202895D02*
X727812D01*
X733552D02*
X735076D01*
X744271D02*
X746354D01*
X725983Y202844D02*
X727913D01*
X733552D02*
X735025D01*
X744271D02*
X746303D01*
X726084Y202794D02*
X728015D01*
X733501D02*
X735025D01*
X744271D02*
X746252D01*
X726186Y202743D02*
X728116D01*
X733501D02*
X734974D01*
X744220D02*
X746201D01*
X726288Y202692D02*
X728218D01*
X733450D02*
X734974D01*
X744220D02*
X746100D01*
X726389Y202641D02*
X728320D01*
X733450D02*
X734924D01*
X744169D02*
X746100D01*
X726491Y202590D02*
X728421D01*
X733400D02*
X734873D01*
X744169D02*
X746049D01*
X726592Y202540D02*
X728523D01*
X733349D02*
X734873D01*
X744118D02*
X745947D01*
X726694Y202489D02*
X728624D01*
X733349D02*
X734822D01*
X744068D02*
X745896D01*
X726796Y202438D02*
X728726D01*
X733349D02*
X734822D01*
X744068D02*
X745846D01*
X726897Y202387D02*
X728828D01*
X733298D02*
X734771D01*
X744017D02*
X745795D01*
X726999Y202336D02*
X728929D01*
X733298D02*
X734720D01*
X744017D02*
X745744D01*
X727100Y202286D02*
X729031D01*
X733247D02*
X734720D01*
X744017D02*
X745693D01*
X727202Y202235D02*
X729132D01*
X733196D02*
X734670D01*
X743966D02*
X745642D01*
X727304Y202184D02*
X729234D01*
X733196D02*
X734619D01*
X743966D02*
X745541D01*
X727405Y202133D02*
X729336D01*
X733196D02*
X734619D01*
X743915D02*
X745490D01*
X727507Y202082D02*
X729437D01*
X733146D02*
X734568D01*
X743915D02*
X745439D01*
X727608Y202032D02*
X729539D01*
X733146D02*
X734568D01*
X743915D02*
X745388D01*
X727710Y201981D02*
X729640D01*
X733095D02*
X734517D01*
X743864D02*
X745338D01*
X727812Y201930D02*
X729742D01*
X733044D02*
X734466D01*
X743864D02*
X745287D01*
X727913Y201879D02*
X729844D01*
X733044D02*
X734466D01*
X743864D02*
X745236D01*
X728015Y201828D02*
X729945D01*
X733044D02*
X734416D01*
X743864D02*
X745185D01*
X728116Y201778D02*
X730047D01*
X732993D02*
X734416D01*
X743864D02*
X745134D01*
X724560Y201727D02*
X725119D01*
X728218D02*
X730148D01*
X732993D02*
X734365D01*
X743864D02*
X745084D01*
X724357Y201676D02*
X725373D01*
X728320D02*
X730250D01*
X732942D02*
X734314D01*
X743864D02*
X744982D01*
X724256Y201625D02*
X725526D01*
X728421D02*
X730352D01*
X732942D02*
X734314D01*
X743864D02*
X744931D01*
X724154Y201574D02*
X725678D01*
X728523D02*
X730453D01*
X732892D02*
X734263D01*
X743915D02*
X744880D01*
X724103Y201524D02*
X725780D01*
X728624D02*
X730555D01*
X732892D02*
X734212D01*
X743915D02*
X744830D01*
X724002Y201473D02*
X725881D01*
X728726D02*
X730656D01*
X732841D02*
X734212D01*
X743966D02*
X744728D01*
X723951Y201422D02*
X725983D01*
X728828D02*
X730758D01*
X732841D02*
X734162D01*
X744017D02*
X744626D01*
X723900Y201371D02*
X726084D01*
X728929D02*
X730860D01*
X732790D02*
X734162D01*
X744068D02*
X744525D01*
X723849Y201320D02*
X726186D01*
X729031D02*
X730961D01*
X732790D02*
X734111D01*
X744169D02*
X744372D01*
X723798Y201270D02*
X726288D01*
X729132D02*
X731063D01*
X732739D02*
X734060D01*
X723748Y201219D02*
X726389D01*
X729234D02*
X731164D01*
X732688D02*
X734060D01*
X723697Y201168D02*
X726440D01*
X729336D02*
X731266D01*
X732688D02*
X734009D01*
X723646Y201117D02*
X726542D01*
X729437D02*
X731368D01*
X732688D02*
X734009D01*
X723646Y201066D02*
X726592D01*
X729539D02*
X731469D01*
X732638D02*
X733958D01*
X723595Y201016D02*
X726694D01*
X729640D02*
X731469D01*
X732638D02*
X733908D01*
X723544Y200965D02*
X726745D01*
X729742D02*
X731469D01*
X732587D02*
X733908D01*
X723544Y200914D02*
X724560D01*
X724967D02*
X726796D01*
X729844D02*
X731418D01*
X732587D02*
X733857D01*
X723494Y200863D02*
X724459D01*
X725119D02*
X726846D01*
X729945D02*
X731418D01*
X732536D02*
X733806D01*
X723443Y200812D02*
X724357D01*
X725322D02*
X726897D01*
X730047D02*
X731368D01*
X732536D02*
X733806D01*
X723443Y200762D02*
X724306D01*
X725424D02*
X726948D01*
X730148D02*
X731368D01*
X732485D02*
X733755D01*
X723392Y200711D02*
X724256D01*
X725526D02*
X726999D01*
X730250D02*
X731317D01*
X732485D02*
X733755D01*
X723341Y200660D02*
X724205D01*
X725678D02*
X727050D01*
X730352D02*
X731317D01*
X732434D02*
X733704D01*
X723341Y200609D02*
X724154D01*
X725780D02*
X727050D01*
X730453D02*
X731266D01*
X732434D02*
X733654D01*
X723290Y200558D02*
X724103D01*
X725881D02*
X727100D01*
X730555D02*
X731266D01*
X732384D02*
X733654D01*
X723290Y200508D02*
X724052D01*
X725983D02*
X727151D01*
X730656D02*
X731215D01*
X732384D02*
X733603D01*
X723240Y200457D02*
X724052D01*
X726034D02*
X727151D01*
X730758D02*
X731215D01*
X732333D02*
X733603D01*
X723240Y200406D02*
X724002D01*
X726135D02*
X727151D01*
X730860D02*
X731164D01*
X732333D02*
X733552D01*
X723189Y200355D02*
X723951D01*
X726186D02*
X727151D01*
X730961D02*
X731164D01*
X732282D02*
X733501D01*
X723189Y200304D02*
X723951D01*
X726237D02*
X727202D01*
X731063D02*
X731114D01*
X732282D02*
X733501D01*
X723138Y200254D02*
X723900D01*
X726288D02*
X727202D01*
X732231D02*
X733450D01*
X723138Y200203D02*
X723900D01*
X726338D02*
X727202D01*
X732231D02*
X733450D01*
X723087Y200152D02*
X723849D01*
X726389D02*
X727202D01*
X732180D02*
X733400D01*
X723087Y200101D02*
X723849D01*
X726440D02*
X727202D01*
X732180D02*
X733349D01*
X723036Y200050D02*
X723798D01*
X726491D02*
X727202D01*
X727913D02*
X728320D01*
X732130D02*
X733349D01*
X723036Y200000D02*
X723798D01*
X726491D02*
X727202D01*
X727761D02*
X728574D01*
X732130D02*
X733298D01*
X722986Y199949D02*
X723748D01*
X726542D02*
X727202D01*
X727659D02*
X728675D01*
X732079D02*
X733247D01*
X722986Y199898D02*
X723748D01*
X726542D02*
X727202D01*
X727558D02*
X728828D01*
X732079D02*
X733247D01*
X722935Y199847D02*
X723697D01*
X726592D02*
X727202D01*
X727456D02*
X728929D01*
X732028D02*
X733196D01*
X722935Y199796D02*
X723697D01*
X726592D02*
X727202D01*
X727405D02*
X729031D01*
X731977D02*
X733196D01*
X722884Y199746D02*
X723646D01*
X726592D02*
X727151D01*
X727354D02*
X729132D01*
X731977D02*
X733146D01*
X722884Y199695D02*
X723646D01*
X726592D02*
X727151D01*
X727304D02*
X729234D01*
X731977D02*
X733095D01*
X722833Y199644D02*
X723595D01*
X726592D02*
X727151D01*
X727253D02*
X729336D01*
X731926D02*
X733095D01*
X722833Y199593D02*
X723595D01*
X726592D02*
X727151D01*
X727253D02*
X729437D01*
X731926D02*
X733044D01*
X722782Y199542D02*
X723544D01*
X726592D02*
X727151D01*
X727202D02*
X729539D01*
X731876D02*
X733044D01*
X722782Y199492D02*
X723544D01*
X726592D02*
X727100D01*
X727151D02*
X729640D01*
X731876D02*
X732993D01*
X753262D02*
X753313D01*
X722732Y199441D02*
X723494D01*
X726592D02*
X729742D01*
X731825D02*
X732942D01*
X753262D02*
X753313D01*
X722732Y199390D02*
X723494D01*
X726592D02*
X729844D01*
X731825D02*
X732942D01*
X753212D02*
X753313D01*
X722681Y199339D02*
X723443D01*
X726542D02*
X729945D01*
X731774D02*
X732892D01*
X753161D02*
X753313D01*
X722681Y199288D02*
X723443D01*
X726542D02*
X730047D01*
X731774D02*
X732841D01*
X753161D02*
X753313D01*
X722630Y199238D02*
X723392D01*
X726542D02*
X730148D01*
X731723D02*
X732841D01*
X753161D02*
X753313D01*
X722630Y199187D02*
X723392D01*
X726542D02*
X727761D01*
X728116D02*
X730250D01*
X731723D02*
X732790D01*
X753110D02*
X753313D01*
X722579Y199136D02*
X723341D01*
X726491D02*
X727608D01*
X728320D02*
X730352D01*
X731672D02*
X732790D01*
X753059D02*
X753313D01*
X722579Y199085D02*
X723341D01*
X726491D02*
X727507D01*
X728472D02*
X730453D01*
X731672D02*
X732739D01*
X753059D02*
X753313D01*
X722528Y199034D02*
X723290D01*
X726491D02*
X727405D01*
X728574D02*
X730504D01*
X731622D02*
X732688D01*
X753008D02*
X753313D01*
X722528Y198984D02*
X723290D01*
X726440D02*
X727354D01*
X728675D02*
X730453D01*
X731622D02*
X732688D01*
X753008D02*
X753313D01*
X722478Y198933D02*
X723240D01*
X726440D02*
X727304D01*
X728777D02*
X730453D01*
X731571D02*
X732638D01*
X752958D02*
X753313D01*
X722478Y198882D02*
X723240D01*
X726389D02*
X727253D01*
X728878D02*
X730402D01*
X731571D02*
X732638D01*
X752958D02*
X753364D01*
X722427Y198831D02*
X723189D01*
X726389D02*
X727202D01*
X728980D02*
X730402D01*
X731520D02*
X732587D01*
X752907D02*
X753364D01*
X722427Y198780D02*
X723189D01*
X726389D02*
X727151D01*
X729082D02*
X730352D01*
X731520D02*
X732536D01*
X752907D02*
X753364D01*
X722376Y198730D02*
X723138D01*
X726338D02*
X727151D01*
X729183D02*
X730352D01*
X731469D02*
X732536D01*
X752907D02*
X753415D01*
X722376Y198679D02*
X723138D01*
X726338D02*
X727100D01*
X729285D02*
X730301D01*
X731469D02*
X732485D01*
X752856D02*
X753415D01*
X722325Y198628D02*
X723087D01*
X726288D02*
X727050D01*
X729386D02*
X730301D01*
X731418D02*
X732434D01*
X752856D02*
X753466D01*
X722325Y198577D02*
X723087D01*
X726288D02*
X727050D01*
X729488D02*
X730250D01*
X731418D02*
X732434D01*
X752856D02*
X753516D01*
X722274Y198526D02*
X723036D01*
X726237D02*
X726999D01*
X729590D02*
X730250D01*
X731368D02*
X732384D01*
X752805D02*
X753516D01*
X722274Y198476D02*
X723036D01*
X726237D02*
X726999D01*
X729691D02*
X730199D01*
X731368D02*
X732384D01*
X752805D02*
X753567D01*
X722224Y198425D02*
X722986D01*
X726186D02*
X726948D01*
X729793D02*
X730199D01*
X731317D02*
X732333D01*
X752754D02*
X753618D01*
X722224Y198374D02*
X722986D01*
X726186D02*
X726948D01*
X729894D02*
X730148D01*
X731266D02*
X732282D01*
X752754D02*
X753669D01*
X722173Y198323D02*
X722935D01*
X726135D02*
X726897D01*
X729996D02*
X730148D01*
X731266D02*
X732282D01*
X752754D02*
X753720D01*
X722173Y198272D02*
X722935D01*
X726135D02*
X726897D01*
X731266D02*
X732231D01*
X752754D02*
X753821D01*
X722122Y198222D02*
X722884D01*
X726084D02*
X726846D01*
X731215D02*
X732231D01*
X752754D02*
X753872D01*
X722122Y198171D02*
X722884D01*
X726084D02*
X726846D01*
X731215D02*
X732180D01*
X752704D02*
X753923D01*
X722071Y198120D02*
X722833D01*
X726034D02*
X726796D01*
X731164D02*
X732130D01*
X752704D02*
X754024D01*
X722071Y198069D02*
X722833D01*
X726034D02*
X726796D01*
X731164D02*
X732130D01*
X752704D02*
X754126D01*
X722020Y198018D02*
X722782D01*
X725983D02*
X726745D01*
X731114D02*
X732079D01*
X752704D02*
X754177D01*
X722020Y197968D02*
X722782D01*
X725983D02*
X726745D01*
X731114D02*
X732079D01*
X752704D02*
X754278D01*
X721970Y197917D02*
X722732D01*
X725932D02*
X726694D01*
X731063D02*
X732028D01*
X752704D02*
X754329D01*
X721970Y197866D02*
X722732D01*
X725932D02*
X726694D01*
X731063D02*
X731977D01*
X752704D02*
X754431D01*
X721919Y197815D02*
X722681D01*
X725881D02*
X726643D01*
X731012D02*
X731977D01*
X752704D02*
X754482D01*
X721919Y197764D02*
X722681D01*
X725881D02*
X726643D01*
X731012D02*
X731926D01*
X752754D02*
X754634D01*
X721868Y197714D02*
X722630D01*
X725830D02*
X726592D01*
X730961D02*
X731876D01*
X752754D02*
X754685D01*
X721868Y197663D02*
X722630D01*
X725830D02*
X726592D01*
X730961D02*
X731876D01*
X752805D02*
X754786D01*
X721817Y197612D02*
X722579D01*
X725780D02*
X726542D01*
X730910D02*
X731825D01*
X752805D02*
X754786D01*
X721817Y197561D02*
X722579D01*
X725780D02*
X726542D01*
X730910D02*
X731825D01*
X752856D02*
X754736D01*
X721766Y197510D02*
X722579D01*
X725729D02*
X726491D01*
X730860D02*
X731774D01*
X752907D02*
X754685D01*
X721766Y197460D02*
X722630D01*
X725729D02*
X726491D01*
X730860D02*
X731723D01*
X752958D02*
X754634D01*
X721716Y197409D02*
X722732D01*
X725678D02*
X726440D01*
X730809D02*
X731723D01*
X753008D02*
X754583D01*
X721716Y197358D02*
X722833D01*
X725678D02*
X726440D01*
X730809D02*
X731672D01*
X753059D02*
X754482D01*
X721665Y197307D02*
X722935D01*
X725627D02*
X726389D01*
X730758D02*
X731672D01*
X753161D02*
X754482D01*
X721665Y197256D02*
X723036D01*
X725627D02*
X726389D01*
X730758D02*
X731622D01*
X753212D02*
X754380D01*
X721614Y197206D02*
X723138D01*
X725576D02*
X726338D01*
X730707D02*
X731571D01*
X753313D02*
X754329D01*
X721614Y197155D02*
X723240D01*
X725576D02*
X726338D01*
X730707D02*
X731571D01*
X753415D02*
X754278D01*
X721563Y197104D02*
X723341D01*
X725526D02*
X726288D01*
X730656D02*
X731520D01*
X753516D02*
X754228D01*
X721563Y197053D02*
X723443D01*
X725526D02*
X726288D01*
X730656D02*
X731520D01*
X753618D02*
X754177D01*
X721614Y197002D02*
X723544D01*
X725475D02*
X726237D01*
X730606D02*
X731469D01*
X753669D02*
X754126D01*
X721716Y196952D02*
X723646D01*
X725475D02*
X726237D01*
X730606D02*
X731418D01*
X753821D02*
X754024D01*
X721817Y196901D02*
X723748D01*
X725424D02*
X726186D01*
X730555D02*
X731418D01*
X753923D02*
X753974D01*
X721919Y196850D02*
X723849D01*
X725424D02*
X726186D01*
X730555D02*
X731368D01*
X722020Y196799D02*
X723951D01*
X725373D02*
X726135D01*
X730504D02*
X731317D01*
X722122Y196748D02*
X724052D01*
X725373D02*
X726135D01*
X730504D02*
X731317D01*
X722224Y196698D02*
X724154D01*
X725322D02*
X726084D01*
X730453D02*
X731266D01*
X722325Y196647D02*
X724256D01*
X725322D02*
X726084D01*
X730453D02*
X731266D01*
X722427Y196596D02*
X724357D01*
X725272D02*
X726034D01*
X730402D02*
X731215D01*
X722528Y196545D02*
X724459D01*
X725272D02*
X726034D01*
X730402D02*
X731164D01*
X722630Y196494D02*
X724560D01*
X725221D02*
X725983D01*
X730352D02*
X731164D01*
X722732Y196444D02*
X724662D01*
X725221D02*
X725983D01*
X730352D02*
X731114D01*
X722833Y196393D02*
X724814D01*
X725170D02*
X725932D01*
X730301D02*
X731063D01*
X722935Y196342D02*
X724865D01*
X725170D02*
X725932D01*
X730301D02*
X731063D01*
X723036Y196291D02*
X724967D01*
X725119D02*
X725881D01*
X730250D02*
X731012D01*
X723138Y196240D02*
X725881D01*
X730250D02*
X731012D01*
X723240Y196190D02*
X725830D01*
X730199D02*
X730961D01*
X723341Y196139D02*
X725830D01*
X730199D02*
X730910D01*
X723443Y196088D02*
X725780D01*
X730148D02*
X730910D01*
X723544Y196037D02*
X725780D01*
X730148D02*
X730860D01*
X723646Y195986D02*
X725729D01*
X730098D02*
X730860D01*
X723748Y195936D02*
X725729D01*
X730098D02*
X730809D01*
X723849Y195885D02*
X725780D01*
X730047D02*
X730758D01*
X723951Y195834D02*
X725881D01*
X730047D02*
X730758D01*
X724052Y195783D02*
X726034D01*
X729996D02*
X730707D01*
X724154Y195732D02*
X726135D01*
X729996D02*
X730707D01*
X724256Y195682D02*
X726186D01*
X729945D02*
X730656D01*
X724357Y195631D02*
X726338D01*
X729945D02*
X730606D01*
X724459Y195580D02*
X726389D01*
X729894D02*
X730606D01*
X724560Y195529D02*
X726491D01*
X729894D02*
X730555D01*
X721462Y195478D02*
X721766D01*
X724662D02*
X726643D01*
X729844D02*
X730504D01*
X721258Y195428D02*
X722122D01*
X724764D02*
X726694D01*
X729844D02*
X730504D01*
X752297D02*
X752348D01*
X721157Y195377D02*
X722325D01*
X724865D02*
X726796D01*
X729793D02*
X730453D01*
X752196D02*
X752297D01*
X721055Y195326D02*
X722528D01*
X724967D02*
X726948D01*
X729793D02*
X730453D01*
X752145D02*
X752246D01*
X721004Y195275D02*
X722681D01*
X725068D02*
X727050D01*
X729742D02*
X730402D01*
X752094D02*
X752196D01*
X720903Y195224D02*
X722782D01*
X725170D02*
X727100D01*
X729742D02*
X730352D01*
X751992D02*
X752145D01*
X720852Y195174D02*
X722935D01*
X725272D02*
X727253D01*
X729691D02*
X730352D01*
X751942D02*
X752094D01*
X720801Y195123D02*
X723087D01*
X725373D02*
X727354D01*
X729691D02*
X730301D01*
X751840D02*
X751992D01*
X720750Y195072D02*
X723189D01*
X725475D02*
X727405D01*
X729640D02*
X730301D01*
X751789D02*
X751942D01*
X720700Y195021D02*
X723341D01*
X725576D02*
X727558D01*
X729640D02*
X730250D01*
X751738D02*
X751891D01*
X720649Y194970D02*
X723443D01*
X725678D02*
X727608D01*
X729590D02*
X730199D01*
X751637D02*
X751840D01*
X720598Y194920D02*
X723544D01*
X725780D02*
X727761D01*
X729590D02*
X730199D01*
X751586D02*
X751789D01*
X720547Y194869D02*
X723697D01*
X725881D02*
X727862D01*
X729539D02*
X730148D01*
X751535D02*
X751738D01*
X720496Y194818D02*
X723798D01*
X725983D02*
X727913D01*
X729539D02*
X730098D01*
X751434D02*
X751688D01*
X720496Y194767D02*
X723900D01*
X726084D02*
X728066D01*
X729488D02*
X730098D01*
X751383D02*
X751586D01*
X720446Y194716D02*
X724002D01*
X726186D02*
X728167D01*
X729488D02*
X730047D01*
X751281D02*
X751535D01*
X720395Y194666D02*
X721462D01*
X722020D02*
X724103D01*
X726288D02*
X728269D01*
X729437D02*
X730047D01*
X751230D02*
X751484D01*
X720344Y194615D02*
X721360D01*
X722224D02*
X724205D01*
X726389D02*
X728269D01*
X729437D02*
X729996D01*
X751180D02*
X751434D01*
X720344Y194564D02*
X721258D01*
X722376D02*
X724306D01*
X726491D02*
X728269D01*
X729386D02*
X729945D01*
X751078D02*
X751383D01*
X720293Y194513D02*
X721208D01*
X722478D02*
X724408D01*
X726592D02*
X728218D01*
X729386D02*
X729945D01*
X751027D02*
X751332D01*
X720242Y194462D02*
X721157D01*
X722630D02*
X724510D01*
X726694D02*
X728218D01*
X729336D02*
X729894D01*
X750976D02*
X751281D01*
X720242Y194412D02*
X721106D01*
X722732D02*
X724611D01*
X726796D02*
X728167D01*
X729336D02*
X729894D01*
X750875D02*
X751230D01*
X720192Y194361D02*
X721055D01*
X722833D02*
X724662D01*
X726897D02*
X728167D01*
X729285D02*
X729844D01*
X750824D02*
X751129D01*
X720141Y194310D02*
X721004D01*
X722935D02*
X724764D01*
X726999D02*
X728116D01*
X729285D02*
X729793D01*
X750773D02*
X751129D01*
X720141Y194259D02*
X720954D01*
X723036D02*
X724865D01*
X727100D02*
X728116D01*
X729234D02*
X729793D01*
X750672D02*
X751027D01*
X720090Y194208D02*
X720903D01*
X723138D02*
X724967D01*
X727202D02*
X728066D01*
X729234D02*
X729742D01*
X750621D02*
X750976D01*
X720039Y194158D02*
X720903D01*
X723240D02*
X725068D01*
X727304D02*
X728066D01*
X729183D02*
X729742D01*
X750519D02*
X750926D01*
X720039Y194107D02*
X720852D01*
X723341D02*
X725170D01*
X727405D02*
X728015D01*
X729183D02*
X729691D01*
X750468D02*
X750875D01*
X719988Y194056D02*
X720801D01*
X723443D02*
X725221D01*
X727507D02*
X728015D01*
X729132D02*
X729640D01*
X750418D02*
X750824D01*
X719938Y194005D02*
X720750D01*
X723544D02*
X725322D01*
X727608D02*
X727964D01*
X729132D02*
X729640D01*
X750316D02*
X750773D01*
X719938Y193954D02*
X720750D01*
X723646D02*
X725424D01*
X727710D02*
X727964D01*
X729082D02*
X729590D01*
X750265D02*
X750722D01*
X719887Y193904D02*
X720700D01*
X723748D02*
X725475D01*
X727812D02*
X727913D01*
X729082D02*
X729539D01*
X750164D02*
X750672D01*
X719887Y193853D02*
X720649D01*
X723849D02*
X725576D01*
X729031D02*
X729539D01*
X750113D02*
X750570D01*
X719836Y193802D02*
X720649D01*
X723951D02*
X725678D01*
X729031D02*
X729488D01*
X750011D02*
X750519D01*
X719836Y193751D02*
X720598D01*
X724052D02*
X725729D01*
X728980D02*
X729488D01*
X749960D02*
X750468D01*
X719785Y193700D02*
X720598D01*
X724154D02*
X725780D01*
X728980D02*
X729437D01*
X749910D02*
X750418D01*
X719785Y193650D02*
X720547D01*
X724256D02*
X725881D01*
X728929D02*
X729386D01*
X749808D02*
X750367D01*
X719734Y193599D02*
X720496D01*
X724357D02*
X725932D01*
X728929D02*
X729386D01*
X749757D02*
X750316D01*
X719734Y193548D02*
X720496D01*
X724459D02*
X726034D01*
X728878D02*
X729336D01*
X749706D02*
X750265D01*
X719684Y193497D02*
X720446D01*
X724560D02*
X726084D01*
X728878D02*
X729336D01*
X749605D02*
X750214D01*
X719633Y193446D02*
X720446D01*
X724662D02*
X726135D01*
X728828D02*
X729285D01*
X749554D02*
X750113D01*
X719633Y193396D02*
X720395D01*
X724764D02*
X726237D01*
X728828D02*
X729234D01*
X749452D02*
X750062D01*
X719582Y193345D02*
X720395D01*
X724814D02*
X726288D01*
X728777D02*
X729234D01*
X749402D02*
X750011D01*
X719582Y193294D02*
X720344D01*
X724916D02*
X726338D01*
X728777D02*
X729183D01*
X749351D02*
X749960D01*
X719531Y193243D02*
X720344D01*
X725018D02*
X726389D01*
X728726D02*
X729132D01*
X749249D02*
X749910D01*
X719531Y193192D02*
X720293D01*
X725119D02*
X726440D01*
X728726D02*
X729132D01*
X749198D02*
X749859D01*
X719480Y193142D02*
X720242D01*
X725170D02*
X726491D01*
X728675D02*
X729082D01*
X749097D02*
X749808D01*
X719480Y193091D02*
X720242D01*
X725272D02*
X726542D01*
X728675D02*
X729082D01*
X749046D02*
X749757D01*
X719430Y193040D02*
X720192D01*
X725322D02*
X726592D01*
X728624D02*
X729031D01*
X748995D02*
X749656D01*
X719430Y192989D02*
X720192D01*
X725424D02*
X726643D01*
X728624D02*
X728980D01*
X748894D02*
X749605D01*
X719430Y192938D02*
X720141D01*
X725475D02*
X726643D01*
X728574D02*
X728980D01*
X748843D02*
X749554D01*
X719379Y192888D02*
X720141D01*
X725576D02*
X726694D01*
X728574D02*
X728929D01*
X748792D02*
X749503D01*
X719379Y192837D02*
X720090D01*
X725627D02*
X726694D01*
X728523D02*
X728929D01*
X748690D02*
X749452D01*
X719328Y192786D02*
X720090D01*
X725729D02*
X726745D01*
X728523D02*
X728878D01*
X748640D02*
X749402D01*
X719328Y192735D02*
X720039D01*
X725780D02*
X726745D01*
X728472D02*
X728828D01*
X748538D02*
X749351D01*
X719277Y192684D02*
X720039D01*
X725830D02*
X726796D01*
X728472D02*
X728828D01*
X748487D02*
X749300D01*
X719277Y192634D02*
X720039D01*
X725881D02*
X726796D01*
X728421D02*
X728777D01*
X748436D02*
X749249D01*
X719277Y192583D02*
X719988D01*
X725932D02*
X726796D01*
X728421D02*
X728726D01*
X748335D02*
X749148D01*
X719226Y192532D02*
X719988D01*
X725983D02*
X726796D01*
X728370D02*
X728726D01*
X748284D02*
X749097D01*
X719226Y192481D02*
X719938D01*
X726034D02*
X726846D01*
X728370D02*
X728675D01*
X748233D02*
X749046D01*
X719176Y192430D02*
X719938D01*
X726084D02*
X726846D01*
X728320D02*
X728675D01*
X748132D02*
X748995D01*
X719176Y192380D02*
X719887D01*
X726084D02*
X726846D01*
X728320D02*
X728624D01*
X748081D02*
X748944D01*
X719125Y192329D02*
X719887D01*
X726084D02*
X726846D01*
X728269D02*
X728574D01*
X748030D02*
X748894D01*
X719125Y192278D02*
X719836D01*
X726135D02*
X726846D01*
X728269D02*
X728574D01*
X747928D02*
X748843D01*
X719125Y192227D02*
X719836D01*
X726135D02*
X726846D01*
X728218D02*
X728523D01*
X747878D02*
X748741D01*
X719074Y192176D02*
X719836D01*
X726135D02*
X726846D01*
X728218D02*
X728523D01*
X747776D02*
X748690D01*
X719074Y192126D02*
X719785D01*
X726135D02*
X726796D01*
X728167D02*
X728472D01*
X747725D02*
X748640D01*
X719074Y192075D02*
X719785D01*
X726135D02*
X726796D01*
X728167D02*
X728421D01*
X747674D02*
X748589D01*
X719023Y192024D02*
X719734D01*
X726084D02*
X726796D01*
X728116D02*
X728421D01*
X747573D02*
X748538D01*
X719023Y191973D02*
X719734D01*
X726084D02*
X726796D01*
X728116D02*
X728370D01*
X747522D02*
X748487D01*
X719023Y191922D02*
X719734D01*
X726084D02*
X726796D01*
X728066D02*
X728370D01*
X747420D02*
X748436D01*
X718972Y191872D02*
X719684D01*
X726084D02*
X726796D01*
X728066D02*
X728320D01*
X747370D02*
X748386D01*
X718972Y191821D02*
X719684D01*
X726084D02*
X726745D01*
X728015D02*
X728269D01*
X747319D02*
X748335D01*
X718972Y191770D02*
X719633D01*
X726034D02*
X726745D01*
X728015D02*
X728269D01*
X747217D02*
X748233D01*
X718972Y191719D02*
X719633D01*
X726034D02*
X726745D01*
X727964D02*
X728218D01*
X747166D02*
X748182D01*
X718922Y191668D02*
X719633D01*
X726034D02*
X726745D01*
X727964D02*
X728167D01*
X747116D02*
X748132D01*
X718922Y191618D02*
X719633D01*
X725983D02*
X726694D01*
X727913D02*
X728167D01*
X747014D02*
X748081D01*
X718922Y191567D02*
X719582D01*
X725983D02*
X726694D01*
X727913D02*
X728116D01*
X746963D02*
X748030D01*
X718922Y191516D02*
X719582D01*
X725983D02*
X726694D01*
X727862D02*
X728116D01*
X746862D02*
X747979D01*
X718922Y191465D02*
X719582D01*
X725932D02*
X726694D01*
X727862D02*
X728066D01*
X746811D02*
X747878D01*
X718871Y191414D02*
X719582D01*
X725932D02*
X726643D01*
X727812D02*
X728015D01*
X746760D02*
X747878D01*
X718871Y191364D02*
X719531D01*
X725932D02*
X726643D01*
X727812D02*
X728015D01*
X746658D02*
X747776D01*
X718871Y191313D02*
X719531D01*
X725881D02*
X726643D01*
X727761D02*
X727964D01*
X746608D02*
X747725D01*
X718871Y191262D02*
X719531D01*
X725881D02*
X726592D01*
X727761D02*
X727913D01*
X746557D02*
X747674D01*
X718871Y191211D02*
X719531D01*
X725881D02*
X726592D01*
X727710D02*
X727913D01*
X746455D02*
X747624D01*
X718871Y191160D02*
X719531D01*
X725830D02*
X726542D01*
X727710D02*
X727862D01*
X746404D02*
X747573D01*
X718871Y191110D02*
X719531D01*
X725830D02*
X726542D01*
X727659D02*
X727862D01*
X746303D02*
X747522D01*
X718871Y191059D02*
X719531D01*
X725780D02*
X726542D01*
X727659D02*
X727812D01*
X746252D02*
X747471D01*
X718871Y191008D02*
X719531D01*
X725780D02*
X726491D01*
X727608D02*
X727761D01*
X746150D02*
X747420D01*
X718871Y190957D02*
X719531D01*
X725780D02*
X726491D01*
X727608D02*
X727761D01*
X746100D02*
X747319D01*
X718871Y190906D02*
X719531D01*
X725729D02*
X726491D01*
X727558D02*
X727710D01*
X746049D02*
X747268D01*
X718871Y190856D02*
X719582D01*
X725729D02*
X726440D01*
X727558D02*
X727710D01*
X745947D02*
X747217D01*
X718871Y190805D02*
X719633D01*
X725678D02*
X726440D01*
X727507D02*
X727659D01*
X745896D02*
X747166D01*
X718871Y190754D02*
X719633D01*
X725678D02*
X726389D01*
X727507D02*
X727608D01*
X745846D02*
X747116D01*
X718871Y190703D02*
X719684D01*
X725627D02*
X726389D01*
X727456D02*
X727608D01*
X745744D02*
X747065D01*
X718922Y190652D02*
X719734D01*
X725627D02*
X726389D01*
X727456D02*
X727558D01*
X745693D02*
X747014D01*
X718922Y190602D02*
X719785D01*
X725576D02*
X726338D01*
X727405D02*
X727558D01*
X745592D02*
X746912D01*
X718922Y190551D02*
X719887D01*
X725576D02*
X726338D01*
X727405D02*
X727507D01*
X745541D02*
X746862D01*
X718972Y190500D02*
X719938D01*
X725526D02*
X726288D01*
X727354D02*
X727456D01*
X745490D02*
X746811D01*
X718972Y190449D02*
X719988D01*
X725526D02*
X726288D01*
X727354D02*
X727456D01*
X745388D02*
X746760D01*
X718972Y190398D02*
X720090D01*
X725475D02*
X726237D01*
X727304D02*
X727405D01*
X745338D02*
X746709D01*
X719023Y190348D02*
X720141D01*
X725475D02*
X726237D01*
X727304D02*
X727354D01*
X745287D02*
X746658D01*
X719023Y190297D02*
X720242D01*
X725424D02*
X726186D01*
X727253D02*
X727354D01*
X745185D02*
X746608D01*
X719074Y190246D02*
X720293D01*
X725424D02*
X726186D01*
X727253D02*
X727304D01*
X745134D02*
X746557D01*
X719125Y190195D02*
X720395D01*
X725373D02*
X726135D01*
X727202D02*
X727304D01*
X745033D02*
X746506D01*
X719125Y190144D02*
X720446D01*
X725373D02*
X726135D01*
X727202D02*
X727253D01*
X744982D02*
X746404D01*
X719176Y190094D02*
X720547D01*
X725322D02*
X726084D01*
X727151D02*
X727202D01*
X744931D02*
X746354D01*
X719226Y190043D02*
X720649D01*
X725322D02*
X726084D01*
X727151D02*
X727202D01*
X744830D02*
X746303D01*
X719277Y189992D02*
X720750D01*
X725272D02*
X726034D01*
X727100D02*
X727151D01*
X744779D02*
X746252D01*
X719328Y189941D02*
X720801D01*
X725272D02*
X726034D01*
X727100D02*
X727151D01*
X744677D02*
X746201D01*
X717956Y189890D02*
X718007D01*
X719379D02*
X720903D01*
X725221D02*
X725983D01*
X744626D02*
X746150D01*
X717956Y189840D02*
X718109D01*
X719430D02*
X721004D01*
X725221D02*
X725983D01*
X744576D02*
X746100D01*
X717906Y189789D02*
X718210D01*
X719480D02*
X721106D01*
X725170D02*
X725932D01*
X744474D02*
X746049D01*
X717906Y189738D02*
X718312D01*
X719531D02*
X721208D01*
X725170D02*
X725932D01*
X744423D02*
X745998D01*
X717855Y189687D02*
X718414D01*
X719582D02*
X721309D01*
X725119D02*
X725881D01*
X744372D02*
X745896D01*
X717804Y189636D02*
X718515D01*
X719684D02*
X721360D01*
X725068D02*
X725881D01*
X744271D02*
X745846D01*
X717804Y189586D02*
X718566D01*
X719734D02*
X721462D01*
X725068D02*
X725830D01*
X744220D02*
X745795D01*
X717804Y189535D02*
X718566D01*
X719836D02*
X721563D01*
X725018D02*
X725830D01*
X744118D02*
X745744D01*
X717753Y189484D02*
X718515D01*
X719887D02*
X721665D01*
X725018D02*
X725780D01*
X744017D02*
X745693D01*
X717753Y189433D02*
X718515D01*
X719988D02*
X721766D01*
X724967D02*
X725780D01*
X743966D02*
X745642D01*
X717702Y189382D02*
X718464D01*
X720090D02*
X721868D01*
X724916D02*
X725729D01*
X743864D02*
X745592D01*
X717702Y189332D02*
X718464D01*
X720141D02*
X721970D01*
X724916D02*
X725678D01*
X743814D02*
X745541D01*
X717652Y189281D02*
X718414D01*
X720242D02*
X722122D01*
X724865D02*
X725678D01*
X743763D02*
X745439D01*
X717652Y189230D02*
X718414D01*
X720344D02*
X722224D01*
X724814D02*
X725627D01*
X743661D02*
X745388D01*
X717601Y189179D02*
X718363D01*
X720446D02*
X722325D01*
X724814D02*
X725627D01*
X743560D02*
X745338D01*
X717601Y189128D02*
X718363D01*
X720547D02*
X722427D01*
X724764D02*
X725576D01*
X743509D02*
X745287D01*
X717550Y189078D02*
X718312D01*
X720649D02*
X722528D01*
X724713D02*
X725526D01*
X743407D02*
X745236D01*
X717550Y189027D02*
X718312D01*
X720750D02*
X722630D01*
X724713D02*
X725526D01*
X743356D02*
X745185D01*
X717499Y188976D02*
X718261D01*
X720852D02*
X722782D01*
X724662D02*
X725475D01*
X743306D02*
X745134D01*
X717499Y188925D02*
X718261D01*
X720954D02*
X722884D01*
X724611D02*
X725424D01*
X743204D02*
X745033D01*
X717448Y188874D02*
X718210D01*
X721055D02*
X722986D01*
X724560D02*
X725424D01*
X743153D02*
X744982D01*
X717448Y188824D02*
X718210D01*
X721157D02*
X723138D01*
X724510D02*
X725373D01*
X743102D02*
X744982D01*
X717398Y188773D02*
X718160D01*
X721258D02*
X723240D01*
X724459D02*
X725322D01*
X743052D02*
X744880D01*
X717398Y188722D02*
X718160D01*
X721360D02*
X723392D01*
X724408D02*
X725322D01*
X743001D02*
X744830D01*
X717347Y188671D02*
X718109D01*
X721462D02*
X723544D01*
X724357D02*
X725272D01*
X742950D02*
X744779D01*
X717347Y188620D02*
X718109D01*
X721563D02*
X723748D01*
X724256D02*
X725221D01*
X742899D02*
X744728D01*
X717296Y188570D02*
X718058D01*
X721665D02*
X725221D01*
X742848D02*
X744677D01*
X717296Y188519D02*
X718058D01*
X721766D02*
X725170D01*
X742798D02*
X744626D01*
X717245Y188468D02*
X718007D01*
X721868D02*
X725119D01*
X742747D02*
X744525D01*
X717245Y188417D02*
X718007D01*
X721970D02*
X725068D01*
X742747D02*
X744474D01*
X717194Y188366D02*
X717956D01*
X720750D02*
X720801D01*
X722122D02*
X725018D01*
X742696D02*
X744423D01*
X717194Y188316D02*
X717956D01*
X720700D02*
X720903D01*
X722224D02*
X724967D01*
X742645D02*
X744372D01*
X717144Y188265D02*
X717906D01*
X720700D02*
X721004D01*
X722325D02*
X724916D01*
X742645D02*
X744322D01*
X717144Y188214D02*
X717906D01*
X720649D02*
X721106D01*
X722478D02*
X724865D01*
X742594D02*
X744220D01*
X717093Y188163D02*
X717855D01*
X720649D02*
X721208D01*
X722579D02*
X724814D01*
X742544D02*
X744169D01*
X717093Y188112D02*
X717855D01*
X720598D02*
X721309D01*
X722732D02*
X724764D01*
X742493D02*
X744118D01*
X717042Y188062D02*
X717804D01*
X720598D02*
X721360D01*
X722884D02*
X724713D01*
X742493D02*
X744068D01*
X717042Y188011D02*
X717804D01*
X720547D02*
X721309D01*
X722986D02*
X724662D01*
X742442D02*
X743966D01*
X716991Y187960D02*
X717753D01*
X720547D02*
X721309D01*
X723189D02*
X724560D01*
X742442D02*
X743915D01*
X716991Y187909D02*
X717753D01*
X720496D02*
X721258D01*
X723341D02*
X724510D01*
X742391D02*
X743864D01*
X716940Y187858D02*
X717702D01*
X720496D02*
X721258D01*
X723544D02*
X724357D01*
X742391D02*
X743814D01*
X716940Y187808D02*
X717652D01*
X720446D02*
X721208D01*
X723900D02*
X724154D01*
X742391D02*
X743712D01*
X716890Y187757D02*
X717652D01*
X720446D02*
X721208D01*
X742340D02*
X743661D01*
X716890Y187706D02*
X717652D01*
X720395D02*
X721157D01*
X742340D02*
X743610D01*
X716839Y187655D02*
X717601D01*
X720395D02*
X721157D01*
X742290D02*
X743560D01*
X716839Y187604D02*
X717601D01*
X720344D02*
X721106D01*
X742290D02*
X743509D01*
X716788Y187554D02*
X717550D01*
X720344D02*
X721106D01*
X742290D02*
X743458D01*
X716788Y187503D02*
X717550D01*
X720293D02*
X721055D01*
X742239D02*
X743407D01*
X716737Y187452D02*
X717499D01*
X720293D02*
X721055D01*
X742239D02*
X743306D01*
X716737Y187401D02*
X717499D01*
X720242D02*
X721004D01*
X742239D02*
X743255D01*
X716686Y187350D02*
X717448D01*
X720242D02*
X721004D01*
X742188D02*
X743255D01*
X716686Y187300D02*
X717448D01*
X720192D02*
X720954D01*
X742188D02*
X743204D01*
X716636Y187249D02*
X717398D01*
X720192D02*
X720954D01*
X742188D02*
X743153D01*
X716636Y187198D02*
X717347D01*
X720141D02*
X720903D01*
X742188D02*
X743102D01*
X716585Y187147D02*
X717347D01*
X720141D02*
X720903D01*
X742137D02*
X743052D01*
X716585Y187096D02*
X717347D01*
X720090D02*
X720852D01*
X742137D02*
X743001D01*
X716534Y187046D02*
X717296D01*
X720090D02*
X720852D01*
X742137D02*
X742950D01*
X716534Y186995D02*
X717296D01*
X720039D02*
X720801D01*
X742137D02*
X742950D01*
X716483Y186944D02*
X717245D01*
X720039D02*
X720801D01*
X742137D02*
X742899D01*
X716483Y186893D02*
X717194D01*
X719988D02*
X720750D01*
X742137D02*
X742848D01*
X716432Y186842D02*
X717194D01*
X719988D02*
X720750D01*
X742086D02*
X742848D01*
X716432Y186792D02*
X717194D01*
X719938D02*
X720700D01*
X742086D02*
X742798D01*
X716382Y186741D02*
X717144D01*
X719938D02*
X720700D01*
X742086D02*
X742747D01*
X716382Y186690D02*
X717144D01*
X719887D02*
X720649D01*
X742086D02*
X742696D01*
X716331Y186639D02*
X717093D01*
X719887D02*
X720649D01*
X742086D02*
X742696D01*
X716331Y186588D02*
X717093D01*
X719836D02*
X720598D01*
X742086D02*
X742696D01*
X761746D02*
X762356D01*
X716280Y186538D02*
X717042D01*
X719836D02*
X720598D01*
X742036D02*
X742645D01*
X761035D02*
X762914D01*
X716280Y186487D02*
X717042D01*
X719785D02*
X720547D01*
X742036D02*
X742594D01*
X744677D02*
X745998D01*
X749300D02*
X750672D01*
X751942D02*
X756260D01*
X760527D02*
X763321D01*
X716229Y186436D02*
X716991D01*
X719785D02*
X720547D01*
X742036D02*
X742594D01*
X744677D02*
X746049D01*
X749300D02*
X750672D01*
X751942D02*
X756615D01*
X760171D02*
X763575D01*
X716229Y186385D02*
X716991D01*
X719734D02*
X720496D01*
X742036D02*
X742544D01*
X744677D02*
X745998D01*
X749300D02*
X750672D01*
X751942D02*
X756818D01*
X759968D02*
X763727D01*
X716178Y186334D02*
X716940D01*
X719734D02*
X720496D01*
X742036D02*
X742544D01*
X744677D02*
X746049D01*
X749300D02*
X750672D01*
X751942D02*
X756971D01*
X759816D02*
X763880D01*
X716178Y186284D02*
X716940D01*
X719684D02*
X720446D01*
X742036D02*
X742544D01*
X744677D02*
X745998D01*
X749300D02*
X750672D01*
X751942D02*
X757072D01*
X759663D02*
X763981D01*
X716128Y186233D02*
X716890D01*
X719684D02*
X720446D01*
X742036D02*
X742493D01*
X744677D02*
X745998D01*
X749300D02*
X750672D01*
X751942D02*
X757174D01*
X759511D02*
X764083D01*
X716128Y186182D02*
X716890D01*
X719633D02*
X720395D01*
X742036D02*
X742493D01*
X744677D02*
X745998D01*
X749300D02*
X750672D01*
X751942D02*
X757276D01*
X759409D02*
X764184D01*
X716077Y186131D02*
X716940D01*
X719633D02*
X720395D01*
X742036D02*
X742442D01*
X744677D02*
X745998D01*
X749300D02*
X750672D01*
X751942D02*
X757326D01*
X759358D02*
X764235D01*
X716077Y186080D02*
X717042D01*
X719582D02*
X720344D01*
X742036D02*
X742442D01*
X744677D02*
X745998D01*
X749300D02*
X750672D01*
X751942D02*
X757377D01*
X759257D02*
X764286D01*
X716026Y186030D02*
X717144D01*
X719582D02*
X720344D01*
X742036D02*
X742391D01*
X744677D02*
X745998D01*
X749300D02*
X750672D01*
X751942D02*
X757428D01*
X759206D02*
X764337D01*
X716026Y185979D02*
X717245D01*
X719531D02*
X720293D01*
X742036D02*
X742391D01*
X744677D02*
X745998D01*
X749300D02*
X750672D01*
X751942D02*
X757428D01*
X759155D02*
X764388D01*
X715975Y185928D02*
X717347D01*
X719531D02*
X720293D01*
X742036D02*
X742391D01*
X744677D02*
X745998D01*
X749300D02*
X750672D01*
X751942D02*
X757479D01*
X759104D02*
X764388D01*
X715975Y185877D02*
X717448D01*
X719480D02*
X720242D01*
X742036D02*
X742340D01*
X744677D02*
X745998D01*
X749300D02*
X750672D01*
X751942D02*
X757530D01*
X759054D02*
X764438D01*
X715924Y185826D02*
X717550D01*
X719480D02*
X720242D01*
X731317D02*
X732079D01*
X733958D02*
X734771D01*
X742036D02*
X742340D01*
X744677D02*
X745998D01*
X749300D02*
X750672D01*
X751942D02*
X757530D01*
X759003D02*
X764489D01*
X715924Y185776D02*
X717652D01*
X719430D02*
X720192D01*
X731063D02*
X732180D01*
X733857D02*
X735025D01*
X742036D02*
X742340D01*
X744677D02*
X745998D01*
X749300D02*
X750672D01*
X751942D02*
X757580D01*
X758952D02*
X764489D01*
X715874Y185725D02*
X717753D01*
X719430D02*
X720192D01*
X730707D02*
X732282D01*
X733755D02*
X735279D01*
X742036D02*
X742290D01*
X744677D02*
X745998D01*
X749300D02*
X750672D01*
X751942D02*
X757580D01*
X758952D02*
X764489D01*
X715924Y185674D02*
X717855D01*
X719379D02*
X720141D01*
X730453D02*
X732282D01*
X733654D02*
X735533D01*
X742036D02*
X742290D01*
X744677D02*
X745998D01*
X749300D02*
X750672D01*
X751942D02*
X757580D01*
X758901D02*
X764540D01*
X716026Y185623D02*
X717956D01*
X719379D02*
X720141D01*
X730148D02*
X732333D01*
X733603D02*
X735787D01*
X742036D02*
X742290D01*
X744677D02*
X745998D01*
X749300D02*
X750672D01*
X751942D02*
X757631D01*
X758901D02*
X764540D01*
X716128Y185572D02*
X718058D01*
X719328D02*
X720090D01*
X729793D02*
X732333D01*
X733501D02*
X736092D01*
X742036D02*
X742290D01*
X744677D02*
X745998D01*
X749300D02*
X750672D01*
X751942D02*
X757631D01*
X758850D02*
X764540D01*
X716229Y185522D02*
X718160D01*
X719328D02*
X720090D01*
X729590D02*
X732384D01*
X733501D02*
X736244D01*
X742036D02*
X742239D01*
X744677D02*
X745998D01*
X749300D02*
X750672D01*
X751942D02*
X753364D01*
X755548D02*
X757631D01*
X758850D02*
X760882D01*
X762660D02*
X764591D01*
X716331Y185471D02*
X718261D01*
X719277D02*
X720039D01*
X729285D02*
X732384D01*
X733450D02*
X736549D01*
X742036D02*
X742239D01*
X744677D02*
X745998D01*
X749300D02*
X750672D01*
X751942D02*
X753364D01*
X755802D02*
X757631D01*
X758800D02*
X760679D01*
X762864D02*
X764591D01*
X716432Y185420D02*
X718363D01*
X719277D02*
X720039D01*
X728878D02*
X732384D01*
X733400D02*
X736854D01*
X742036D02*
X742239D01*
X744677D02*
X745998D01*
X749300D02*
X750672D01*
X751942D02*
X753364D01*
X755904D02*
X757682D01*
X758800D02*
X760476D01*
X763016D02*
X764591D01*
X716534Y185369D02*
X718464D01*
X719226D02*
X719988D01*
X728675D02*
X732384D01*
X733349D02*
X737057D01*
X742036D02*
X742239D01*
X744677D02*
X745998D01*
X749300D02*
X750672D01*
X751942D02*
X753364D01*
X756006D02*
X757682D01*
X758800D02*
X760374D01*
X763067D02*
X764642D01*
X716636Y185318D02*
X718566D01*
X719226D02*
X719988D01*
X728370D02*
X732384D01*
X733349D02*
X737362D01*
X742036D02*
X742188D01*
X744677D02*
X745998D01*
X749300D02*
X750672D01*
X751942D02*
X753364D01*
X756056D02*
X757682D01*
X758749D02*
X760273D01*
X763118D02*
X764642D01*
X716737Y185268D02*
X718668D01*
X719176D02*
X719938D01*
X728015D02*
X732384D01*
X733298D02*
X737616D01*
X742036D02*
X742188D01*
X744677D02*
X745998D01*
X749300D02*
X750672D01*
X751942D02*
X753364D01*
X756158D02*
X757682D01*
X758749D02*
X760222D01*
X763168D02*
X764642D01*
X716839Y185217D02*
X718769D01*
X719176D02*
X719938D01*
X727761D02*
X732384D01*
X733247D02*
X737870D01*
X742036D02*
X742188D01*
X744677D02*
X745998D01*
X749300D02*
X750672D01*
X751942D02*
X753364D01*
X756158D02*
X757682D01*
X758749D02*
X760222D01*
X763219D02*
X764642D01*
X716940Y185166D02*
X718871D01*
X719125D02*
X719887D01*
X727456D02*
X732333D01*
X733247D02*
X738124D01*
X742036D02*
X742188D01*
X744677D02*
X745998D01*
X749300D02*
X750672D01*
X751942D02*
X753364D01*
X756209D02*
X757682D01*
X758698D02*
X760171D01*
X763219D02*
X764642D01*
X717042Y185115D02*
X718972D01*
X719125D02*
X719887D01*
X727151D02*
X732333D01*
X733196D02*
X738378D01*
X742036D02*
X742188D01*
X744677D02*
X745998D01*
X749300D02*
X750672D01*
X751942D02*
X753364D01*
X756260D02*
X757682D01*
X758698D02*
X760171D01*
X763219D02*
X764642D01*
X717144Y185064D02*
X719836D01*
X726897D02*
X732333D01*
X733196D02*
X738632D01*
X742036D02*
X742137D01*
X744677D02*
X745998D01*
X749300D02*
X750672D01*
X751942D02*
X753364D01*
X756260D02*
X757733D01*
X758698D02*
X760171D01*
X763270D02*
X764692D01*
X717245Y185014D02*
X719836D01*
X726542D02*
X732282D01*
X733196D02*
X738937D01*
X742036D02*
X742137D01*
X744677D02*
X745998D01*
X749300D02*
X750672D01*
X751942D02*
X753364D01*
X756260D02*
X757733D01*
X758698D02*
X760120D01*
X763270D02*
X764692D01*
X717347Y184963D02*
X719785D01*
X726288D02*
X732282D01*
X733146D02*
X739140D01*
X742036D02*
X742137D01*
X744677D02*
X745998D01*
X749300D02*
X750672D01*
X751942D02*
X753364D01*
X756260D02*
X757733D01*
X758698D02*
X760120D01*
X763270D02*
X764692D01*
X717448Y184912D02*
X719785D01*
X725983D02*
X732282D01*
X733146D02*
X739445D01*
X742036D02*
X742137D01*
X744677D02*
X745998D01*
X749300D02*
X750672D01*
X751942D02*
X753364D01*
X756310D02*
X757733D01*
X758647D02*
X760120D01*
X763270D02*
X764692D01*
X717550Y184861D02*
X719734D01*
X725627D02*
X732231D01*
X733146D02*
X739750D01*
X742036D02*
X742137D01*
X744677D02*
X745998D01*
X749300D02*
X750672D01*
X751942D02*
X753364D01*
X756310D02*
X757733D01*
X758647D02*
X760120D01*
X763270D02*
X764692D01*
X717652Y184810D02*
X719734D01*
X725424D02*
X732231D01*
X733095D02*
X739953D01*
X742036D02*
X742137D01*
X744677D02*
X745998D01*
X749300D02*
X750672D01*
X751942D02*
X753364D01*
X756310D02*
X757733D01*
X758647D02*
X760070D01*
X763270D02*
X764692D01*
X717753Y184760D02*
X719684D01*
X725068D02*
X732231D01*
X733095D02*
X740207D01*
X742036D02*
X742137D01*
X744677D02*
X745998D01*
X749300D02*
X750672D01*
X751942D02*
X753364D01*
X756310D02*
X757733D01*
X758647D02*
X760070D01*
X763321D02*
X764692D01*
X717855Y184709D02*
X719785D01*
X724713D02*
X732180D01*
X733044D02*
X740512D01*
X742036D02*
X742086D01*
X744677D02*
X745998D01*
X749300D02*
X750672D01*
X751942D02*
X753364D01*
X756310D02*
X757682D01*
X758647D02*
X760070D01*
X763321D02*
X764692D01*
X717956Y184658D02*
X719887D01*
X724510D02*
X732180D01*
X733044D02*
X740766D01*
X744677D02*
X745998D01*
X749300D02*
X750672D01*
X751942D02*
X753364D01*
X756310D02*
X757682D01*
X758647D02*
X760070D01*
X763321D02*
X764692D01*
X718058Y184607D02*
X719988D01*
X724408D02*
X732130D01*
X733044D02*
X741020D01*
X744677D02*
X745998D01*
X749300D02*
X750672D01*
X751942D02*
X753364D01*
X756310D02*
X757682D01*
X758647D02*
X760070D01*
X763321D02*
X764692D01*
X718160Y184556D02*
X720090D01*
X724408D02*
X732130D01*
X732993D02*
X741324D01*
X744677D02*
X745998D01*
X749300D02*
X750672D01*
X751942D02*
X753364D01*
X756310D02*
X757682D01*
X758647D02*
X760019D01*
X763321D02*
X764692D01*
X718261Y184506D02*
X720192D01*
X724357D02*
X732130D01*
X732993D02*
X741528D01*
X744677D02*
X745998D01*
X749300D02*
X750672D01*
X751942D02*
X753364D01*
X756260D02*
X757682D01*
X758596D02*
X760019D01*
X763321D02*
X764692D01*
X718363Y184455D02*
X720293D01*
X724357D02*
X732079D01*
X732993D02*
X741832D01*
X744677D02*
X745998D01*
X749300D02*
X750672D01*
X751942D02*
X753364D01*
X756260D02*
X757631D01*
X758596D02*
X760019D01*
X718464Y184404D02*
X720395D01*
X724306D02*
X732079D01*
X732993D02*
X742036D01*
X744677D02*
X745998D01*
X749300D02*
X750672D01*
X751942D02*
X753364D01*
X756260D02*
X757631D01*
X758596D02*
X760019D01*
X718566Y184353D02*
X720496D01*
X724306D02*
X732028D01*
X732942D02*
X742086D01*
X744677D02*
X745998D01*
X749300D02*
X750672D01*
X751942D02*
X753364D01*
X756260D02*
X757631D01*
X758596D02*
X760019D01*
X718668Y184302D02*
X720598D01*
X724256D02*
X732028D01*
X732942D02*
X742036D01*
X744677D02*
X745998D01*
X749300D02*
X750672D01*
X751942D02*
X753364D01*
X756209D02*
X757631D01*
X758596D02*
X760019D01*
X718769Y184252D02*
X720700D01*
X724256D02*
X732028D01*
X732942D02*
X742036D01*
X744677D02*
X745998D01*
X749300D02*
X750672D01*
X751942D02*
X753364D01*
X756209D02*
X757580D01*
X758596D02*
X760019D01*
X718871Y184201D02*
X720801D01*
X724205D02*
X731977D01*
X732892D02*
X742036D01*
X744677D02*
X745998D01*
X749300D02*
X750672D01*
X751942D02*
X753364D01*
X756158D02*
X757580D01*
X758596D02*
X760019D01*
X718972Y184150D02*
X720903D01*
X724205D02*
X731977D01*
X732892D02*
X742036D01*
X744677D02*
X745998D01*
X749300D02*
X750672D01*
X751942D02*
X753364D01*
X756107D02*
X757530D01*
X758596D02*
X760019D01*
X719074Y184099D02*
X721004D01*
X724154D02*
X731926D01*
X732892D02*
X742036D01*
X744677D02*
X745998D01*
X749300D02*
X750672D01*
X751942D02*
X753364D01*
X756056D02*
X757530D01*
X758596D02*
X760019D01*
X719176Y184048D02*
X721106D01*
X724154D02*
X731926D01*
X732841D02*
X742036D01*
X744677D02*
X745998D01*
X749300D02*
X750672D01*
X751942D02*
X753364D01*
X755955D02*
X757479D01*
X758596D02*
X760019D01*
X719277Y183998D02*
X721208D01*
X724103D02*
X731926D01*
X732841D02*
X742036D01*
X744677D02*
X745998D01*
X749300D02*
X750672D01*
X751942D02*
X753364D01*
X755802D02*
X757428D01*
X758596D02*
X760019D01*
X719379Y183947D02*
X721309D01*
X724103D02*
X731876D01*
X732841D02*
X742036D01*
X744677D02*
X745998D01*
X749300D02*
X750672D01*
X751942D02*
X753364D01*
X755447D02*
X757428D01*
X758596D02*
X760019D01*
X719480Y183896D02*
X721411D01*
X724052D02*
X731876D01*
X732790D02*
X742036D01*
X744677D02*
X745998D01*
X749300D02*
X750672D01*
X751942D02*
X757377D01*
X758596D02*
X760019D01*
X719582Y183845D02*
X721512D01*
X724052D02*
X731825D01*
X732790D02*
X742036D01*
X744677D02*
X745998D01*
X749300D02*
X750672D01*
X751942D02*
X757276D01*
X758596D02*
X760019D01*
X719684Y183794D02*
X721614D01*
X724002D02*
X731825D01*
X732790D02*
X742036D01*
X744677D02*
X745998D01*
X749300D02*
X750672D01*
X751942D02*
X757225D01*
X758596D02*
X760019D01*
X719785Y183744D02*
X721716D01*
X724002D02*
X731825D01*
X732739D02*
X742036D01*
X744677D02*
X745998D01*
X749300D02*
X750672D01*
X751942D02*
X757174D01*
X758596D02*
X760019D01*
X719887Y183693D02*
X721817D01*
X723951D02*
X731774D01*
X732739D02*
X742036D01*
X744677D02*
X745998D01*
X749300D02*
X750672D01*
X751942D02*
X757072D01*
X758596D02*
X760019D01*
X719988Y183642D02*
X721919D01*
X723951D02*
X731774D01*
X732739D02*
X742036D01*
X744677D02*
X745998D01*
X749300D02*
X750672D01*
X751942D02*
X756971D01*
X758596D02*
X760019D01*
X720090Y183591D02*
X722020D01*
X723900D02*
X731723D01*
X732688D02*
X742036D01*
X744677D02*
X745998D01*
X749300D02*
X750672D01*
X751942D02*
X756768D01*
X758596D02*
X760019D01*
X720192Y183540D02*
X722122D01*
X723900D02*
X731723D01*
X732688D02*
X741985D01*
X744677D02*
X745998D01*
X749300D02*
X750672D01*
X751942D02*
X756717D01*
X758596D02*
X760019D01*
X720293Y183490D02*
X722224D01*
X723849D02*
X731723D01*
X732688D02*
X741985D01*
X744677D02*
X745998D01*
X749300D02*
X750672D01*
X751942D02*
X756869D01*
X758596D02*
X760019D01*
X720395Y183439D02*
X722325D01*
X723849D02*
X731114D01*
X731317D02*
X731672D01*
X732638D02*
X733806D01*
X734009D02*
X741985D01*
X744677D02*
X745998D01*
X749300D02*
X750672D01*
X751942D02*
X757072D01*
X758596D02*
X760019D01*
X720496Y183388D02*
X722427D01*
X723798D02*
X730707D01*
X731571D02*
X731672D01*
X732638D02*
X733501D01*
X734365D02*
X742036D01*
X744677D02*
X745998D01*
X749300D02*
X750672D01*
X751942D02*
X757174D01*
X758596D02*
X760019D01*
X720598Y183337D02*
X722528D01*
X723798D02*
X730453D01*
X732638D02*
X733400D01*
X734619D02*
X742036D01*
X744677D02*
X745998D01*
X749300D02*
X750672D01*
X751942D02*
X757276D01*
X758596D02*
X760019D01*
X720700Y183286D02*
X722579D01*
X723748D02*
X730148D01*
X732587D02*
X733298D01*
X734873D02*
X741985D01*
X744677D02*
X745998D01*
X749300D02*
X750672D01*
X751942D02*
X757326D01*
X758596D02*
X760019D01*
X720801Y183236D02*
X722579D01*
X723748D02*
X729945D01*
X732587D02*
X733247D01*
X735025D02*
X741985D01*
X744677D02*
X745998D01*
X749300D02*
X750672D01*
X751942D02*
X757428D01*
X758596D02*
X760019D01*
X720903Y183185D02*
X722579D01*
X723697D02*
X729742D01*
X732587D02*
X733196D01*
X735228D02*
X742036D01*
X744677D02*
X745998D01*
X749300D02*
X750672D01*
X751942D02*
X757479D01*
X758647D02*
X760019D01*
X721004Y183134D02*
X722528D01*
X723697D02*
X729488D01*
X732536D02*
X733146D01*
X735432D02*
X742036D01*
X744677D02*
X745998D01*
X749300D02*
X750672D01*
X751942D02*
X757530D01*
X758647D02*
X760019D01*
X721106Y183083D02*
X722528D01*
X723646D02*
X729183D01*
X732536D02*
X733044D01*
X735686D02*
X741985D01*
X744677D02*
X745998D01*
X749300D02*
X750672D01*
X751942D02*
X757580D01*
X758647D02*
X760019D01*
X721208Y183032D02*
X722478D01*
X723646D02*
X729031D01*
X732536D02*
X733044D01*
X735889D02*
X741985D01*
X744677D02*
X745998D01*
X749300D02*
X750672D01*
X751942D02*
X753364D01*
X755853D02*
X757631D01*
X758647D02*
X760019D01*
X721309Y182982D02*
X722478D01*
X723595D02*
X728777D01*
X732485D02*
X732993D01*
X736092D02*
X741985D01*
X744677D02*
X745998D01*
X749300D02*
X750672D01*
X751942D02*
X753364D01*
X756158D02*
X757631D01*
X758647D02*
X760019D01*
X721411Y182931D02*
X722427D01*
X723595D02*
X728523D01*
X732485D02*
X732942D01*
X736295D02*
X742036D01*
X744677D02*
X745998D01*
X749300D02*
X750672D01*
X751942D02*
X753364D01*
X756260D02*
X757682D01*
X758647D02*
X760019D01*
X721512Y182880D02*
X722427D01*
X723544D02*
X728218D01*
X732485D02*
X732942D01*
X736498D02*
X742036D01*
X744677D02*
X745998D01*
X749300D02*
X750672D01*
X751942D02*
X753364D01*
X756310D02*
X757733D01*
X758647D02*
X760019D01*
X721614Y182829D02*
X722376D01*
X723544D02*
X728015D01*
X732434D02*
X732892D01*
X736752D02*
X742036D01*
X744677D02*
X745998D01*
X749300D02*
X750672D01*
X751942D02*
X753364D01*
X756361D02*
X757733D01*
X758647D02*
X760019D01*
X721716Y182778D02*
X722376D01*
X723494D02*
X727761D01*
X732434D02*
X732892D01*
X736956D02*
X742036D01*
X744677D02*
X745998D01*
X749300D02*
X750672D01*
X751942D02*
X753364D01*
X756361D02*
X757784D01*
X758647D02*
X760019D01*
X721817Y182728D02*
X722325D01*
X723494D02*
X727558D01*
X732434D02*
X732841D01*
X737159D02*
X742036D01*
X744677D02*
X745998D01*
X749300D02*
X750672D01*
X751942D02*
X753364D01*
X756412D02*
X757784D01*
X758647D02*
X760019D01*
X721919Y182677D02*
X722325D01*
X723443D02*
X727253D01*
X732384D02*
X732790D01*
X737311D02*
X742036D01*
X744677D02*
X745998D01*
X749300D02*
X750672D01*
X751942D02*
X753364D01*
X756412D02*
X757784D01*
X758647D02*
X760019D01*
X722020Y182626D02*
X722274D01*
X723443D02*
X727050D01*
X732384D02*
X732790D01*
X737565D02*
X742036D01*
X744677D02*
X745998D01*
X749300D02*
X750672D01*
X751942D02*
X753364D01*
X756463D02*
X757834D01*
X758647D02*
X760019D01*
X722122Y182575D02*
X722274D01*
X723392D02*
X726796D01*
X732384D02*
X732739D01*
X737768D02*
X742036D01*
X744677D02*
X745998D01*
X749300D02*
X750672D01*
X751942D02*
X753364D01*
X756463D02*
X757834D01*
X758647D02*
X760019D01*
X723392Y182524D02*
X726592D01*
X732384D02*
X732739D01*
X737972D02*
X742036D01*
X744677D02*
X745998D01*
X749300D02*
X750672D01*
X751942D02*
X753364D01*
X756463D02*
X757834D01*
X758647D02*
X760070D01*
X763372D02*
X764743D01*
X723341Y182474D02*
X726389D01*
X732384D02*
X732739D01*
X738175D02*
X742036D01*
X744677D02*
X745998D01*
X749300D02*
X750672D01*
X751942D02*
X753364D01*
X756463D02*
X757834D01*
X758647D02*
X760070D01*
X763372D02*
X764743D01*
X723341Y182423D02*
X726084D01*
X732333D02*
X732688D01*
X738429D02*
X742036D01*
X744677D02*
X745998D01*
X749300D02*
X750672D01*
X751942D02*
X753364D01*
X756463D02*
X757834D01*
X758698D02*
X760070D01*
X763372D02*
X764743D01*
X723290Y182372D02*
X725830D01*
X732333D02*
X732688D01*
X738632D02*
X742036D01*
X744677D02*
X745998D01*
X749300D02*
X750672D01*
X751942D02*
X753364D01*
X756463D02*
X757834D01*
X758698D02*
X760070D01*
X763372D02*
X764743D01*
X723290Y182321D02*
X725576D01*
X732333D02*
X732688D01*
X738886D02*
X742036D01*
X744677D02*
X745998D01*
X749300D02*
X750672D01*
X751942D02*
X753364D01*
X756463D02*
X757885D01*
X758698D02*
X760070D01*
X763372D02*
X764743D01*
X723240Y182270D02*
X725424D01*
X732282D02*
X732638D01*
X738988D02*
X742036D01*
X744677D02*
X745998D01*
X749300D02*
X750672D01*
X751942D02*
X753364D01*
X756463D02*
X757885D01*
X758698D02*
X760070D01*
X763372D02*
X764743D01*
X723240Y182220D02*
X725119D01*
X732282D02*
X732638D01*
X739292D02*
X742036D01*
X744677D02*
X745998D01*
X749300D02*
X750672D01*
X751942D02*
X753364D01*
X756463D02*
X757885D01*
X758698D02*
X760070D01*
X763372D02*
X764743D01*
X723189Y182169D02*
X724916D01*
X732282D02*
X732638D01*
X739445D02*
X742036D01*
X744677D02*
X746049D01*
X749300D02*
X750672D01*
X751942D02*
X753364D01*
X756463D02*
X757885D01*
X758698D02*
X760120D01*
X763372D02*
X764743D01*
X723189Y182118D02*
X724611D01*
X732231D02*
X732638D01*
X739699D02*
X742036D01*
X744677D02*
X746049D01*
X749300D02*
X750672D01*
X751942D02*
X753364D01*
X756463D02*
X757885D01*
X758698D02*
X760120D01*
X763372D02*
X764743D01*
X723138Y182067D02*
X724459D01*
X732231D02*
X732587D01*
X739851D02*
X742036D01*
X744677D02*
X746049D01*
X749300D02*
X750672D01*
X751942D02*
X753364D01*
X756463D02*
X757885D01*
X758698D02*
X760120D01*
X763372D02*
X764743D01*
X723138Y182016D02*
X724154D01*
X732231D02*
X732587D01*
X740105D02*
X742036D01*
X744677D02*
X746049D01*
X749300D02*
X750672D01*
X751942D02*
X753364D01*
X756463D02*
X757885D01*
X758749D02*
X760120D01*
X763372D02*
X764743D01*
X723087Y181966D02*
X723951D01*
X732180D02*
X732587D01*
X740258D02*
X742036D01*
X744677D02*
X746049D01*
X749249D02*
X750672D01*
X751942D02*
X753364D01*
X756463D02*
X757885D01*
X758749D02*
X760120D01*
X763372D02*
X764743D01*
X723087Y181915D02*
X723646D01*
X732180D02*
X732587D01*
X740562D02*
X742036D01*
X744677D02*
X746049D01*
X749249D02*
X750672D01*
X751942D02*
X753364D01*
X756463D02*
X757885D01*
X758749D02*
X760120D01*
X763372D02*
X764743D01*
X723036Y181864D02*
X723443D01*
X732180D02*
X732536D01*
X740715D02*
X742036D01*
X744677D02*
X746100D01*
X749249D02*
X750672D01*
X751942D02*
X753364D01*
X756463D02*
X757885D01*
X758749D02*
X760171D01*
X763321D02*
X764743D01*
X723036Y181813D02*
X723189D01*
X732130D02*
X732536D01*
X740969D02*
X742036D01*
X744677D02*
X746100D01*
X749249D02*
X750672D01*
X751942D02*
X753364D01*
X756412D02*
X757885D01*
X758749D02*
X760171D01*
X763321D02*
X764743D01*
X732130Y181762D02*
X732536D01*
X741172D02*
X742036D01*
X744677D02*
X746100D01*
X749198D02*
X750621D01*
X751942D02*
X753364D01*
X756412D02*
X757885D01*
X758749D02*
X760171D01*
X763270D02*
X764743D01*
X732130Y181712D02*
X732485D01*
X741426D02*
X742036D01*
X744677D02*
X746150D01*
X749198D02*
X750621D01*
X751942D02*
X753364D01*
X756412D02*
X757834D01*
X758800D02*
X760222D01*
X763270D02*
X764743D01*
X732079Y181661D02*
X732485D01*
X741629D02*
X742086D01*
X744677D02*
X746150D01*
X749148D02*
X750621D01*
X751942D02*
X753364D01*
X756361D02*
X757834D01*
X758800D02*
X760222D01*
X763219D02*
X764692D01*
X732079Y181610D02*
X732485D01*
X741883D02*
X742036D01*
X744728D02*
X746201D01*
X749148D02*
X750621D01*
X751942D02*
X753364D01*
X756310D02*
X757834D01*
X758800D02*
X760273D01*
X763219D02*
X764692D01*
X732079Y181559D02*
X732485D01*
X741985D02*
X742036D01*
X744728D02*
X746252D01*
X749097D02*
X750621D01*
X751942D02*
X753364D01*
X756310D02*
X757834D01*
X758800D02*
X760324D01*
X763168D02*
X764692D01*
X732028Y181508D02*
X732434D01*
X744728D02*
X746303D01*
X749046D02*
X750570D01*
X751942D02*
X753364D01*
X756209D02*
X757834D01*
X758850D02*
X760425D01*
X763067D02*
X764692D01*
X732028Y181458D02*
X732434D01*
X744728D02*
X746404D01*
X748894D02*
X750570D01*
X751942D02*
X753364D01*
X756107D02*
X757834D01*
X758850D02*
X760527D01*
X762965D02*
X764692D01*
X732028Y181407D02*
X732434D01*
X744728D02*
X746557D01*
X748741D02*
X750570D01*
X751942D02*
X753364D01*
X755904D02*
X757784D01*
X758850D02*
X760730D01*
X762813D02*
X764642D01*
X731977Y181356D02*
X732434D01*
X744779D02*
X746862D01*
X748487D02*
X750570D01*
X751942D02*
X753415D01*
X755447D02*
X757784D01*
X758901D02*
X760984D01*
X762508D02*
X764642D01*
X731977Y181305D02*
X732384D01*
X744779D02*
X750519D01*
X751942D02*
X757784D01*
X758901D02*
X764642D01*
X731977Y181254D02*
X732384D01*
X744779D02*
X750519D01*
X751942D02*
X757784D01*
X758901D02*
X764591D01*
X731926Y181204D02*
X732384D01*
X744830D02*
X750468D01*
X751942D02*
X757733D01*
X758952D02*
X764591D01*
X731926Y181153D02*
X732384D01*
X744830D02*
X750468D01*
X751942D02*
X757733D01*
X758952D02*
X764540D01*
X731926Y181102D02*
X732333D01*
X744880D02*
X750418D01*
X751942D02*
X757682D01*
X759003D02*
X764540D01*
X731876Y181051D02*
X732333D01*
X744931D02*
X750418D01*
X751942D02*
X757682D01*
X759003D02*
X764540D01*
X731876Y181000D02*
X732333D01*
X744931D02*
X750367D01*
X751942D02*
X757631D01*
X759054D02*
X764489D01*
X731876Y180950D02*
X732282D01*
X744982D02*
X750316D01*
X751942D02*
X757580D01*
X759054D02*
X764438D01*
X731825Y180899D02*
X732282D01*
X745033D02*
X750265D01*
X751942D02*
X757580D01*
X759104D02*
X764438D01*
X731825Y180848D02*
X732282D01*
X745033D02*
X750265D01*
X751942D02*
X757530D01*
X759155D02*
X764388D01*
X731825Y180797D02*
X732282D01*
X745084D02*
X750214D01*
X751942D02*
X757479D01*
X759206D02*
X764337D01*
X731774Y180746D02*
X732231D01*
X745185D02*
X750113D01*
X751942D02*
X757428D01*
X759308D02*
X764286D01*
X731774Y180696D02*
X732231D01*
X745236D02*
X750062D01*
X751942D02*
X757326D01*
X759358D02*
X764235D01*
X731774Y180645D02*
X732231D01*
X745338D02*
X749960D01*
X751942D02*
X757276D01*
X759460D02*
X764134D01*
X731723Y180594D02*
X732231D01*
X745439D02*
X749859D01*
X751942D02*
X757174D01*
X759562D02*
X764032D01*
X731723Y180543D02*
X732180D01*
X745592D02*
X749706D01*
X751942D02*
X757022D01*
X759714D02*
X763880D01*
X731723Y180492D02*
X732180D01*
X745744D02*
X749554D01*
X751942D02*
X756869D01*
X759866D02*
X763727D01*
X731672Y180442D02*
X732180D01*
X745947D02*
X749351D01*
X751942D02*
X756666D01*
X760120D02*
X763524D01*
X731672Y180391D02*
X732180D01*
X746303D02*
X749046D01*
X751942D02*
X756209D01*
X760425D02*
X763168D01*
X731672Y180340D02*
X732130D01*
X746963D02*
X748436D01*
X761035D02*
X762559D01*
X731672Y180289D02*
X732130D01*
X731622Y180238D02*
X732130D01*
X731622Y180188D02*
X732130D01*
X731571Y180137D02*
X732079D01*
X731571Y180086D02*
X732079D01*
X731571Y180035D02*
X732079D01*
X731571Y179984D02*
X732079D01*
X731520Y179934D02*
X732028D01*
X731520Y179883D02*
X732028D01*
X731520Y179832D02*
X732028D01*
X731469Y179781D02*
X731977D01*
X731469Y179730D02*
X731977D01*
X731469Y179680D02*
X731977D01*
X731418Y179629D02*
X731977D01*
X731418Y179578D02*
X731926D01*
X731368Y179527D02*
X731926D01*
X731368Y179476D02*
X731926D01*
X731368Y179426D02*
X731876D01*
X731368Y179375D02*
X731876D01*
X731317Y179324D02*
X731876D01*
X731317Y179273D02*
X731876D01*
X731317Y179222D02*
X731825D01*
X731266Y179172D02*
X731825D01*
X731266Y179121D02*
X731825D01*
X731266Y179070D02*
X731825D01*
X731215Y179019D02*
X731774D01*
X731215Y178968D02*
X731774D01*
X746608D02*
X746658D01*
X746862D02*
X747827D01*
X747928D02*
X747979D01*
X762000D02*
X763067D01*
X763270D02*
X763321D01*
X731164Y178918D02*
X731774D01*
X733704D02*
X736295D01*
X740867D02*
X741629D01*
X746252D02*
X748233D01*
X751230D02*
X751738D01*
X754329D02*
X755193D01*
X757733D02*
X758190D01*
X761543D02*
X763626D01*
X731164Y178867D02*
X731774D01*
X733654D02*
X736651D01*
X740816D02*
X741629D01*
X745947D02*
X748436D01*
X751230D02*
X751738D01*
X754329D02*
X755244D01*
X757682D02*
X758190D01*
X761238D02*
X763930D01*
X731164Y178816D02*
X731723D01*
X733654D02*
X736803D01*
X740766D02*
X741680D01*
X745744D02*
X748589D01*
X751230D02*
X751738D01*
X754329D02*
X755294D01*
X757682D02*
X758190D01*
X761035D02*
X764083D01*
X731114Y178765D02*
X731723D01*
X733654D02*
X736905D01*
X740766D02*
X741731D01*
X745642D02*
X748690D01*
X751230D02*
X751738D01*
X754329D02*
X755345D01*
X757682D02*
X758190D01*
X760933D02*
X764134D01*
X731114Y178714D02*
X731723D01*
X733654D02*
X736956D01*
X740715D02*
X741782D01*
X745541D02*
X746760D01*
X747776D02*
X748741D01*
X751230D02*
X751738D01*
X754329D02*
X755396D01*
X757682D02*
X758190D01*
X760832D02*
X761949D01*
X763016D02*
X764184D01*
X731114Y178664D02*
X731723D01*
X733654D02*
X734212D01*
X736244D02*
X737006D01*
X740715D02*
X741782D01*
X745490D02*
X746252D01*
X748081D02*
X748792D01*
X751230D02*
X751738D01*
X754329D02*
X755447D01*
X757682D02*
X758190D01*
X760781D02*
X761543D01*
X763524D02*
X764235D01*
X731063Y178613D02*
X731672D01*
X733654D02*
X734162D01*
X736448D02*
X737057D01*
X740664D02*
X741172D01*
X741324D02*
X741832D01*
X745439D02*
X746049D01*
X748233D02*
X748792D01*
X751230D02*
X751738D01*
X754329D02*
X754837D01*
X754939D02*
X755548D01*
X757682D02*
X758190D01*
X760730D02*
X761340D01*
X763676D02*
X764286D01*
X731063Y178562D02*
X731672D01*
X733654D02*
X734162D01*
X736549D02*
X737108D01*
X740613D02*
X741172D01*
X741324D02*
X741832D01*
X745388D02*
X745998D01*
X748284D02*
X748843D01*
X751230D02*
X751738D01*
X754329D02*
X754837D01*
X754990D02*
X755599D01*
X757682D02*
X758190D01*
X760730D02*
X761238D01*
X763727D02*
X764286D01*
X731063Y178511D02*
X731672D01*
X733654D02*
X734162D01*
X736600D02*
X737108D01*
X740613D02*
X741121D01*
X741375D02*
X741883D01*
X745338D02*
X745947D01*
X748335D02*
X748843D01*
X751230D02*
X751738D01*
X754329D02*
X754837D01*
X755040D02*
X755650D01*
X757682D02*
X758190D01*
X760679D02*
X761187D01*
X763778D02*
X764286D01*
X731063Y178460D02*
X731672D01*
X733654D02*
X734162D01*
X736600D02*
X737108D01*
X740562D02*
X741121D01*
X741375D02*
X741934D01*
X745338D02*
X745896D01*
X748335D02*
X748894D01*
X751230D02*
X751738D01*
X754329D02*
X754837D01*
X755091D02*
X755701D01*
X757682D02*
X758190D01*
X760628D02*
X761187D01*
X763778D02*
X764337D01*
X731012Y178410D02*
X731622D01*
X733654D02*
X734162D01*
X736651D02*
X737159D01*
X740512D02*
X741070D01*
X741426D02*
X741985D01*
X745338D02*
X745896D01*
X748335D02*
X748894D01*
X751230D02*
X751738D01*
X754329D02*
X754837D01*
X755142D02*
X755752D01*
X757682D02*
X758190D01*
X760628D02*
X761136D01*
X763829D02*
X764337D01*
X731012Y178359D02*
X731622D01*
X733654D02*
X734162D01*
X736651D02*
X737159D01*
X740512D02*
X741020D01*
X741477D02*
X741985D01*
X745287D02*
X745846D01*
X748386D02*
X748894D01*
X751230D02*
X751738D01*
X754329D02*
X754837D01*
X755193D02*
X755802D01*
X757682D02*
X758190D01*
X760628D02*
X761136D01*
X763829D02*
X764337D01*
X730961Y178308D02*
X731622D01*
X733654D02*
X734162D01*
X736651D02*
X737159D01*
X740461D02*
X741020D01*
X741477D02*
X742036D01*
X745287D02*
X745846D01*
X748386D02*
X748894D01*
X751230D02*
X751738D01*
X754329D02*
X754837D01*
X755244D02*
X755853D01*
X757682D02*
X758190D01*
X760628D02*
X761086D01*
X763829D02*
X764337D01*
X730961Y178257D02*
X731571D01*
X733654D02*
X734162D01*
X736651D02*
X737159D01*
X740410D02*
X740969D01*
X741528D02*
X742036D01*
X745287D02*
X745846D01*
X748386D02*
X748894D01*
X751230D02*
X751738D01*
X754329D02*
X754837D01*
X755294D02*
X755904D01*
X757682D02*
X758190D01*
X760578D02*
X761086D01*
X763829D02*
X764337D01*
X730961Y178206D02*
X731571D01*
X733654D02*
X734162D01*
X736651D02*
X737159D01*
X740410D02*
X740918D01*
X741578D02*
X742086D01*
X745287D02*
X745846D01*
X748386D02*
X748894D01*
X751230D02*
X751738D01*
X754329D02*
X754837D01*
X755345D02*
X755955D01*
X757682D02*
X758190D01*
X760578D02*
X761086D01*
X763829D02*
X764286D01*
X730961Y178156D02*
X731571D01*
X733654D02*
X734162D01*
X736651D02*
X737159D01*
X740359D02*
X740918D01*
X741578D02*
X742137D01*
X745287D02*
X745846D01*
X748792D02*
X748843D01*
X751230D02*
X751738D01*
X754329D02*
X754837D01*
X755396D02*
X756006D01*
X757682D02*
X758190D01*
X760578D02*
X761086D01*
X730910Y178105D02*
X731571D01*
X733654D02*
X734162D01*
X736651D02*
X737159D01*
X740308D02*
X740867D01*
X741629D02*
X742188D01*
X745287D02*
X745846D01*
X751230D02*
X751738D01*
X754329D02*
X754837D01*
X755447D02*
X756107D01*
X757682D02*
X758190D01*
X760578D02*
X761086D01*
X730910Y178054D02*
X731571D01*
X733654D02*
X734162D01*
X736651D02*
X737159D01*
X740308D02*
X740867D01*
X741680D02*
X742188D01*
X745287D02*
X745846D01*
X751230D02*
X751738D01*
X754329D02*
X754837D01*
X755498D02*
X756158D01*
X757682D02*
X758190D01*
X760578D02*
X761086D01*
X730910Y178003D02*
X731520D01*
X733654D02*
X734162D01*
X736651D02*
X737159D01*
X740258D02*
X740816D01*
X741680D02*
X742239D01*
X745287D02*
X745846D01*
X751230D02*
X751738D01*
X754329D02*
X754837D01*
X755548D02*
X756209D01*
X757682D02*
X758190D01*
X760578D02*
X761086D01*
X730860Y177952D02*
X731520D01*
X733654D02*
X734162D01*
X736651D02*
X737108D01*
X740258D02*
X740766D01*
X741731D02*
X742239D01*
X745287D02*
X745846D01*
X751230D02*
X751738D01*
X754329D02*
X754837D01*
X755650D02*
X756260D01*
X757682D02*
X758190D01*
X760578D02*
X761086D01*
X730860Y177902D02*
X731520D01*
X733654D02*
X734162D01*
X736600D02*
X737108D01*
X740207D02*
X740766D01*
X741782D02*
X742290D01*
X745287D02*
X745846D01*
X751230D02*
X751738D01*
X754329D02*
X754837D01*
X755701D02*
X756310D01*
X757682D02*
X758190D01*
X760578D02*
X761086D01*
X730809Y177851D02*
X731469D01*
X733654D02*
X734162D01*
X736549D02*
X737108D01*
X740156D02*
X740715D01*
X741782D02*
X742340D01*
X745287D02*
X745846D01*
X751230D02*
X751738D01*
X754329D02*
X754837D01*
X755752D02*
X756361D01*
X757682D02*
X758190D01*
X760578D02*
X761086D01*
X730809Y177800D02*
X731469D01*
X733654D02*
X734162D01*
X736498D02*
X737057D01*
X740156D02*
X740664D01*
X741832D02*
X742340D01*
X745287D02*
X745846D01*
X751230D02*
X751738D01*
X754329D02*
X754837D01*
X755802D02*
X756412D01*
X757682D02*
X758190D01*
X760578D02*
X761086D01*
X730809Y177749D02*
X731469D01*
X733654D02*
X734162D01*
X736397D02*
X737057D01*
X740105D02*
X740664D01*
X741832D02*
X742391D01*
X745287D02*
X745846D01*
X751230D02*
X751738D01*
X754329D02*
X754837D01*
X755853D02*
X756463D01*
X757682D02*
X758190D01*
X760578D02*
X761086D01*
X730809Y177698D02*
X731469D01*
X733654D02*
X734212D01*
X736194D02*
X736956D01*
X740054D02*
X740613D01*
X741883D02*
X742442D01*
X745287D02*
X745846D01*
X751230D02*
X751738D01*
X754329D02*
X754837D01*
X755904D02*
X756514D01*
X757682D02*
X758190D01*
X760578D02*
X761086D01*
X730758Y177648D02*
X731418D01*
X733654D02*
X736905D01*
X740054D02*
X740562D01*
X741934D02*
X742442D01*
X745287D02*
X745846D01*
X751230D02*
X751738D01*
X754329D02*
X754837D01*
X755955D02*
X756564D01*
X757682D02*
X758190D01*
X760578D02*
X761086D01*
X762406D02*
X764337D01*
X730758Y177597D02*
X731418D01*
X733654D02*
X736752D01*
X740004D02*
X740562D01*
X741985D02*
X742493D01*
X745287D02*
X745846D01*
X751230D02*
X751738D01*
X754329D02*
X754837D01*
X756006D02*
X756615D01*
X757682D02*
X758190D01*
X760578D02*
X761086D01*
X762406D02*
X764337D01*
X730758Y177546D02*
X731418D01*
X733654D02*
X736600D01*
X739953D02*
X740512D01*
X741985D02*
X742544D01*
X745287D02*
X745846D01*
X751230D02*
X751738D01*
X754329D02*
X754837D01*
X756056D02*
X756666D01*
X757682D02*
X758190D01*
X760578D02*
X761086D01*
X762406D02*
X764337D01*
X730707Y177495D02*
X731418D01*
X733654D02*
X736702D01*
X739953D02*
X740512D01*
X742036D02*
X742544D01*
X745287D02*
X745846D01*
X751230D02*
X751738D01*
X754329D02*
X754837D01*
X756107D02*
X756768D01*
X757682D02*
X758190D01*
X760578D02*
X761086D01*
X762406D02*
X764337D01*
X730707Y177444D02*
X731368D01*
X733654D02*
X736854D01*
X739902D02*
X740461D01*
X742036D02*
X742594D01*
X745287D02*
X745846D01*
X751230D02*
X751738D01*
X754329D02*
X754837D01*
X756209D02*
X756818D01*
X757682D02*
X758190D01*
X760578D02*
X761086D01*
X762406D02*
X764337D01*
X730707Y177394D02*
X731368D01*
X733654D02*
X734212D01*
X736143D02*
X736905D01*
X739851D02*
X740410D01*
X742086D02*
X742645D01*
X745287D02*
X745846D01*
X751230D02*
X751738D01*
X754329D02*
X754837D01*
X756260D02*
X756869D01*
X757682D02*
X758190D01*
X760578D02*
X761086D01*
X763829D02*
X764337D01*
X730656Y177343D02*
X731368D01*
X733654D02*
X734162D01*
X736346D02*
X737006D01*
X739851D02*
X740410D01*
X742137D02*
X742645D01*
X745287D02*
X745846D01*
X751230D02*
X751738D01*
X754329D02*
X754837D01*
X756310D02*
X756920D01*
X757682D02*
X758190D01*
X760578D02*
X761086D01*
X763829D02*
X764337D01*
X730656Y177292D02*
X731368D01*
X733654D02*
X734162D01*
X736448D02*
X737057D01*
X739800D02*
X740359D01*
X742137D02*
X742696D01*
X745287D02*
X745846D01*
X751230D02*
X751738D01*
X754329D02*
X754837D01*
X756361D02*
X756971D01*
X757682D02*
X758190D01*
X760578D02*
X761086D01*
X763829D02*
X764337D01*
X730656Y177241D02*
X731317D01*
X733654D02*
X734162D01*
X736498D02*
X737057D01*
X739750D02*
X740308D01*
X742188D02*
X742747D01*
X745287D02*
X745846D01*
X748487D02*
X748944D01*
X751230D02*
X751738D01*
X754329D02*
X754837D01*
X756412D02*
X757022D01*
X757682D02*
X758190D01*
X760578D02*
X761086D01*
X763829D02*
X764337D01*
X730606Y177190D02*
X731317D01*
X733654D02*
X734162D01*
X736549D02*
X737057D01*
X739750D02*
X740308D01*
X742188D02*
X742747D01*
X745287D02*
X745846D01*
X748436D02*
X748944D01*
X751230D02*
X751738D01*
X754329D02*
X754837D01*
X756463D02*
X757072D01*
X757682D02*
X758190D01*
X760578D02*
X761086D01*
X763829D02*
X764337D01*
X730606Y177140D02*
X731317D01*
X733654D02*
X734162D01*
X736549D02*
X737108D01*
X739699D02*
X742798D01*
X745338D02*
X745896D01*
X748436D02*
X748944D01*
X751230D02*
X751738D01*
X754329D02*
X754837D01*
X756514D02*
X757123D01*
X757682D02*
X758190D01*
X760578D02*
X761086D01*
X763829D02*
X764337D01*
X730606Y177089D02*
X731266D01*
X733654D02*
X734162D01*
X736549D02*
X737108D01*
X739648D02*
X742848D01*
X745338D02*
X745896D01*
X748436D02*
X748944D01*
X751230D02*
X751738D01*
X754329D02*
X754837D01*
X756564D02*
X757174D01*
X757682D02*
X758190D01*
X760628D02*
X761086D01*
X763829D02*
X764337D01*
X730555Y177038D02*
X731266D01*
X733654D02*
X734162D01*
X736600D02*
X737108D01*
X739648D02*
X742848D01*
X745338D02*
X745896D01*
X748436D02*
X748944D01*
X751230D02*
X751738D01*
X754329D02*
X754837D01*
X756615D02*
X757225D01*
X757682D02*
X758190D01*
X760628D02*
X761086D01*
X763829D02*
X764337D01*
X730555Y176987D02*
X731266D01*
X733654D02*
X734162D01*
X736600D02*
X737108D01*
X739597D02*
X742899D01*
X745338D02*
X745896D01*
X748436D02*
X748944D01*
X751230D02*
X751738D01*
X754329D02*
X754837D01*
X756666D02*
X757276D01*
X757682D02*
X758190D01*
X760628D02*
X761086D01*
X763829D02*
X764337D01*
X730555Y176936D02*
X731215D01*
X733654D02*
X734162D01*
X736600D02*
X737108D01*
X739597D02*
X742950D01*
X745388D02*
X745896D01*
X748436D02*
X748944D01*
X751230D02*
X751738D01*
X754329D02*
X754837D01*
X756717D02*
X757326D01*
X757682D02*
X758190D01*
X760628D02*
X761136D01*
X763829D02*
X764286D01*
X730504Y176886D02*
X731215D01*
X733654D02*
X734162D01*
X736600D02*
X737108D01*
X739546D02*
X740105D01*
X742442D02*
X742950D01*
X745388D02*
X745947D01*
X748436D02*
X748944D01*
X751230D02*
X751738D01*
X754329D02*
X754837D01*
X756818D02*
X757377D01*
X757682D02*
X758190D01*
X760628D02*
X761187D01*
X763778D02*
X764286D01*
X730504Y176835D02*
X731215D01*
X733654D02*
X734162D01*
X736600D02*
X737108D01*
X739496D02*
X740054D01*
X742442D02*
X743001D01*
X745388D02*
X745947D01*
X748386D02*
X748894D01*
X751230D02*
X751738D01*
X754329D02*
X754837D01*
X756869D02*
X757479D01*
X757682D02*
X758190D01*
X760679D02*
X761187D01*
X763778D02*
X764286D01*
X730504Y176784D02*
X731215D01*
X733654D02*
X734162D01*
X736600D02*
X737108D01*
X739496D02*
X740054D01*
X742493D02*
X743052D01*
X745439D02*
X745998D01*
X748335D02*
X748894D01*
X751230D02*
X751738D01*
X754329D02*
X754837D01*
X756920D02*
X757479D01*
X757682D02*
X758190D01*
X760730D02*
X761238D01*
X763727D02*
X764286D01*
X730453Y176733D02*
X731215D01*
X733654D02*
X734162D01*
X736600D02*
X737108D01*
X739445D02*
X740004D01*
X742544D02*
X743052D01*
X745439D02*
X746049D01*
X748335D02*
X748894D01*
X751230D02*
X751738D01*
X754329D02*
X754837D01*
X756971D02*
X757530D01*
X757682D02*
X758190D01*
X760730D02*
X761289D01*
X763676D02*
X764235D01*
X730453Y176682D02*
X731164D01*
X733654D02*
X734162D01*
X736600D02*
X737108D01*
X739394D02*
X739953D01*
X742544D02*
X743102D01*
X745490D02*
X746201D01*
X748233D02*
X748843D01*
X751230D02*
X751738D01*
X754329D02*
X754837D01*
X757022D02*
X757631D01*
X757682D02*
X758190D01*
X760781D02*
X761441D01*
X763575D02*
X764235D01*
X730453Y176632D02*
X731164D01*
X733654D02*
X734162D01*
X736600D02*
X737108D01*
X739394D02*
X739902D01*
X742594D02*
X743153D01*
X745541D02*
X746557D01*
X747827D02*
X748843D01*
X751230D02*
X751738D01*
X754329D02*
X754837D01*
X757072D02*
X758190D01*
X760832D02*
X761848D01*
X763270D02*
X764184D01*
X730402Y176581D02*
X731164D01*
X733654D02*
X734162D01*
X736600D02*
X737108D01*
X739343D02*
X739902D01*
X742645D02*
X743153D01*
X745592D02*
X748792D01*
X751230D02*
X751738D01*
X754329D02*
X754837D01*
X757123D02*
X758190D01*
X760882D02*
X764134D01*
X730402Y176530D02*
X731164D01*
X733654D02*
X734162D01*
X736600D02*
X737108D01*
X739292D02*
X739851D01*
X742645D02*
X743204D01*
X745693D02*
X748741D01*
X751230D02*
X751738D01*
X754329D02*
X754837D01*
X757174D02*
X758190D01*
X760933D02*
X764083D01*
X730402Y176479D02*
X731114D01*
X733654D02*
X734162D01*
X736600D02*
X737108D01*
X739292D02*
X739851D01*
X742696D02*
X743255D01*
X745795D02*
X748640D01*
X751230D02*
X751738D01*
X754329D02*
X754837D01*
X757225D02*
X758190D01*
X761086D02*
X763981D01*
X730352Y176428D02*
X731114D01*
X733654D02*
X734162D01*
X736600D02*
X737108D01*
X739242D02*
X739800D01*
X742747D02*
X743255D01*
X745998D02*
X748386D01*
X751230D02*
X751738D01*
X754329D02*
X754837D01*
X757276D02*
X758190D01*
X761340D02*
X763727D01*
X730352Y176378D02*
X731114D01*
X746506D02*
X747827D01*
X761848D02*
X763168D01*
X730352Y176327D02*
X731063D01*
X730301Y176276D02*
X731063D01*
X730301Y176225D02*
X731063D01*
X730301Y176174D02*
X731063D01*
X730250Y176124D02*
X731012D01*
X730250Y176073D02*
X731012D01*
X730250Y176022D02*
X731012D01*
X730199Y175971D02*
X731012D01*
X730199Y175920D02*
X730961D01*
X730199Y175870D02*
X730961D01*
X730148Y175819D02*
X730961D01*
X730148Y175768D02*
X764997D01*
X730148Y175717D02*
X764032D01*
X730098Y175666D02*
X762457D01*
X730098Y175616D02*
X761035D01*
X730098Y175565D02*
X759663D01*
X730047Y175514D02*
X758190D01*
X730047Y175463D02*
X756768D01*
X730047Y175412D02*
X755396D01*
X729996Y175362D02*
X753923D01*
X729996Y175311D02*
X752500D01*
X729996Y175260D02*
X751129D01*
X729945Y175209D02*
X749605D01*
X729945Y175158D02*
X748182D01*
X748233D02*
X748284D01*
X729945Y175108D02*
X746862D01*
X729894Y175057D02*
X745338D01*
X729894Y175006D02*
X743915D01*
X729894Y174955D02*
X742594D01*
X729844Y174904D02*
X741121D01*
X729844Y174854D02*
X739699D01*
X729844Y174803D02*
X738276D01*
X729793Y174752D02*
X736854D01*
X729793Y174701D02*
X735432D01*
X729793Y174650D02*
X734009D01*
X729742Y174600D02*
X732587D01*
X729742Y174549D02*
X731114D01*
D57*
X1968464Y1327696D02*
X1960000D01*
Y1321348D01*
X1964232D01*
X1960000D01*
Y1315000D01*
X1972696Y1323464D02*
Y1317116D01*
X1974812Y1315000D01*
X1981160D01*
Y1323464D01*
X1991740Y1315000D02*
X1987508D01*
X1985392Y1317116D01*
Y1321348D01*
X1987508Y1323464D01*
X1991740D01*
X1993856Y1321348D01*
Y1319232D01*
X1985392D01*
X1998088Y1315000D02*
X2002320D01*
X2000204D01*
Y1327696D01*
X1998088D01*
X1971040Y1285236D02*
X1975272D01*
X1973156D01*
Y1272540D01*
X1971040D01*
X1975272D01*
X1981620D02*
Y1285236D01*
X1990084Y1272540D01*
Y1285236D01*
X2002780D02*
X1998548D01*
X2000664D01*
Y1274656D01*
X1998548Y1272540D01*
X1996432D01*
X1994316Y1274656D01*
X1971040Y1244596D02*
X1975272D01*
X1973156D01*
Y1231900D01*
X1971040D01*
X1975272D01*
X1981620D02*
Y1244596D01*
X1990084Y1231900D01*
Y1244596D01*
X2002780D02*
X1998548D01*
X2000664D01*
Y1234016D01*
X1998548Y1231900D01*
X1996432D01*
X1994316Y1234016D01*
X1950000Y1207696D02*
Y1195000D01*
X1954232Y1199232D01*
X1958464Y1195000D01*
Y1207696D01*
X1964812Y1203464D02*
X1969044D01*
X1971160Y1201348D01*
Y1195000D01*
X1964812D01*
X1962696Y1197116D01*
X1964812Y1199232D01*
X1971160D01*
X1977508Y1205580D02*
Y1203464D01*
X1975392D01*
X1979624D01*
X1977508D01*
Y1197116D01*
X1979624Y1195000D01*
X1992320D02*
X1988088D01*
X1985972Y1197116D01*
Y1201348D01*
X1988088Y1203464D01*
X1992320D01*
X1994436Y1201348D01*
Y1199232D01*
X1985972D01*
X1998668Y1203464D02*
Y1195000D01*
Y1199232D01*
X2000784Y1201348D01*
X2002900Y1203464D01*
X2005016D01*
X1945000Y1175000D02*
Y1187696D01*
X1951348D01*
X1953464Y1185580D01*
Y1181348D01*
X1951348Y1179232D01*
X1945000D01*
X1957696Y1183464D02*
Y1177116D01*
X1959812Y1175000D01*
X1966160D01*
Y1183464D01*
X1970392Y1175000D02*
Y1183464D01*
X1972508D01*
X1974624Y1181348D01*
Y1175000D01*
Y1181348D01*
X1976740Y1183464D01*
X1978856Y1181348D01*
Y1175000D01*
X1983088Y1170768D02*
Y1183464D01*
X1989436D01*
X1991552Y1181348D01*
Y1177116D01*
X1989436Y1175000D01*
X1983088D01*
X1995784Y1181348D02*
X2004247D01*
X2000016Y1185580D02*
Y1177116D01*
X1968500Y1211580D02*
Y1224276D01*
X1974848D01*
X1976964Y1222160D01*
Y1217928D01*
X1974848Y1215812D01*
X1968500D01*
X1981196Y1224276D02*
Y1211580D01*
X1985428Y1215812D01*
X1989660Y1211580D01*
Y1224276D01*
X1993892Y1211580D02*
Y1224276D01*
X2000240D01*
X2002356Y1222160D01*
Y1217928D01*
X2000240Y1215812D01*
X1993892D01*
X1998124D02*
X2002356Y1211580D01*
X1945000Y1295000D02*
Y1307696D01*
X1951348D01*
X1953464Y1305580D01*
Y1301348D01*
X1951348Y1299232D01*
X1945000D01*
X1957696Y1303464D02*
Y1297116D01*
X1959812Y1295000D01*
X1966160D01*
Y1303464D01*
X1970392Y1295000D02*
Y1303464D01*
X1972508D01*
X1974624Y1301348D01*
Y1295000D01*
Y1301348D01*
X1976740Y1303464D01*
X1978856Y1301348D01*
Y1295000D01*
X1983088Y1290768D02*
Y1303464D01*
X1989436D01*
X1991552Y1301348D01*
Y1297116D01*
X1989436Y1295000D01*
X1983088D01*
X1995784Y1301348D02*
X2004247D01*
X2000016Y1305580D02*
Y1297116D01*
X1945000Y1255000D02*
Y1267696D01*
X1951348D01*
X1953464Y1265580D01*
Y1261348D01*
X1951348Y1259232D01*
X1945000D01*
X1949232D02*
X1953464Y1255000D01*
X1964044D02*
X1959812D01*
X1957696Y1257116D01*
Y1261348D01*
X1959812Y1263464D01*
X1964044D01*
X1966160Y1261348D01*
Y1259232D01*
X1957696D01*
X1970392Y1255000D02*
X1974624D01*
X1972508D01*
Y1267696D01*
X1970392D01*
X1983088Y1263464D02*
X1987320D01*
X1989436Y1261348D01*
Y1255000D01*
X1983088D01*
X1980972Y1257116D01*
X1983088Y1259232D01*
X1989436D01*
X1993668Y1263464D02*
Y1257116D01*
X1995784Y1255000D01*
X2002132D01*
Y1252884D01*
X2000016Y1250768D01*
X1997899D01*
X2002132Y1255000D02*
Y1263464D01*
M02*
