G04 Layer_Physical_Order=1*
G04 Layer_Color=255*
%FSLAX44Y44*%
%MOMM*%
G71*
G01*
G75*
%ADD10R,1.7500X2.6500*%
%ADD11C,1.0000*%
%ADD12C,3.0000*%
%ADD13R,9.5000X7.3660*%
%ADD14R,8.5000X7.3660*%
%ADD15R,38.5000X6.5000*%
%ADD16R,8.5000X9.5000*%
%ADD17R,13.5000X9.0000*%
%ADD18R,14.5000X16.0000*%
%ADD19R,22.0000X11.0000*%
%ADD20C,1.9050*%
%ADD21C,2.7000*%
%ADD22C,1.5000*%
%ADD23C,1.5240*%
D10*
X1300000Y535000D02*
D03*
Y492000D02*
D03*
Y792000D02*
D03*
Y835000D02*
D03*
Y1410000D02*
D03*
Y1367000D02*
D03*
X775000Y1267000D02*
D03*
Y1310000D02*
D03*
X1300000Y1110000D02*
D03*
Y1067000D02*
D03*
X775000Y667000D02*
D03*
Y710000D02*
D03*
Y1010000D02*
D03*
Y967000D02*
D03*
D11*
X1270000Y1080000D02*
X1334944Y1144944D01*
X740000Y975000D02*
X809944Y1044944D01*
X1300000Y444020D02*
Y492000D01*
Y1367000D02*
Y1368580D01*
Y1320320D02*
Y1367000D01*
Y1018060D02*
Y1066320D01*
Y743740D02*
Y792000D01*
X775000Y1310000D02*
X809944Y1344944D01*
X740000Y1275000D02*
X740000D01*
X775000Y1310000D01*
X1355000Y270000D02*
X1831340D01*
X1516986Y569086D02*
X1613918Y472154D01*
X1516986Y569086D02*
Y569944D01*
X1611538Y1046646D02*
Y1050392D01*
X809944Y1044944D02*
X870066D01*
X809944Y744944D02*
X870066D01*
X740000Y975000D02*
Y1275000D01*
Y745000D02*
Y975000D01*
Y745000D02*
X775000Y710000D01*
X870066Y1344944D02*
X935122Y1410000D01*
X1300000D01*
X1270000Y1380000D02*
X1300000Y1410000D01*
X1270000Y1080000D02*
Y1380000D01*
Y865000D02*
Y1080000D01*
Y865000D02*
X1300000Y835000D01*
X1395066Y869944D02*
X1425000Y840010D01*
Y560000D02*
Y840010D01*
X1375000Y510000D02*
X1425000Y560000D01*
X1300000Y535000D02*
X1334944Y569944D01*
X1395066D01*
X1300000Y835000D02*
X1334944Y869944D01*
X1395066D01*
X1334944Y1144944D02*
X1395066D01*
X1300000Y1410000D02*
X1334944Y1444944D01*
X1395066D01*
X775000Y710000D02*
X809944Y744944D01*
Y1344944D02*
X870066D01*
X775000Y667000D02*
X828122D01*
X870066Y625056D01*
X925132Y810000D02*
X1120000D01*
X1230000Y700000D01*
X775000Y1267000D02*
X828122D01*
X870066Y1225056D01*
Y1139934D02*
Y1225056D01*
Y1139934D02*
X890000Y1120000D01*
X1140000D01*
X1165000Y1095000D01*
Y785000D02*
Y1095000D01*
Y785000D02*
X1245000Y705000D01*
X1230000Y412734D02*
X1357734Y285000D01*
X1230000Y412734D02*
Y700000D01*
X1245000Y415468D02*
Y705000D01*
Y415468D02*
X1360468Y300000D01*
X1831340D01*
X969337Y490000D02*
X1135000D01*
X1355000Y270000D01*
X900000Y559337D02*
X969337Y490000D01*
X900000Y559337D02*
Y595122D01*
X870066Y625056D02*
X900000Y595122D01*
X775000Y967000D02*
X828122D01*
X870066Y925056D01*
Y865066D02*
X925132Y810000D01*
X870066Y865066D02*
Y925056D01*
X1357734Y285000D02*
X1859800D01*
X1877060Y302260D01*
D12*
X1516986Y1144944D02*
X1611538Y1050392D01*
D13*
X1862500Y1245870D02*
D03*
D14*
X1772500D02*
D03*
D15*
X1602500Y1197500D02*
D03*
D16*
X1452500Y1172500D02*
D03*
D17*
X1427500Y1085000D02*
D03*
D18*
X1517500Y810000D02*
D03*
Y1385000D02*
D03*
X992500Y685000D02*
D03*
Y985000D02*
D03*
Y1285000D02*
D03*
D19*
X1555000Y1305000D02*
D03*
Y730000D02*
D03*
X1030000Y605000D02*
D03*
Y905000D02*
D03*
Y1205000D02*
D03*
D20*
X1375000Y1085000D02*
D03*
X1648462Y548354D02*
D03*
X1613918Y472154D02*
D03*
X1611538Y771646D02*
D03*
X1646082Y847846D02*
D03*
X1611538Y1346646D02*
D03*
X1646082Y1422846D02*
D03*
X1086538Y1246646D02*
D03*
X1121082Y1322846D02*
D03*
X1611538Y1046646D02*
D03*
X1646082Y1122846D02*
D03*
X1086538Y646646D02*
D03*
X1121082Y722846D02*
D03*
X1086538Y946646D02*
D03*
X1121082Y1022846D02*
D03*
X1516986Y569944D02*
D03*
X1395066D02*
D03*
Y450056D02*
D03*
X1375000Y510000D02*
D03*
X1516986Y869944D02*
D03*
X1395066D02*
D03*
Y750056D02*
D03*
X1375000Y810000D02*
D03*
X1516986Y1444944D02*
D03*
X1395066D02*
D03*
Y1325056D02*
D03*
X1375000Y1385000D02*
D03*
X991986Y1344944D02*
D03*
X870066D02*
D03*
Y1225056D02*
D03*
X850000Y1285000D02*
D03*
X1516986Y1144944D02*
D03*
X1395066D02*
D03*
Y1025056D02*
D03*
X991986Y744944D02*
D03*
X870066D02*
D03*
Y625056D02*
D03*
X850000Y685000D02*
D03*
X991986Y1044944D02*
D03*
X870066D02*
D03*
Y925056D02*
D03*
X850000Y985000D02*
D03*
D21*
X1820390Y905000D02*
D03*
X1875000D02*
D03*
Y962150D02*
D03*
X1820390D02*
D03*
Y1019300D02*
D03*
X1875000D02*
D03*
X1820390Y1470700D02*
D03*
X1875000D02*
D03*
Y1527850D02*
D03*
X1820390D02*
D03*
Y1585000D02*
D03*
X1875000D02*
D03*
X1820390Y710000D02*
D03*
X1875000D02*
D03*
X1820390Y525000D02*
D03*
X1875000D02*
D03*
D22*
X1894200Y1300060D02*
D03*
X1848480D02*
D03*
Y1264910D02*
D03*
X1894200Y1265060D02*
D03*
Y1230060D02*
D03*
X1848200D02*
D03*
Y1195060D02*
D03*
X1894200D02*
D03*
X1831340Y267260D02*
D03*
Y302260D02*
D03*
X1877060D02*
D03*
Y267260D02*
D03*
D23*
X1300000Y1320320D02*
D03*
Y1018060D02*
D03*
Y444020D02*
D03*
Y743740D02*
D03*
M02*
