G04 Layer_Color=16711935*
%FSLAX44Y44*%
%MOMM*%
G71*
G01*
G75*
%ADD59C,2.1082*%
%ADD60C,0.2032*%
%ADD61C,2.9032*%
%ADD62C,1.7032*%
%ADD63C,1.7272*%
D59*
X1375000Y1085000D02*
D03*
X1648462Y548354D02*
D03*
X1613918Y472154D02*
D03*
X1611538Y771646D02*
D03*
X1646082Y847846D02*
D03*
X1611538Y1346646D02*
D03*
X1646082Y1422846D02*
D03*
X1086538Y1246646D02*
D03*
X1121082Y1322846D02*
D03*
X1611538Y1046646D02*
D03*
X1646082Y1122846D02*
D03*
X1086538Y646646D02*
D03*
X1121082Y722846D02*
D03*
X1086538Y946646D02*
D03*
X1121082Y1022846D02*
D03*
X1516986Y569944D02*
D03*
X1395066D02*
D03*
Y450056D02*
D03*
X1375000Y510000D02*
D03*
X1516986Y869944D02*
D03*
X1395066D02*
D03*
Y750056D02*
D03*
X1375000Y810000D02*
D03*
X1516986Y1444944D02*
D03*
X1395066D02*
D03*
Y1325056D02*
D03*
X1375000Y1385000D02*
D03*
X991986Y1344944D02*
D03*
X870066D02*
D03*
Y1225056D02*
D03*
X850000Y1285000D02*
D03*
X1516986Y1144944D02*
D03*
X1395066D02*
D03*
Y1025056D02*
D03*
X991986Y744944D02*
D03*
X870066D02*
D03*
Y625056D02*
D03*
X850000Y685000D02*
D03*
X991986Y1044944D02*
D03*
X870066D02*
D03*
Y925056D02*
D03*
X850000Y985000D02*
D03*
D60*
X1878250Y843600D02*
D03*
Y1081000D02*
D03*
Y1409300D02*
D03*
Y1646700D02*
D03*
Y648300D02*
D03*
X1878810Y771700D02*
D03*
X1878250Y463300D02*
D03*
X1878810Y586700D02*
D03*
X1631190Y510254D02*
D03*
X1628810Y809746D02*
D03*
Y1384746D02*
D03*
X1103810Y1284746D02*
D03*
X1628810Y1084746D02*
D03*
X1103810Y684746D02*
D03*
Y984746D02*
D03*
X1880000Y1170060D02*
D03*
Y1325000D02*
D03*
X1675380Y200440D02*
D03*
Y1600440D02*
D03*
X668880D02*
D03*
Y200440D02*
D03*
X1863090Y242260D02*
D03*
Y327260D02*
D03*
D61*
X1820390Y905000D02*
D03*
X1875000D02*
D03*
Y962150D02*
D03*
X1820390D02*
D03*
Y1019300D02*
D03*
X1875000D02*
D03*
X1820390Y1470700D02*
D03*
X1875000D02*
D03*
Y1527850D02*
D03*
X1820390D02*
D03*
Y1585000D02*
D03*
X1875000D02*
D03*
X1820390Y710000D02*
D03*
X1875000D02*
D03*
X1820390Y525000D02*
D03*
X1875000D02*
D03*
D62*
X1894200Y1300060D02*
D03*
X1848480D02*
D03*
Y1264910D02*
D03*
X1894200Y1265060D02*
D03*
Y1230060D02*
D03*
X1848200D02*
D03*
Y1195060D02*
D03*
X1894200D02*
D03*
X1831340Y267260D02*
D03*
Y302260D02*
D03*
X1877060D02*
D03*
Y267260D02*
D03*
D63*
X1300000Y1320320D02*
D03*
Y1018060D02*
D03*
Y444020D02*
D03*
Y743740D02*
D03*
M02*
