G04 Layer_Physical_Order=2*
G04 Layer_Color=36540*
%FSLAX44Y44*%
%MOMM*%
G71*
G01*
G75*
%ADD20C,1.9050*%
%ADD21C,2.7000*%
%ADD22C,1.5000*%
%ADD23C,1.5240*%
G36*
X2005000Y1684102D02*
X2005000Y115000D01*
X630000D01*
X630000Y1685000D01*
X2004102Y1685000D01*
X2005000Y1684102D01*
D02*
G37*
%LPC*%
G36*
X1393796Y748786D02*
X1383064D01*
X1383311Y746906D01*
X1384527Y743971D01*
X1386461Y741451D01*
X1388981Y739517D01*
X1391916Y738301D01*
X1393796Y738054D01*
Y748786D01*
D02*
G37*
G36*
X1310081Y742470D02*
X1301270D01*
Y733660D01*
X1302652Y733841D01*
X1305124Y734865D01*
X1307246Y736494D01*
X1308875Y738616D01*
X1309899Y741088D01*
X1310081Y742470D01*
D02*
G37*
G36*
X1298730D02*
X1289919D01*
X1290101Y741088D01*
X1291125Y738616D01*
X1292754Y736494D01*
X1294876Y734865D01*
X1297348Y733841D01*
X1298730Y733660D01*
Y742470D01*
D02*
G37*
G36*
X1407068Y748786D02*
X1396336D01*
Y738054D01*
X1398216Y738301D01*
X1401151Y739517D01*
X1403671Y741451D01*
X1405605Y743971D01*
X1406821Y746906D01*
X1407068Y748786D01*
D02*
G37*
G36*
X1393796Y762058D02*
X1391916Y761811D01*
X1388981Y760595D01*
X1386461Y758661D01*
X1384527Y756141D01*
X1383311Y753206D01*
X1383064Y751326D01*
X1393796D01*
Y762058D01*
D02*
G37*
G36*
X1301270Y753820D02*
Y745010D01*
X1310081D01*
X1309899Y746392D01*
X1308875Y748864D01*
X1307246Y750986D01*
X1305124Y752615D01*
X1302652Y753639D01*
X1301270Y753820D01*
D02*
G37*
G36*
X1298730D02*
X1297348Y753639D01*
X1294876Y752615D01*
X1292754Y750986D01*
X1291125Y748864D01*
X1290101Y746392D01*
X1289919Y745010D01*
X1298730D01*
Y753820D01*
D02*
G37*
G36*
X991986Y759675D02*
X988173Y759173D01*
X984621Y757701D01*
X981570Y755360D01*
X979229Y752309D01*
X977757Y748757D01*
X977255Y744944D01*
X977757Y741131D01*
X979229Y737579D01*
X981570Y734528D01*
X984621Y732187D01*
X988173Y730715D01*
X991986Y730213D01*
X995799Y730715D01*
X999352Y732187D01*
X1002402Y734528D01*
X1004743Y737579D01*
X1006215Y741131D01*
X1006717Y744944D01*
X1006215Y748757D01*
X1004743Y752309D01*
X1002402Y755360D01*
X999352Y757701D01*
X995799Y759173D01*
X991986Y759675D01*
D02*
G37*
G36*
X850000Y699731D02*
X846187Y699229D01*
X842635Y697757D01*
X839584Y695416D01*
X837243Y692365D01*
X835771Y688813D01*
X835269Y685000D01*
X835771Y681187D01*
X837243Y677635D01*
X839584Y674584D01*
X842635Y672243D01*
X846187Y670771D01*
X850000Y670269D01*
X853813Y670771D01*
X857365Y672243D01*
X860416Y674584D01*
X862757Y677635D01*
X864229Y681187D01*
X864731Y685000D01*
X864229Y688813D01*
X862757Y692365D01*
X860416Y695416D01*
X857365Y697757D01*
X853813Y699229D01*
X850000Y699731D01*
D02*
G37*
G36*
X1103810Y708867D02*
X1099104Y708404D01*
X1094579Y707031D01*
X1090409Y704802D01*
X1086754Y701802D01*
X1083754Y698147D01*
X1081525Y693977D01*
X1080152Y689452D01*
X1079689Y684746D01*
X1080152Y680040D01*
X1081525Y675515D01*
X1083754Y671345D01*
X1086754Y667690D01*
X1090409Y664690D01*
X1094579Y662461D01*
X1099104Y661088D01*
X1103810Y660625D01*
X1108516Y661088D01*
X1113041Y662461D01*
X1117211Y664690D01*
X1120866Y667690D01*
X1123866Y671345D01*
X1126095Y675515D01*
X1127468Y680040D01*
X1127931Y684746D01*
X1127468Y689452D01*
X1126095Y693977D01*
X1123866Y698147D01*
X1120866Y701802D01*
X1117211Y704802D01*
X1113041Y707031D01*
X1108516Y708404D01*
X1103810Y708867D01*
D02*
G37*
G36*
X1086538Y661377D02*
X1082725Y660875D01*
X1079173Y659404D01*
X1076122Y657062D01*
X1073781Y654012D01*
X1072309Y650459D01*
X1071807Y646646D01*
X1072309Y642833D01*
X1073781Y639281D01*
X1076122Y636230D01*
X1079173Y633889D01*
X1082725Y632417D01*
X1086538Y631915D01*
X1090351Y632417D01*
X1093904Y633889D01*
X1096954Y636230D01*
X1099296Y639281D01*
X1100767Y642833D01*
X1101269Y646646D01*
X1100767Y650459D01*
X1099296Y654012D01*
X1096954Y657062D01*
X1093904Y659404D01*
X1090351Y660875D01*
X1086538Y661377D01*
D02*
G37*
G36*
X1820390Y728670D02*
X1816748Y728311D01*
X1813245Y727249D01*
X1810018Y725523D01*
X1807188Y723202D01*
X1804867Y720372D01*
X1803141Y717145D01*
X1802079Y713642D01*
X1801720Y710000D01*
X1802079Y706358D01*
X1803141Y702855D01*
X1804867Y699628D01*
X1807188Y696798D01*
X1810018Y694477D01*
X1813245Y692751D01*
X1816748Y691689D01*
X1820390Y691330D01*
X1824032Y691689D01*
X1827535Y692751D01*
X1830762Y694477D01*
X1833592Y696798D01*
X1835913Y699628D01*
X1837639Y702855D01*
X1838701Y706358D01*
X1839060Y710000D01*
X1838701Y713642D01*
X1837639Y717145D01*
X1835913Y720372D01*
X1833592Y723202D01*
X1830762Y725523D01*
X1827535Y727249D01*
X1824032Y728311D01*
X1820390Y728670D01*
D02*
G37*
G36*
X870066Y759675D02*
X866253Y759173D01*
X862701Y757701D01*
X859650Y755360D01*
X857309Y752309D01*
X855837Y748757D01*
X855335Y744944D01*
X855837Y741131D01*
X857309Y737579D01*
X859650Y734528D01*
X862701Y732187D01*
X866253Y730715D01*
X870066Y730213D01*
X873879Y730715D01*
X877431Y732187D01*
X880482Y734528D01*
X882823Y737579D01*
X884295Y741131D01*
X884797Y744944D01*
X884295Y748757D01*
X882823Y752309D01*
X880482Y755360D01*
X877431Y757701D01*
X873879Y759173D01*
X870066Y759675D01*
D02*
G37*
G36*
X1121082Y737577D02*
X1117269Y737075D01*
X1113717Y735603D01*
X1110666Y733262D01*
X1108325Y730211D01*
X1106853Y726659D01*
X1106351Y722846D01*
X1106853Y719033D01*
X1108325Y715480D01*
X1110666Y712430D01*
X1113717Y710089D01*
X1117269Y708617D01*
X1121082Y708115D01*
X1124895Y708617D01*
X1128447Y710089D01*
X1131498Y712430D01*
X1133839Y715480D01*
X1135311Y719033D01*
X1135813Y722846D01*
X1135311Y726659D01*
X1133839Y730211D01*
X1131498Y733262D01*
X1128447Y735603D01*
X1124895Y737075D01*
X1121082Y737577D01*
D02*
G37*
G36*
X1875000Y728670D02*
X1871358Y728311D01*
X1867855Y727249D01*
X1864628Y725523D01*
X1861798Y723202D01*
X1859477Y720372D01*
X1857751Y717145D01*
X1856689Y713642D01*
X1856330Y710000D01*
X1856689Y706358D01*
X1857751Y702855D01*
X1859477Y699628D01*
X1861798Y696798D01*
X1864628Y694477D01*
X1867855Y692751D01*
X1871358Y691689D01*
X1875000Y691330D01*
X1878642Y691689D01*
X1882145Y692751D01*
X1885372Y694477D01*
X1888202Y696798D01*
X1890523Y699628D01*
X1892249Y702855D01*
X1893311Y706358D01*
X1893670Y710000D01*
X1893311Y713642D01*
X1892249Y717145D01*
X1890523Y720372D01*
X1888202Y723202D01*
X1885372Y725523D01*
X1882145Y727249D01*
X1878642Y728311D01*
X1875000Y728670D01*
D02*
G37*
G36*
Y923670D02*
X1871358Y923311D01*
X1867855Y922249D01*
X1864628Y920524D01*
X1861798Y918202D01*
X1859477Y915372D01*
X1857751Y912145D01*
X1856689Y908642D01*
X1856330Y905000D01*
X1856689Y901358D01*
X1857751Y897855D01*
X1859477Y894628D01*
X1861798Y891798D01*
X1864628Y889477D01*
X1867855Y887751D01*
X1871358Y886689D01*
X1875000Y886330D01*
X1878642Y886689D01*
X1882145Y887751D01*
X1885372Y889477D01*
X1888202Y891798D01*
X1890523Y894628D01*
X1892249Y897855D01*
X1893311Y901358D01*
X1893670Y905000D01*
X1893311Y908642D01*
X1892249Y912145D01*
X1890523Y915372D01*
X1888202Y918202D01*
X1885372Y920524D01*
X1882145Y922249D01*
X1878642Y923311D01*
X1875000Y923670D01*
D02*
G37*
G36*
X1820390D02*
X1816748Y923311D01*
X1813245Y922249D01*
X1810018Y920524D01*
X1807188Y918202D01*
X1804867Y915372D01*
X1803141Y912145D01*
X1802079Y908642D01*
X1801720Y905000D01*
X1802079Y901358D01*
X1803141Y897855D01*
X1804867Y894628D01*
X1807188Y891798D01*
X1810018Y889477D01*
X1813245Y887751D01*
X1816748Y886689D01*
X1820390Y886330D01*
X1824032Y886689D01*
X1827535Y887751D01*
X1830762Y889477D01*
X1833592Y891798D01*
X1835913Y894628D01*
X1837639Y897855D01*
X1838701Y901358D01*
X1839060Y905000D01*
X1838701Y908642D01*
X1837639Y912145D01*
X1835913Y915372D01*
X1833592Y918202D01*
X1830762Y920524D01*
X1827535Y922249D01*
X1824032Y923311D01*
X1820390Y923670D01*
D02*
G37*
G36*
X1516986Y884675D02*
X1513173Y884173D01*
X1509621Y882701D01*
X1506570Y880360D01*
X1504229Y877309D01*
X1502757Y873757D01*
X1502255Y869944D01*
X1502757Y866131D01*
X1504229Y862579D01*
X1506570Y859528D01*
X1509621Y857187D01*
X1513173Y855715D01*
X1516986Y855213D01*
X1520799Y855715D01*
X1524352Y857187D01*
X1527402Y859528D01*
X1529743Y862579D01*
X1531215Y866131D01*
X1531717Y869944D01*
X1531215Y873757D01*
X1529743Y877309D01*
X1527402Y880360D01*
X1524352Y882701D01*
X1520799Y884173D01*
X1516986Y884675D01*
D02*
G37*
G36*
X870066Y939787D02*
X866253Y939285D01*
X862701Y937813D01*
X859650Y935472D01*
X857309Y932421D01*
X855837Y928869D01*
X855335Y925056D01*
X855837Y921243D01*
X857309Y917691D01*
X859650Y914640D01*
X862701Y912299D01*
X866253Y910827D01*
X870066Y910325D01*
X873879Y910827D01*
X877431Y912299D01*
X880482Y914640D01*
X882823Y917691D01*
X884295Y921243D01*
X884797Y925056D01*
X884295Y928869D01*
X882823Y932421D01*
X880482Y935472D01*
X877431Y937813D01*
X873879Y939285D01*
X870066Y939787D01*
D02*
G37*
G36*
X1875000Y980820D02*
X1871358Y980461D01*
X1867855Y979399D01*
X1864628Y977673D01*
X1861798Y975352D01*
X1859477Y972523D01*
X1857751Y969295D01*
X1856689Y965792D01*
X1856330Y962150D01*
X1856689Y958508D01*
X1857751Y955005D01*
X1859477Y951778D01*
X1861798Y948948D01*
X1864628Y946627D01*
X1867855Y944901D01*
X1871358Y943839D01*
X1875000Y943480D01*
X1878642Y943839D01*
X1882145Y944901D01*
X1885372Y946627D01*
X1888202Y948948D01*
X1890523Y951778D01*
X1892249Y955005D01*
X1893311Y958508D01*
X1893670Y962150D01*
X1893311Y965792D01*
X1892249Y969295D01*
X1890523Y972523D01*
X1888202Y975352D01*
X1885372Y977673D01*
X1882145Y979399D01*
X1878642Y980461D01*
X1875000Y980820D01*
D02*
G37*
G36*
X1820390D02*
X1816748Y980461D01*
X1813245Y979399D01*
X1810018Y977673D01*
X1807188Y975352D01*
X1804867Y972523D01*
X1803141Y969295D01*
X1802079Y965792D01*
X1801720Y962150D01*
X1802079Y958508D01*
X1803141Y955005D01*
X1804867Y951778D01*
X1807188Y948948D01*
X1810018Y946627D01*
X1813245Y944901D01*
X1816748Y943839D01*
X1820390Y943480D01*
X1824032Y943839D01*
X1827535Y944901D01*
X1830762Y946627D01*
X1833592Y948948D01*
X1835913Y951778D01*
X1837639Y955005D01*
X1838701Y958508D01*
X1839060Y962150D01*
X1838701Y965792D01*
X1837639Y969295D01*
X1835913Y972523D01*
X1833592Y975352D01*
X1830762Y977673D01*
X1827535Y979399D01*
X1824032Y980461D01*
X1820390Y980820D01*
D02*
G37*
G36*
X1086538Y961377D02*
X1082725Y960875D01*
X1079173Y959404D01*
X1076122Y957062D01*
X1073781Y954012D01*
X1072309Y950459D01*
X1071807Y946646D01*
X1072309Y942833D01*
X1073781Y939280D01*
X1076122Y936230D01*
X1079173Y933889D01*
X1082725Y932417D01*
X1086538Y931915D01*
X1090351Y932417D01*
X1093904Y933889D01*
X1096954Y936230D01*
X1099296Y939280D01*
X1100767Y942833D01*
X1101269Y946646D01*
X1100767Y950459D01*
X1099296Y954012D01*
X1096954Y957062D01*
X1093904Y959404D01*
X1090351Y960875D01*
X1086538Y961377D01*
D02*
G37*
G36*
X1395066Y884675D02*
X1391253Y884173D01*
X1387701Y882701D01*
X1384650Y880360D01*
X1382309Y877309D01*
X1380837Y873757D01*
X1380335Y869944D01*
X1380837Y866131D01*
X1382309Y862579D01*
X1384650Y859528D01*
X1387701Y857187D01*
X1391253Y855715D01*
X1395066Y855213D01*
X1398879Y855715D01*
X1402431Y857187D01*
X1405482Y859528D01*
X1407823Y862579D01*
X1409295Y866131D01*
X1409797Y869944D01*
X1409295Y873757D01*
X1407823Y877309D01*
X1405482Y880360D01*
X1402431Y882701D01*
X1398879Y884173D01*
X1395066Y884675D01*
D02*
G37*
G36*
X1611538Y786377D02*
X1607725Y785875D01*
X1604173Y784404D01*
X1601122Y782062D01*
X1598781Y779012D01*
X1597309Y775459D01*
X1596807Y771646D01*
X1597309Y767833D01*
X1598781Y764280D01*
X1601122Y761230D01*
X1604173Y758889D01*
X1607725Y757417D01*
X1611538Y756915D01*
X1615351Y757417D01*
X1618904Y758889D01*
X1621954Y761230D01*
X1624296Y764280D01*
X1625767Y767833D01*
X1626269Y771646D01*
X1625767Y775459D01*
X1624296Y779012D01*
X1621954Y782062D01*
X1618904Y784404D01*
X1615351Y785875D01*
X1611538Y786377D01*
D02*
G37*
G36*
X1878810Y791877D02*
X1874874Y791489D01*
X1871089Y790341D01*
X1867600Y788477D01*
X1864543Y785967D01*
X1862033Y782910D01*
X1860169Y779421D01*
X1859021Y775636D01*
X1858633Y771700D01*
X1859021Y767764D01*
X1860169Y763979D01*
X1862033Y760490D01*
X1864543Y757433D01*
X1867600Y754923D01*
X1871089Y753059D01*
X1874874Y751911D01*
X1878810Y751523D01*
X1882746Y751911D01*
X1886532Y753059D01*
X1890020Y754923D01*
X1893077Y757433D01*
X1895587Y760490D01*
X1897451Y763979D01*
X1898600Y767764D01*
X1898987Y771700D01*
X1898600Y775636D01*
X1897451Y779421D01*
X1895587Y782910D01*
X1893077Y785967D01*
X1890020Y788477D01*
X1886532Y790341D01*
X1882746Y791489D01*
X1878810Y791877D01*
D02*
G37*
G36*
X1396336Y762058D02*
Y751326D01*
X1407068D01*
X1406821Y753206D01*
X1405605Y756141D01*
X1403671Y758661D01*
X1401151Y760595D01*
X1398216Y761811D01*
X1396336Y762058D01*
D02*
G37*
G36*
X1628810Y833867D02*
X1624104Y833404D01*
X1619579Y832031D01*
X1615409Y829802D01*
X1611754Y826802D01*
X1608754Y823147D01*
X1606525Y818977D01*
X1605152Y814452D01*
X1604689Y809746D01*
X1605152Y805040D01*
X1606525Y800515D01*
X1608754Y796345D01*
X1611754Y792690D01*
X1615409Y789690D01*
X1619579Y787461D01*
X1624104Y786088D01*
X1628810Y785625D01*
X1633516Y786088D01*
X1638041Y787461D01*
X1642211Y789690D01*
X1645866Y792690D01*
X1648866Y796345D01*
X1651095Y800515D01*
X1652468Y805040D01*
X1652931Y809746D01*
X1652468Y814452D01*
X1651095Y818977D01*
X1648866Y823147D01*
X1645866Y826802D01*
X1642211Y829802D01*
X1638041Y832031D01*
X1633516Y833404D01*
X1628810Y833867D01*
D02*
G37*
G36*
X1646082Y862577D02*
X1642269Y862075D01*
X1638716Y860603D01*
X1635666Y858262D01*
X1633324Y855211D01*
X1631853Y851659D01*
X1631351Y847846D01*
X1631853Y844033D01*
X1633324Y840480D01*
X1635666Y837430D01*
X1638716Y835089D01*
X1642269Y833617D01*
X1646082Y833115D01*
X1649895Y833617D01*
X1653448Y835089D01*
X1656498Y837430D01*
X1658840Y840480D01*
X1660311Y844033D01*
X1660813Y847846D01*
X1660311Y851659D01*
X1658840Y855211D01*
X1656498Y858262D01*
X1653448Y860603D01*
X1649895Y862075D01*
X1646082Y862577D01*
D02*
G37*
G36*
X1878250Y863777D02*
X1874314Y863390D01*
X1870529Y862241D01*
X1867040Y860377D01*
X1863983Y857867D01*
X1861473Y854810D01*
X1859609Y851321D01*
X1858461Y847536D01*
X1858073Y843600D01*
X1858461Y839664D01*
X1859609Y835879D01*
X1861473Y832390D01*
X1863983Y829333D01*
X1867040Y826823D01*
X1870529Y824959D01*
X1874314Y823811D01*
X1878250Y823423D01*
X1882186Y823811D01*
X1885972Y824959D01*
X1889460Y826823D01*
X1892517Y829333D01*
X1895027Y832390D01*
X1896891Y835879D01*
X1898040Y839664D01*
X1898427Y843600D01*
X1898040Y847536D01*
X1896891Y851321D01*
X1895027Y854810D01*
X1892517Y857867D01*
X1889460Y860377D01*
X1885972Y862241D01*
X1882186Y863390D01*
X1878250Y863777D01*
D02*
G37*
G36*
X1375000Y824731D02*
X1371187Y824229D01*
X1367634Y822757D01*
X1364584Y820416D01*
X1362242Y817365D01*
X1360771Y813813D01*
X1360269Y810000D01*
X1360771Y806187D01*
X1362242Y802635D01*
X1364584Y799584D01*
X1367634Y797243D01*
X1371187Y795771D01*
X1375000Y795269D01*
X1378813Y795771D01*
X1382366Y797243D01*
X1385416Y799584D01*
X1387757Y802635D01*
X1389229Y806187D01*
X1389731Y810000D01*
X1389229Y813813D01*
X1387757Y817365D01*
X1385416Y820416D01*
X1382366Y822757D01*
X1378813Y824229D01*
X1375000Y824731D01*
D02*
G37*
G36*
X1298730Y442750D02*
X1289919D01*
X1290101Y441368D01*
X1291125Y438896D01*
X1292754Y436774D01*
X1294876Y435145D01*
X1297348Y434122D01*
X1298730Y433940D01*
Y442750D01*
D02*
G37*
G36*
X1863090Y343920D02*
X1859840Y343600D01*
X1856714Y342652D01*
X1853834Y341113D01*
X1851310Y339040D01*
X1849238Y336516D01*
X1847698Y333636D01*
X1846750Y330510D01*
X1846430Y327260D01*
X1846750Y324010D01*
X1847698Y320884D01*
X1849238Y318004D01*
X1851310Y315480D01*
X1853834Y313407D01*
X1856714Y311868D01*
X1859840Y310920D01*
X1863090Y310600D01*
X1866240Y310910D01*
X1866467Y310694D01*
X1866978Y309786D01*
X1866071Y308604D01*
X1864804Y305544D01*
X1864371Y302260D01*
X1864804Y298976D01*
X1866071Y295916D01*
X1868088Y293288D01*
X1870716Y291271D01*
X1873776Y290004D01*
X1877060Y289571D01*
X1880344Y290004D01*
X1883404Y291271D01*
X1886032Y293288D01*
X1888049Y295916D01*
X1889316Y298976D01*
X1889749Y302260D01*
X1889316Y305544D01*
X1888049Y308604D01*
X1886032Y311232D01*
X1883404Y313249D01*
X1880344Y314516D01*
X1877060Y314949D01*
X1875959Y314804D01*
X1875296Y315997D01*
X1876942Y318004D01*
X1878482Y320884D01*
X1879430Y324010D01*
X1879750Y327260D01*
X1879430Y330510D01*
X1878482Y333636D01*
X1876942Y336516D01*
X1874870Y339040D01*
X1872346Y341113D01*
X1869466Y342652D01*
X1866340Y343600D01*
X1863090Y343920D01*
D02*
G37*
G36*
X1831340Y314949D02*
X1828056Y314516D01*
X1824996Y313249D01*
X1822368Y311232D01*
X1820351Y308604D01*
X1819084Y305544D01*
X1818651Y302260D01*
X1819084Y298976D01*
X1820351Y295916D01*
X1822368Y293288D01*
X1824996Y291271D01*
X1828056Y290004D01*
X1831340Y289571D01*
X1834624Y290004D01*
X1837684Y291271D01*
X1840312Y293288D01*
X1842329Y295916D01*
X1843596Y298976D01*
X1844028Y302260D01*
X1843596Y305544D01*
X1842329Y308604D01*
X1840312Y311232D01*
X1837684Y313249D01*
X1834624Y314516D01*
X1831340Y314949D01*
D02*
G37*
G36*
X1310081Y442750D02*
X1301270D01*
Y433940D01*
X1302652Y434122D01*
X1305124Y435145D01*
X1307246Y436774D01*
X1308875Y438896D01*
X1309899Y441368D01*
X1310081Y442750D01*
D02*
G37*
G36*
X1878250Y483477D02*
X1874314Y483089D01*
X1870529Y481941D01*
X1867040Y480077D01*
X1863983Y477567D01*
X1861473Y474510D01*
X1859609Y471021D01*
X1858461Y467236D01*
X1858073Y463300D01*
X1858461Y459364D01*
X1859609Y455578D01*
X1861473Y452090D01*
X1863983Y449033D01*
X1867040Y446523D01*
X1870529Y444659D01*
X1874314Y443511D01*
X1878250Y443123D01*
X1882186Y443511D01*
X1885972Y444659D01*
X1889460Y446523D01*
X1892517Y449033D01*
X1895027Y452090D01*
X1896891Y455578D01*
X1898040Y459364D01*
X1898427Y463300D01*
X1898040Y467236D01*
X1896891Y471021D01*
X1895027Y474510D01*
X1892517Y477567D01*
X1889460Y480077D01*
X1885972Y481941D01*
X1882186Y483089D01*
X1878250Y483477D01*
D02*
G37*
G36*
X1407068Y448786D02*
X1396336D01*
Y438054D01*
X1398216Y438302D01*
X1401151Y439517D01*
X1403671Y441451D01*
X1405605Y443971D01*
X1406821Y446906D01*
X1407068Y448786D01*
D02*
G37*
G36*
X1393796D02*
X1383064D01*
X1383311Y446906D01*
X1384527Y443971D01*
X1386461Y441451D01*
X1388981Y439517D01*
X1391916Y438302D01*
X1393796Y438054D01*
Y448786D01*
D02*
G37*
G36*
X1878330Y277219D02*
Y268530D01*
X1887019D01*
X1886842Y269881D01*
X1885830Y272323D01*
X1884221Y274421D01*
X1882123Y276030D01*
X1879681Y277042D01*
X1878330Y277219D01*
D02*
G37*
G36*
X1863090Y258920D02*
X1859840Y258600D01*
X1856714Y257652D01*
X1853834Y256112D01*
X1851310Y254041D01*
X1849238Y251516D01*
X1847698Y248636D01*
X1846750Y245510D01*
X1846430Y242260D01*
X1846750Y239010D01*
X1847698Y235884D01*
X1849238Y233004D01*
X1851310Y230479D01*
X1853834Y228407D01*
X1856714Y226868D01*
X1859840Y225920D01*
X1863090Y225600D01*
X1866340Y225920D01*
X1869466Y226868D01*
X1872346Y228407D01*
X1874870Y230479D01*
X1876942Y233004D01*
X1878482Y235884D01*
X1879430Y239010D01*
X1879750Y242260D01*
X1879430Y245510D01*
X1878482Y248636D01*
X1876942Y251516D01*
X1874870Y254041D01*
X1872346Y256112D01*
X1869466Y257652D01*
X1866340Y258600D01*
X1863090Y258920D01*
D02*
G37*
G36*
X1675380Y220617D02*
X1671444Y220229D01*
X1667659Y219081D01*
X1664170Y217217D01*
X1661113Y214707D01*
X1658603Y211650D01*
X1656739Y208162D01*
X1655591Y204376D01*
X1655203Y200440D01*
X1655591Y196504D01*
X1656739Y192719D01*
X1658603Y189230D01*
X1661113Y186173D01*
X1664170Y183663D01*
X1667659Y181799D01*
X1671444Y180651D01*
X1675380Y180263D01*
X1679316Y180651D01*
X1683102Y181799D01*
X1686590Y183663D01*
X1689647Y186173D01*
X1692157Y189230D01*
X1694021Y192719D01*
X1695169Y196504D01*
X1695557Y200440D01*
X1695169Y204376D01*
X1694021Y208162D01*
X1692157Y211650D01*
X1689647Y214707D01*
X1686590Y217217D01*
X1683102Y219081D01*
X1679316Y220229D01*
X1675380Y220617D01*
D02*
G37*
G36*
X668880D02*
X664944Y220229D01*
X661159Y219081D01*
X657670Y217217D01*
X654613Y214707D01*
X652103Y211650D01*
X650239Y208162D01*
X649090Y204376D01*
X648703Y200440D01*
X649090Y196504D01*
X650239Y192719D01*
X652103Y189230D01*
X654613Y186173D01*
X657670Y183663D01*
X661159Y181799D01*
X664944Y180651D01*
X668880Y180263D01*
X672816Y180651D01*
X676601Y181799D01*
X680090Y183663D01*
X683147Y186173D01*
X685657Y189230D01*
X687521Y192719D01*
X688669Y196504D01*
X689057Y200440D01*
X688669Y204376D01*
X687521Y208162D01*
X685657Y211650D01*
X683147Y214707D01*
X680090Y217217D01*
X676601Y219081D01*
X672816Y220229D01*
X668880Y220617D01*
D02*
G37*
G36*
X1831340Y279949D02*
X1828056Y279516D01*
X1824996Y278249D01*
X1822368Y276232D01*
X1820351Y273604D01*
X1819084Y270544D01*
X1818651Y267260D01*
X1819084Y263976D01*
X1820351Y260916D01*
X1822368Y258288D01*
X1824996Y256271D01*
X1828056Y255004D01*
X1831340Y254571D01*
X1834624Y255004D01*
X1837684Y256271D01*
X1840312Y258288D01*
X1842329Y260916D01*
X1843596Y263976D01*
X1844028Y267260D01*
X1843596Y270544D01*
X1842329Y273604D01*
X1840312Y276232D01*
X1837684Y278249D01*
X1834624Y279516D01*
X1831340Y279949D01*
D02*
G37*
G36*
X1875790Y277219D02*
X1874439Y277042D01*
X1871997Y276030D01*
X1869899Y274421D01*
X1868290Y272323D01*
X1867278Y269881D01*
X1867101Y268530D01*
X1875790D01*
Y277219D01*
D02*
G37*
G36*
X1887019Y265990D02*
X1878330D01*
Y257301D01*
X1879681Y257478D01*
X1882123Y258490D01*
X1884221Y260099D01*
X1885830Y262197D01*
X1886842Y264639D01*
X1887019Y265990D01*
D02*
G37*
G36*
X1875790D02*
X1867101D01*
X1867278Y264639D01*
X1868290Y262197D01*
X1869899Y260099D01*
X1871997Y258490D01*
X1874439Y257478D01*
X1875790Y257301D01*
Y265990D01*
D02*
G37*
G36*
X1395066Y584675D02*
X1391253Y584173D01*
X1387701Y582701D01*
X1384650Y580360D01*
X1382309Y577309D01*
X1380837Y573757D01*
X1380335Y569944D01*
X1380837Y566131D01*
X1382309Y562579D01*
X1384650Y559528D01*
X1387701Y557187D01*
X1391253Y555715D01*
X1395066Y555213D01*
X1398879Y555715D01*
X1402431Y557187D01*
X1405482Y559528D01*
X1407823Y562579D01*
X1409295Y566131D01*
X1409797Y569944D01*
X1409295Y573757D01*
X1407823Y577309D01*
X1405482Y580360D01*
X1402431Y582701D01*
X1398879Y584173D01*
X1395066Y584675D01*
D02*
G37*
G36*
X1648462Y563085D02*
X1644649Y562583D01*
X1641096Y561111D01*
X1638046Y558770D01*
X1635705Y555719D01*
X1634233Y552167D01*
X1633731Y548354D01*
X1634233Y544541D01*
X1635705Y540989D01*
X1638046Y537938D01*
X1641096Y535597D01*
X1644649Y534125D01*
X1648462Y533623D01*
X1652275Y534125D01*
X1655827Y535597D01*
X1658878Y537938D01*
X1661219Y540989D01*
X1662691Y544541D01*
X1663193Y548354D01*
X1662691Y552167D01*
X1661219Y555719D01*
X1658878Y558770D01*
X1655827Y561111D01*
X1652275Y562583D01*
X1648462Y563085D01*
D02*
G37*
G36*
X1875000Y543670D02*
X1871358Y543311D01*
X1867855Y542249D01*
X1864628Y540523D01*
X1861798Y538202D01*
X1859477Y535372D01*
X1857751Y532145D01*
X1856689Y528642D01*
X1856330Y525000D01*
X1856689Y521358D01*
X1857751Y517855D01*
X1859477Y514627D01*
X1861798Y511798D01*
X1864628Y509477D01*
X1867855Y507751D01*
X1871358Y506689D01*
X1875000Y506330D01*
X1878642Y506689D01*
X1882145Y507751D01*
X1885372Y509477D01*
X1888202Y511798D01*
X1890523Y514627D01*
X1892249Y517855D01*
X1893311Y521358D01*
X1893670Y525000D01*
X1893311Y528642D01*
X1892249Y532145D01*
X1890523Y535372D01*
X1888202Y538202D01*
X1885372Y540523D01*
X1882145Y542249D01*
X1878642Y543311D01*
X1875000Y543670D01*
D02*
G37*
G36*
X1516986Y584675D02*
X1513173Y584173D01*
X1509621Y582701D01*
X1506570Y580360D01*
X1504229Y577309D01*
X1502757Y573757D01*
X1502255Y569944D01*
X1502757Y566131D01*
X1504229Y562579D01*
X1506570Y559528D01*
X1509621Y557187D01*
X1513173Y555715D01*
X1516986Y555213D01*
X1520799Y555715D01*
X1524352Y557187D01*
X1527402Y559528D01*
X1529743Y562579D01*
X1531215Y566131D01*
X1531717Y569944D01*
X1531215Y573757D01*
X1529743Y577309D01*
X1527402Y580360D01*
X1524352Y582701D01*
X1520799Y584173D01*
X1516986Y584675D01*
D02*
G37*
G36*
X1878250Y668477D02*
X1874314Y668089D01*
X1870529Y666941D01*
X1867040Y665077D01*
X1863983Y662567D01*
X1861473Y659510D01*
X1859609Y656021D01*
X1858461Y652236D01*
X1858073Y648300D01*
X1858461Y644364D01*
X1859609Y640579D01*
X1861473Y637090D01*
X1863983Y634033D01*
X1867040Y631523D01*
X1870529Y629659D01*
X1874314Y628511D01*
X1878250Y628123D01*
X1882186Y628511D01*
X1885972Y629659D01*
X1889460Y631523D01*
X1892517Y634033D01*
X1895027Y637090D01*
X1896891Y640579D01*
X1898040Y644364D01*
X1898427Y648300D01*
X1898040Y652236D01*
X1896891Y656021D01*
X1895027Y659510D01*
X1892517Y662567D01*
X1889460Y665077D01*
X1885972Y666941D01*
X1882186Y668089D01*
X1878250Y668477D01*
D02*
G37*
G36*
X870066Y639787D02*
X866253Y639285D01*
X862701Y637813D01*
X859650Y635472D01*
X857309Y632421D01*
X855837Y628869D01*
X855335Y625056D01*
X855837Y621243D01*
X857309Y617691D01*
X859650Y614640D01*
X862701Y612299D01*
X866253Y610827D01*
X870066Y610325D01*
X873879Y610827D01*
X877431Y612299D01*
X880482Y614640D01*
X882823Y617691D01*
X884295Y621243D01*
X884797Y625056D01*
X884295Y628869D01*
X882823Y632421D01*
X880482Y635472D01*
X877431Y637813D01*
X873879Y639285D01*
X870066Y639787D01*
D02*
G37*
G36*
X1878810Y606877D02*
X1874874Y606489D01*
X1871089Y605341D01*
X1867600Y603477D01*
X1864543Y600967D01*
X1862033Y597910D01*
X1860169Y594422D01*
X1859021Y590636D01*
X1858633Y586700D01*
X1859021Y582764D01*
X1860169Y578979D01*
X1862033Y575490D01*
X1864543Y572433D01*
X1867600Y569923D01*
X1871089Y568059D01*
X1874874Y566911D01*
X1878810Y566523D01*
X1882746Y566911D01*
X1886532Y568059D01*
X1890020Y569923D01*
X1893077Y572433D01*
X1895587Y575490D01*
X1897451Y578979D01*
X1898600Y582764D01*
X1898987Y586700D01*
X1898600Y590636D01*
X1897451Y594422D01*
X1895587Y597910D01*
X1893077Y600967D01*
X1890020Y603477D01*
X1886532Y605341D01*
X1882746Y606489D01*
X1878810Y606877D01*
D02*
G37*
G36*
X1820390Y543670D02*
X1816748Y543311D01*
X1813245Y542249D01*
X1810018Y540523D01*
X1807188Y538202D01*
X1804867Y535372D01*
X1803141Y532145D01*
X1802079Y528642D01*
X1801720Y525000D01*
X1802079Y521358D01*
X1803141Y517855D01*
X1804867Y514627D01*
X1807188Y511798D01*
X1810018Y509477D01*
X1813245Y507751D01*
X1816748Y506689D01*
X1820390Y506330D01*
X1824032Y506689D01*
X1827535Y507751D01*
X1830762Y509477D01*
X1833592Y511798D01*
X1835913Y514627D01*
X1837639Y517855D01*
X1838701Y521358D01*
X1839060Y525000D01*
X1838701Y528642D01*
X1837639Y532145D01*
X1835913Y535372D01*
X1833592Y538202D01*
X1830762Y540523D01*
X1827535Y542249D01*
X1824032Y543311D01*
X1820390Y543670D01*
D02*
G37*
G36*
X1393796Y462058D02*
X1391916Y461810D01*
X1388981Y460595D01*
X1386461Y458661D01*
X1384527Y456141D01*
X1383311Y453206D01*
X1383064Y451326D01*
X1393796D01*
Y462058D01*
D02*
G37*
G36*
X1301270Y454100D02*
Y445290D01*
X1310081D01*
X1309899Y446672D01*
X1308875Y449144D01*
X1307246Y451266D01*
X1305124Y452895D01*
X1302652Y453918D01*
X1301270Y454100D01*
D02*
G37*
G36*
X1298730D02*
X1297348Y453918D01*
X1294876Y452895D01*
X1292754Y451266D01*
X1291125Y449144D01*
X1290101Y446672D01*
X1289919Y445290D01*
X1298730D01*
Y454100D01*
D02*
G37*
G36*
X1396336Y462058D02*
Y451326D01*
X1407068D01*
X1406821Y453206D01*
X1405605Y456141D01*
X1403671Y458661D01*
X1401151Y460595D01*
X1398216Y461810D01*
X1396336Y462058D01*
D02*
G37*
G36*
X1375000Y524731D02*
X1371187Y524229D01*
X1367634Y522757D01*
X1364584Y520416D01*
X1362242Y517365D01*
X1360771Y513813D01*
X1360269Y510000D01*
X1360771Y506187D01*
X1362242Y502635D01*
X1364584Y499584D01*
X1367634Y497243D01*
X1371187Y495771D01*
X1375000Y495269D01*
X1378813Y495771D01*
X1382366Y497243D01*
X1385416Y499584D01*
X1387757Y502635D01*
X1389229Y506187D01*
X1389731Y510000D01*
X1389229Y513813D01*
X1387757Y517365D01*
X1385416Y520416D01*
X1382366Y522757D01*
X1378813Y524229D01*
X1375000Y524731D01*
D02*
G37*
G36*
X1631190Y534375D02*
X1626484Y533912D01*
X1621959Y532539D01*
X1617789Y530310D01*
X1614134Y527310D01*
X1611134Y523655D01*
X1608905Y519485D01*
X1607532Y514960D01*
X1607069Y510254D01*
X1607532Y505548D01*
X1608905Y501023D01*
X1611134Y496853D01*
X1614134Y493198D01*
X1617789Y490198D01*
X1621959Y487969D01*
X1626484Y486596D01*
X1631190Y486133D01*
X1635896Y486596D01*
X1640421Y487969D01*
X1644591Y490198D01*
X1648246Y493198D01*
X1651246Y496853D01*
X1653475Y501023D01*
X1654848Y505548D01*
X1655311Y510254D01*
X1654848Y514960D01*
X1653475Y519485D01*
X1651246Y523655D01*
X1648246Y527310D01*
X1644591Y530310D01*
X1640421Y532539D01*
X1635896Y533912D01*
X1631190Y534375D01*
D02*
G37*
G36*
X1613918Y486885D02*
X1610105Y486383D01*
X1606552Y484911D01*
X1603502Y482570D01*
X1601161Y479520D01*
X1599689Y475967D01*
X1599187Y472154D01*
X1599689Y468341D01*
X1601161Y464789D01*
X1603502Y461738D01*
X1606552Y459397D01*
X1610105Y457925D01*
X1613918Y457423D01*
X1617731Y457925D01*
X1621284Y459397D01*
X1624334Y461738D01*
X1626676Y464789D01*
X1628147Y468341D01*
X1628649Y472154D01*
X1628147Y475967D01*
X1626676Y479520D01*
X1624334Y482570D01*
X1621284Y484911D01*
X1617731Y486383D01*
X1613918Y486885D01*
D02*
G37*
G36*
X1393796Y1337058D02*
X1391916Y1336810D01*
X1388981Y1335595D01*
X1386461Y1333661D01*
X1384527Y1331140D01*
X1383311Y1328206D01*
X1383064Y1326326D01*
X1393796D01*
Y1337058D01*
D02*
G37*
G36*
X1301270Y1330401D02*
Y1321590D01*
X1310081D01*
X1309899Y1322972D01*
X1308875Y1325444D01*
X1307246Y1327566D01*
X1305124Y1329195D01*
X1302652Y1330219D01*
X1301270Y1330401D01*
D02*
G37*
G36*
X1298730D02*
X1297348Y1330219D01*
X1294876Y1329195D01*
X1292754Y1327566D01*
X1291125Y1325444D01*
X1290101Y1322972D01*
X1289919Y1321590D01*
X1298730D01*
Y1330401D01*
D02*
G37*
G36*
X1396336Y1337058D02*
Y1326326D01*
X1407068D01*
X1406821Y1328206D01*
X1405605Y1331140D01*
X1403671Y1333661D01*
X1401151Y1335595D01*
X1398216Y1336810D01*
X1396336Y1337058D01*
D02*
G37*
G36*
X1611538Y1361377D02*
X1607725Y1360875D01*
X1604173Y1359404D01*
X1601122Y1357062D01*
X1598781Y1354012D01*
X1597309Y1350459D01*
X1596807Y1346646D01*
X1597309Y1342833D01*
X1598781Y1339281D01*
X1601122Y1336230D01*
X1604173Y1333889D01*
X1607725Y1332417D01*
X1611538Y1331915D01*
X1615351Y1332417D01*
X1618904Y1333889D01*
X1621954Y1336230D01*
X1624296Y1339281D01*
X1625767Y1342833D01*
X1626269Y1346646D01*
X1625767Y1350459D01*
X1624296Y1354012D01*
X1621954Y1357062D01*
X1618904Y1359404D01*
X1615351Y1360875D01*
X1611538Y1361377D01*
D02*
G37*
G36*
X991986Y1359675D02*
X988173Y1359173D01*
X984621Y1357702D01*
X981570Y1355360D01*
X979229Y1352310D01*
X977757Y1348757D01*
X977255Y1344944D01*
X977757Y1341131D01*
X979229Y1337578D01*
X981570Y1334528D01*
X984621Y1332186D01*
X988173Y1330715D01*
X991986Y1330213D01*
X995799Y1330715D01*
X999352Y1332186D01*
X1002402Y1334528D01*
X1004743Y1337578D01*
X1006215Y1341131D01*
X1006717Y1344944D01*
X1006215Y1348757D01*
X1004743Y1352310D01*
X1002402Y1355360D01*
X999352Y1357702D01*
X995799Y1359173D01*
X991986Y1359675D01*
D02*
G37*
G36*
X870066D02*
X866253Y1359173D01*
X862701Y1357702D01*
X859650Y1355360D01*
X857309Y1352310D01*
X855837Y1348757D01*
X855335Y1344944D01*
X855837Y1341131D01*
X857309Y1337578D01*
X859650Y1334528D01*
X862701Y1332186D01*
X866253Y1330715D01*
X870066Y1330213D01*
X873879Y1330715D01*
X877431Y1332186D01*
X880482Y1334528D01*
X882823Y1337578D01*
X884295Y1341131D01*
X884797Y1344944D01*
X884295Y1348757D01*
X882823Y1352310D01*
X880482Y1355360D01*
X877431Y1357702D01*
X873879Y1359173D01*
X870066Y1359675D01*
D02*
G37*
G36*
X1407068Y1323786D02*
X1396336D01*
Y1313054D01*
X1398216Y1313302D01*
X1401151Y1314517D01*
X1403671Y1316451D01*
X1405605Y1318972D01*
X1406821Y1321906D01*
X1407068Y1323786D01*
D02*
G37*
G36*
X1880000Y1341660D02*
X1876750Y1341340D01*
X1873624Y1340392D01*
X1870744Y1338853D01*
X1868219Y1336781D01*
X1866147Y1334256D01*
X1864608Y1331376D01*
X1863660Y1328250D01*
X1863340Y1325000D01*
X1863660Y1321750D01*
X1864608Y1318624D01*
X1866147Y1315744D01*
X1868219Y1313219D01*
X1870744Y1311147D01*
X1873624Y1309608D01*
X1876750Y1308660D01*
X1880000Y1308340D01*
X1883250Y1308660D01*
X1883369Y1308696D01*
X1884128Y1307599D01*
X1883211Y1306404D01*
X1881944Y1303344D01*
X1881512Y1300060D01*
X1881944Y1296776D01*
X1883211Y1293716D01*
X1885228Y1291088D01*
X1887856Y1289071D01*
X1890916Y1287804D01*
X1894200Y1287371D01*
X1897484Y1287804D01*
X1900544Y1289071D01*
X1903172Y1291088D01*
X1905189Y1293716D01*
X1906456Y1296776D01*
X1906888Y1300060D01*
X1906456Y1303344D01*
X1905189Y1306404D01*
X1903172Y1309032D01*
X1900544Y1311049D01*
X1897484Y1312316D01*
X1894200Y1312749D01*
X1892896Y1312577D01*
X1892233Y1313770D01*
X1893853Y1315744D01*
X1895392Y1318624D01*
X1896340Y1321750D01*
X1896660Y1325000D01*
X1896340Y1328250D01*
X1895392Y1331376D01*
X1893853Y1334256D01*
X1891781Y1336781D01*
X1889256Y1338853D01*
X1886376Y1340392D01*
X1883250Y1341340D01*
X1880000Y1341660D01*
D02*
G37*
G36*
X1848480Y1312749D02*
X1845196Y1312316D01*
X1842136Y1311049D01*
X1839508Y1309032D01*
X1837491Y1306404D01*
X1836224Y1303344D01*
X1835791Y1300060D01*
X1836224Y1296776D01*
X1837491Y1293716D01*
X1839508Y1291088D01*
X1842136Y1289071D01*
X1845196Y1287804D01*
X1848480Y1287371D01*
X1851764Y1287804D01*
X1854824Y1289071D01*
X1857452Y1291088D01*
X1859469Y1293716D01*
X1860736Y1296776D01*
X1861169Y1300060D01*
X1860736Y1303344D01*
X1859469Y1306404D01*
X1857452Y1309032D01*
X1854824Y1311049D01*
X1851764Y1312316D01*
X1848480Y1312749D01*
D02*
G37*
G36*
X850000Y1299731D02*
X846187Y1299229D01*
X842635Y1297758D01*
X839584Y1295416D01*
X837243Y1292366D01*
X835771Y1288813D01*
X835269Y1285000D01*
X835771Y1281187D01*
X837243Y1277635D01*
X839584Y1274584D01*
X842635Y1272243D01*
X846187Y1270771D01*
X850000Y1270269D01*
X853813Y1270771D01*
X857365Y1272243D01*
X860416Y1274584D01*
X862757Y1277635D01*
X864229Y1281187D01*
X864731Y1285000D01*
X864229Y1288813D01*
X862757Y1292366D01*
X860416Y1295416D01*
X857365Y1297758D01*
X853813Y1299229D01*
X850000Y1299731D01*
D02*
G37*
G36*
X1121082Y1337577D02*
X1117269Y1337075D01*
X1113717Y1335603D01*
X1110666Y1333262D01*
X1108325Y1330211D01*
X1106853Y1326659D01*
X1106351Y1322846D01*
X1106853Y1319033D01*
X1108325Y1315480D01*
X1110666Y1312430D01*
X1113717Y1310089D01*
X1117269Y1308617D01*
X1121082Y1308115D01*
X1124895Y1308617D01*
X1128447Y1310089D01*
X1131498Y1312430D01*
X1133839Y1315480D01*
X1135311Y1319033D01*
X1135813Y1322846D01*
X1135311Y1326659D01*
X1133839Y1330211D01*
X1131498Y1333262D01*
X1128447Y1335603D01*
X1124895Y1337075D01*
X1121082Y1337577D01*
D02*
G37*
G36*
X1393796Y1323786D02*
X1383064D01*
X1383311Y1321906D01*
X1384527Y1318972D01*
X1386461Y1316451D01*
X1388981Y1314517D01*
X1391916Y1313302D01*
X1393796Y1313054D01*
Y1323786D01*
D02*
G37*
G36*
X1310081Y1319050D02*
X1301270D01*
Y1310240D01*
X1302652Y1310421D01*
X1305124Y1311445D01*
X1307246Y1313074D01*
X1308875Y1315196D01*
X1309899Y1317668D01*
X1310081Y1319050D01*
D02*
G37*
G36*
X1298730D02*
X1289919D01*
X1290101Y1317668D01*
X1291125Y1315196D01*
X1292754Y1313074D01*
X1294876Y1311445D01*
X1297348Y1310421D01*
X1298730Y1310240D01*
Y1319050D01*
D02*
G37*
G36*
X1820390Y1603670D02*
X1816748Y1603311D01*
X1813245Y1602249D01*
X1810018Y1600523D01*
X1807188Y1598202D01*
X1804867Y1595372D01*
X1803141Y1592145D01*
X1802079Y1588642D01*
X1801720Y1585000D01*
X1802079Y1581358D01*
X1803141Y1577855D01*
X1804867Y1574628D01*
X1807188Y1571798D01*
X1810018Y1569477D01*
X1813245Y1567751D01*
X1816748Y1566689D01*
X1820390Y1566330D01*
X1824032Y1566689D01*
X1827535Y1567751D01*
X1830762Y1569477D01*
X1833592Y1571798D01*
X1835913Y1574628D01*
X1837639Y1577855D01*
X1838701Y1581358D01*
X1839060Y1585000D01*
X1838701Y1588642D01*
X1837639Y1592145D01*
X1835913Y1595372D01*
X1833592Y1598202D01*
X1830762Y1600523D01*
X1827535Y1602249D01*
X1824032Y1603311D01*
X1820390Y1603670D01*
D02*
G37*
G36*
X1875000Y1546520D02*
X1871358Y1546161D01*
X1867855Y1545099D01*
X1864628Y1543373D01*
X1861798Y1541052D01*
X1859477Y1538223D01*
X1857751Y1534995D01*
X1856689Y1531492D01*
X1856330Y1527850D01*
X1856689Y1524208D01*
X1857751Y1520705D01*
X1859477Y1517478D01*
X1861798Y1514648D01*
X1864628Y1512327D01*
X1867855Y1510601D01*
X1871358Y1509539D01*
X1875000Y1509180D01*
X1878642Y1509539D01*
X1882145Y1510601D01*
X1885372Y1512327D01*
X1888202Y1514648D01*
X1890523Y1517478D01*
X1892249Y1520705D01*
X1893311Y1524208D01*
X1893670Y1527850D01*
X1893311Y1531492D01*
X1892249Y1534995D01*
X1890523Y1538223D01*
X1888202Y1541052D01*
X1885372Y1543373D01*
X1882145Y1545099D01*
X1878642Y1546161D01*
X1875000Y1546520D01*
D02*
G37*
G36*
X1820390D02*
X1816748Y1546161D01*
X1813245Y1545099D01*
X1810018Y1543373D01*
X1807188Y1541052D01*
X1804867Y1538223D01*
X1803141Y1534995D01*
X1802079Y1531492D01*
X1801720Y1527850D01*
X1802079Y1524208D01*
X1803141Y1520705D01*
X1804867Y1517478D01*
X1807188Y1514648D01*
X1810018Y1512327D01*
X1813245Y1510601D01*
X1816748Y1509539D01*
X1820390Y1509180D01*
X1824032Y1509539D01*
X1827535Y1510601D01*
X1830762Y1512327D01*
X1833592Y1514648D01*
X1835913Y1517478D01*
X1837639Y1520705D01*
X1838701Y1524208D01*
X1839060Y1527850D01*
X1838701Y1531492D01*
X1837639Y1534995D01*
X1835913Y1538223D01*
X1833592Y1541052D01*
X1830762Y1543373D01*
X1827535Y1545099D01*
X1824032Y1546161D01*
X1820390Y1546520D01*
D02*
G37*
G36*
X1875000Y1603670D02*
X1871358Y1603311D01*
X1867855Y1602249D01*
X1864628Y1600523D01*
X1861798Y1598202D01*
X1859477Y1595372D01*
X1857751Y1592145D01*
X1856689Y1588642D01*
X1856330Y1585000D01*
X1856689Y1581358D01*
X1857751Y1577855D01*
X1859477Y1574628D01*
X1861798Y1571798D01*
X1864628Y1569477D01*
X1867855Y1567751D01*
X1871358Y1566689D01*
X1875000Y1566330D01*
X1878642Y1566689D01*
X1882145Y1567751D01*
X1885372Y1569477D01*
X1888202Y1571798D01*
X1890523Y1574628D01*
X1892249Y1577855D01*
X1893311Y1581358D01*
X1893670Y1585000D01*
X1893311Y1588642D01*
X1892249Y1592145D01*
X1890523Y1595372D01*
X1888202Y1598202D01*
X1885372Y1600523D01*
X1882145Y1602249D01*
X1878642Y1603311D01*
X1875000Y1603670D01*
D02*
G37*
G36*
X1878250Y1666877D02*
X1874314Y1666490D01*
X1870529Y1665341D01*
X1867040Y1663477D01*
X1863983Y1660967D01*
X1861473Y1657910D01*
X1859609Y1654422D01*
X1858461Y1650636D01*
X1858073Y1646700D01*
X1858461Y1642764D01*
X1859609Y1638978D01*
X1861473Y1635490D01*
X1863983Y1632433D01*
X1867040Y1629923D01*
X1870529Y1628059D01*
X1874314Y1626911D01*
X1878250Y1626523D01*
X1882186Y1626911D01*
X1885972Y1628059D01*
X1889460Y1629923D01*
X1892517Y1632433D01*
X1895027Y1635490D01*
X1896891Y1638978D01*
X1898040Y1642764D01*
X1898427Y1646700D01*
X1898040Y1650636D01*
X1896891Y1654422D01*
X1895027Y1657910D01*
X1892517Y1660967D01*
X1889460Y1663477D01*
X1885972Y1665341D01*
X1882186Y1666490D01*
X1878250Y1666877D01*
D02*
G37*
G36*
X1675380Y1620617D02*
X1671444Y1620229D01*
X1667659Y1619081D01*
X1664170Y1617217D01*
X1661113Y1614707D01*
X1658603Y1611650D01*
X1656739Y1608161D01*
X1655591Y1604376D01*
X1655203Y1600440D01*
X1655591Y1596504D01*
X1656739Y1592719D01*
X1658603Y1589230D01*
X1661113Y1586173D01*
X1664170Y1583663D01*
X1667659Y1581799D01*
X1671444Y1580651D01*
X1675380Y1580263D01*
X1679316Y1580651D01*
X1683102Y1581799D01*
X1686590Y1583663D01*
X1689647Y1586173D01*
X1692157Y1589230D01*
X1694021Y1592719D01*
X1695169Y1596504D01*
X1695557Y1600440D01*
X1695169Y1604376D01*
X1694021Y1608161D01*
X1692157Y1611650D01*
X1689647Y1614707D01*
X1686590Y1617217D01*
X1683102Y1619081D01*
X1679316Y1620229D01*
X1675380Y1620617D01*
D02*
G37*
G36*
X668880D02*
X664944Y1620229D01*
X661159Y1619081D01*
X657670Y1617217D01*
X654613Y1614707D01*
X652103Y1611650D01*
X650239Y1608161D01*
X649090Y1604376D01*
X648703Y1600440D01*
X649090Y1596504D01*
X650239Y1592719D01*
X652103Y1589230D01*
X654613Y1586173D01*
X657670Y1583663D01*
X661159Y1581799D01*
X664944Y1580651D01*
X668880Y1580263D01*
X672816Y1580651D01*
X676601Y1581799D01*
X680090Y1583663D01*
X683147Y1586173D01*
X685657Y1589230D01*
X687521Y1592719D01*
X688669Y1596504D01*
X689057Y1600440D01*
X688669Y1604376D01*
X687521Y1608161D01*
X685657Y1611650D01*
X683147Y1614707D01*
X680090Y1617217D01*
X676601Y1619081D01*
X672816Y1620229D01*
X668880Y1620617D01*
D02*
G37*
G36*
X1875000Y1489370D02*
X1871358Y1489011D01*
X1867855Y1487949D01*
X1864628Y1486223D01*
X1861798Y1483902D01*
X1859477Y1481073D01*
X1857751Y1477845D01*
X1856689Y1474342D01*
X1856330Y1470700D01*
X1856689Y1467058D01*
X1857751Y1463555D01*
X1859477Y1460328D01*
X1861798Y1457498D01*
X1864628Y1455177D01*
X1867855Y1453451D01*
X1871358Y1452389D01*
X1875000Y1452030D01*
X1878642Y1452389D01*
X1882145Y1453451D01*
X1885372Y1455177D01*
X1888202Y1457498D01*
X1890523Y1460328D01*
X1892249Y1463555D01*
X1893311Y1467058D01*
X1893670Y1470700D01*
X1893311Y1474342D01*
X1892249Y1477845D01*
X1890523Y1481073D01*
X1888202Y1483902D01*
X1885372Y1486223D01*
X1882145Y1487949D01*
X1878642Y1489011D01*
X1875000Y1489370D01*
D02*
G37*
G36*
X1878250Y1429477D02*
X1874314Y1429089D01*
X1870529Y1427941D01*
X1867040Y1426077D01*
X1863983Y1423567D01*
X1861473Y1420510D01*
X1859609Y1417021D01*
X1858461Y1413236D01*
X1858073Y1409300D01*
X1858461Y1405364D01*
X1859609Y1401579D01*
X1861473Y1398090D01*
X1863983Y1395033D01*
X1867040Y1392523D01*
X1870529Y1390659D01*
X1874314Y1389511D01*
X1878250Y1389123D01*
X1882186Y1389511D01*
X1885972Y1390659D01*
X1889460Y1392523D01*
X1892517Y1395033D01*
X1895027Y1398090D01*
X1896891Y1401579D01*
X1898040Y1405364D01*
X1898427Y1409300D01*
X1898040Y1413236D01*
X1896891Y1417021D01*
X1895027Y1420510D01*
X1892517Y1423567D01*
X1889460Y1426077D01*
X1885972Y1427941D01*
X1882186Y1429089D01*
X1878250Y1429477D01*
D02*
G37*
G36*
X1375000Y1399731D02*
X1371187Y1399229D01*
X1367634Y1397758D01*
X1364584Y1395416D01*
X1362242Y1392366D01*
X1360771Y1388813D01*
X1360269Y1385000D01*
X1360771Y1381187D01*
X1362242Y1377634D01*
X1364584Y1374584D01*
X1367634Y1372242D01*
X1371187Y1370771D01*
X1375000Y1370269D01*
X1378813Y1370771D01*
X1382366Y1372242D01*
X1385416Y1374584D01*
X1387757Y1377634D01*
X1389229Y1381187D01*
X1389731Y1385000D01*
X1389229Y1388813D01*
X1387757Y1392366D01*
X1385416Y1395416D01*
X1382366Y1397758D01*
X1378813Y1399229D01*
X1375000Y1399731D01*
D02*
G37*
G36*
X1628810Y1408867D02*
X1624104Y1408404D01*
X1619579Y1407031D01*
X1615409Y1404802D01*
X1611754Y1401802D01*
X1608754Y1398147D01*
X1606525Y1393977D01*
X1605152Y1389452D01*
X1604689Y1384746D01*
X1605152Y1380040D01*
X1606525Y1375515D01*
X1608754Y1371345D01*
X1611754Y1367690D01*
X1615409Y1364690D01*
X1619579Y1362461D01*
X1624104Y1361088D01*
X1628810Y1360625D01*
X1633516Y1361088D01*
X1638041Y1362461D01*
X1642211Y1364690D01*
X1645866Y1367690D01*
X1648866Y1371345D01*
X1651095Y1375515D01*
X1652468Y1380040D01*
X1652931Y1384746D01*
X1652468Y1389452D01*
X1651095Y1393977D01*
X1648866Y1398147D01*
X1645866Y1401802D01*
X1642211Y1404802D01*
X1638041Y1407031D01*
X1633516Y1408404D01*
X1628810Y1408867D01*
D02*
G37*
G36*
X1646082Y1437577D02*
X1642269Y1437075D01*
X1638716Y1435603D01*
X1635666Y1433262D01*
X1633324Y1430211D01*
X1631853Y1426659D01*
X1631351Y1422846D01*
X1631853Y1419033D01*
X1633324Y1415480D01*
X1635666Y1412430D01*
X1638716Y1410089D01*
X1642269Y1408617D01*
X1646082Y1408115D01*
X1649895Y1408617D01*
X1653448Y1410089D01*
X1656498Y1412430D01*
X1658840Y1415480D01*
X1660311Y1419033D01*
X1660813Y1422846D01*
X1660311Y1426659D01*
X1658840Y1430211D01*
X1656498Y1433262D01*
X1653448Y1435603D01*
X1649895Y1437075D01*
X1646082Y1437577D01*
D02*
G37*
G36*
X1820390Y1489370D02*
X1816748Y1489011D01*
X1813245Y1487949D01*
X1810018Y1486223D01*
X1807188Y1483902D01*
X1804867Y1481073D01*
X1803141Y1477845D01*
X1802079Y1474342D01*
X1801720Y1470700D01*
X1802079Y1467058D01*
X1803141Y1463555D01*
X1804867Y1460328D01*
X1807188Y1457498D01*
X1810018Y1455177D01*
X1813245Y1453451D01*
X1816748Y1452389D01*
X1820390Y1452030D01*
X1824032Y1452389D01*
X1827535Y1453451D01*
X1830762Y1455177D01*
X1833592Y1457498D01*
X1835913Y1460328D01*
X1837639Y1463555D01*
X1838701Y1467058D01*
X1839060Y1470700D01*
X1838701Y1474342D01*
X1837639Y1477845D01*
X1835913Y1481073D01*
X1833592Y1483902D01*
X1830762Y1486223D01*
X1827535Y1487949D01*
X1824032Y1489011D01*
X1820390Y1489370D01*
D02*
G37*
G36*
X1516986Y1459675D02*
X1513173Y1459173D01*
X1509621Y1457702D01*
X1506570Y1455360D01*
X1504229Y1452310D01*
X1502757Y1448757D01*
X1502255Y1444944D01*
X1502757Y1441131D01*
X1504229Y1437578D01*
X1506570Y1434528D01*
X1509621Y1432186D01*
X1513173Y1430715D01*
X1516986Y1430213D01*
X1520799Y1430715D01*
X1524352Y1432186D01*
X1527402Y1434528D01*
X1529743Y1437578D01*
X1531215Y1441131D01*
X1531717Y1444944D01*
X1531215Y1448757D01*
X1529743Y1452310D01*
X1527402Y1455360D01*
X1524352Y1457702D01*
X1520799Y1459173D01*
X1516986Y1459675D01*
D02*
G37*
G36*
X1395066D02*
X1391253Y1459173D01*
X1387701Y1457702D01*
X1384650Y1455360D01*
X1382309Y1452310D01*
X1380837Y1448757D01*
X1380335Y1444944D01*
X1380837Y1441131D01*
X1382309Y1437578D01*
X1384650Y1434528D01*
X1387701Y1432186D01*
X1391253Y1430715D01*
X1395066Y1430213D01*
X1398879Y1430715D01*
X1402431Y1432186D01*
X1405482Y1434528D01*
X1407823Y1437578D01*
X1409295Y1441131D01*
X1409797Y1444944D01*
X1409295Y1448757D01*
X1407823Y1452310D01*
X1405482Y1455360D01*
X1402431Y1457702D01*
X1398879Y1459173D01*
X1395066Y1459675D01*
D02*
G37*
G36*
X1103810Y1308867D02*
X1099104Y1308404D01*
X1094579Y1307031D01*
X1090409Y1304802D01*
X1086754Y1301802D01*
X1083754Y1298147D01*
X1081525Y1293977D01*
X1080152Y1289452D01*
X1079689Y1284746D01*
X1080152Y1280040D01*
X1081525Y1275515D01*
X1083754Y1271345D01*
X1086754Y1267690D01*
X1090409Y1264690D01*
X1094579Y1262461D01*
X1099104Y1261088D01*
X1103810Y1260625D01*
X1108516Y1261088D01*
X1113041Y1262461D01*
X1117211Y1264690D01*
X1120866Y1267690D01*
X1123866Y1271345D01*
X1126095Y1275515D01*
X1127468Y1280040D01*
X1127931Y1284746D01*
X1127468Y1289452D01*
X1126095Y1293977D01*
X1123866Y1298147D01*
X1120866Y1301802D01*
X1117211Y1304802D01*
X1113041Y1307031D01*
X1108516Y1308404D01*
X1103810Y1308867D01*
D02*
G37*
G36*
X1301270Y1028140D02*
Y1019330D01*
X1310081D01*
X1309899Y1020712D01*
X1308875Y1023184D01*
X1307246Y1025306D01*
X1305124Y1026935D01*
X1302652Y1027959D01*
X1301270Y1028140D01*
D02*
G37*
G36*
X1298730D02*
X1297348Y1027959D01*
X1294876Y1026935D01*
X1292754Y1025306D01*
X1291125Y1023184D01*
X1290101Y1020712D01*
X1289919Y1019330D01*
X1298730D01*
Y1028140D01*
D02*
G37*
G36*
X1407068Y1023786D02*
X1396336D01*
Y1013054D01*
X1398216Y1013302D01*
X1401151Y1014517D01*
X1403671Y1016451D01*
X1405605Y1018971D01*
X1406821Y1021906D01*
X1407068Y1023786D01*
D02*
G37*
G36*
X1393796Y1037058D02*
X1391916Y1036811D01*
X1388981Y1035595D01*
X1386461Y1033661D01*
X1384527Y1031141D01*
X1383311Y1028206D01*
X1383064Y1026326D01*
X1393796D01*
Y1037058D01*
D02*
G37*
G36*
X991986Y1059675D02*
X988173Y1059173D01*
X984621Y1057701D01*
X981570Y1055360D01*
X979229Y1052309D01*
X977757Y1048757D01*
X977255Y1044944D01*
X977757Y1041131D01*
X979229Y1037579D01*
X981570Y1034528D01*
X984621Y1032187D01*
X988173Y1030715D01*
X991986Y1030213D01*
X995799Y1030715D01*
X999352Y1032187D01*
X1002402Y1034528D01*
X1004743Y1037579D01*
X1006215Y1041131D01*
X1006717Y1044944D01*
X1006215Y1048757D01*
X1004743Y1052309D01*
X1002402Y1055360D01*
X999352Y1057701D01*
X995799Y1059173D01*
X991986Y1059675D01*
D02*
G37*
G36*
X870066D02*
X866253Y1059173D01*
X862701Y1057701D01*
X859650Y1055360D01*
X857309Y1052309D01*
X855837Y1048757D01*
X855335Y1044944D01*
X855837Y1041131D01*
X857309Y1037579D01*
X859650Y1034528D01*
X862701Y1032187D01*
X866253Y1030715D01*
X870066Y1030213D01*
X873879Y1030715D01*
X877431Y1032187D01*
X880482Y1034528D01*
X882823Y1037579D01*
X884295Y1041131D01*
X884797Y1044944D01*
X884295Y1048757D01*
X882823Y1052309D01*
X880482Y1055360D01*
X877431Y1057701D01*
X873879Y1059173D01*
X870066Y1059675D01*
D02*
G37*
G36*
X1396336Y1037058D02*
Y1026326D01*
X1407068D01*
X1406821Y1028206D01*
X1405605Y1031141D01*
X1403671Y1033661D01*
X1401151Y1035595D01*
X1398216Y1036811D01*
X1396336Y1037058D01*
D02*
G37*
G36*
X1393796Y1023786D02*
X1383064D01*
X1383311Y1021906D01*
X1384527Y1018971D01*
X1386461Y1016451D01*
X1388981Y1014517D01*
X1391916Y1013302D01*
X1393796Y1013054D01*
Y1023786D01*
D02*
G37*
G36*
X1820390Y1037970D02*
X1816748Y1037611D01*
X1813245Y1036549D01*
X1810018Y1034824D01*
X1807188Y1032502D01*
X1804867Y1029672D01*
X1803141Y1026445D01*
X1802079Y1022942D01*
X1801720Y1019300D01*
X1802079Y1015658D01*
X1803141Y1012155D01*
X1804867Y1008928D01*
X1807188Y1006098D01*
X1810018Y1003777D01*
X1813245Y1002051D01*
X1816748Y1000989D01*
X1820390Y1000630D01*
X1824032Y1000989D01*
X1827535Y1002051D01*
X1830762Y1003777D01*
X1833592Y1006098D01*
X1835913Y1008928D01*
X1837639Y1012155D01*
X1838701Y1015658D01*
X1839060Y1019300D01*
X1838701Y1022942D01*
X1837639Y1026445D01*
X1835913Y1029672D01*
X1833592Y1032502D01*
X1830762Y1034824D01*
X1827535Y1036549D01*
X1824032Y1037611D01*
X1820390Y1037970D01*
D02*
G37*
G36*
X850000Y999731D02*
X846187Y999229D01*
X842635Y997757D01*
X839584Y995416D01*
X837243Y992365D01*
X835771Y988813D01*
X835269Y985000D01*
X835771Y981187D01*
X837243Y977635D01*
X839584Y974584D01*
X842635Y972243D01*
X846187Y970771D01*
X850000Y970269D01*
X853813Y970771D01*
X857365Y972243D01*
X860416Y974584D01*
X862757Y977635D01*
X864229Y981187D01*
X864731Y985000D01*
X864229Y988813D01*
X862757Y992365D01*
X860416Y995416D01*
X857365Y997757D01*
X853813Y999229D01*
X850000Y999731D01*
D02*
G37*
G36*
X1103810Y1008867D02*
X1099104Y1008404D01*
X1094579Y1007031D01*
X1090409Y1004802D01*
X1086754Y1001802D01*
X1083754Y998147D01*
X1081525Y993977D01*
X1080152Y989452D01*
X1079689Y984746D01*
X1080152Y980040D01*
X1081525Y975515D01*
X1083754Y971345D01*
X1086754Y967690D01*
X1090409Y964690D01*
X1094579Y962461D01*
X1099104Y961088D01*
X1103810Y960625D01*
X1108516Y961088D01*
X1113041Y962461D01*
X1117211Y964690D01*
X1120866Y967690D01*
X1123866Y971345D01*
X1126095Y975515D01*
X1127468Y980040D01*
X1127931Y984746D01*
X1127468Y989452D01*
X1126095Y993977D01*
X1123866Y998147D01*
X1120866Y1001802D01*
X1117211Y1004802D01*
X1113041Y1007031D01*
X1108516Y1008404D01*
X1103810Y1008867D01*
D02*
G37*
G36*
X1875000Y1037970D02*
X1871358Y1037611D01*
X1867855Y1036549D01*
X1864628Y1034824D01*
X1861798Y1032502D01*
X1859477Y1029672D01*
X1857751Y1026445D01*
X1856689Y1022942D01*
X1856330Y1019300D01*
X1856689Y1015658D01*
X1857751Y1012155D01*
X1859477Y1008928D01*
X1861798Y1006098D01*
X1864628Y1003777D01*
X1867855Y1002051D01*
X1871358Y1000989D01*
X1875000Y1000630D01*
X1878642Y1000989D01*
X1882145Y1002051D01*
X1885372Y1003777D01*
X1888202Y1006098D01*
X1890523Y1008928D01*
X1892249Y1012155D01*
X1893311Y1015658D01*
X1893670Y1019300D01*
X1893311Y1022942D01*
X1892249Y1026445D01*
X1890523Y1029672D01*
X1888202Y1032502D01*
X1885372Y1034824D01*
X1882145Y1036549D01*
X1878642Y1037611D01*
X1875000Y1037970D01*
D02*
G37*
G36*
X1121082Y1037577D02*
X1117269Y1037075D01*
X1113717Y1035603D01*
X1110666Y1033262D01*
X1108325Y1030211D01*
X1106853Y1026659D01*
X1106351Y1022846D01*
X1106853Y1019033D01*
X1108325Y1015480D01*
X1110666Y1012430D01*
X1113717Y1010089D01*
X1117269Y1008617D01*
X1121082Y1008115D01*
X1124895Y1008617D01*
X1128447Y1010089D01*
X1131498Y1012430D01*
X1133839Y1015480D01*
X1135311Y1019033D01*
X1135813Y1022846D01*
X1135311Y1026659D01*
X1133839Y1030211D01*
X1131498Y1033262D01*
X1128447Y1035603D01*
X1124895Y1037075D01*
X1121082Y1037577D01*
D02*
G37*
G36*
X1310081Y1016790D02*
X1301270D01*
Y1007980D01*
X1302652Y1008161D01*
X1305124Y1009185D01*
X1307246Y1010814D01*
X1308875Y1012936D01*
X1309899Y1015408D01*
X1310081Y1016790D01*
D02*
G37*
G36*
X1298730D02*
X1289919D01*
X1290101Y1015408D01*
X1291125Y1012936D01*
X1292754Y1010814D01*
X1294876Y1009185D01*
X1297348Y1008161D01*
X1298730Y1007980D01*
Y1016790D01*
D02*
G37*
G36*
X1848200Y1242748D02*
X1844916Y1242316D01*
X1841856Y1241049D01*
X1839228Y1239032D01*
X1837211Y1236404D01*
X1835944Y1233344D01*
X1835511Y1230060D01*
X1835944Y1226776D01*
X1837211Y1223716D01*
X1839228Y1221088D01*
X1841856Y1219071D01*
X1844916Y1217804D01*
X1848200Y1217372D01*
X1851484Y1217804D01*
X1854544Y1219071D01*
X1857172Y1221088D01*
X1859189Y1223716D01*
X1860456Y1226776D01*
X1860889Y1230060D01*
X1860456Y1233344D01*
X1859189Y1236404D01*
X1857172Y1239032D01*
X1854544Y1241049D01*
X1851484Y1242316D01*
X1848200Y1242748D01*
D02*
G37*
G36*
X870066Y1239787D02*
X866253Y1239285D01*
X862701Y1237813D01*
X859650Y1235472D01*
X857309Y1232421D01*
X855837Y1228869D01*
X855335Y1225056D01*
X855837Y1221243D01*
X857309Y1217691D01*
X859650Y1214640D01*
X862701Y1212299D01*
X866253Y1210827D01*
X870066Y1210325D01*
X873879Y1210827D01*
X877431Y1212299D01*
X880482Y1214640D01*
X882823Y1217691D01*
X884295Y1221243D01*
X884797Y1225056D01*
X884295Y1228869D01*
X882823Y1232421D01*
X880482Y1235472D01*
X877431Y1237813D01*
X873879Y1239285D01*
X870066Y1239787D01*
D02*
G37*
G36*
X1894200Y1207748D02*
X1890916Y1207316D01*
X1887856Y1206049D01*
X1885228Y1204032D01*
X1883211Y1201404D01*
X1881944Y1198344D01*
X1881512Y1195060D01*
X1881944Y1191776D01*
X1883211Y1188716D01*
X1884188Y1187443D01*
X1883429Y1186346D01*
X1883250Y1186400D01*
X1880000Y1186720D01*
X1876750Y1186400D01*
X1873624Y1185452D01*
X1870744Y1183913D01*
X1868219Y1181841D01*
X1866147Y1179316D01*
X1864608Y1176436D01*
X1863660Y1173310D01*
X1863340Y1170060D01*
X1863660Y1166810D01*
X1864608Y1163684D01*
X1866147Y1160804D01*
X1868219Y1158279D01*
X1870744Y1156208D01*
X1873624Y1154668D01*
X1876750Y1153720D01*
X1880000Y1153400D01*
X1883250Y1153720D01*
X1886376Y1154668D01*
X1889256Y1156208D01*
X1891781Y1158279D01*
X1893853Y1160804D01*
X1895392Y1163684D01*
X1896340Y1166810D01*
X1896660Y1170060D01*
X1896340Y1173310D01*
X1895392Y1176436D01*
X1893853Y1179316D01*
X1892178Y1181357D01*
X1892841Y1182550D01*
X1894200Y1182371D01*
X1897484Y1182804D01*
X1900544Y1184071D01*
X1903172Y1186088D01*
X1905189Y1188716D01*
X1906456Y1191776D01*
X1906888Y1195060D01*
X1906456Y1198344D01*
X1905189Y1201404D01*
X1903172Y1204032D01*
X1900544Y1206049D01*
X1897484Y1207316D01*
X1894200Y1207748D01*
D02*
G37*
G36*
Y1242748D02*
X1890916Y1242316D01*
X1887856Y1241049D01*
X1885228Y1239032D01*
X1883211Y1236404D01*
X1881944Y1233344D01*
X1881512Y1230060D01*
X1881944Y1226776D01*
X1883211Y1223716D01*
X1885228Y1221088D01*
X1887856Y1219071D01*
X1890916Y1217804D01*
X1894200Y1217372D01*
X1897484Y1217804D01*
X1900544Y1219071D01*
X1903172Y1221088D01*
X1905189Y1223716D01*
X1906456Y1226776D01*
X1906888Y1230060D01*
X1906456Y1233344D01*
X1905189Y1236404D01*
X1903172Y1239032D01*
X1900544Y1241049D01*
X1897484Y1242316D01*
X1894200Y1242748D01*
D02*
G37*
G36*
Y1277748D02*
X1890916Y1277316D01*
X1887856Y1276049D01*
X1885228Y1274032D01*
X1883211Y1271404D01*
X1881944Y1268344D01*
X1881512Y1265060D01*
X1881944Y1261776D01*
X1883211Y1258716D01*
X1885228Y1256088D01*
X1887856Y1254071D01*
X1890916Y1252804D01*
X1894200Y1252372D01*
X1897484Y1252804D01*
X1900544Y1254071D01*
X1903172Y1256088D01*
X1905189Y1258716D01*
X1906456Y1261776D01*
X1906888Y1265060D01*
X1906456Y1268344D01*
X1905189Y1271404D01*
X1903172Y1274032D01*
X1900544Y1276049D01*
X1897484Y1277316D01*
X1894200Y1277748D01*
D02*
G37*
G36*
X1848480Y1277598D02*
X1845196Y1277166D01*
X1842136Y1275899D01*
X1839508Y1273882D01*
X1837491Y1271254D01*
X1836224Y1268194D01*
X1835791Y1264910D01*
X1836224Y1261626D01*
X1837491Y1258566D01*
X1839508Y1255938D01*
X1842136Y1253921D01*
X1845196Y1252654D01*
X1848480Y1252221D01*
X1851764Y1252654D01*
X1854824Y1253921D01*
X1857452Y1255938D01*
X1859469Y1258566D01*
X1860736Y1261626D01*
X1861169Y1264910D01*
X1860736Y1268194D01*
X1859469Y1271254D01*
X1857452Y1273882D01*
X1854824Y1275899D01*
X1851764Y1277166D01*
X1848480Y1277598D01*
D02*
G37*
G36*
X1086538Y1261377D02*
X1082725Y1260875D01*
X1079173Y1259404D01*
X1076122Y1257062D01*
X1073781Y1254012D01*
X1072309Y1250459D01*
X1071807Y1246646D01*
X1072309Y1242833D01*
X1073781Y1239280D01*
X1076122Y1236230D01*
X1079173Y1233888D01*
X1082725Y1232417D01*
X1086538Y1231915D01*
X1090351Y1232417D01*
X1093904Y1233888D01*
X1096954Y1236230D01*
X1099296Y1239280D01*
X1100767Y1242833D01*
X1101269Y1246646D01*
X1100767Y1250459D01*
X1099296Y1254012D01*
X1096954Y1257062D01*
X1093904Y1259404D01*
X1090351Y1260875D01*
X1086538Y1261377D01*
D02*
G37*
G36*
X1848200Y1207748D02*
X1844916Y1207316D01*
X1841856Y1206049D01*
X1839228Y1204032D01*
X1837211Y1201404D01*
X1835944Y1198344D01*
X1835511Y1195060D01*
X1835944Y1191776D01*
X1837211Y1188716D01*
X1839228Y1186088D01*
X1841856Y1184071D01*
X1844916Y1182804D01*
X1848200Y1182371D01*
X1851484Y1182804D01*
X1854544Y1184071D01*
X1857172Y1186088D01*
X1859189Y1188716D01*
X1860456Y1191776D01*
X1860889Y1195060D01*
X1860456Y1198344D01*
X1859189Y1201404D01*
X1857172Y1204032D01*
X1854544Y1206049D01*
X1851484Y1207316D01*
X1848200Y1207748D01*
D02*
G37*
G36*
X1878250Y1101177D02*
X1874314Y1100789D01*
X1870529Y1099641D01*
X1867040Y1097777D01*
X1863983Y1095267D01*
X1861473Y1092210D01*
X1859609Y1088721D01*
X1858461Y1084936D01*
X1858073Y1081000D01*
X1858461Y1077064D01*
X1859609Y1073279D01*
X1861473Y1069790D01*
X1863983Y1066733D01*
X1867040Y1064223D01*
X1870529Y1062359D01*
X1874314Y1061211D01*
X1878250Y1060823D01*
X1882186Y1061211D01*
X1885972Y1062359D01*
X1889460Y1064223D01*
X1892517Y1066733D01*
X1895027Y1069790D01*
X1896891Y1073279D01*
X1898040Y1077064D01*
X1898427Y1081000D01*
X1898040Y1084936D01*
X1896891Y1088721D01*
X1895027Y1092210D01*
X1892517Y1095267D01*
X1889460Y1097777D01*
X1885972Y1099641D01*
X1882186Y1100789D01*
X1878250Y1101177D01*
D02*
G37*
G36*
X1628810Y1108867D02*
X1624104Y1108404D01*
X1619579Y1107031D01*
X1615409Y1104802D01*
X1611754Y1101802D01*
X1608754Y1098147D01*
X1606525Y1093977D01*
X1605152Y1089452D01*
X1604689Y1084746D01*
X1605152Y1080040D01*
X1606525Y1075515D01*
X1608754Y1071345D01*
X1611754Y1067690D01*
X1615409Y1064690D01*
X1619579Y1062461D01*
X1624104Y1061088D01*
X1628810Y1060625D01*
X1633516Y1061088D01*
X1638041Y1062461D01*
X1642211Y1064690D01*
X1645866Y1067690D01*
X1648866Y1071345D01*
X1651095Y1075515D01*
X1652468Y1080040D01*
X1652931Y1084746D01*
X1652468Y1089452D01*
X1651095Y1093977D01*
X1648866Y1098147D01*
X1645866Y1101802D01*
X1642211Y1104802D01*
X1638041Y1107031D01*
X1633516Y1108404D01*
X1628810Y1108867D01*
D02*
G37*
G36*
X1611538Y1061377D02*
X1607725Y1060875D01*
X1604173Y1059404D01*
X1601122Y1057062D01*
X1598781Y1054012D01*
X1597309Y1050459D01*
X1596807Y1046646D01*
X1597309Y1042833D01*
X1598781Y1039280D01*
X1601122Y1036230D01*
X1604173Y1033889D01*
X1607725Y1032417D01*
X1611538Y1031915D01*
X1615351Y1032417D01*
X1618904Y1033889D01*
X1621954Y1036230D01*
X1624296Y1039280D01*
X1625767Y1042833D01*
X1626269Y1046646D01*
X1625767Y1050459D01*
X1624296Y1054012D01*
X1621954Y1057062D01*
X1618904Y1059404D01*
X1615351Y1060875D01*
X1611538Y1061377D01*
D02*
G37*
G36*
X1375000Y1099731D02*
X1371187Y1099229D01*
X1367634Y1097757D01*
X1364584Y1095416D01*
X1362242Y1092365D01*
X1360771Y1088813D01*
X1360269Y1085000D01*
X1360771Y1081187D01*
X1362242Y1077635D01*
X1364584Y1074584D01*
X1367634Y1072243D01*
X1371187Y1070771D01*
X1375000Y1070269D01*
X1378813Y1070771D01*
X1382366Y1072243D01*
X1385416Y1074584D01*
X1387757Y1077635D01*
X1389229Y1081187D01*
X1389731Y1085000D01*
X1389229Y1088813D01*
X1387757Y1092365D01*
X1385416Y1095416D01*
X1382366Y1097757D01*
X1378813Y1099229D01*
X1375000Y1099731D01*
D02*
G37*
G36*
X1516986Y1159675D02*
X1513173Y1159173D01*
X1509621Y1157701D01*
X1506570Y1155360D01*
X1504229Y1152309D01*
X1502757Y1148757D01*
X1502255Y1144944D01*
X1502757Y1141131D01*
X1504229Y1137579D01*
X1506570Y1134528D01*
X1509621Y1132187D01*
X1513173Y1130715D01*
X1516986Y1130213D01*
X1520799Y1130715D01*
X1524352Y1132187D01*
X1527402Y1134528D01*
X1529743Y1137579D01*
X1531215Y1141131D01*
X1531717Y1144944D01*
X1531215Y1148757D01*
X1529743Y1152309D01*
X1527402Y1155360D01*
X1524352Y1157701D01*
X1520799Y1159173D01*
X1516986Y1159675D01*
D02*
G37*
G36*
X1395066D02*
X1391253Y1159173D01*
X1387701Y1157701D01*
X1384650Y1155360D01*
X1382309Y1152309D01*
X1380837Y1148757D01*
X1380335Y1144944D01*
X1380837Y1141131D01*
X1382309Y1137579D01*
X1384650Y1134528D01*
X1387701Y1132187D01*
X1391253Y1130715D01*
X1395066Y1130213D01*
X1398879Y1130715D01*
X1402431Y1132187D01*
X1405482Y1134528D01*
X1407823Y1137579D01*
X1409295Y1141131D01*
X1409797Y1144944D01*
X1409295Y1148757D01*
X1407823Y1152309D01*
X1405482Y1155360D01*
X1402431Y1157701D01*
X1398879Y1159173D01*
X1395066Y1159675D01*
D02*
G37*
G36*
X1646082Y1137577D02*
X1642269Y1137075D01*
X1638716Y1135603D01*
X1635666Y1133262D01*
X1633324Y1130211D01*
X1631853Y1126659D01*
X1631351Y1122846D01*
X1631853Y1119033D01*
X1633324Y1115480D01*
X1635666Y1112430D01*
X1638716Y1110089D01*
X1642269Y1108617D01*
X1646082Y1108115D01*
X1649895Y1108617D01*
X1653448Y1110089D01*
X1656498Y1112430D01*
X1658840Y1115480D01*
X1660311Y1119033D01*
X1660813Y1122846D01*
X1660311Y1126659D01*
X1658840Y1130211D01*
X1656498Y1133262D01*
X1653448Y1135603D01*
X1649895Y1137075D01*
X1646082Y1137577D01*
D02*
G37*
%LPD*%
D20*
X1375000Y1085000D02*
D03*
X1648462Y548354D02*
D03*
X1613918Y472154D02*
D03*
X1611538Y771646D02*
D03*
X1646082Y847846D02*
D03*
X1611538Y1346646D02*
D03*
X1646082Y1422846D02*
D03*
X1086538Y1246646D02*
D03*
X1121082Y1322846D02*
D03*
X1611538Y1046646D02*
D03*
X1646082Y1122846D02*
D03*
X1086538Y646646D02*
D03*
X1121082Y722846D02*
D03*
X1086538Y946646D02*
D03*
X1121082Y1022846D02*
D03*
X1516986Y569944D02*
D03*
X1395066D02*
D03*
Y450056D02*
D03*
X1375000Y510000D02*
D03*
X1516986Y869944D02*
D03*
X1395066D02*
D03*
Y750056D02*
D03*
X1375000Y810000D02*
D03*
X1516986Y1444944D02*
D03*
X1395066D02*
D03*
Y1325056D02*
D03*
X1375000Y1385000D02*
D03*
X991986Y1344944D02*
D03*
X870066D02*
D03*
Y1225056D02*
D03*
X850000Y1285000D02*
D03*
X1516986Y1144944D02*
D03*
X1395066D02*
D03*
Y1025056D02*
D03*
X991986Y744944D02*
D03*
X870066D02*
D03*
Y625056D02*
D03*
X850000Y685000D02*
D03*
X991986Y1044944D02*
D03*
X870066D02*
D03*
Y925056D02*
D03*
X850000Y985000D02*
D03*
D21*
X1820390Y905000D02*
D03*
X1875000D02*
D03*
Y962150D02*
D03*
X1820390D02*
D03*
Y1019300D02*
D03*
X1875000D02*
D03*
X1820390Y1470700D02*
D03*
X1875000D02*
D03*
Y1527850D02*
D03*
X1820390D02*
D03*
Y1585000D02*
D03*
X1875000D02*
D03*
X1820390Y710000D02*
D03*
X1875000D02*
D03*
X1820390Y525000D02*
D03*
X1875000D02*
D03*
D22*
X1894200Y1300060D02*
D03*
X1848480D02*
D03*
Y1264910D02*
D03*
X1894200Y1265060D02*
D03*
Y1230060D02*
D03*
X1848200D02*
D03*
Y1195060D02*
D03*
X1894200D02*
D03*
X1831340Y267260D02*
D03*
Y302260D02*
D03*
X1877060D02*
D03*
Y267260D02*
D03*
D23*
X1300000Y1320320D02*
D03*
Y1018060D02*
D03*
Y444020D02*
D03*
Y743740D02*
D03*
M02*
