G04 Layer_Color=255*
%FSLAX44Y44*%
%MOMM*%
G71*
G01*
G75*
%ADD10R,1.7500X2.6500*%
%ADD20C,1.9050*%
%ADD21C,2.7000*%
%ADD22C,1.5000*%
%ADD23C,1.5240*%
D10*
X1300000Y535000D02*
D03*
Y492000D02*
D03*
Y792000D02*
D03*
Y835000D02*
D03*
Y1410000D02*
D03*
Y1367000D02*
D03*
X775000Y1267000D02*
D03*
Y1310000D02*
D03*
X1300000Y1110000D02*
D03*
Y1067000D02*
D03*
X775000Y667000D02*
D03*
Y710000D02*
D03*
Y1010000D02*
D03*
Y967000D02*
D03*
D20*
X1375000Y1085000D02*
D03*
X1648462Y548354D02*
D03*
X1613918Y472154D02*
D03*
X1611538Y771646D02*
D03*
X1646082Y847846D02*
D03*
X1611538Y1346646D02*
D03*
X1646082Y1422846D02*
D03*
X1086538Y1246646D02*
D03*
X1121082Y1322846D02*
D03*
X1611538Y1046646D02*
D03*
X1646082Y1122846D02*
D03*
X1086538Y646646D02*
D03*
X1121082Y722846D02*
D03*
X1086538Y946646D02*
D03*
X1121082Y1022846D02*
D03*
X1516986Y569944D02*
D03*
X1395066D02*
D03*
Y450056D02*
D03*
X1375000Y510000D02*
D03*
X1516986Y869944D02*
D03*
X1395066D02*
D03*
Y750056D02*
D03*
X1375000Y810000D02*
D03*
X1516986Y1444944D02*
D03*
X1395066D02*
D03*
Y1325056D02*
D03*
X1375000Y1385000D02*
D03*
X991986Y1344944D02*
D03*
X870066D02*
D03*
Y1225056D02*
D03*
X850000Y1285000D02*
D03*
X1516986Y1144944D02*
D03*
X1395066D02*
D03*
Y1025056D02*
D03*
X991986Y744944D02*
D03*
X870066D02*
D03*
Y625056D02*
D03*
X850000Y685000D02*
D03*
X991986Y1044944D02*
D03*
X870066D02*
D03*
Y925056D02*
D03*
X850000Y985000D02*
D03*
D21*
X1820390Y905000D02*
D03*
X1875000D02*
D03*
Y962150D02*
D03*
X1820390D02*
D03*
Y1019300D02*
D03*
X1875000D02*
D03*
X1820390Y1470700D02*
D03*
X1875000D02*
D03*
Y1527850D02*
D03*
X1820390D02*
D03*
Y1585000D02*
D03*
X1875000D02*
D03*
X1820390Y710000D02*
D03*
X1875000D02*
D03*
X1820390Y525000D02*
D03*
X1875000D02*
D03*
D22*
X1894200Y1300060D02*
D03*
X1848480D02*
D03*
Y1264910D02*
D03*
X1894200Y1265060D02*
D03*
Y1230060D02*
D03*
X1848200D02*
D03*
Y1195060D02*
D03*
X1894200D02*
D03*
X1831340Y267260D02*
D03*
Y302260D02*
D03*
X1877060D02*
D03*
Y267260D02*
D03*
D23*
X1300000Y1320320D02*
D03*
Y1018060D02*
D03*
Y444020D02*
D03*
Y743740D02*
D03*
M02*
