%FSLAX44Y44*%
%MOMM*%
G71*
G01*
G75*
G04 Layer_Physical_Order=3*
G04 Layer_Color=16440176*
%ADD10R,1.7500X2.6500*%
%ADD11C,1.0000*%
%ADD12C,3.0000*%
%ADD13R,22.0000X11.0000*%
%ADD14R,4.3180X4.3180*%
%ADD15R,14.5000X10.5160*%
%ADD16R,14.5000X16.0000*%
%ADD17R,38.5000X6.5000*%
%ADD18R,8.5000X7.3660*%
%ADD19R,9.5000X6.8580*%
%ADD20C,1.5240*%
%ADD21C,2.5500*%
%ADD22C,3.2375*%
%ADD23C,3.1750*%
%ADD24C,4.5000*%
%ADD25R,4.3180X4.8260*%
%ADD26R,4.3180X4.5720*%
%ADD27R,11.1760X5.3340*%
%ADD28R,21.0820X16.2560*%
%ADD29R,3.3020X3.3020*%
%ADD30R,4.5720X4.3180*%
%ADD31R,12.5000X107.5000*%
%ADD32R,11.6906X5.2607*%
%ADD33R,3.7348X2.9724*%
%ADD34R,3.5560X2.2860*%
%ADD35R,3.3020X2.3608*%
G36*
X1876270Y879964D02*
X1879909Y880322D01*
X1884629Y881754D01*
X1888979Y884079D01*
X1891880Y886460D01*
X2004060D01*
Y706120D01*
X1903295D01*
X1902433Y707053D01*
X1902665Y710000D01*
X1902325Y714328D01*
X1901311Y718549D01*
X1899650Y722560D01*
X1897382Y726261D01*
X1894562Y729562D01*
X1891261Y732382D01*
X1887560Y734650D01*
X1883549Y736311D01*
X1879328Y737325D01*
X1875000Y737665D01*
X1870672Y737325D01*
X1866451Y736311D01*
X1862440Y734650D01*
X1858739Y732382D01*
X1855438Y729562D01*
X1852618Y726261D01*
X1850350Y722560D01*
X1848689Y718549D01*
X1848330Y717055D01*
X1847060D01*
X1846701Y718549D01*
X1845040Y722560D01*
X1842772Y726261D01*
X1839952Y729562D01*
X1836651Y732382D01*
X1832950Y734650D01*
X1828939Y736311D01*
X1824718Y737325D01*
X1820390Y737665D01*
X1816062Y737325D01*
X1811841Y736311D01*
X1807830Y734650D01*
X1804129Y732382D01*
X1800828Y729562D01*
X1798008Y726261D01*
X1795740Y722560D01*
X1794079Y718549D01*
X1793065Y714328D01*
X1792725Y710000D01*
X1792957Y707053D01*
X1792095Y706120D01*
X1351280D01*
Y886460D01*
X1379782D01*
X1380210Y885264D01*
X1379955Y885055D01*
X1377297Y881817D01*
X1375322Y878122D01*
X1374106Y874113D01*
X1373696Y869944D01*
X1374106Y865775D01*
X1375322Y861766D01*
X1377297Y858071D01*
X1379955Y854833D01*
X1383193Y852175D01*
X1386888Y850200D01*
X1390897Y848984D01*
X1395066Y848574D01*
X1399235Y848984D01*
X1403244Y850200D01*
X1406939Y852175D01*
X1410177Y854833D01*
X1412835Y858071D01*
X1414810Y861766D01*
X1416026Y865775D01*
X1416436Y869944D01*
X1416026Y874113D01*
X1414810Y878122D01*
X1412835Y881817D01*
X1410177Y885055D01*
X1409922Y885264D01*
X1410350Y886460D01*
X1803510D01*
X1806411Y884079D01*
X1810761Y881754D01*
X1815481Y880322D01*
X1819120Y879964D01*
Y905000D01*
X1821660D01*
Y879964D01*
X1825299Y880322D01*
X1830019Y881754D01*
X1834369Y884079D01*
X1837270Y886460D01*
X1858120D01*
X1861021Y884079D01*
X1865371Y881754D01*
X1870091Y880322D01*
X1873730Y879964D01*
Y905000D01*
X1876270D01*
Y879964D01*
D02*
G37*
G36*
X1060000Y729102D02*
X1060000Y490220D01*
X755038Y490220D01*
X752905Y729098D01*
X753799Y730000D01*
X854818Y730000D01*
X854955Y729833D01*
X858193Y727175D01*
X861888Y725200D01*
X865897Y723984D01*
X870066Y723574D01*
X874235Y723984D01*
X878244Y725200D01*
X881939Y727175D01*
X885177Y729833D01*
X885314Y730000D01*
X1059102Y730000D01*
X1060000Y729102D01*
D02*
G37*
G36*
X1802598Y1567208D02*
X1803832Y1566196D01*
X1803404Y1565000D01*
X1800000D01*
Y1568490D01*
X1801196Y1568918D01*
X1802598Y1567208D01*
D02*
G37*
G36*
X2004060Y1208142D02*
X2004060Y1056640D01*
X1773818Y1056640D01*
X1772920Y1057538D01*
Y919480D01*
X1013122D01*
X1012365Y920500D01*
X1012946Y922413D01*
X1013356Y926582D01*
X1012946Y930751D01*
X1011730Y934760D01*
X1009755Y938455D01*
X1007097Y941693D01*
X1003859Y944351D01*
X1000164Y946326D01*
X996155Y947542D01*
X991986Y947952D01*
X987817Y947542D01*
X983808Y946326D01*
X980113Y944351D01*
X976875Y941693D01*
X974217Y938455D01*
X972242Y934760D01*
X971026Y930751D01*
X970616Y926582D01*
X971026Y922413D01*
X971607Y920500D01*
X970850Y919480D01*
X891665D01*
X890909Y920500D01*
X891026Y920887D01*
X891436Y925056D01*
X891026Y929225D01*
X889810Y933234D01*
X887835Y936929D01*
X885177Y940167D01*
X881939Y942825D01*
X878244Y944800D01*
X874235Y946016D01*
X870066Y946426D01*
X865897Y946016D01*
X861888Y944800D01*
X858193Y942825D01*
X854955Y940167D01*
X852297Y936929D01*
X850322Y933234D01*
X849106Y929225D01*
X848696Y925056D01*
X849106Y920887D01*
X849223Y920500D01*
X848467Y919480D01*
X830580D01*
Y980130D01*
X831850Y980318D01*
X832614Y977799D01*
X834353Y974545D01*
X836694Y971694D01*
X839545Y969353D01*
X842799Y967614D01*
X846329Y966544D01*
X848730Y966307D01*
Y985000D01*
Y1003693D01*
X846329Y1003456D01*
X842799Y1002386D01*
X839545Y1000647D01*
X836694Y998306D01*
X834353Y995455D01*
X832614Y992201D01*
X831850Y989682D01*
X830580Y989870D01*
Y1193800D01*
X1772920D01*
Y1209040D01*
X1838696Y1209040D01*
X1839586Y1207863D01*
X1839585Y1207770D01*
X1837336Y1205924D01*
X1835425Y1203596D01*
X1834005Y1200939D01*
X1833131Y1198057D01*
X1832961Y1196330D01*
X1863439D01*
X1863269Y1198057D01*
X1862394Y1200939D01*
X1860975Y1203596D01*
X1859064Y1205924D01*
X1856815Y1207770D01*
X1856814Y1207863D01*
X1857704Y1209040D01*
X1884696Y1209040D01*
X1885586Y1207863D01*
X1885585Y1207770D01*
X1883336Y1205924D01*
X1881425Y1203596D01*
X1880005Y1200939D01*
X1879131Y1198057D01*
X1878961Y1196330D01*
X1909439D01*
X1909269Y1198057D01*
X1908394Y1200939D01*
X1906975Y1203596D01*
X1905064Y1205924D01*
X1902815Y1207770D01*
X1902814Y1207863D01*
X1903704Y1209040D01*
X2003162Y1209040D01*
X2004060Y1208142D01*
D02*
G37*
G36*
X847935Y1346820D02*
X848788Y1345878D01*
X848696Y1344944D01*
X849106Y1340775D01*
X850322Y1336766D01*
X852297Y1333071D01*
X854955Y1329833D01*
X858193Y1327175D01*
X861888Y1325200D01*
X865897Y1323984D01*
X870066Y1323574D01*
X874235Y1323984D01*
X878244Y1325200D01*
X881939Y1327175D01*
X885177Y1329833D01*
X887835Y1333071D01*
X889810Y1336766D01*
X891026Y1340775D01*
X891436Y1344944D01*
X891349Y1345833D01*
X892202Y1346773D01*
X1387303Y1346253D01*
X1387491Y1344983D01*
X1386888Y1344800D01*
X1383193Y1342825D01*
X1379955Y1340167D01*
X1377297Y1336929D01*
X1375322Y1333234D01*
X1374106Y1329225D01*
X1373696Y1325056D01*
X1374106Y1320887D01*
X1375322Y1316878D01*
X1377297Y1313183D01*
X1379955Y1309945D01*
X1383193Y1307287D01*
X1386888Y1305312D01*
X1390897Y1304096D01*
X1395066Y1303686D01*
X1399235Y1304096D01*
X1403244Y1305312D01*
X1406939Y1307287D01*
X1410177Y1309945D01*
X1412835Y1313183D01*
X1414810Y1316878D01*
X1416026Y1320887D01*
X1416436Y1325056D01*
X1416026Y1329225D01*
X1414810Y1333234D01*
X1412835Y1336929D01*
X1410177Y1340167D01*
X1406939Y1342825D01*
X1403244Y1344800D01*
X1402693Y1344967D01*
X1402883Y1346237D01*
X1505826Y1346128D01*
X1506134Y1344896D01*
X1505113Y1344351D01*
X1501875Y1341693D01*
X1499217Y1338455D01*
X1497242Y1334760D01*
X1496026Y1330751D01*
X1495616Y1326582D01*
X1496026Y1322413D01*
X1497242Y1318404D01*
X1499217Y1314709D01*
X1501875Y1311471D01*
X1505113Y1308813D01*
X1508808Y1306838D01*
X1512817Y1305622D01*
X1516986Y1305212D01*
X1521155Y1305622D01*
X1525164Y1306838D01*
X1528859Y1308813D01*
X1532097Y1311471D01*
X1534755Y1314709D01*
X1536730Y1318404D01*
X1537946Y1322413D01*
X1538356Y1326582D01*
X1537946Y1330751D01*
X1536730Y1334760D01*
X1534755Y1338455D01*
X1532097Y1341693D01*
X1528859Y1344351D01*
X1527882Y1344873D01*
X1528191Y1346105D01*
X1590541Y1346039D01*
X1590886Y1342538D01*
X1592084Y1338588D01*
X1594030Y1334948D01*
X1596649Y1331757D01*
X1599840Y1329138D01*
X1603480Y1327192D01*
X1607430Y1325994D01*
X1611538Y1325590D01*
X1615646Y1325994D01*
X1619596Y1327192D01*
X1623236Y1329138D01*
X1626427Y1331757D01*
X1629046Y1334948D01*
X1630992Y1338588D01*
X1632190Y1342538D01*
X1632530Y1345995D01*
X1910080Y1345703D01*
X1910080Y1304758D01*
X1908810Y1304570D01*
X1908394Y1305939D01*
X1907540Y1307538D01*
X1907540Y1292582D01*
X1908394Y1294180D01*
X1908810Y1295550D01*
X1910080Y1295362D01*
Y1275815D01*
X1908810Y1275363D01*
X1906869Y1277729D01*
X1904154Y1279957D01*
X1901056Y1281613D01*
X1897695Y1282632D01*
X1894200Y1282976D01*
X1890705Y1282632D01*
X1887344Y1281613D01*
X1884246Y1279957D01*
X1881531Y1277729D01*
X1879303Y1275014D01*
X1877648Y1271916D01*
X1876628Y1268555D01*
X1876284Y1265060D01*
X1876628Y1261565D01*
X1877648Y1258204D01*
X1879303Y1255106D01*
X1881531Y1252391D01*
X1884246Y1250163D01*
X1887344Y1248508D01*
X1888374Y1248195D01*
Y1246925D01*
X1887344Y1246612D01*
X1884246Y1244957D01*
X1881531Y1242729D01*
X1879303Y1240014D01*
X1877648Y1236916D01*
X1876628Y1233555D01*
X1876284Y1230060D01*
X1876628Y1226565D01*
X1877648Y1223204D01*
X1879303Y1220106D01*
X1881089Y1217930D01*
X1880488Y1216660D01*
X1861911D01*
X1861311Y1217930D01*
X1863097Y1220106D01*
X1864753Y1223204D01*
X1865772Y1226565D01*
X1866116Y1230060D01*
X1865772Y1233555D01*
X1864753Y1236916D01*
X1863097Y1240014D01*
X1860869Y1242729D01*
X1858154Y1244957D01*
X1855056Y1246612D01*
X1854413Y1246807D01*
Y1248077D01*
X1855336Y1248357D01*
X1858434Y1250013D01*
X1861149Y1252241D01*
X1863377Y1254956D01*
X1865033Y1258054D01*
X1866052Y1261415D01*
X1866396Y1264910D01*
X1866052Y1268405D01*
X1865033Y1271766D01*
X1863377Y1274864D01*
X1861149Y1277579D01*
X1858434Y1279807D01*
X1855336Y1281463D01*
X1851975Y1282482D01*
X1848480Y1282826D01*
X1844985Y1282482D01*
X1841624Y1281463D01*
X1838526Y1279807D01*
X1835811Y1277579D01*
X1833583Y1274864D01*
X1831927Y1271766D01*
X1830908Y1268405D01*
X1830564Y1264910D01*
X1830908Y1261415D01*
X1831927Y1258054D01*
X1833583Y1254956D01*
X1835811Y1252241D01*
X1838526Y1250013D01*
X1841624Y1248357D01*
X1842267Y1248163D01*
Y1246892D01*
X1841344Y1246612D01*
X1838246Y1244957D01*
X1835531Y1242729D01*
X1833303Y1240014D01*
X1831647Y1236916D01*
X1830628Y1233555D01*
X1830284Y1230060D01*
X1830628Y1226565D01*
X1831647Y1223204D01*
X1833303Y1220106D01*
X1835089Y1217930D01*
X1834489Y1216660D01*
X1012033Y1216660D01*
X1011380Y1217749D01*
X1011730Y1218404D01*
X1012946Y1222413D01*
X1013356Y1226582D01*
X1012946Y1230751D01*
X1011730Y1234760D01*
X1009755Y1238455D01*
X1007097Y1241693D01*
X1003859Y1244351D01*
X1000164Y1246326D01*
X996155Y1247542D01*
X991986Y1247952D01*
X987817Y1247542D01*
X983808Y1246326D01*
X980113Y1244351D01*
X976875Y1241693D01*
X974217Y1238455D01*
X972242Y1234760D01*
X971026Y1230751D01*
X970616Y1226582D01*
X971026Y1222413D01*
X972242Y1218404D01*
X972592Y1217749D01*
X971939Y1216660D01*
X891071D01*
X890129Y1217930D01*
X891026Y1220887D01*
X891436Y1225056D01*
X891026Y1229225D01*
X889810Y1233234D01*
X887835Y1236929D01*
X885177Y1240167D01*
X881939Y1242825D01*
X878244Y1244800D01*
X874235Y1246016D01*
X870066Y1246426D01*
X865897Y1246016D01*
X861888Y1244800D01*
X858193Y1242825D01*
X854955Y1240167D01*
X852297Y1236929D01*
X850322Y1233234D01*
X849106Y1229225D01*
X848696Y1225056D01*
X849106Y1220887D01*
X850003Y1217930D01*
X849061Y1216660D01*
X828938D01*
X828040Y1217558D01*
X828040Y1345942D01*
X828939Y1346840D01*
X847935Y1346820D01*
D02*
G37*
G36*
X1915160Y1361440D02*
X1638825D01*
X1638507Y1362710D01*
X1642211Y1364690D01*
X1645866Y1367690D01*
X1648866Y1371345D01*
X1651095Y1375515D01*
X1652468Y1380040D01*
X1652931Y1384746D01*
X1652468Y1389452D01*
X1651095Y1393977D01*
X1648866Y1398147D01*
X1646861Y1400590D01*
X1647412Y1401921D01*
X1650190Y1402194D01*
X1654140Y1403392D01*
X1657780Y1405338D01*
X1660971Y1407957D01*
X1663590Y1411148D01*
X1665536Y1414788D01*
X1666734Y1418738D01*
X1667138Y1422846D01*
X1666734Y1426954D01*
X1665536Y1430904D01*
X1663590Y1434544D01*
X1660971Y1437735D01*
X1657780Y1440354D01*
X1654140Y1442300D01*
X1650190Y1443498D01*
X1646082Y1443902D01*
X1641974Y1443498D01*
X1638024Y1442300D01*
X1634384Y1440354D01*
X1631193Y1437735D01*
X1628574Y1434544D01*
X1626628Y1430904D01*
X1625430Y1426954D01*
X1625026Y1422846D01*
X1625430Y1418738D01*
X1626628Y1414788D01*
X1628574Y1411148D01*
X1629537Y1409975D01*
X1628938Y1408855D01*
X1628810Y1408867D01*
X1624104Y1408404D01*
X1619579Y1407031D01*
X1615409Y1404802D01*
X1611754Y1401802D01*
X1608754Y1398147D01*
X1606525Y1393977D01*
X1605152Y1389452D01*
X1604689Y1384746D01*
X1605152Y1380040D01*
X1606525Y1375515D01*
X1608754Y1371345D01*
X1610759Y1368902D01*
X1610208Y1367571D01*
X1607430Y1367298D01*
X1603480Y1366100D01*
X1599840Y1364154D01*
X1596649Y1361535D01*
X1596571Y1361440D01*
X1353820D01*
Y1554480D01*
X1915160D01*
Y1361440D01*
D02*
G37*
G36*
X1800000Y1684102D02*
X1800000Y1599625D01*
X1799469Y1598979D01*
X1797144Y1594629D01*
X1795712Y1589909D01*
X1795354Y1586270D01*
X1819120D01*
Y1610036D01*
X1815481Y1609678D01*
X1810761Y1608246D01*
X1806411Y1605921D01*
X1802598Y1602792D01*
X1801196Y1601082D01*
X1800000Y1601510D01*
Y1684098D01*
X1800902Y1684992D01*
X1912620Y1684020D01*
Y1565149D01*
X1912260Y1565000D01*
X1891986D01*
X1891558Y1566196D01*
X1892792Y1567208D01*
X1895921Y1571021D01*
X1898246Y1575371D01*
X1899678Y1580091D01*
X1900036Y1583730D01*
X1849964D01*
X1850322Y1580091D01*
X1851754Y1575371D01*
X1854079Y1571021D01*
X1857208Y1567208D01*
X1858442Y1566196D01*
X1858014Y1565000D01*
X1837376D01*
X1836948Y1566196D01*
X1838182Y1567208D01*
X1841311Y1571021D01*
X1843636Y1575371D01*
X1845068Y1580091D01*
X1845426Y1583730D01*
X1795354D01*
X1795712Y1580091D01*
X1797144Y1575371D01*
X1799469Y1571021D01*
X1800000Y1570375D01*
Y1562100D01*
X630898Y1562100D01*
X630000Y1562998D01*
X630000Y1685000D01*
X1799102D01*
X1800000Y1684102D01*
D02*
G37*
%LPC*%
G36*
X991986Y647952D02*
X987817Y647542D01*
X983808Y646326D01*
X980113Y644351D01*
X976875Y641693D01*
X974217Y638455D01*
X972242Y634760D01*
X971026Y630751D01*
X970616Y626582D01*
X971026Y622413D01*
X972242Y618404D01*
X974217Y614709D01*
X976875Y611471D01*
X980113Y608813D01*
X983808Y606838D01*
X987817Y605622D01*
X991986Y605212D01*
X996155Y605622D01*
X1000164Y606838D01*
X1003859Y608813D01*
X1007097Y611471D01*
X1009755Y614709D01*
X1011730Y618404D01*
X1012946Y622413D01*
X1013356Y626582D01*
X1012946Y630751D01*
X1011730Y634760D01*
X1009755Y638455D01*
X1007097Y641693D01*
X1003859Y644351D01*
X1000164Y646326D01*
X996155Y647542D01*
X991986Y647952D01*
D02*
G37*
G36*
X870066Y1066314D02*
X865897Y1065904D01*
X861888Y1064688D01*
X858193Y1062713D01*
X854955Y1060055D01*
X852297Y1056817D01*
X850322Y1053122D01*
X849106Y1049113D01*
X848696Y1044944D01*
X849106Y1040775D01*
X850322Y1036766D01*
X852297Y1033071D01*
X854955Y1029833D01*
X858193Y1027175D01*
X861888Y1025200D01*
X865897Y1023984D01*
X870066Y1023574D01*
X874235Y1023984D01*
X878244Y1025200D01*
X881939Y1027175D01*
X885177Y1029833D01*
X887835Y1033071D01*
X889810Y1036766D01*
X891026Y1040775D01*
X891436Y1044944D01*
X891026Y1049113D01*
X889810Y1053122D01*
X887835Y1056817D01*
X885177Y1060055D01*
X881939Y1062713D01*
X878244Y1064688D01*
X874235Y1065904D01*
X870066Y1066314D01*
D02*
G37*
G36*
X1878250Y1101177D02*
X1874314Y1100789D01*
X1870529Y1099641D01*
X1867040Y1097777D01*
X1863983Y1095267D01*
X1861473Y1092210D01*
X1859609Y1088721D01*
X1858461Y1084936D01*
X1858073Y1081000D01*
X1858461Y1077064D01*
X1859609Y1073279D01*
X1861473Y1069790D01*
X1863983Y1066733D01*
X1867040Y1064223D01*
X1870529Y1062359D01*
X1874314Y1061211D01*
X1878250Y1060823D01*
X1882186Y1061211D01*
X1885972Y1062359D01*
X1889460Y1064223D01*
X1892517Y1066733D01*
X1895027Y1069790D01*
X1896891Y1073279D01*
X1898040Y1077064D01*
X1898427Y1081000D01*
X1898040Y1084936D01*
X1896891Y1088721D01*
X1895027Y1092210D01*
X1892517Y1095267D01*
X1889460Y1097777D01*
X1885972Y1099641D01*
X1882186Y1100789D01*
X1878250Y1101177D01*
D02*
G37*
G36*
X1121082Y1043902D02*
X1116974Y1043498D01*
X1113024Y1042300D01*
X1109384Y1040354D01*
X1106193Y1037735D01*
X1103574Y1034544D01*
X1101628Y1030904D01*
X1100430Y1026954D01*
X1100026Y1022846D01*
X1100430Y1018738D01*
X1101628Y1014788D01*
X1103574Y1011148D01*
X1104537Y1009975D01*
X1103938Y1008855D01*
X1103810Y1008867D01*
X1099104Y1008404D01*
X1094579Y1007031D01*
X1090409Y1004802D01*
X1086754Y1001802D01*
X1083754Y998147D01*
X1081525Y993977D01*
X1080152Y989452D01*
X1079689Y984746D01*
X1080152Y980040D01*
X1081525Y975515D01*
X1083754Y971345D01*
X1085759Y968902D01*
X1085208Y967571D01*
X1082430Y967298D01*
X1078480Y966100D01*
X1074840Y964154D01*
X1071649Y961535D01*
X1069030Y958344D01*
X1067084Y954704D01*
X1065886Y950754D01*
X1065482Y946646D01*
X1065886Y942538D01*
X1067084Y938588D01*
X1069030Y934948D01*
X1071649Y931757D01*
X1074840Y929138D01*
X1078480Y927192D01*
X1082430Y925994D01*
X1086538Y925590D01*
X1090646Y925994D01*
X1094596Y927192D01*
X1098236Y929138D01*
X1101427Y931757D01*
X1104046Y934948D01*
X1105992Y938588D01*
X1107190Y942538D01*
X1107594Y946646D01*
X1107190Y950754D01*
X1105992Y954704D01*
X1104046Y958344D01*
X1103083Y959518D01*
X1103682Y960638D01*
X1103810Y960625D01*
X1108516Y961088D01*
X1113041Y962461D01*
X1117211Y964690D01*
X1120866Y967690D01*
X1123866Y971345D01*
X1126095Y975515D01*
X1127468Y980040D01*
X1127931Y984746D01*
X1127468Y989452D01*
X1126095Y993977D01*
X1123866Y998147D01*
X1121861Y1000590D01*
X1122412Y1001921D01*
X1125190Y1002194D01*
X1129140Y1003392D01*
X1132780Y1005338D01*
X1135971Y1007957D01*
X1138590Y1011148D01*
X1140536Y1014788D01*
X1141734Y1018738D01*
X1142138Y1022846D01*
X1141734Y1026954D01*
X1140536Y1030904D01*
X1138590Y1034544D01*
X1135971Y1037735D01*
X1132780Y1040354D01*
X1129140Y1042300D01*
X1125190Y1043498D01*
X1121082Y1043902D01*
D02*
G37*
G36*
X1516986Y1047952D02*
X1512817Y1047542D01*
X1508808Y1046326D01*
X1505113Y1044351D01*
X1501875Y1041693D01*
X1499217Y1038455D01*
X1497242Y1034760D01*
X1496026Y1030751D01*
X1495616Y1026582D01*
X1496026Y1022413D01*
X1497242Y1018404D01*
X1499217Y1014709D01*
X1501875Y1011471D01*
X1505113Y1008813D01*
X1508808Y1006838D01*
X1512817Y1005622D01*
X1516986Y1005212D01*
X1521155Y1005622D01*
X1525164Y1006838D01*
X1528859Y1008813D01*
X1532097Y1011471D01*
X1534755Y1014709D01*
X1536730Y1018404D01*
X1537946Y1022413D01*
X1538356Y1026582D01*
X1537946Y1030751D01*
X1536730Y1034760D01*
X1534755Y1038455D01*
X1532097Y1041693D01*
X1528859Y1044351D01*
X1525164Y1046326D01*
X1521155Y1047542D01*
X1516986Y1047952D01*
D02*
G37*
G36*
X848730Y683730D02*
X831307D01*
X831544Y681329D01*
X832614Y677799D01*
X834353Y674545D01*
X836694Y671694D01*
X839545Y669353D01*
X842799Y667614D01*
X846329Y666544D01*
X848730Y666307D01*
Y683730D01*
D02*
G37*
G36*
X1300000Y1030870D02*
X1296685Y1030433D01*
X1293595Y1029153D01*
X1290942Y1027118D01*
X1288907Y1024465D01*
X1287627Y1021375D01*
X1287190Y1018060D01*
X1287627Y1014745D01*
X1288907Y1011655D01*
X1290942Y1009002D01*
X1293595Y1006967D01*
X1296685Y1005687D01*
X1300000Y1005250D01*
X1303315Y1005687D01*
X1306405Y1006967D01*
X1309058Y1009002D01*
X1311093Y1011655D01*
X1312373Y1014745D01*
X1312810Y1018060D01*
X1312373Y1021375D01*
X1311093Y1024465D01*
X1309058Y1027118D01*
X1306405Y1029153D01*
X1303315Y1030433D01*
X1300000Y1030870D01*
D02*
G37*
G36*
X1375000Y1106370D02*
X1370831Y1105960D01*
X1366822Y1104744D01*
X1363127Y1102769D01*
X1359889Y1100111D01*
X1357231Y1096873D01*
X1355256Y1093178D01*
X1354040Y1089169D01*
X1353630Y1085000D01*
X1354040Y1080831D01*
X1355256Y1076822D01*
X1357231Y1073127D01*
X1359889Y1069889D01*
X1363127Y1067231D01*
X1366822Y1065256D01*
X1370831Y1064040D01*
X1375000Y1063630D01*
X1379169Y1064040D01*
X1383178Y1065256D01*
X1386873Y1067231D01*
X1390111Y1069889D01*
X1392769Y1073127D01*
X1394744Y1076822D01*
X1395960Y1080831D01*
X1396370Y1085000D01*
X1395960Y1089169D01*
X1394744Y1093178D01*
X1392769Y1096873D01*
X1390111Y1100111D01*
X1386873Y1102769D01*
X1383178Y1104744D01*
X1379169Y1105960D01*
X1375000Y1106370D01*
D02*
G37*
G36*
X1863439Y1193790D02*
X1849470D01*
Y1179821D01*
X1851197Y1179991D01*
X1854079Y1180865D01*
X1856736Y1182285D01*
X1859064Y1184196D01*
X1860975Y1186524D01*
X1862394Y1189181D01*
X1863269Y1192063D01*
X1863439Y1193790D01*
D02*
G37*
G36*
X870066Y646426D02*
X865897Y646016D01*
X861888Y644800D01*
X858193Y642825D01*
X854955Y640167D01*
X852297Y636929D01*
X850322Y633234D01*
X849106Y629225D01*
X848696Y625056D01*
X849106Y620887D01*
X850322Y616878D01*
X852297Y613183D01*
X854955Y609945D01*
X858193Y607287D01*
X861888Y605312D01*
X865897Y604096D01*
X870066Y603686D01*
X874235Y604096D01*
X878244Y605312D01*
X881939Y607287D01*
X885177Y609945D01*
X887835Y613183D01*
X889810Y616878D01*
X891026Y620887D01*
X891436Y625056D01*
X891026Y629225D01*
X889810Y633234D01*
X887835Y636929D01*
X885177Y640167D01*
X881939Y642825D01*
X878244Y644800D01*
X874235Y646016D01*
X870066Y646426D01*
D02*
G37*
G36*
X848730Y1283730D02*
X831307D01*
X831544Y1281329D01*
X832614Y1277799D01*
X834353Y1274545D01*
X836694Y1271694D01*
X839545Y1269353D01*
X842799Y1267614D01*
X846329Y1266544D01*
X848730Y1266307D01*
Y1283730D01*
D02*
G37*
G36*
X1846930Y1193790D02*
X1832961D01*
X1833131Y1192063D01*
X1834005Y1189181D01*
X1835425Y1186524D01*
X1837336Y1184196D01*
X1839664Y1182285D01*
X1842320Y1180865D01*
X1845203Y1179991D01*
X1846930Y1179821D01*
Y1193790D01*
D02*
G37*
G36*
X1646082Y1143902D02*
X1641974Y1143498D01*
X1638024Y1142300D01*
X1634384Y1140354D01*
X1631193Y1137735D01*
X1628574Y1134544D01*
X1626628Y1130904D01*
X1625430Y1126954D01*
X1625026Y1122846D01*
X1625430Y1118738D01*
X1626628Y1114788D01*
X1628574Y1111148D01*
X1629537Y1109975D01*
X1628938Y1108855D01*
X1628810Y1108867D01*
X1624104Y1108404D01*
X1619579Y1107031D01*
X1615409Y1104802D01*
X1611754Y1101802D01*
X1608754Y1098147D01*
X1606525Y1093977D01*
X1605152Y1089452D01*
X1604689Y1084746D01*
X1605152Y1080040D01*
X1606525Y1075515D01*
X1608754Y1071345D01*
X1610759Y1068902D01*
X1610208Y1067571D01*
X1607430Y1067298D01*
X1603480Y1066100D01*
X1599840Y1064154D01*
X1596649Y1061535D01*
X1594030Y1058344D01*
X1592084Y1054704D01*
X1590886Y1050754D01*
X1590482Y1046646D01*
X1590886Y1042538D01*
X1592084Y1038588D01*
X1594030Y1034948D01*
X1596649Y1031757D01*
X1599840Y1029138D01*
X1603480Y1027192D01*
X1607430Y1025994D01*
X1611538Y1025590D01*
X1615646Y1025994D01*
X1619596Y1027192D01*
X1623236Y1029138D01*
X1626427Y1031757D01*
X1629046Y1034948D01*
X1630992Y1038588D01*
X1632190Y1042538D01*
X1632594Y1046646D01*
X1632190Y1050754D01*
X1630992Y1054704D01*
X1629046Y1058344D01*
X1628083Y1059518D01*
X1628682Y1060638D01*
X1628810Y1060625D01*
X1633516Y1061088D01*
X1638041Y1062461D01*
X1642211Y1064690D01*
X1645866Y1067690D01*
X1648866Y1071345D01*
X1651095Y1075515D01*
X1652468Y1080040D01*
X1652931Y1084746D01*
X1652468Y1089452D01*
X1651095Y1093977D01*
X1648866Y1098147D01*
X1646861Y1100590D01*
X1647412Y1101921D01*
X1650190Y1102194D01*
X1654140Y1103392D01*
X1657780Y1105338D01*
X1660971Y1107957D01*
X1663590Y1111148D01*
X1665536Y1114788D01*
X1666734Y1118738D01*
X1667138Y1122846D01*
X1666734Y1126954D01*
X1665536Y1130904D01*
X1663590Y1134544D01*
X1660971Y1137735D01*
X1657780Y1140354D01*
X1654140Y1142300D01*
X1650190Y1143498D01*
X1646082Y1143902D01*
D02*
G37*
G36*
X1395066Y1166314D02*
X1390897Y1165904D01*
X1386888Y1164688D01*
X1383193Y1162713D01*
X1379955Y1160055D01*
X1377297Y1156817D01*
X1375322Y1153122D01*
X1374106Y1149113D01*
X1373696Y1144944D01*
X1374106Y1140775D01*
X1375322Y1136766D01*
X1377297Y1133071D01*
X1379955Y1129833D01*
X1383193Y1127175D01*
X1386888Y1125200D01*
X1390897Y1123984D01*
X1395066Y1123574D01*
X1399235Y1123984D01*
X1403244Y1125200D01*
X1406939Y1127175D01*
X1410177Y1129833D01*
X1412835Y1133071D01*
X1414810Y1136766D01*
X1416026Y1140775D01*
X1416436Y1144944D01*
X1416026Y1149113D01*
X1414810Y1153122D01*
X1412835Y1156817D01*
X1410177Y1160055D01*
X1406939Y1162713D01*
X1403244Y1164688D01*
X1399235Y1165904D01*
X1395066Y1166314D01*
D02*
G37*
G36*
X1909439Y1193790D02*
X1878961D01*
X1879131Y1192063D01*
X1880005Y1189181D01*
X1880759Y1187771D01*
X1880498Y1187381D01*
X1879886Y1186709D01*
X1876750Y1186400D01*
X1873624Y1185452D01*
X1870744Y1183913D01*
X1868219Y1181841D01*
X1866147Y1179316D01*
X1864608Y1176436D01*
X1863660Y1173310D01*
X1863340Y1170060D01*
X1863660Y1166810D01*
X1864608Y1163684D01*
X1866147Y1160804D01*
X1868219Y1158279D01*
X1870744Y1156208D01*
X1873624Y1154668D01*
X1876750Y1153720D01*
X1880000Y1153400D01*
X1883250Y1153720D01*
X1886376Y1154668D01*
X1889256Y1156208D01*
X1891781Y1158279D01*
X1893853Y1160804D01*
X1895392Y1163684D01*
X1896340Y1166810D01*
X1896660Y1170060D01*
X1896340Y1173310D01*
X1895392Y1176436D01*
X1894325Y1178432D01*
X1894325D01*
X1894325D01*
X1886577Y1186180D01*
X1906692D01*
X1906975Y1186524D01*
X1908394Y1189181D01*
X1909269Y1192063D01*
X1909439Y1193790D01*
D02*
G37*
G36*
X1878810Y791877D02*
X1874874Y791489D01*
X1871089Y790341D01*
X1867600Y788477D01*
X1864543Y785967D01*
X1862033Y782910D01*
X1860169Y779421D01*
X1859021Y775636D01*
X1858633Y771700D01*
X1859021Y767764D01*
X1860169Y763979D01*
X1862033Y760490D01*
X1864543Y757433D01*
X1867600Y754923D01*
X1871089Y753059D01*
X1874874Y751911D01*
X1878810Y751523D01*
X1882746Y751911D01*
X1886532Y753059D01*
X1890020Y754923D01*
X1893077Y757433D01*
X1895587Y760490D01*
X1897451Y763979D01*
X1898600Y767764D01*
X1898987Y771700D01*
X1898600Y775636D01*
X1897451Y779421D01*
X1895587Y782910D01*
X1893077Y785967D01*
X1890020Y788477D01*
X1886532Y790341D01*
X1882746Y791489D01*
X1878810Y791877D01*
D02*
G37*
G36*
X1373730Y808730D02*
X1356307D01*
X1356543Y806329D01*
X1357614Y802799D01*
X1359353Y799545D01*
X1361694Y796694D01*
X1364545Y794353D01*
X1367799Y792614D01*
X1371329Y791544D01*
X1373730Y791307D01*
Y808730D01*
D02*
G37*
G36*
X1393693D02*
X1376270D01*
Y791307D01*
X1378671Y791544D01*
X1382201Y792614D01*
X1385455Y794353D01*
X1388306Y796694D01*
X1390647Y799545D01*
X1392386Y802799D01*
X1393457Y806329D01*
X1393693Y808730D01*
D02*
G37*
G36*
X1516986Y772952D02*
X1512817Y772542D01*
X1508808Y771326D01*
X1505113Y769351D01*
X1501875Y766693D01*
X1499217Y763455D01*
X1497242Y759760D01*
X1496026Y755751D01*
X1495616Y751582D01*
X1496026Y747413D01*
X1497242Y743404D01*
X1499217Y739709D01*
X1501875Y736471D01*
X1505113Y733813D01*
X1508808Y731838D01*
X1512817Y730622D01*
X1516986Y730212D01*
X1521155Y730622D01*
X1525164Y731838D01*
X1528859Y733813D01*
X1532097Y736471D01*
X1534755Y739709D01*
X1536730Y743404D01*
X1537946Y747413D01*
X1538356Y751582D01*
X1537946Y755751D01*
X1536730Y759760D01*
X1534755Y763455D01*
X1532097Y766693D01*
X1528859Y769351D01*
X1525164Y771326D01*
X1521155Y772542D01*
X1516986Y772952D01*
D02*
G37*
G36*
X851270Y703693D02*
Y686270D01*
X868693D01*
X868456Y688671D01*
X867386Y692201D01*
X865647Y695455D01*
X863306Y698306D01*
X860455Y700647D01*
X857201Y702386D01*
X853671Y703456D01*
X851270Y703693D01*
D02*
G37*
G36*
X848730D02*
X846329Y703456D01*
X842799Y702386D01*
X839545Y700647D01*
X836694Y698306D01*
X834353Y695455D01*
X832614Y692201D01*
X831544Y688671D01*
X831307Y686270D01*
X848730D01*
Y703693D01*
D02*
G37*
G36*
X1395066Y771426D02*
X1390897Y771016D01*
X1386888Y769800D01*
X1383193Y767825D01*
X1379955Y765167D01*
X1377297Y761929D01*
X1375322Y758234D01*
X1374106Y754225D01*
X1373696Y750056D01*
X1374106Y745887D01*
X1375322Y741878D01*
X1377297Y738183D01*
X1379955Y734945D01*
X1383193Y732287D01*
X1386888Y730312D01*
X1390897Y729096D01*
X1395066Y728686D01*
X1399235Y729096D01*
X1403244Y730312D01*
X1406939Y732287D01*
X1410177Y734945D01*
X1412835Y738183D01*
X1414810Y741878D01*
X1416026Y745887D01*
X1416436Y750056D01*
X1416026Y754225D01*
X1414810Y758234D01*
X1412835Y761929D01*
X1410177Y765167D01*
X1406939Y767825D01*
X1403244Y769800D01*
X1399235Y771016D01*
X1395066Y771426D01*
D02*
G37*
G36*
X1373730Y828693D02*
X1371329Y828456D01*
X1367799Y827386D01*
X1364545Y825647D01*
X1361694Y823306D01*
X1359353Y820455D01*
X1357614Y817201D01*
X1356543Y813671D01*
X1356307Y811270D01*
X1373730D01*
Y828693D01*
D02*
G37*
G36*
X868693Y983730D02*
X851270D01*
Y966307D01*
X853671Y966544D01*
X857201Y967614D01*
X860455Y969353D01*
X863306Y971694D01*
X865647Y974545D01*
X867386Y977799D01*
X868456Y981329D01*
X868693Y983730D01*
D02*
G37*
G36*
X851270Y1003693D02*
Y986270D01*
X868693D01*
X868456Y988671D01*
X867386Y992201D01*
X865647Y995455D01*
X863306Y998306D01*
X860455Y1000647D01*
X857201Y1002386D01*
X853671Y1003456D01*
X851270Y1003693D01*
D02*
G37*
G36*
X1395066Y1046426D02*
X1390897Y1046016D01*
X1386888Y1044800D01*
X1383193Y1042825D01*
X1379955Y1040167D01*
X1377297Y1036929D01*
X1375322Y1033234D01*
X1374106Y1029225D01*
X1373696Y1025056D01*
X1374106Y1020887D01*
X1375322Y1016878D01*
X1377297Y1013183D01*
X1379955Y1009945D01*
X1383193Y1007287D01*
X1386888Y1005312D01*
X1390897Y1004096D01*
X1395066Y1003686D01*
X1399235Y1004096D01*
X1403244Y1005312D01*
X1406939Y1007287D01*
X1410177Y1009945D01*
X1412835Y1013183D01*
X1414810Y1016878D01*
X1416026Y1020887D01*
X1416436Y1025056D01*
X1416026Y1029225D01*
X1414810Y1033234D01*
X1412835Y1036929D01*
X1410177Y1040167D01*
X1406939Y1042825D01*
X1403244Y1044800D01*
X1399235Y1046016D01*
X1395066Y1046426D01*
D02*
G37*
G36*
X868693Y683730D02*
X851270D01*
Y666307D01*
X853671Y666544D01*
X857201Y667614D01*
X860455Y669353D01*
X863306Y671694D01*
X865647Y674545D01*
X867386Y677799D01*
X868456Y681329D01*
X868693Y683730D01*
D02*
G37*
G36*
X1376270Y828693D02*
Y811270D01*
X1393693D01*
X1393457Y813671D01*
X1392386Y817201D01*
X1390647Y820455D01*
X1388306Y823306D01*
X1385455Y825647D01*
X1382201Y827386D01*
X1378671Y828456D01*
X1376270Y828693D01*
D02*
G37*
G36*
X1878250Y863777D02*
X1874314Y863390D01*
X1870529Y862241D01*
X1867040Y860377D01*
X1863983Y857867D01*
X1861473Y854810D01*
X1859609Y851321D01*
X1858461Y847536D01*
X1858073Y843600D01*
X1858461Y839664D01*
X1859609Y835879D01*
X1861473Y832390D01*
X1863983Y829333D01*
X1867040Y826823D01*
X1870529Y824959D01*
X1874314Y823811D01*
X1878250Y823423D01*
X1882186Y823811D01*
X1885972Y824959D01*
X1889460Y826823D01*
X1892517Y829333D01*
X1895027Y832390D01*
X1896891Y835879D01*
X1898040Y839664D01*
X1898427Y843600D01*
X1898040Y847536D01*
X1896891Y851321D01*
X1895027Y854810D01*
X1892517Y857867D01*
X1889460Y860377D01*
X1885972Y862241D01*
X1882186Y863390D01*
X1878250Y863777D01*
D02*
G37*
G36*
X1646082Y868902D02*
X1641974Y868498D01*
X1638024Y867300D01*
X1634384Y865354D01*
X1631193Y862735D01*
X1628574Y859544D01*
X1626628Y855904D01*
X1625430Y851954D01*
X1625026Y847846D01*
X1625430Y843738D01*
X1626628Y839788D01*
X1628574Y836148D01*
X1629537Y834975D01*
X1628938Y833855D01*
X1628810Y833867D01*
X1624104Y833404D01*
X1619579Y832031D01*
X1615409Y829802D01*
X1611754Y826802D01*
X1608754Y823147D01*
X1606525Y818977D01*
X1605152Y814452D01*
X1604689Y809746D01*
X1605152Y805040D01*
X1606525Y800515D01*
X1608754Y796345D01*
X1610759Y793902D01*
X1610208Y792571D01*
X1607430Y792298D01*
X1603480Y791100D01*
X1599840Y789154D01*
X1596649Y786535D01*
X1594030Y783344D01*
X1592084Y779704D01*
X1590886Y775754D01*
X1590482Y771646D01*
X1590886Y767538D01*
X1592084Y763588D01*
X1594030Y759948D01*
X1596649Y756757D01*
X1599840Y754138D01*
X1603480Y752192D01*
X1607430Y750994D01*
X1611538Y750590D01*
X1615646Y750994D01*
X1619596Y752192D01*
X1623236Y754138D01*
X1626427Y756757D01*
X1629046Y759948D01*
X1630992Y763588D01*
X1632190Y767538D01*
X1632594Y771646D01*
X1632190Y775754D01*
X1630992Y779704D01*
X1629046Y783344D01*
X1628083Y784518D01*
X1628682Y785638D01*
X1628810Y785625D01*
X1633516Y786088D01*
X1638041Y787461D01*
X1642211Y789690D01*
X1645866Y792690D01*
X1648866Y796345D01*
X1651095Y800515D01*
X1652468Y805040D01*
X1652931Y809746D01*
X1652468Y814452D01*
X1651095Y818977D01*
X1648866Y823147D01*
X1646861Y825590D01*
X1647412Y826921D01*
X1650190Y827194D01*
X1654140Y828392D01*
X1657780Y830338D01*
X1660971Y832957D01*
X1663590Y836148D01*
X1665536Y839788D01*
X1666734Y843738D01*
X1667138Y847846D01*
X1666734Y851954D01*
X1665536Y855904D01*
X1663590Y859544D01*
X1660971Y862735D01*
X1657780Y865354D01*
X1654140Y867300D01*
X1650190Y868498D01*
X1646082Y868902D01*
D02*
G37*
G36*
X868693Y1283730D02*
X851270D01*
Y1266307D01*
X853671Y1266544D01*
X857201Y1267614D01*
X860455Y1269353D01*
X863306Y1271694D01*
X865647Y1274545D01*
X867386Y1277799D01*
X868456Y1281329D01*
X868693Y1283730D01*
D02*
G37*
G36*
X1900036Y1526580D02*
X1876270D01*
Y1502814D01*
X1879909Y1503172D01*
X1884629Y1504604D01*
X1888979Y1506929D01*
X1892792Y1510058D01*
X1895921Y1513871D01*
X1898246Y1518221D01*
X1899678Y1522941D01*
X1900036Y1526580D01*
D02*
G37*
G36*
X1873730D02*
X1849964D01*
X1850322Y1522941D01*
X1851754Y1518221D01*
X1854079Y1513871D01*
X1857208Y1510058D01*
X1861021Y1506929D01*
X1865371Y1504604D01*
X1870091Y1503172D01*
X1873730Y1502814D01*
Y1526580D01*
D02*
G37*
G36*
X1821660Y1552886D02*
Y1529120D01*
X1845426D01*
X1845068Y1532759D01*
X1843636Y1537479D01*
X1841311Y1541829D01*
X1838182Y1545642D01*
X1834369Y1548771D01*
X1830019Y1551096D01*
X1825299Y1552528D01*
X1821660Y1552886D01*
D02*
G37*
G36*
X1819120D02*
X1815481Y1552528D01*
X1810761Y1551096D01*
X1806411Y1548771D01*
X1802598Y1545642D01*
X1799469Y1541829D01*
X1797144Y1537479D01*
X1795712Y1532759D01*
X1795354Y1529120D01*
X1819120D01*
Y1552886D01*
D02*
G37*
G36*
X1875000Y1498365D02*
X1870672Y1498025D01*
X1866451Y1497011D01*
X1862440Y1495350D01*
X1858739Y1493082D01*
X1855438Y1490262D01*
X1852618Y1486961D01*
X1850350Y1483260D01*
X1848689Y1479249D01*
X1848330Y1477755D01*
X1847060D01*
X1846701Y1479249D01*
X1845040Y1483260D01*
X1842772Y1486961D01*
X1839952Y1490262D01*
X1836651Y1493082D01*
X1832950Y1495350D01*
X1828939Y1497011D01*
X1824718Y1498025D01*
X1820390Y1498365D01*
X1816062Y1498025D01*
X1811841Y1497011D01*
X1807830Y1495350D01*
X1804129Y1493082D01*
X1800828Y1490262D01*
X1798008Y1486961D01*
X1795740Y1483260D01*
X1794079Y1479249D01*
X1793065Y1475028D01*
X1792725Y1470700D01*
X1793065Y1466372D01*
X1794079Y1462151D01*
X1795740Y1458140D01*
X1798008Y1454439D01*
X1800828Y1451138D01*
X1804129Y1448318D01*
X1807830Y1446050D01*
X1811841Y1444389D01*
X1816062Y1443375D01*
X1820390Y1443035D01*
X1824718Y1443375D01*
X1828939Y1444389D01*
X1832950Y1446050D01*
X1836651Y1448318D01*
X1839952Y1451138D01*
X1842772Y1454439D01*
X1845040Y1458140D01*
X1846701Y1462151D01*
X1847060Y1463645D01*
X1848330D01*
X1848689Y1462151D01*
X1850350Y1458140D01*
X1852618Y1454439D01*
X1855438Y1451138D01*
X1858739Y1448318D01*
X1862440Y1446050D01*
X1866451Y1444389D01*
X1870672Y1443375D01*
X1875000Y1443035D01*
X1879328Y1443375D01*
X1883549Y1444389D01*
X1887560Y1446050D01*
X1891261Y1448318D01*
X1894562Y1451138D01*
X1897382Y1454439D01*
X1899650Y1458140D01*
X1901311Y1462151D01*
X1902325Y1466372D01*
X1902665Y1470700D01*
X1902325Y1475028D01*
X1901311Y1479249D01*
X1899650Y1483260D01*
X1897382Y1486961D01*
X1894562Y1490262D01*
X1891261Y1493082D01*
X1887560Y1495350D01*
X1883549Y1497011D01*
X1879328Y1498025D01*
X1875000Y1498365D01*
D02*
G37*
G36*
X1395066Y1466314D02*
X1390897Y1465904D01*
X1386888Y1464688D01*
X1383193Y1462713D01*
X1379955Y1460055D01*
X1377297Y1456817D01*
X1375322Y1453122D01*
X1374106Y1449113D01*
X1373696Y1444944D01*
X1374106Y1440775D01*
X1375322Y1436766D01*
X1377297Y1433071D01*
X1379955Y1429833D01*
X1383193Y1427175D01*
X1386888Y1425200D01*
X1390897Y1423984D01*
X1395066Y1423574D01*
X1399235Y1423984D01*
X1403244Y1425200D01*
X1406939Y1427175D01*
X1410177Y1429833D01*
X1412835Y1433071D01*
X1414810Y1436766D01*
X1416026Y1440775D01*
X1416436Y1444944D01*
X1416026Y1449113D01*
X1414810Y1453122D01*
X1412835Y1456817D01*
X1410177Y1460055D01*
X1406939Y1462713D01*
X1403244Y1464688D01*
X1399235Y1465904D01*
X1395066Y1466314D01*
D02*
G37*
G36*
X1845426Y1526580D02*
X1821660D01*
Y1502814D01*
X1825299Y1503172D01*
X1830019Y1504604D01*
X1834369Y1506929D01*
X1838182Y1510058D01*
X1841311Y1513871D01*
X1843636Y1518221D01*
X1845068Y1522941D01*
X1845426Y1526580D01*
D02*
G37*
G36*
X1819120D02*
X1795354D01*
X1795712Y1522941D01*
X1797144Y1518221D01*
X1799469Y1513871D01*
X1802598Y1510058D01*
X1806411Y1506929D01*
X1810761Y1504604D01*
X1815481Y1503172D01*
X1819120Y1502814D01*
Y1526580D01*
D02*
G37*
G36*
X1873730Y1610036D02*
X1870091Y1609678D01*
X1865371Y1608246D01*
X1861021Y1605921D01*
X1857208Y1602792D01*
X1854079Y1598979D01*
X1851754Y1594629D01*
X1850322Y1589909D01*
X1849964Y1586270D01*
X1873730D01*
Y1610036D01*
D02*
G37*
G36*
X1821660D02*
Y1586270D01*
X1845426D01*
X1845068Y1589909D01*
X1843636Y1594629D01*
X1841311Y1598979D01*
X1838182Y1602792D01*
X1834369Y1605921D01*
X1830019Y1608246D01*
X1825299Y1609678D01*
X1821660Y1610036D01*
D02*
G37*
G36*
X1878250Y1666877D02*
X1874314Y1666490D01*
X1870529Y1665341D01*
X1867040Y1663477D01*
X1863983Y1660967D01*
X1861473Y1657910D01*
X1859609Y1654422D01*
X1858461Y1650636D01*
X1858073Y1646700D01*
X1858461Y1642764D01*
X1859609Y1638978D01*
X1861473Y1635490D01*
X1863983Y1632433D01*
X1867040Y1629923D01*
X1870529Y1628059D01*
X1874314Y1626911D01*
X1878250Y1626523D01*
X1882186Y1626911D01*
X1885972Y1628059D01*
X1889460Y1629923D01*
X1892517Y1632433D01*
X1895027Y1635490D01*
X1896891Y1638978D01*
X1898040Y1642764D01*
X1898427Y1646700D01*
X1898040Y1650636D01*
X1896891Y1654422D01*
X1895027Y1657910D01*
X1892517Y1660967D01*
X1889460Y1663477D01*
X1885972Y1665341D01*
X1882186Y1666490D01*
X1878250Y1666877D01*
D02*
G37*
G36*
X1876270Y1610036D02*
Y1586270D01*
X1900036D01*
X1899678Y1589909D01*
X1898246Y1594629D01*
X1895921Y1598979D01*
X1892792Y1602792D01*
X1888979Y1605921D01*
X1884629Y1608246D01*
X1879909Y1609678D01*
X1876270Y1610036D01*
D02*
G37*
G36*
Y1552886D02*
Y1529120D01*
X1900036D01*
X1899678Y1532759D01*
X1898246Y1537479D01*
X1895921Y1541829D01*
X1892792Y1545642D01*
X1888979Y1548771D01*
X1884629Y1551096D01*
X1879909Y1552528D01*
X1876270Y1552886D01*
D02*
G37*
G36*
X1873730D02*
X1870091Y1552528D01*
X1865371Y1551096D01*
X1861021Y1548771D01*
X1857208Y1545642D01*
X1854079Y1541829D01*
X1851754Y1537479D01*
X1850322Y1532759D01*
X1849964Y1529120D01*
X1873730D01*
Y1552886D01*
D02*
G37*
G36*
X1675380Y1628105D02*
X1671052Y1627765D01*
X1666831Y1626751D01*
X1662820Y1625090D01*
X1659119Y1622822D01*
X1655818Y1620002D01*
X1652998Y1616701D01*
X1650730Y1613000D01*
X1649069Y1608989D01*
X1648055Y1604768D01*
X1647715Y1600440D01*
X1648055Y1596112D01*
X1649069Y1591891D01*
X1650730Y1587880D01*
X1652998Y1584179D01*
X1655818Y1580878D01*
X1659119Y1578058D01*
X1662820Y1575790D01*
X1666831Y1574129D01*
X1671052Y1573115D01*
X1675380Y1572775D01*
X1679708Y1573115D01*
X1683929Y1574129D01*
X1687940Y1575790D01*
X1691641Y1578058D01*
X1694942Y1580878D01*
X1697762Y1584179D01*
X1700030Y1587880D01*
X1701691Y1591891D01*
X1702705Y1596112D01*
X1703045Y1600440D01*
X1702705Y1604768D01*
X1701691Y1608989D01*
X1700030Y1613000D01*
X1697762Y1616701D01*
X1694942Y1620002D01*
X1691641Y1622822D01*
X1687940Y1625090D01*
X1683929Y1626751D01*
X1679708Y1627765D01*
X1675380Y1628105D01*
D02*
G37*
G36*
X668880D02*
X664552Y1627765D01*
X660331Y1626751D01*
X656320Y1625090D01*
X652619Y1622822D01*
X649318Y1620002D01*
X646498Y1616701D01*
X644230Y1613000D01*
X642569Y1608989D01*
X641555Y1604768D01*
X641215Y1600440D01*
X641555Y1596112D01*
X642569Y1591891D01*
X644230Y1587880D01*
X646498Y1584179D01*
X649318Y1580878D01*
X652619Y1578058D01*
X656320Y1575790D01*
X660331Y1574129D01*
X664552Y1573115D01*
X668880Y1572775D01*
X673208Y1573115D01*
X677429Y1574129D01*
X681440Y1575790D01*
X685141Y1578058D01*
X688442Y1580878D01*
X691262Y1584179D01*
X693530Y1587880D01*
X695191Y1591891D01*
X696205Y1596112D01*
X696545Y1600440D01*
X696205Y1604768D01*
X695191Y1608989D01*
X693530Y1613000D01*
X691262Y1616701D01*
X688442Y1620002D01*
X685141Y1622822D01*
X681440Y1625090D01*
X677429Y1626751D01*
X673208Y1627765D01*
X668880Y1628105D01*
D02*
G37*
G36*
X1878250Y1429477D02*
X1874314Y1429089D01*
X1870529Y1427941D01*
X1867040Y1426077D01*
X1863983Y1423567D01*
X1861473Y1420510D01*
X1859609Y1417021D01*
X1858461Y1413236D01*
X1858073Y1409300D01*
X1858461Y1405364D01*
X1859609Y1401579D01*
X1861473Y1398090D01*
X1863983Y1395033D01*
X1867040Y1392523D01*
X1870529Y1390659D01*
X1874314Y1389511D01*
X1878250Y1389123D01*
X1882186Y1389511D01*
X1885972Y1390659D01*
X1889460Y1392523D01*
X1892517Y1395033D01*
X1895027Y1398090D01*
X1896891Y1401579D01*
X1898040Y1405364D01*
X1898427Y1409300D01*
X1898040Y1413236D01*
X1896891Y1417021D01*
X1895027Y1420510D01*
X1892517Y1423567D01*
X1889460Y1426077D01*
X1885972Y1427941D01*
X1882186Y1429089D01*
X1878250Y1429477D01*
D02*
G37*
G36*
X851270Y1303693D02*
Y1286270D01*
X868693D01*
X868456Y1288671D01*
X867386Y1292201D01*
X865647Y1295455D01*
X863306Y1298306D01*
X860455Y1300647D01*
X857201Y1302386D01*
X853671Y1303457D01*
X851270Y1303693D01*
D02*
G37*
G36*
X848730D02*
X846329Y1303457D01*
X842799Y1302386D01*
X839545Y1300647D01*
X836694Y1298306D01*
X834353Y1295455D01*
X832614Y1292201D01*
X831544Y1288671D01*
X831307Y1286270D01*
X848730D01*
Y1303693D01*
D02*
G37*
G36*
X1847210Y1315299D02*
X1845483Y1315129D01*
X1842601Y1314254D01*
X1839944Y1312835D01*
X1837616Y1310924D01*
X1835705Y1308596D01*
X1834285Y1305939D01*
X1833411Y1303057D01*
X1833241Y1301330D01*
X1847210D01*
Y1315299D01*
D02*
G37*
G36*
X1879131Y1298790D02*
X1878961D01*
X1879131Y1297063D01*
Y1298790D01*
D02*
G37*
G36*
X1863719D02*
X1849750D01*
Y1284821D01*
X1851477Y1284991D01*
X1854359Y1285865D01*
X1857016Y1287285D01*
X1859344Y1289196D01*
X1861255Y1291524D01*
X1862675Y1294180D01*
X1863549Y1297063D01*
X1863719Y1298790D01*
D02*
G37*
G36*
X1847210D02*
X1833241D01*
X1833411Y1297063D01*
X1834285Y1294180D01*
X1835705Y1291524D01*
X1837616Y1289196D01*
X1839944Y1287285D01*
X1842601Y1285865D01*
X1845483Y1284991D01*
X1847210Y1284821D01*
Y1298790D01*
D02*
G37*
G36*
X1898017Y1285240D02*
X1895470D01*
Y1284821D01*
X1897197Y1284991D01*
X1898017Y1285240D01*
D02*
G37*
G36*
X1892930D02*
X1890383D01*
X1891203Y1284991D01*
X1892930Y1284821D01*
Y1285240D01*
D02*
G37*
G36*
X1393693Y1383730D02*
X1376270D01*
Y1366307D01*
X1378671Y1366543D01*
X1382201Y1367614D01*
X1385455Y1369353D01*
X1388306Y1371694D01*
X1390647Y1374545D01*
X1392386Y1377799D01*
X1393457Y1381329D01*
X1393693Y1383730D01*
D02*
G37*
G36*
X1373730D02*
X1356307D01*
X1356543Y1381329D01*
X1357614Y1377799D01*
X1359353Y1374545D01*
X1361694Y1371694D01*
X1364545Y1369353D01*
X1367799Y1367614D01*
X1371329Y1366543D01*
X1373730Y1366307D01*
Y1383730D01*
D02*
G37*
G36*
X1376270Y1403693D02*
Y1386270D01*
X1393693D01*
X1393457Y1388671D01*
X1392386Y1392201D01*
X1390647Y1395455D01*
X1388306Y1398306D01*
X1385455Y1400647D01*
X1382201Y1402386D01*
X1378671Y1403457D01*
X1376270Y1403693D01*
D02*
G37*
G36*
X1373730D02*
X1371329Y1403457D01*
X1367799Y1402386D01*
X1364545Y1400647D01*
X1361694Y1398306D01*
X1359353Y1395455D01*
X1357614Y1392201D01*
X1356543Y1388671D01*
X1356307Y1386270D01*
X1373730D01*
Y1403693D01*
D02*
G37*
G36*
X1880000Y1341660D02*
X1876750Y1341340D01*
X1873624Y1340392D01*
X1870744Y1338853D01*
X1868219Y1336781D01*
X1866147Y1334256D01*
X1864608Y1331376D01*
X1863660Y1328250D01*
X1863340Y1325000D01*
X1863660Y1321750D01*
X1864608Y1318624D01*
X1866147Y1315744D01*
X1868219Y1313219D01*
X1870744Y1311147D01*
X1873624Y1309608D01*
X1876750Y1308660D01*
X1879856Y1308354D01*
X1880480Y1307653D01*
X1880725Y1307286D01*
X1880005Y1305939D01*
X1879131Y1303057D01*
X1878961Y1301330D01*
X1879131D01*
Y1302551D01*
X1895474Y1318894D01*
X1896340Y1321750D01*
X1896660Y1325000D01*
X1896340Y1328250D01*
X1895392Y1331376D01*
X1893853Y1334256D01*
X1891781Y1336781D01*
X1889256Y1338853D01*
X1886376Y1340392D01*
X1883250Y1341340D01*
X1880000Y1341660D01*
D02*
G37*
G36*
X1849750Y1315299D02*
Y1301330D01*
X1863719D01*
X1863549Y1303057D01*
X1862675Y1305939D01*
X1861255Y1308596D01*
X1859344Y1310924D01*
X1857016Y1312835D01*
X1854359Y1314254D01*
X1851477Y1315129D01*
X1849750Y1315299D01*
D02*
G37*
G36*
X1121082Y1343902D02*
X1116974Y1343498D01*
X1113024Y1342300D01*
X1109384Y1340354D01*
X1106193Y1337735D01*
X1103574Y1334544D01*
X1101628Y1330904D01*
X1100430Y1326954D01*
X1100026Y1322846D01*
X1100430Y1318738D01*
X1101628Y1314788D01*
X1103574Y1311148D01*
X1104537Y1309975D01*
X1103938Y1308855D01*
X1103810Y1308867D01*
X1099104Y1308404D01*
X1094579Y1307031D01*
X1090409Y1304802D01*
X1086754Y1301802D01*
X1083754Y1298147D01*
X1081525Y1293977D01*
X1080152Y1289452D01*
X1079689Y1284746D01*
X1080152Y1280040D01*
X1081525Y1275515D01*
X1083754Y1271345D01*
X1085759Y1268902D01*
X1085208Y1267571D01*
X1082430Y1267298D01*
X1078480Y1266100D01*
X1074840Y1264154D01*
X1071649Y1261535D01*
X1069030Y1258344D01*
X1067084Y1254704D01*
X1065886Y1250754D01*
X1065482Y1246646D01*
X1065886Y1242538D01*
X1067084Y1238588D01*
X1069030Y1234948D01*
X1071649Y1231757D01*
X1074840Y1229138D01*
X1078480Y1227192D01*
X1082430Y1225994D01*
X1086538Y1225590D01*
X1090646Y1225994D01*
X1094596Y1227192D01*
X1098236Y1229138D01*
X1101427Y1231757D01*
X1104046Y1234948D01*
X1105992Y1238588D01*
X1107190Y1242538D01*
X1107594Y1246646D01*
X1107190Y1250754D01*
X1105992Y1254704D01*
X1104046Y1258344D01*
X1103083Y1259517D01*
X1103682Y1260638D01*
X1103810Y1260625D01*
X1108516Y1261088D01*
X1113041Y1262461D01*
X1117211Y1264690D01*
X1120866Y1267690D01*
X1123866Y1271345D01*
X1126095Y1275515D01*
X1127468Y1280040D01*
X1127931Y1284746D01*
X1127468Y1289452D01*
X1126095Y1293977D01*
X1123866Y1298147D01*
X1121861Y1300590D01*
X1122412Y1301921D01*
X1125190Y1302194D01*
X1129140Y1303392D01*
X1132780Y1305338D01*
X1135971Y1307957D01*
X1138590Y1311148D01*
X1140536Y1314788D01*
X1141734Y1318738D01*
X1142138Y1322846D01*
X1141734Y1326954D01*
X1140536Y1330904D01*
X1138590Y1334544D01*
X1135971Y1337735D01*
X1132780Y1340354D01*
X1129140Y1342300D01*
X1125190Y1343498D01*
X1121082Y1343902D01*
D02*
G37*
G36*
X1300000Y1333130D02*
X1296685Y1332693D01*
X1293595Y1331413D01*
X1290942Y1329378D01*
X1288907Y1326725D01*
X1287627Y1323635D01*
X1287190Y1320320D01*
X1287627Y1317005D01*
X1288907Y1313915D01*
X1290942Y1311262D01*
X1293595Y1309227D01*
X1296685Y1307947D01*
X1300000Y1307510D01*
X1303315Y1307947D01*
X1306405Y1309227D01*
X1309058Y1311262D01*
X1311093Y1313915D01*
X1312373Y1317005D01*
X1312810Y1320320D01*
X1312373Y1323635D01*
X1311093Y1326725D01*
X1309058Y1329378D01*
X1306405Y1331413D01*
X1303315Y1332693D01*
X1300000Y1333130D01*
D02*
G37*
%LPD*%
D11*
X870066Y865066D02*
Y925056D01*
Y865066D02*
X925132Y810000D01*
X1120000D01*
X1230000Y700000D01*
Y412734D02*
Y700000D01*
Y412734D02*
X1282054Y360680D01*
X1869440D01*
X1877060Y302260D02*
X1894840Y320040D01*
Y335280D01*
X1869440Y360680D02*
X1894840Y335280D01*
D20*
X1300000Y743740D02*
D03*
Y444020D02*
D03*
Y1018060D02*
D03*
Y1320320D02*
D03*
D21*
X1877060Y267260D02*
D03*
Y302260D02*
D03*
X1831340D02*
D03*
Y267260D02*
D03*
X1894200Y1300060D02*
D03*
X1848480D02*
D03*
Y1264910D02*
D03*
X1894200Y1265060D02*
D03*
Y1230060D02*
D03*
X1848200D02*
D03*
Y1195060D02*
D03*
X1894200D02*
D03*
D22*
X850000Y985000D02*
D03*
X870066Y925056D02*
D03*
Y1044944D02*
D03*
X991986Y926582D02*
D03*
X850000Y685000D02*
D03*
X870066Y625056D02*
D03*
Y744944D02*
D03*
X991986Y626582D02*
D03*
X1375000Y1085000D02*
D03*
X1395066Y1025056D02*
D03*
Y1144944D02*
D03*
X1516986Y1026582D02*
D03*
X850000Y1285000D02*
D03*
X870066Y1225056D02*
D03*
Y1344944D02*
D03*
X991986Y1226582D02*
D03*
X1375000Y1385000D02*
D03*
X1395066Y1325056D02*
D03*
Y1444944D02*
D03*
X1516986Y1326582D02*
D03*
X1375000Y810000D02*
D03*
X1395066Y750056D02*
D03*
Y869944D02*
D03*
X1516986Y751582D02*
D03*
X1375000Y510000D02*
D03*
X1395066Y450056D02*
D03*
Y569944D02*
D03*
X1516986Y451582D02*
D03*
D23*
X1086538Y946646D02*
D03*
X1121082Y1022846D02*
D03*
X1086538Y646646D02*
D03*
X1121082Y722846D02*
D03*
X1611538Y1046646D02*
D03*
X1646082Y1122846D02*
D03*
X1086538Y1246646D02*
D03*
X1121082Y1322846D02*
D03*
X1611538Y1346646D02*
D03*
X1646082Y1422846D02*
D03*
X1611538Y771646D02*
D03*
X1646082Y847846D02*
D03*
X1648462Y548354D02*
D03*
X1613918Y472154D02*
D03*
D24*
X1875000Y525000D02*
D03*
X1820390D02*
D03*
X1875000Y710000D02*
D03*
X1820390D02*
D03*
X1875000Y1585000D02*
D03*
X1820390D02*
D03*
Y1527850D02*
D03*
X1875000D02*
D03*
Y1470700D02*
D03*
X1820390D02*
D03*
X1875000Y1019300D02*
D03*
X1820390D02*
D03*
Y962150D02*
D03*
X1875000D02*
D03*
Y905000D02*
D03*
X1820390D02*
D03*
D25*
X1375410Y808990D02*
D03*
D26*
X1377950Y1386840D02*
D03*
D27*
X1849120Y1527810D02*
D03*
D28*
X1898650Y967740D02*
D03*
D29*
X1847850Y1299210D02*
D03*
D30*
X850900Y687070D02*
D03*
X853440Y984250D02*
D03*
X850900Y1286510D02*
D03*
D31*
X692500Y1027500D02*
D03*
D32*
X1853807Y1588404D02*
D03*
D33*
X1847474Y1194178D02*
D03*
D34*
X1894840Y1197610D02*
D03*
D35*
X1893570Y1296550D02*
D03*
M02*
