%FSLAX44Y44*%
%MOMM*%
G71*
G01*
G75*
G04 Layer_Physical_Order=4*
G04 Layer_Color=16711680*
%ADD10R,1.7500X2.6500*%
%ADD11C,1.0000*%
%ADD12C,3.0000*%
%ADD13R,22.0000X11.0000*%
%ADD14R,4.3180X4.3180*%
%ADD15R,14.5000X10.5160*%
%ADD16R,14.5000X16.0000*%
%ADD17R,38.5000X6.5000*%
%ADD18R,8.5000X7.3660*%
%ADD19R,9.5000X6.8580*%
%ADD20C,1.5240*%
%ADD21C,2.5500*%
%ADD22C,3.2375*%
%ADD23C,3.1750*%
%ADD24C,4.5000*%
%ADD25R,4.3180X4.8260*%
%ADD26R,4.3180X4.5720*%
%ADD27R,11.1760X5.3340*%
%ADD28R,21.0820X16.2560*%
%ADD29R,3.3020X3.3020*%
%ADD30R,4.5720X4.3180*%
%ADD31R,12.5000X107.5000*%
%ADD32R,11.6906X5.2607*%
%ADD33R,3.7348X2.9724*%
%ADD34R,3.5560X2.2860*%
%ADD35R,3.3020X2.3608*%
%ADD36R,4.0640X3.3020*%
%ADD37R,3.8537X3.0480*%
%ADD38R,5.3340X3.0480*%
%ADD39R,5.5880X3.5560*%
%ADD40R,4.3180X3.5560*%
%ADD41R,4.3180X3.0480*%
%ADD42R,13.2780X8.0000*%
%ADD43R,12.5000X6.3600*%
%ADD44R,4.5720X3.5560*%
G36*
X1790000Y1600509D02*
X1790430D01*
Y1557020D01*
X1915160D01*
Y1381760D01*
X1790430D01*
X1790430Y800100D01*
X1922780D01*
Y624840D01*
X1790430D01*
Y509808D01*
X1788622Y508000D01*
X1656035D01*
X1655182Y508941D01*
X1655311Y510254D01*
X1654848Y514960D01*
X1653475Y519485D01*
X1651246Y523655D01*
X1648246Y527310D01*
X1646467Y528770D01*
D01*
X1640987Y534251D01*
X1635013D01*
X1634912Y534008D01*
X1631190Y534375D01*
X1626484Y533912D01*
X1621959Y532539D01*
X1617789Y530310D01*
X1614134Y527310D01*
X1611134Y523655D01*
X1608905Y519485D01*
X1607532Y514960D01*
X1607069Y510254D01*
X1607198Y508941D01*
X1606345Y508000D01*
X1572070D01*
Y624840D01*
X1275898D01*
X1275000Y625738D01*
Y511810D01*
X1056640D01*
Y1615000D01*
X1650656D01*
X1651277Y1613892D01*
X1650730Y1613000D01*
X1649069Y1608989D01*
X1648055Y1604768D01*
X1647715Y1600440D01*
X1648055Y1596112D01*
X1649069Y1591891D01*
X1650730Y1587880D01*
X1652998Y1584179D01*
X1655818Y1580878D01*
X1659119Y1578058D01*
X1662820Y1575790D01*
X1666831Y1574129D01*
X1671052Y1573115D01*
X1675380Y1572775D01*
X1679708Y1573115D01*
X1683929Y1574129D01*
X1687940Y1575790D01*
X1691641Y1578058D01*
X1694942Y1580878D01*
X1697762Y1584179D01*
X1700030Y1587880D01*
X1701691Y1591891D01*
X1702705Y1596112D01*
X1703045Y1600440D01*
X1702705Y1604768D01*
X1701691Y1608989D01*
X1700030Y1613000D01*
X1699483Y1613892D01*
X1700104Y1615000D01*
X1790000D01*
Y1600509D01*
D02*
G37*
%LPC*%
G36*
X1628810Y833867D02*
X1624104Y833404D01*
X1619579Y832031D01*
X1615409Y829802D01*
X1611754Y826802D01*
X1608754Y823147D01*
X1606525Y818977D01*
X1605152Y814452D01*
X1604689Y809746D01*
X1605152Y805040D01*
X1606525Y800515D01*
X1608754Y796345D01*
X1610759Y793902D01*
X1610208Y792571D01*
X1607430Y792298D01*
X1603480Y791100D01*
X1599840Y789154D01*
X1596649Y786535D01*
X1594030Y783344D01*
X1592084Y779704D01*
X1590886Y775754D01*
X1590482Y771646D01*
X1590886Y767538D01*
X1592084Y763588D01*
X1594030Y759948D01*
X1596649Y756757D01*
X1599840Y754138D01*
X1603480Y752192D01*
X1607430Y750994D01*
X1611538Y750590D01*
X1615646Y750994D01*
X1619596Y752192D01*
X1623236Y754138D01*
X1626427Y756757D01*
X1629046Y759948D01*
X1630992Y763588D01*
X1632190Y767538D01*
X1632594Y771646D01*
X1632190Y775754D01*
X1630992Y779704D01*
X1629046Y783344D01*
X1628083Y784518D01*
X1628682Y785638D01*
X1628810Y785625D01*
X1633516Y786088D01*
X1638041Y787461D01*
X1642211Y789690D01*
X1645866Y792690D01*
X1648866Y796345D01*
X1651095Y800515D01*
X1652468Y805040D01*
X1652931Y809746D01*
X1652468Y814452D01*
X1651095Y818977D01*
X1648866Y823147D01*
X1645866Y826802D01*
X1644087Y828262D01*
D01*
X1638607Y833743D01*
X1632633D01*
X1632532Y833501D01*
X1628810Y833867D01*
D02*
G37*
G36*
X1878810Y791877D02*
X1874874Y791489D01*
X1871089Y790341D01*
X1867600Y788477D01*
X1864543Y785967D01*
X1862033Y782910D01*
X1860169Y779421D01*
X1859021Y775636D01*
X1858633Y771700D01*
X1859021Y767764D01*
X1860169Y763979D01*
X1862033Y760490D01*
X1864543Y757433D01*
X1867600Y754923D01*
X1871089Y753059D01*
X1874874Y751911D01*
X1878810Y751523D01*
X1882746Y751911D01*
X1886532Y753059D01*
X1890020Y754923D01*
X1893077Y757433D01*
X1895587Y760490D01*
X1897451Y763979D01*
X1898600Y767764D01*
X1898987Y771700D01*
X1898600Y775636D01*
X1897451Y779421D01*
X1895587Y782910D01*
X1893077Y785967D01*
X1890020Y788477D01*
X1886532Y790341D01*
X1882746Y791489D01*
X1878810Y791877D01*
D02*
G37*
G36*
X1644812Y846576D02*
X1627703D01*
X1627933Y844236D01*
X1628986Y840765D01*
X1630696Y837566D01*
X1632272Y835646D01*
X1632198Y843502D01*
X1644812D01*
Y846576D01*
D02*
G37*
G36*
X1375000Y831370D02*
X1370831Y830960D01*
X1366822Y829744D01*
X1363127Y827769D01*
X1359889Y825111D01*
X1357231Y821873D01*
X1355256Y818178D01*
X1354040Y814169D01*
X1353630Y810000D01*
X1354040Y805831D01*
X1355256Y801822D01*
X1357231Y798127D01*
X1359889Y794889D01*
X1363127Y792231D01*
X1366822Y790256D01*
X1370831Y789040D01*
X1375000Y788630D01*
X1379169Y789040D01*
X1383178Y790256D01*
X1386873Y792231D01*
X1390111Y794889D01*
X1392769Y798127D01*
X1394744Y801822D01*
X1395960Y805831D01*
X1396370Y810000D01*
X1395960Y814169D01*
X1394744Y818178D01*
X1392769Y821873D01*
X1390111Y825111D01*
X1386873Y827769D01*
X1383178Y829744D01*
X1379169Y830960D01*
X1375000Y831370D01*
D02*
G37*
G36*
X1395066Y771426D02*
X1390897Y771016D01*
X1386888Y769800D01*
X1383193Y767825D01*
X1379955Y765167D01*
X1377297Y761929D01*
X1375322Y758234D01*
X1374106Y754225D01*
X1373696Y750056D01*
X1374106Y745887D01*
X1375322Y741878D01*
X1377297Y738183D01*
X1379955Y734945D01*
X1383193Y732287D01*
X1386888Y730312D01*
X1390897Y729096D01*
X1395066Y728686D01*
X1399235Y729096D01*
X1403244Y730312D01*
X1406939Y732287D01*
X1410177Y734945D01*
X1412835Y738183D01*
X1414810Y741878D01*
X1416026Y745887D01*
X1416436Y750056D01*
X1416026Y754225D01*
X1414810Y758234D01*
X1412835Y761929D01*
X1410177Y765167D01*
X1406939Y767825D01*
X1403244Y769800D01*
X1399235Y771016D01*
X1395066Y771426D01*
D02*
G37*
G36*
X1122352Y741225D02*
Y724116D01*
X1139461D01*
X1139231Y726456D01*
X1138178Y729927D01*
X1136468Y733126D01*
X1134166Y735930D01*
X1131362Y738232D01*
X1128163Y739942D01*
X1124692Y740995D01*
X1122352Y741225D01*
D02*
G37*
G36*
X1300000Y756550D02*
X1296685Y756113D01*
X1293595Y754833D01*
X1290942Y752798D01*
X1288907Y750145D01*
X1287627Y747055D01*
X1287190Y743740D01*
X1287627Y740425D01*
X1288907Y737335D01*
X1290942Y734682D01*
X1293595Y732647D01*
X1296685Y731367D01*
X1300000Y730930D01*
X1303315Y731367D01*
X1306405Y732647D01*
X1309058Y734682D01*
X1311093Y737335D01*
X1312373Y740425D01*
X1312810Y743740D01*
X1312373Y747055D01*
X1311093Y750145D01*
X1309058Y752798D01*
X1306405Y754833D01*
X1303315Y756113D01*
X1300000Y756550D01*
D02*
G37*
G36*
X1516986Y772952D02*
X1512817Y772542D01*
X1508808Y771326D01*
X1505113Y769351D01*
X1501875Y766693D01*
X1499217Y763455D01*
X1497242Y759760D01*
X1496026Y755751D01*
X1495616Y751582D01*
X1496026Y747413D01*
X1497242Y743404D01*
X1499217Y739709D01*
X1501875Y736471D01*
X1505113Y733813D01*
X1508808Y731838D01*
X1512817Y730622D01*
X1516986Y730212D01*
X1521155Y730622D01*
X1525164Y731838D01*
X1528859Y733813D01*
X1532097Y736471D01*
X1534755Y739709D01*
X1536730Y743404D01*
X1537946Y747413D01*
X1538356Y751582D01*
X1537946Y755751D01*
X1536730Y759760D01*
X1534755Y763455D01*
X1532097Y766693D01*
X1528859Y769351D01*
X1525164Y771326D01*
X1521155Y772542D01*
X1516986Y772952D01*
D02*
G37*
G36*
X1664461Y846576D02*
X1647352D01*
Y843502D01*
X1660138D01*
Y835945D01*
X1661468Y837566D01*
X1663178Y840765D01*
X1664231Y844236D01*
X1664461Y846576D01*
D02*
G37*
G36*
X1516986Y1047952D02*
X1512817Y1047542D01*
X1508808Y1046326D01*
X1505113Y1044351D01*
X1501875Y1041693D01*
X1499217Y1038455D01*
X1497242Y1034760D01*
X1496026Y1030751D01*
X1495616Y1026582D01*
X1496026Y1022413D01*
X1497242Y1018404D01*
X1499217Y1014709D01*
X1501875Y1011471D01*
X1505113Y1008813D01*
X1508808Y1006838D01*
X1512817Y1005622D01*
X1516986Y1005212D01*
X1521155Y1005622D01*
X1525164Y1006838D01*
X1528859Y1008813D01*
X1532097Y1011471D01*
X1534755Y1014709D01*
X1536730Y1018404D01*
X1537946Y1022413D01*
X1538356Y1026582D01*
X1537946Y1030751D01*
X1536730Y1034760D01*
X1534755Y1038455D01*
X1532097Y1041693D01*
X1528859Y1044351D01*
X1525164Y1046326D01*
X1521155Y1047542D01*
X1516986Y1047952D01*
D02*
G37*
G36*
X1395066Y1046426D02*
X1390897Y1046016D01*
X1386888Y1044800D01*
X1383193Y1042825D01*
X1379955Y1040167D01*
X1377297Y1036929D01*
X1375322Y1033234D01*
X1374106Y1029225D01*
X1373696Y1025056D01*
X1374106Y1020887D01*
X1375322Y1016878D01*
X1377297Y1013183D01*
X1379955Y1009945D01*
X1383193Y1007287D01*
X1386888Y1005312D01*
X1390897Y1004096D01*
X1395066Y1003686D01*
X1399235Y1004096D01*
X1403244Y1005312D01*
X1406939Y1007287D01*
X1410177Y1009945D01*
X1412835Y1013183D01*
X1414810Y1016878D01*
X1416026Y1020887D01*
X1416436Y1025056D01*
X1416026Y1029225D01*
X1414810Y1033234D01*
X1412835Y1036929D01*
X1410177Y1040167D01*
X1406939Y1042825D01*
X1403244Y1044800D01*
X1399235Y1046016D01*
X1395066Y1046426D01*
D02*
G37*
G36*
X1119812Y1021576D02*
X1102703D01*
X1102934Y1019236D01*
X1103986Y1015765D01*
X1105696Y1012566D01*
X1107272Y1010646D01*
X1107198Y1018502D01*
X1119812D01*
Y1021576D01*
D02*
G37*
G36*
X1300000Y1030870D02*
X1296685Y1030433D01*
X1293595Y1029153D01*
X1290942Y1027118D01*
X1288907Y1024465D01*
X1287627Y1021375D01*
X1287190Y1018060D01*
X1287627Y1014745D01*
X1288907Y1011655D01*
X1290942Y1009002D01*
X1293595Y1006967D01*
X1296685Y1005687D01*
X1300000Y1005250D01*
X1303315Y1005687D01*
X1306405Y1006967D01*
X1309058Y1009002D01*
X1311093Y1011655D01*
X1312373Y1014745D01*
X1312810Y1018060D01*
X1312373Y1021375D01*
X1311093Y1024465D01*
X1309058Y1027118D01*
X1306405Y1029153D01*
X1303315Y1030433D01*
X1300000Y1030870D01*
D02*
G37*
G36*
X1644812Y866225D02*
X1642472Y865995D01*
X1639001Y864942D01*
X1635802Y863232D01*
X1632998Y860930D01*
X1630696Y858126D01*
X1628986Y854927D01*
X1627933Y851456D01*
X1627703Y849116D01*
X1644812D01*
Y866225D01*
D02*
G37*
G36*
X1395066Y891314D02*
X1390897Y890904D01*
X1386888Y889688D01*
X1383193Y887713D01*
X1379955Y885055D01*
X1377297Y881817D01*
X1375322Y878122D01*
X1374106Y874113D01*
X1373696Y869944D01*
X1374106Y865775D01*
X1375322Y861766D01*
X1377297Y858071D01*
X1379955Y854833D01*
X1383193Y852175D01*
X1386888Y850200D01*
X1390897Y848984D01*
X1395066Y848574D01*
X1399235Y848984D01*
X1403244Y850200D01*
X1406939Y852175D01*
X1410177Y854833D01*
X1412835Y858071D01*
X1414810Y861766D01*
X1416026Y865775D01*
X1416436Y869944D01*
X1416026Y874113D01*
X1414810Y878122D01*
X1412835Y881817D01*
X1410177Y885055D01*
X1406939Y887713D01*
X1403244Y889688D01*
X1399235Y890904D01*
X1395066Y891314D01*
D02*
G37*
G36*
X1103810Y1008867D02*
X1099104Y1008404D01*
X1094579Y1007031D01*
X1090409Y1004802D01*
X1086754Y1001802D01*
X1083754Y998147D01*
X1081525Y993977D01*
X1080152Y989452D01*
X1079689Y984746D01*
X1080152Y980040D01*
X1081525Y975515D01*
X1083754Y971345D01*
X1085759Y968902D01*
X1085208Y967571D01*
X1082430Y967298D01*
X1078480Y966100D01*
X1074840Y964154D01*
X1071649Y961535D01*
X1069030Y958344D01*
X1067084Y954704D01*
X1065886Y950754D01*
X1065482Y946646D01*
X1065886Y942538D01*
X1067084Y938588D01*
X1069030Y934948D01*
X1071649Y931757D01*
X1074840Y929138D01*
X1078480Y927192D01*
X1082430Y925994D01*
X1086538Y925590D01*
X1090646Y925994D01*
X1094596Y927192D01*
X1098236Y929138D01*
X1101427Y931757D01*
X1104046Y934948D01*
X1105992Y938588D01*
X1107190Y942538D01*
X1107594Y946646D01*
X1107190Y950754D01*
X1105992Y954704D01*
X1104046Y958344D01*
X1103083Y959518D01*
X1103682Y960638D01*
X1103810Y960625D01*
X1108516Y961088D01*
X1113041Y962461D01*
X1117211Y964690D01*
X1120866Y967690D01*
X1123866Y971345D01*
X1126095Y975515D01*
X1127468Y980040D01*
X1127931Y984746D01*
X1127468Y989452D01*
X1126095Y993977D01*
X1123866Y998147D01*
X1120866Y1001802D01*
X1119087Y1003262D01*
D01*
X1113607Y1008743D01*
X1107633D01*
X1107532Y1008501D01*
X1103810Y1008867D01*
D02*
G37*
G36*
X1647352Y866225D02*
Y849116D01*
X1664461D01*
X1664231Y851456D01*
X1663178Y854927D01*
X1661468Y858126D01*
X1659166Y860930D01*
X1656362Y863232D01*
X1653163Y864942D01*
X1649692Y865995D01*
X1647352Y866225D01*
D02*
G37*
G36*
X1103810Y708867D02*
X1099104Y708404D01*
X1094579Y707031D01*
X1090409Y704802D01*
X1086754Y701802D01*
X1083754Y698147D01*
X1081525Y693977D01*
X1080152Y689452D01*
X1079689Y684746D01*
X1080152Y680040D01*
X1081525Y675515D01*
X1083754Y671345D01*
X1085759Y668902D01*
X1085208Y667571D01*
X1082430Y667298D01*
X1078480Y666100D01*
X1074840Y664154D01*
X1071649Y661535D01*
X1069030Y658344D01*
X1067084Y654704D01*
X1065886Y650754D01*
X1065482Y646646D01*
X1065886Y642538D01*
X1067084Y638588D01*
X1069030Y634948D01*
X1071649Y631757D01*
X1074840Y629138D01*
X1078480Y627192D01*
X1082430Y625994D01*
X1086538Y625590D01*
X1090646Y625994D01*
X1094596Y627192D01*
X1098236Y629138D01*
X1101427Y631757D01*
X1104046Y634948D01*
X1105992Y638588D01*
X1107190Y642538D01*
X1107594Y646646D01*
X1107190Y650754D01*
X1105992Y654704D01*
X1104046Y658344D01*
X1103083Y659518D01*
X1103682Y660638D01*
X1103810Y660625D01*
X1108516Y661088D01*
X1113041Y662461D01*
X1117211Y664690D01*
X1120866Y667690D01*
X1123866Y671345D01*
X1126095Y675515D01*
X1127468Y680040D01*
X1127931Y684746D01*
X1127468Y689452D01*
X1126095Y693977D01*
X1123866Y698147D01*
X1120866Y701802D01*
X1119087Y703262D01*
D01*
X1113607Y708743D01*
X1107633D01*
X1107532Y708501D01*
X1103810Y708867D01*
D02*
G37*
G36*
X1878250Y668477D02*
X1874314Y668089D01*
X1870529Y666941D01*
X1867040Y665077D01*
X1863983Y662567D01*
X1861473Y659510D01*
X1859609Y656021D01*
X1858461Y652236D01*
X1858073Y648300D01*
X1858461Y644364D01*
X1859609Y640579D01*
X1861473Y637090D01*
X1863983Y634033D01*
X1867040Y631523D01*
X1870529Y629659D01*
X1874314Y628511D01*
X1878250Y628123D01*
X1882186Y628511D01*
X1885972Y629659D01*
X1889460Y631523D01*
X1892517Y634033D01*
X1895027Y637090D01*
X1896891Y640579D01*
X1898040Y644364D01*
X1898427Y648300D01*
X1898040Y652236D01*
X1896891Y656021D01*
X1895027Y659510D01*
X1892517Y662567D01*
X1889460Y665077D01*
X1885972Y666941D01*
X1882186Y668089D01*
X1878250Y668477D01*
D02*
G37*
G36*
X1845426Y708730D02*
X1821660D01*
Y684964D01*
X1825299Y685322D01*
X1830019Y686754D01*
X1834369Y689079D01*
X1838182Y692208D01*
X1841311Y696021D01*
X1843636Y700371D01*
X1845068Y705091D01*
X1845426Y708730D01*
D02*
G37*
G36*
X1819120D02*
X1795354D01*
X1795712Y705091D01*
X1797144Y700371D01*
X1799469Y696021D01*
X1802598Y692208D01*
X1806411Y689079D01*
X1810761Y686754D01*
X1815481Y685322D01*
X1819120Y684964D01*
Y708730D01*
D02*
G37*
G36*
X1666841Y547084D02*
X1649732D01*
Y544010D01*
X1662518D01*
Y536453D01*
X1663848Y538074D01*
X1665558Y541273D01*
X1666611Y544744D01*
X1666841Y547084D01*
D02*
G37*
G36*
X1647192D02*
X1630083D01*
X1630314Y544744D01*
X1631366Y541273D01*
X1633076Y538074D01*
X1634652Y536154D01*
X1634578Y544010D01*
X1647192D01*
Y547084D01*
D02*
G37*
G36*
X1649732Y566733D02*
Y549624D01*
X1666841D01*
X1666611Y551964D01*
X1665558Y555435D01*
X1663848Y558634D01*
X1661546Y561438D01*
X1658742Y563740D01*
X1655543Y565450D01*
X1652072Y566502D01*
X1649732Y566733D01*
D02*
G37*
G36*
X1647192D02*
X1644852Y566502D01*
X1641381Y565450D01*
X1638182Y563740D01*
X1635378Y561438D01*
X1633076Y558634D01*
X1631366Y555435D01*
X1630314Y551964D01*
X1630083Y549624D01*
X1647192D01*
Y566733D01*
D02*
G37*
G36*
X1873730Y708730D02*
X1849964D01*
X1850322Y705091D01*
X1851754Y700371D01*
X1854079Y696021D01*
X1857208Y692208D01*
X1861021Y689079D01*
X1865371Y686754D01*
X1870091Y685322D01*
X1873730Y684964D01*
Y708730D01*
D02*
G37*
G36*
Y735036D02*
X1870091Y734678D01*
X1865371Y733246D01*
X1861021Y730921D01*
X1857208Y727792D01*
X1854079Y723979D01*
X1851754Y719629D01*
X1850322Y714909D01*
X1849964Y711270D01*
X1873730D01*
Y735036D01*
D02*
G37*
G36*
X1821660D02*
Y711270D01*
X1845426D01*
X1845068Y714909D01*
X1843636Y719629D01*
X1841311Y723979D01*
X1838182Y727792D01*
X1834369Y730921D01*
X1830019Y733246D01*
X1825299Y734678D01*
X1821660Y735036D01*
D02*
G37*
G36*
X1119812Y741225D02*
X1117472Y740995D01*
X1114001Y739942D01*
X1110802Y738232D01*
X1107998Y735930D01*
X1105696Y733126D01*
X1103986Y729927D01*
X1102934Y726456D01*
X1102703Y724116D01*
X1119812D01*
Y741225D01*
D02*
G37*
G36*
X1876270Y735036D02*
Y711270D01*
X1900036D01*
X1899678Y714909D01*
X1898246Y719629D01*
X1895921Y723979D01*
X1892792Y727792D01*
X1888979Y730921D01*
X1884629Y733246D01*
X1879909Y734678D01*
X1876270Y735036D01*
D02*
G37*
G36*
X1119812Y721576D02*
X1102703D01*
X1102934Y719236D01*
X1103986Y715765D01*
X1105696Y712566D01*
X1107272Y710646D01*
X1107198Y718502D01*
X1119812D01*
Y721576D01*
D02*
G37*
G36*
X1900036Y708730D02*
X1876270D01*
Y684964D01*
X1879909Y685322D01*
X1884629Y686754D01*
X1888979Y689079D01*
X1892792Y692208D01*
X1895921Y696021D01*
X1898246Y700371D01*
X1899678Y705091D01*
X1900036Y708730D01*
D02*
G37*
G36*
X1819120Y735036D02*
X1815481Y734678D01*
X1810761Y733246D01*
X1806411Y730921D01*
X1802598Y727792D01*
X1799469Y723979D01*
X1797144Y719629D01*
X1795712Y714909D01*
X1795354Y711270D01*
X1819120D01*
Y735036D01*
D02*
G37*
G36*
X1139461Y721576D02*
X1122352D01*
Y718502D01*
X1135138D01*
Y710945D01*
X1136468Y712566D01*
X1138178Y715765D01*
X1139231Y719236D01*
X1139461Y721576D01*
D02*
G37*
G36*
Y1021576D02*
X1122352D01*
Y1018502D01*
X1135138D01*
Y1010945D01*
X1136468Y1012566D01*
X1138178Y1015765D01*
X1139231Y1019236D01*
X1139461Y1021576D01*
D02*
G37*
G36*
X1395066Y1466314D02*
X1390897Y1465904D01*
X1386888Y1464688D01*
X1383193Y1462713D01*
X1379955Y1460055D01*
X1377297Y1456817D01*
X1375322Y1453122D01*
X1374106Y1449113D01*
X1373696Y1444944D01*
X1374106Y1440775D01*
X1375322Y1436766D01*
X1377297Y1433071D01*
X1379955Y1429833D01*
X1383193Y1427175D01*
X1386888Y1425200D01*
X1390897Y1423984D01*
X1395066Y1423574D01*
X1399235Y1423984D01*
X1403244Y1425200D01*
X1406939Y1427175D01*
X1410177Y1429833D01*
X1412835Y1433071D01*
X1414810Y1436766D01*
X1416026Y1440775D01*
X1416436Y1444944D01*
X1416026Y1449113D01*
X1414810Y1453122D01*
X1412835Y1456817D01*
X1410177Y1460055D01*
X1406939Y1462713D01*
X1403244Y1464688D01*
X1399235Y1465904D01*
X1395066Y1466314D01*
D02*
G37*
G36*
X1664461Y1421576D02*
X1647352D01*
Y1418502D01*
X1660138D01*
Y1410945D01*
X1661468Y1412566D01*
X1663178Y1415765D01*
X1664231Y1419236D01*
X1664461Y1421576D01*
D02*
G37*
G36*
X1647352Y1441225D02*
Y1424116D01*
X1664461D01*
X1664231Y1426456D01*
X1663178Y1429927D01*
X1661468Y1433126D01*
X1659166Y1435930D01*
X1656362Y1438232D01*
X1653163Y1439942D01*
X1649692Y1440995D01*
X1647352Y1441225D01*
D02*
G37*
G36*
X1644812D02*
X1642472Y1440995D01*
X1639001Y1439942D01*
X1635802Y1438232D01*
X1632998Y1435930D01*
X1630696Y1433126D01*
X1628986Y1429927D01*
X1627933Y1426456D01*
X1627703Y1424116D01*
X1644812D01*
Y1441225D01*
D02*
G37*
G36*
X1375000Y1406370D02*
X1370831Y1405960D01*
X1366822Y1404744D01*
X1363127Y1402769D01*
X1359889Y1400111D01*
X1357231Y1396873D01*
X1355256Y1393178D01*
X1354040Y1389169D01*
X1353630Y1385000D01*
X1354040Y1380831D01*
X1355256Y1376822D01*
X1357231Y1373127D01*
X1359889Y1369889D01*
X1363127Y1367231D01*
X1366822Y1365256D01*
X1370831Y1364040D01*
X1375000Y1363630D01*
X1379169Y1364040D01*
X1383178Y1365256D01*
X1386873Y1367231D01*
X1390111Y1369889D01*
X1392769Y1373127D01*
X1394744Y1376822D01*
X1395960Y1380831D01*
X1396370Y1385000D01*
X1395960Y1389169D01*
X1394744Y1393178D01*
X1392769Y1396873D01*
X1390111Y1400111D01*
X1386873Y1402769D01*
X1383178Y1404744D01*
X1379169Y1405960D01*
X1375000Y1406370D01*
D02*
G37*
G36*
X1628810Y1408867D02*
X1624104Y1408404D01*
X1619579Y1407031D01*
X1615409Y1404802D01*
X1611754Y1401802D01*
X1608754Y1398147D01*
X1606525Y1393977D01*
X1605152Y1389452D01*
X1604689Y1384746D01*
X1605152Y1380040D01*
X1606525Y1375515D01*
X1608754Y1371345D01*
X1610759Y1368902D01*
X1610208Y1367571D01*
X1607430Y1367298D01*
X1603480Y1366100D01*
X1599840Y1364154D01*
X1596649Y1361535D01*
X1594030Y1358344D01*
X1592084Y1354704D01*
X1590886Y1350754D01*
X1590482Y1346646D01*
X1590886Y1342538D01*
X1592084Y1338588D01*
X1594030Y1334948D01*
X1596649Y1331757D01*
X1599840Y1329138D01*
X1603480Y1327192D01*
X1607430Y1325994D01*
X1611538Y1325590D01*
X1615646Y1325994D01*
X1619596Y1327192D01*
X1623236Y1329138D01*
X1626427Y1331757D01*
X1629046Y1334948D01*
X1630992Y1338588D01*
X1632190Y1342538D01*
X1632594Y1346646D01*
X1632190Y1350754D01*
X1630992Y1354704D01*
X1629046Y1358344D01*
X1628083Y1359517D01*
X1628682Y1360638D01*
X1628810Y1360625D01*
X1633516Y1361088D01*
X1638041Y1362461D01*
X1642211Y1364690D01*
X1645866Y1367690D01*
X1648866Y1371345D01*
X1651095Y1375515D01*
X1652468Y1380040D01*
X1652931Y1384746D01*
X1652468Y1389452D01*
X1651095Y1393977D01*
X1648866Y1398147D01*
X1645866Y1401802D01*
X1644087Y1403262D01*
D01*
X1638607Y1408743D01*
X1632633D01*
X1632532Y1408501D01*
X1628810Y1408867D01*
D02*
G37*
G36*
X1644812Y1421576D02*
X1627703D01*
X1627933Y1419236D01*
X1628986Y1415765D01*
X1630696Y1412566D01*
X1632272Y1410646D01*
X1632198Y1418502D01*
X1644812D01*
Y1421576D01*
D02*
G37*
G36*
X1878250Y1429477D02*
X1874314Y1429089D01*
X1870529Y1427941D01*
X1867040Y1426077D01*
X1863983Y1423567D01*
X1861473Y1420510D01*
X1859609Y1417021D01*
X1858461Y1413236D01*
X1858073Y1409300D01*
X1858461Y1405364D01*
X1859609Y1401579D01*
X1861473Y1398090D01*
X1863983Y1395033D01*
X1867040Y1392523D01*
X1870529Y1390659D01*
X1874314Y1389511D01*
X1878250Y1389123D01*
X1882186Y1389511D01*
X1885972Y1390659D01*
X1889460Y1392523D01*
X1892517Y1395033D01*
X1895027Y1398090D01*
X1896891Y1401579D01*
X1898040Y1405364D01*
X1898427Y1409300D01*
X1898040Y1413236D01*
X1896891Y1417021D01*
X1895027Y1420510D01*
X1892517Y1423567D01*
X1889460Y1426077D01*
X1885972Y1427941D01*
X1882186Y1429089D01*
X1878250Y1429477D01*
D02*
G37*
G36*
X1819120Y1469430D02*
X1795354D01*
X1795712Y1465791D01*
X1797144Y1461071D01*
X1799469Y1456721D01*
X1802598Y1452908D01*
X1806411Y1449779D01*
X1810761Y1447454D01*
X1815481Y1446022D01*
X1819120Y1445664D01*
Y1469430D01*
D02*
G37*
G36*
X1873730Y1495736D02*
X1870091Y1495378D01*
X1865371Y1493946D01*
X1861021Y1491621D01*
X1857208Y1488492D01*
X1854079Y1484679D01*
X1851754Y1480329D01*
X1850322Y1475609D01*
X1849964Y1471970D01*
X1873730D01*
Y1495736D01*
D02*
G37*
G36*
X1821660D02*
Y1471970D01*
X1845426D01*
X1845068Y1475609D01*
X1843636Y1480329D01*
X1841311Y1484679D01*
X1838182Y1488492D01*
X1834369Y1491621D01*
X1830019Y1493946D01*
X1825299Y1495378D01*
X1821660Y1495736D01*
D02*
G37*
G36*
X1875000Y1555515D02*
X1870672Y1555175D01*
X1866451Y1554161D01*
X1862440Y1552500D01*
X1858739Y1550232D01*
X1855438Y1547412D01*
X1852618Y1544111D01*
X1850350Y1540410D01*
X1848689Y1536399D01*
X1848330Y1534905D01*
X1847060D01*
X1846701Y1536399D01*
X1845040Y1540410D01*
X1842772Y1544111D01*
X1839952Y1547412D01*
X1836651Y1550232D01*
X1832950Y1552500D01*
X1828939Y1554161D01*
X1824718Y1555175D01*
X1820390Y1555515D01*
X1816062Y1555175D01*
X1811841Y1554161D01*
X1807830Y1552500D01*
X1804129Y1550232D01*
X1800828Y1547412D01*
X1798008Y1544111D01*
X1795740Y1540410D01*
X1794079Y1536399D01*
X1793065Y1532178D01*
X1792725Y1527850D01*
X1793065Y1523522D01*
X1794079Y1519301D01*
X1795740Y1515290D01*
X1798008Y1511589D01*
X1800828Y1508288D01*
X1804129Y1505468D01*
X1807830Y1503200D01*
X1811841Y1501539D01*
X1816062Y1500525D01*
X1820390Y1500185D01*
X1824718Y1500525D01*
X1828939Y1501539D01*
X1832950Y1503200D01*
X1836651Y1505468D01*
X1839952Y1508288D01*
X1842772Y1511589D01*
X1845040Y1515290D01*
X1846701Y1519301D01*
X1847060Y1520795D01*
X1848330D01*
X1848689Y1519301D01*
X1850350Y1515290D01*
X1852618Y1511589D01*
X1855438Y1508288D01*
X1858739Y1505468D01*
X1862440Y1503200D01*
X1866451Y1501539D01*
X1870672Y1500525D01*
X1875000Y1500185D01*
X1879328Y1500525D01*
X1883549Y1501539D01*
X1887560Y1503200D01*
X1891261Y1505468D01*
X1894562Y1508288D01*
X1897382Y1511589D01*
X1899650Y1515290D01*
X1901311Y1519301D01*
X1902325Y1523522D01*
X1902665Y1527850D01*
X1902325Y1532178D01*
X1901311Y1536399D01*
X1899650Y1540410D01*
X1897382Y1544111D01*
X1894562Y1547412D01*
X1891261Y1550232D01*
X1887560Y1552500D01*
X1883549Y1554161D01*
X1879328Y1555175D01*
X1875000Y1555515D01*
D02*
G37*
G36*
X1876270Y1495736D02*
Y1471970D01*
X1900036D01*
X1899678Y1475609D01*
X1898246Y1480329D01*
X1895921Y1484679D01*
X1892792Y1488492D01*
X1888979Y1491621D01*
X1884629Y1493946D01*
X1879909Y1495378D01*
X1876270Y1495736D01*
D02*
G37*
G36*
X1873730Y1469430D02*
X1849964D01*
X1850322Y1465791D01*
X1851754Y1461071D01*
X1854079Y1456721D01*
X1857208Y1452908D01*
X1861021Y1449779D01*
X1865371Y1447454D01*
X1870091Y1446022D01*
X1873730Y1445664D01*
Y1469430D01*
D02*
G37*
G36*
X1845426D02*
X1821660D01*
Y1445664D01*
X1825299Y1446022D01*
X1830019Y1447454D01*
X1834369Y1449779D01*
X1838182Y1452908D01*
X1841311Y1456721D01*
X1843636Y1461071D01*
X1845068Y1465791D01*
X1845426Y1469430D01*
D02*
G37*
G36*
X1819120Y1495736D02*
X1815481Y1495378D01*
X1810761Y1493946D01*
X1806411Y1491621D01*
X1802598Y1488492D01*
X1799469Y1484679D01*
X1797144Y1480329D01*
X1795712Y1475609D01*
X1795354Y1471970D01*
X1819120D01*
Y1495736D01*
D02*
G37*
G36*
X1900036Y1469430D02*
X1876270D01*
Y1445664D01*
X1879909Y1446022D01*
X1884629Y1447454D01*
X1888979Y1449779D01*
X1892792Y1452908D01*
X1895921Y1456721D01*
X1898246Y1461071D01*
X1899678Y1465791D01*
X1900036Y1469430D01*
D02*
G37*
G36*
X1664461Y1121576D02*
X1647352D01*
Y1118502D01*
X1660138D01*
Y1110945D01*
X1661468Y1112566D01*
X1663178Y1115765D01*
X1664231Y1119236D01*
X1664461Y1121576D01*
D02*
G37*
G36*
X1644812D02*
X1627703D01*
X1627933Y1119236D01*
X1628986Y1115765D01*
X1630696Y1112566D01*
X1632272Y1110646D01*
X1632198Y1118502D01*
X1644812D01*
Y1121576D01*
D02*
G37*
G36*
Y1141225D02*
X1642472Y1140995D01*
X1639001Y1139942D01*
X1635802Y1138232D01*
X1632998Y1135930D01*
X1630696Y1133126D01*
X1628986Y1129927D01*
X1627933Y1126456D01*
X1627703Y1124116D01*
X1644812D01*
Y1141225D01*
D02*
G37*
G36*
X1395066Y1166314D02*
X1390897Y1165904D01*
X1386888Y1164688D01*
X1383193Y1162713D01*
X1379955Y1160055D01*
X1377297Y1156817D01*
X1375322Y1153122D01*
X1374106Y1149113D01*
X1373696Y1144944D01*
X1374106Y1140775D01*
X1375322Y1136766D01*
X1377297Y1133071D01*
X1379955Y1129833D01*
X1383193Y1127175D01*
X1386888Y1125200D01*
X1390897Y1123984D01*
X1395066Y1123574D01*
X1399235Y1123984D01*
X1403244Y1125200D01*
X1406939Y1127175D01*
X1410177Y1129833D01*
X1412835Y1133071D01*
X1414810Y1136766D01*
X1416026Y1140775D01*
X1416436Y1144944D01*
X1416026Y1149113D01*
X1414810Y1153122D01*
X1412835Y1156817D01*
X1410177Y1160055D01*
X1406939Y1162713D01*
X1403244Y1164688D01*
X1399235Y1165904D01*
X1395066Y1166314D01*
D02*
G37*
G36*
X1122352Y1041225D02*
Y1024116D01*
X1139461D01*
X1139231Y1026456D01*
X1138178Y1029927D01*
X1136468Y1033126D01*
X1134166Y1035930D01*
X1131362Y1038232D01*
X1128163Y1039942D01*
X1124692Y1040995D01*
X1122352Y1041225D01*
D02*
G37*
G36*
X1119812D02*
X1117472Y1040995D01*
X1114001Y1039942D01*
X1110802Y1038232D01*
X1107998Y1035930D01*
X1105696Y1033126D01*
X1103986Y1029927D01*
X1102934Y1026456D01*
X1102703Y1024116D01*
X1119812D01*
Y1041225D01*
D02*
G37*
G36*
X1375000Y1106370D02*
X1370831Y1105960D01*
X1366822Y1104744D01*
X1363127Y1102769D01*
X1359889Y1100111D01*
X1357231Y1096873D01*
X1355256Y1093178D01*
X1354040Y1089169D01*
X1353630Y1085000D01*
X1354040Y1080831D01*
X1355256Y1076822D01*
X1357231Y1073127D01*
X1359889Y1069889D01*
X1363127Y1067231D01*
X1366822Y1065256D01*
X1370831Y1064040D01*
X1375000Y1063630D01*
X1379169Y1064040D01*
X1383178Y1065256D01*
X1386873Y1067231D01*
X1390111Y1069889D01*
X1392769Y1073127D01*
X1394744Y1076822D01*
X1395960Y1080831D01*
X1396370Y1085000D01*
X1395960Y1089169D01*
X1394744Y1093178D01*
X1392769Y1096873D01*
X1390111Y1100111D01*
X1386873Y1102769D01*
X1383178Y1104744D01*
X1379169Y1105960D01*
X1375000Y1106370D01*
D02*
G37*
G36*
X1628810Y1108867D02*
X1624104Y1108404D01*
X1619579Y1107031D01*
X1615409Y1104802D01*
X1611754Y1101802D01*
X1608754Y1098147D01*
X1606525Y1093977D01*
X1605152Y1089452D01*
X1604689Y1084746D01*
X1605152Y1080040D01*
X1606525Y1075515D01*
X1608754Y1071345D01*
X1610759Y1068902D01*
X1610208Y1067571D01*
X1607430Y1067298D01*
X1603480Y1066100D01*
X1599840Y1064154D01*
X1596649Y1061535D01*
X1594030Y1058344D01*
X1592084Y1054704D01*
X1590886Y1050754D01*
X1590482Y1046646D01*
X1590886Y1042538D01*
X1592084Y1038588D01*
X1594030Y1034948D01*
X1596649Y1031757D01*
X1599840Y1029138D01*
X1603480Y1027192D01*
X1607430Y1025994D01*
X1611538Y1025590D01*
X1615646Y1025994D01*
X1619596Y1027192D01*
X1623236Y1029138D01*
X1626427Y1031757D01*
X1629046Y1034948D01*
X1630992Y1038588D01*
X1632190Y1042538D01*
X1632594Y1046646D01*
X1632190Y1050754D01*
X1630992Y1054704D01*
X1629046Y1058344D01*
X1628083Y1059518D01*
X1628682Y1060638D01*
X1628810Y1060625D01*
X1633516Y1061088D01*
X1638041Y1062461D01*
X1642211Y1064690D01*
X1645866Y1067690D01*
X1648866Y1071345D01*
X1651095Y1075515D01*
X1652468Y1080040D01*
X1652931Y1084746D01*
X1652468Y1089452D01*
X1651095Y1093977D01*
X1648866Y1098147D01*
X1645866Y1101802D01*
X1644087Y1103262D01*
D01*
X1638607Y1108743D01*
X1632633D01*
X1632532Y1108501D01*
X1628810Y1108867D01*
D02*
G37*
G36*
X1647352Y1141225D02*
Y1124116D01*
X1664461D01*
X1664231Y1126456D01*
X1663178Y1129927D01*
X1661468Y1133126D01*
X1659166Y1135930D01*
X1656362Y1138232D01*
X1653163Y1139942D01*
X1649692Y1140995D01*
X1647352Y1141225D01*
D02*
G37*
G36*
X1139461Y1321576D02*
X1122352D01*
Y1318260D01*
X1135380D01*
Y1311240D01*
X1136468Y1312566D01*
X1138178Y1315765D01*
X1139231Y1319236D01*
X1139461Y1321576D01*
D02*
G37*
G36*
X1119812D02*
X1102703D01*
X1102934Y1319236D01*
X1103986Y1315765D01*
X1105696Y1312566D01*
X1107515Y1310350D01*
X1107440Y1318260D01*
X1119812D01*
Y1321576D01*
D02*
G37*
G36*
X1122352Y1341225D02*
Y1324116D01*
X1139461D01*
X1139231Y1326456D01*
X1138178Y1329927D01*
X1136468Y1333126D01*
X1134166Y1335930D01*
X1131362Y1338232D01*
X1128163Y1339942D01*
X1124692Y1340995D01*
X1122352Y1341225D01*
D02*
G37*
G36*
X1119812D02*
X1117472Y1340995D01*
X1114001Y1339942D01*
X1110802Y1338232D01*
X1107998Y1335930D01*
X1105696Y1333126D01*
X1103986Y1329927D01*
X1102934Y1326456D01*
X1102703Y1324116D01*
X1119812D01*
Y1341225D01*
D02*
G37*
G36*
X1395066Y1346426D02*
X1390897Y1346016D01*
X1386888Y1344800D01*
X1383193Y1342825D01*
X1379955Y1340167D01*
X1377297Y1336929D01*
X1375322Y1333234D01*
X1374106Y1329225D01*
X1373696Y1325056D01*
X1374106Y1320887D01*
X1375322Y1316878D01*
X1377297Y1313183D01*
X1379955Y1309945D01*
X1383193Y1307287D01*
X1386888Y1305312D01*
X1390897Y1304096D01*
X1395066Y1303686D01*
X1399235Y1304096D01*
X1403244Y1305312D01*
X1406939Y1307287D01*
X1410177Y1309945D01*
X1412835Y1313183D01*
X1414810Y1316878D01*
X1416026Y1320887D01*
X1416436Y1325056D01*
X1416026Y1329225D01*
X1414810Y1333234D01*
X1412835Y1336929D01*
X1410177Y1340167D01*
X1406939Y1342825D01*
X1403244Y1344800D01*
X1399235Y1346016D01*
X1395066Y1346426D01*
D02*
G37*
G36*
X1103810Y1308867D02*
X1099104Y1308404D01*
X1094579Y1307031D01*
X1090409Y1304802D01*
X1086754Y1301802D01*
X1083754Y1298147D01*
X1081525Y1293977D01*
X1080152Y1289452D01*
X1079689Y1284746D01*
X1080152Y1280040D01*
X1081525Y1275515D01*
X1083754Y1271345D01*
X1085759Y1268902D01*
X1085208Y1267571D01*
X1082430Y1267298D01*
X1078480Y1266100D01*
X1074840Y1264154D01*
X1071649Y1261535D01*
X1069030Y1258344D01*
X1067084Y1254704D01*
X1065886Y1250754D01*
X1065482Y1246646D01*
X1065886Y1242538D01*
X1067084Y1238588D01*
X1069030Y1234948D01*
X1071649Y1231757D01*
X1074840Y1229138D01*
X1078480Y1227192D01*
X1082430Y1225994D01*
X1086538Y1225590D01*
X1090646Y1225994D01*
X1094596Y1227192D01*
X1098236Y1229138D01*
X1101427Y1231757D01*
X1104046Y1234948D01*
X1105992Y1238588D01*
X1107190Y1242538D01*
X1107594Y1246646D01*
X1107190Y1250754D01*
X1105992Y1254704D01*
X1104046Y1258344D01*
X1103083Y1259517D01*
X1103682Y1260638D01*
X1103810Y1260625D01*
X1108516Y1261088D01*
X1113041Y1262461D01*
X1117211Y1264690D01*
X1120866Y1267690D01*
X1123866Y1271345D01*
X1126095Y1275515D01*
X1127468Y1280040D01*
X1127931Y1284746D01*
X1127468Y1289452D01*
X1126095Y1293977D01*
X1123866Y1298147D01*
X1120866Y1301802D01*
X1119382Y1303020D01*
X1119330D01*
X1119087Y1303262D01*
X1119087Y1303262D01*
D01*
X1113849Y1308501D01*
X1107532D01*
D01*
X1103810Y1308867D01*
D02*
G37*
G36*
X1300000Y1333130D02*
X1296685Y1332693D01*
X1293595Y1331413D01*
X1290942Y1329378D01*
X1288907Y1326725D01*
X1287627Y1323635D01*
X1287190Y1320320D01*
X1287627Y1317005D01*
X1288907Y1313915D01*
X1290942Y1311262D01*
X1293595Y1309227D01*
X1296685Y1307947D01*
X1300000Y1307510D01*
X1303315Y1307947D01*
X1306405Y1309227D01*
X1309058Y1311262D01*
X1311093Y1313915D01*
X1312373Y1317005D01*
X1312810Y1320320D01*
X1312373Y1323635D01*
X1311093Y1326725D01*
X1309058Y1329378D01*
X1306405Y1331413D01*
X1303315Y1332693D01*
X1300000Y1333130D01*
D02*
G37*
G36*
X1516986Y1347952D02*
X1512817Y1347542D01*
X1508808Y1346326D01*
X1505113Y1344351D01*
X1501875Y1341693D01*
X1499217Y1338455D01*
X1497242Y1334760D01*
X1496026Y1330751D01*
X1495616Y1326582D01*
X1496026Y1322413D01*
X1497242Y1318404D01*
X1499217Y1314709D01*
X1501875Y1311471D01*
X1505113Y1308813D01*
X1508808Y1306838D01*
X1512817Y1305622D01*
X1516986Y1305212D01*
X1521155Y1305622D01*
X1525164Y1306838D01*
X1528859Y1308813D01*
X1532097Y1311471D01*
X1534755Y1314709D01*
X1536730Y1318404D01*
X1537946Y1322413D01*
X1538356Y1326582D01*
X1537946Y1330751D01*
X1536730Y1334760D01*
X1534755Y1338455D01*
X1532097Y1341693D01*
X1528859Y1344351D01*
X1525164Y1346326D01*
X1521155Y1347542D01*
X1516986Y1347952D01*
D02*
G37*
%LPD*%
D11*
X1470056Y569944D02*
X1610000Y430000D01*
X1395066Y569944D02*
X1470056D01*
X1610000Y430000D02*
X1725000D01*
X1820195Y525195D01*
X1820390Y525000D02*
X1875000D01*
X1877060Y302260D02*
Y304800D01*
D20*
X1300000Y743740D02*
D03*
Y444020D02*
D03*
Y1018060D02*
D03*
Y1320320D02*
D03*
D21*
X1877060Y267260D02*
D03*
Y302260D02*
D03*
X1831340D02*
D03*
Y267260D02*
D03*
X1894200Y1300060D02*
D03*
X1848480D02*
D03*
Y1264910D02*
D03*
X1894200Y1265060D02*
D03*
Y1230060D02*
D03*
X1848200D02*
D03*
Y1195060D02*
D03*
X1894200D02*
D03*
D22*
X850000Y985000D02*
D03*
X870066Y925056D02*
D03*
Y1044944D02*
D03*
X991986Y926582D02*
D03*
X850000Y685000D02*
D03*
X870066Y625056D02*
D03*
Y744944D02*
D03*
X991986Y626582D02*
D03*
X1375000Y1085000D02*
D03*
X1395066Y1025056D02*
D03*
Y1144944D02*
D03*
X1516986Y1026582D02*
D03*
X850000Y1285000D02*
D03*
X870066Y1225056D02*
D03*
Y1344944D02*
D03*
X991986Y1226582D02*
D03*
X1375000Y1385000D02*
D03*
X1395066Y1325056D02*
D03*
Y1444944D02*
D03*
X1516986Y1326582D02*
D03*
X1375000Y810000D02*
D03*
X1395066Y750056D02*
D03*
Y869944D02*
D03*
X1516986Y751582D02*
D03*
X1375000Y510000D02*
D03*
X1395066Y450056D02*
D03*
Y569944D02*
D03*
X1516986Y451582D02*
D03*
D23*
X1086538Y946646D02*
D03*
X1121082Y1022846D02*
D03*
X1086538Y646646D02*
D03*
X1121082Y722846D02*
D03*
X1611538Y1046646D02*
D03*
X1646082Y1122846D02*
D03*
X1086538Y1246646D02*
D03*
X1121082Y1322846D02*
D03*
X1611538Y1346646D02*
D03*
X1646082Y1422846D02*
D03*
X1611538Y771646D02*
D03*
X1646082Y847846D02*
D03*
X1648462Y548354D02*
D03*
X1613918Y472154D02*
D03*
D24*
X1875000Y525000D02*
D03*
X1820390D02*
D03*
X1875000Y710000D02*
D03*
X1820390D02*
D03*
X1875000Y1585000D02*
D03*
X1820390D02*
D03*
Y1527850D02*
D03*
X1875000D02*
D03*
Y1470700D02*
D03*
X1820390D02*
D03*
X1875000Y1019300D02*
D03*
X1820390D02*
D03*
Y962150D02*
D03*
X1875000D02*
D03*
Y905000D02*
D03*
X1820390D02*
D03*
D36*
X1645920Y1126490D02*
D03*
D37*
X1646971Y850900D02*
D03*
D38*
X1649730Y551180D02*
D03*
D39*
X1120140Y726440D02*
D03*
D40*
X1121410Y1026160D02*
D03*
D41*
X1123950Y1325880D02*
D03*
D42*
X1856390Y710000D02*
D03*
D43*
X1852500Y1466800D02*
D03*
D44*
X1648460Y1427480D02*
D03*
M02*
