%FSLAX44Y44*%
%MOMM*%
G71*
G01*
G75*
G04 Layer_Color=255*
%ADD10R,1.7500X2.6500*%
%ADD11C,1.0000*%
%ADD12C,3.0000*%
%ADD13R,9.5000X6.8580*%
%ADD14R,8.5000X7.3660*%
%ADD15R,38.5000X6.5000*%
%ADD16R,14.5000X16.0000*%
%ADD17R,22.0000X11.0000*%
%ADD18R,14.5000X10.5160*%
%ADD19R,4.3180X4.3180*%
%ADD20C,4.5000*%
%ADD21C,3.1750*%
%ADD22C,3.2375*%
%ADD23C,2.5500*%
%ADD24C,1.5240*%
%ADD25R,3.3020X2.3608*%
%ADD26R,3.5560X2.2860*%
%ADD27R,3.7348X2.9724*%
%ADD28R,11.6906X5.2607*%
%ADD29R,12.5000X107.5000*%
%ADD30R,4.5720X4.3180*%
%ADD31R,3.3020X3.3020*%
%ADD32R,21.0820X16.2560*%
%ADD33R,11.1760X5.3340*%
%ADD34R,4.3180X4.5720*%
%ADD35R,4.3180X4.8260*%
%ADD36R,4.5720X3.5560*%
%ADD37R,12.5000X6.3600*%
%ADD38R,13.2780X8.0000*%
%ADD39R,4.3180X3.0480*%
%ADD40R,4.3180X3.5560*%
%ADD41R,5.5880X3.5560*%
%ADD42R,5.3340X3.0480*%
%ADD43R,3.8537X3.0480*%
%ADD44R,4.0640X3.3020*%
D20*
X1820390Y905000D02*
D03*
X1875000D02*
D03*
Y962150D02*
D03*
X1820390D02*
D03*
Y1019300D02*
D03*
X1875000D02*
D03*
X1820390Y1470700D02*
D03*
X1875000D02*
D03*
Y1527850D02*
D03*
X1820390D02*
D03*
Y1585000D02*
D03*
X1875000D02*
D03*
X1820390Y710000D02*
D03*
X1875000D02*
D03*
X1820390Y525000D02*
D03*
X1875000D02*
D03*
D21*
X1613918Y472154D02*
D03*
X1648462Y548354D02*
D03*
X1646082Y847846D02*
D03*
X1611538Y771646D02*
D03*
X1646082Y1422846D02*
D03*
X1611538Y1346646D02*
D03*
X1121082Y1322846D02*
D03*
X1086538Y1246646D02*
D03*
X1646082Y1122846D02*
D03*
X1611538Y1046646D02*
D03*
X1121082Y722846D02*
D03*
X1086538Y646646D02*
D03*
X1121082Y1022846D02*
D03*
X1086538Y946646D02*
D03*
D22*
X1516986Y451582D02*
D03*
X1395066Y569944D02*
D03*
Y450056D02*
D03*
X1375000Y510000D02*
D03*
X1516986Y751582D02*
D03*
X1395066Y869944D02*
D03*
Y750056D02*
D03*
X1375000Y810000D02*
D03*
X1516986Y1326582D02*
D03*
X1395066Y1444944D02*
D03*
Y1325056D02*
D03*
X1375000Y1385000D02*
D03*
X991986Y1226582D02*
D03*
X870066Y1344944D02*
D03*
Y1225056D02*
D03*
X850000Y1285000D02*
D03*
X1516986Y1026582D02*
D03*
X1395066Y1144944D02*
D03*
Y1025056D02*
D03*
X1375000Y1085000D02*
D03*
X991986Y626582D02*
D03*
X870066Y744944D02*
D03*
Y625056D02*
D03*
X850000Y685000D02*
D03*
X991986Y926582D02*
D03*
X870066Y1044944D02*
D03*
Y925056D02*
D03*
X850000Y985000D02*
D03*
D23*
X1894200Y1195060D02*
D03*
X1848200D02*
D03*
Y1230060D02*
D03*
X1894200D02*
D03*
Y1265060D02*
D03*
X1848480Y1264910D02*
D03*
Y1300060D02*
D03*
X1894200D02*
D03*
X1831340Y267260D02*
D03*
Y302260D02*
D03*
X1877060D02*
D03*
Y267260D02*
D03*
D24*
X1300000Y1320320D02*
D03*
Y1018060D02*
D03*
Y444020D02*
D03*
Y743740D02*
D03*
M02*
